<?xml version="1.0" encoding="utf-8" standalone="no"?>
<!DOCTYPE svg PUBLIC "-//W3C//DTD SVG 1.1//EN"
  "http://www.w3.org/Graphics/SVG/1.1/DTD/svg11.dtd">
<!-- Created with matplotlib (https://matplotlib.org/) -->
<svg height="504pt" version="1.1" viewBox="0 0 1008 504" width="1008pt" xmlns="http://www.w3.org/2000/svg" xmlns:xlink="http://www.w3.org/1999/xlink">
 <metadata>
  <rdf:RDF xmlns:cc="http://creativecommons.org/ns#" xmlns:dc="http://purl.org/dc/elements/1.1/" xmlns:rdf="http://www.w3.org/1999/02/22-rdf-syntax-ns#">
   <cc:Work>
    <dc:type rdf:resource="http://purl.org/dc/dcmitype/StillImage"/>
    <dc:date>2022-03-22T14:24:14.380062</dc:date>
    <dc:format>image/svg+xml</dc:format>
    <dc:creator>
     <cc:Agent>
      <dc:title>Matplotlib v3.3.4, https://matplotlib.org/</dc:title>
     </cc:Agent>
    </dc:creator>
   </cc:Work>
  </rdf:RDF>
 </metadata>
 <defs>
  <style type="text/css">*{stroke-linecap:butt;stroke-linejoin:round;}</style>
 </defs>
 <g id="figure_1">
  <g id="patch_1">
   <path d="M 0 504 
L 1008 504 
L 1008 0 
L 0 0 
z
" style="fill:#ffffff;"/>
  </g>
  <g id="axes_1">
   <g id="patch_2">
    <path d="M 126 441 
L 907.2 441 
L 907.2 60.48 
L 126 60.48 
z
" style="fill:#ffffff;"/>
   </g>
   <g id="matplotlib.axis_1">
    <g id="xtick_1">
     <g id="line2d_1">
      <defs>
       <path d="M 0 0 
L 0 3.5 
" id="mb546388e33" style="stroke:#000000;stroke-width:0.8;"/>
      </defs>
      <g>
       <use style="stroke:#000000;stroke-width:0.8;" x="161.509091" xlink:href="#mb546388e33" y="441"/>
      </g>
     </g>
     <g id="text_1">
      <!-- 0.00 -->
      <g transform="translate(150.376278 455.598437)scale(0.1 -0.1)">
       <defs>
        <path d="M 31.78125 66.40625 
Q 24.171875 66.40625 20.328125 58.90625 
Q 16.5 51.421875 16.5 36.375 
Q 16.5 21.390625 20.328125 13.890625 
Q 24.171875 6.390625 31.78125 6.390625 
Q 39.453125 6.390625 43.28125 13.890625 
Q 47.125 21.390625 47.125 36.375 
Q 47.125 51.421875 43.28125 58.90625 
Q 39.453125 66.40625 31.78125 66.40625 
z
M 31.78125 74.21875 
Q 44.046875 74.21875 50.515625 64.515625 
Q 56.984375 54.828125 56.984375 36.375 
Q 56.984375 17.96875 50.515625 8.265625 
Q 44.046875 -1.421875 31.78125 -1.421875 
Q 19.53125 -1.421875 13.0625 8.265625 
Q 6.59375 17.96875 6.59375 36.375 
Q 6.59375 54.828125 13.0625 64.515625 
Q 19.53125 74.21875 31.78125 74.21875 
z
" id="DejaVuSans-48"/>
        <path d="M 10.6875 12.40625 
L 21 12.40625 
L 21 0 
L 10.6875 0 
z
" id="DejaVuSans-46"/>
       </defs>
       <use xlink:href="#DejaVuSans-48"/>
       <use x="63.623047" xlink:href="#DejaVuSans-46"/>
       <use x="95.410156" xlink:href="#DejaVuSans-48"/>
       <use x="159.033203" xlink:href="#DejaVuSans-48"/>
      </g>
     </g>
    </g>
    <g id="xtick_2">
     <g id="line2d_2">
      <g>
       <use style="stroke:#000000;stroke-width:0.8;" x="303.545455" xlink:href="#mb546388e33" y="441"/>
      </g>
     </g>
     <g id="text_2">
      <!-- 0.05 -->
      <g transform="translate(292.412642 455.598437)scale(0.1 -0.1)">
       <defs>
        <path d="M 10.796875 72.90625 
L 49.515625 72.90625 
L 49.515625 64.59375 
L 19.828125 64.59375 
L 19.828125 46.734375 
Q 21.96875 47.46875 24.109375 47.828125 
Q 26.265625 48.1875 28.421875 48.1875 
Q 40.625 48.1875 47.75 41.5 
Q 54.890625 34.8125 54.890625 23.390625 
Q 54.890625 11.625 47.5625 5.09375 
Q 40.234375 -1.421875 26.90625 -1.421875 
Q 22.3125 -1.421875 17.546875 -0.640625 
Q 12.796875 0.140625 7.71875 1.703125 
L 7.71875 11.625 
Q 12.109375 9.234375 16.796875 8.0625 
Q 21.484375 6.890625 26.703125 6.890625 
Q 35.15625 6.890625 40.078125 11.328125 
Q 45.015625 15.765625 45.015625 23.390625 
Q 45.015625 31 40.078125 35.4375 
Q 35.15625 39.890625 26.703125 39.890625 
Q 22.75 39.890625 18.8125 39.015625 
Q 14.890625 38.140625 10.796875 36.28125 
z
" id="DejaVuSans-53"/>
       </defs>
       <use xlink:href="#DejaVuSans-48"/>
       <use x="63.623047" xlink:href="#DejaVuSans-46"/>
       <use x="95.410156" xlink:href="#DejaVuSans-48"/>
       <use x="159.033203" xlink:href="#DejaVuSans-53"/>
      </g>
     </g>
    </g>
    <g id="xtick_3">
     <g id="line2d_3">
      <g>
       <use style="stroke:#000000;stroke-width:0.8;" x="445.581818" xlink:href="#mb546388e33" y="441"/>
      </g>
     </g>
     <g id="text_3">
      <!-- 0.10 -->
      <g transform="translate(434.449006 455.598437)scale(0.1 -0.1)">
       <defs>
        <path d="M 12.40625 8.296875 
L 28.515625 8.296875 
L 28.515625 63.921875 
L 10.984375 60.40625 
L 10.984375 69.390625 
L 28.421875 72.90625 
L 38.28125 72.90625 
L 38.28125 8.296875 
L 54.390625 8.296875 
L 54.390625 0 
L 12.40625 0 
z
" id="DejaVuSans-49"/>
       </defs>
       <use xlink:href="#DejaVuSans-48"/>
       <use x="63.623047" xlink:href="#DejaVuSans-46"/>
       <use x="95.410156" xlink:href="#DejaVuSans-49"/>
       <use x="159.033203" xlink:href="#DejaVuSans-48"/>
      </g>
     </g>
    </g>
    <g id="xtick_4">
     <g id="line2d_4">
      <g>
       <use style="stroke:#000000;stroke-width:0.8;" x="587.618182" xlink:href="#mb546388e33" y="441"/>
      </g>
     </g>
     <g id="text_4">
      <!-- 0.15 -->
      <g transform="translate(576.485369 455.598437)scale(0.1 -0.1)">
       <use xlink:href="#DejaVuSans-48"/>
       <use x="63.623047" xlink:href="#DejaVuSans-46"/>
       <use x="95.410156" xlink:href="#DejaVuSans-49"/>
       <use x="159.033203" xlink:href="#DejaVuSans-53"/>
      </g>
     </g>
    </g>
    <g id="xtick_5">
     <g id="line2d_5">
      <g>
       <use style="stroke:#000000;stroke-width:0.8;" x="729.654545" xlink:href="#mb546388e33" y="441"/>
      </g>
     </g>
     <g id="text_5">
      <!-- 0.20 -->
      <g transform="translate(718.521733 455.598437)scale(0.1 -0.1)">
       <defs>
        <path d="M 19.1875 8.296875 
L 53.609375 8.296875 
L 53.609375 0 
L 7.328125 0 
L 7.328125 8.296875 
Q 12.9375 14.109375 22.625 23.890625 
Q 32.328125 33.6875 34.8125 36.53125 
Q 39.546875 41.84375 41.421875 45.53125 
Q 43.3125 49.21875 43.3125 52.78125 
Q 43.3125 58.59375 39.234375 62.25 
Q 35.15625 65.921875 28.609375 65.921875 
Q 23.96875 65.921875 18.8125 64.3125 
Q 13.671875 62.703125 7.8125 59.421875 
L 7.8125 69.390625 
Q 13.765625 71.78125 18.9375 73 
Q 24.125 74.21875 28.421875 74.21875 
Q 39.75 74.21875 46.484375 68.546875 
Q 53.21875 62.890625 53.21875 53.421875 
Q 53.21875 48.921875 51.53125 44.890625 
Q 49.859375 40.875 45.40625 35.40625 
Q 44.1875 33.984375 37.640625 27.21875 
Q 31.109375 20.453125 19.1875 8.296875 
z
" id="DejaVuSans-50"/>
       </defs>
       <use xlink:href="#DejaVuSans-48"/>
       <use x="63.623047" xlink:href="#DejaVuSans-46"/>
       <use x="95.410156" xlink:href="#DejaVuSans-50"/>
       <use x="159.033203" xlink:href="#DejaVuSans-48"/>
      </g>
     </g>
    </g>
    <g id="xtick_6">
     <g id="line2d_6">
      <g>
       <use style="stroke:#000000;stroke-width:0.8;" x="871.690909" xlink:href="#mb546388e33" y="441"/>
      </g>
     </g>
     <g id="text_6">
      <!-- 0.25 -->
      <g transform="translate(860.558097 455.598437)scale(0.1 -0.1)">
       <use xlink:href="#DejaVuSans-48"/>
       <use x="63.623047" xlink:href="#DejaVuSans-46"/>
       <use x="95.410156" xlink:href="#DejaVuSans-50"/>
       <use x="159.033203" xlink:href="#DejaVuSans-53"/>
      </g>
     </g>
    </g>
    <g id="text_7">
     <!-- Time (s) -->
     <g transform="translate(496.271094 469.276563)scale(0.1 -0.1)">
      <defs>
       <path d="M -0.296875 72.90625 
L 61.375 72.90625 
L 61.375 64.59375 
L 35.5 64.59375 
L 35.5 0 
L 25.59375 0 
L 25.59375 64.59375 
L -0.296875 64.59375 
z
" id="DejaVuSans-84"/>
       <path d="M 9.421875 54.6875 
L 18.40625 54.6875 
L 18.40625 0 
L 9.421875 0 
z
M 9.421875 75.984375 
L 18.40625 75.984375 
L 18.40625 64.59375 
L 9.421875 64.59375 
z
" id="DejaVuSans-105"/>
       <path d="M 52 44.1875 
Q 55.375 50.25 60.0625 53.125 
Q 64.75 56 71.09375 56 
Q 79.640625 56 84.28125 50.015625 
Q 88.921875 44.046875 88.921875 33.015625 
L 88.921875 0 
L 79.890625 0 
L 79.890625 32.71875 
Q 79.890625 40.578125 77.09375 44.375 
Q 74.3125 48.1875 68.609375 48.1875 
Q 61.625 48.1875 57.5625 43.546875 
Q 53.515625 38.921875 53.515625 30.90625 
L 53.515625 0 
L 44.484375 0 
L 44.484375 32.71875 
Q 44.484375 40.625 41.703125 44.40625 
Q 38.921875 48.1875 33.109375 48.1875 
Q 26.21875 48.1875 22.15625 43.53125 
Q 18.109375 38.875 18.109375 30.90625 
L 18.109375 0 
L 9.078125 0 
L 9.078125 54.6875 
L 18.109375 54.6875 
L 18.109375 46.1875 
Q 21.1875 51.21875 25.484375 53.609375 
Q 29.78125 56 35.6875 56 
Q 41.65625 56 45.828125 52.96875 
Q 50 49.953125 52 44.1875 
z
" id="DejaVuSans-109"/>
       <path d="M 56.203125 29.59375 
L 56.203125 25.203125 
L 14.890625 25.203125 
Q 15.484375 15.921875 20.484375 11.0625 
Q 25.484375 6.203125 34.421875 6.203125 
Q 39.59375 6.203125 44.453125 7.46875 
Q 49.3125 8.734375 54.109375 11.28125 
L 54.109375 2.78125 
Q 49.265625 0.734375 44.1875 -0.34375 
Q 39.109375 -1.421875 33.890625 -1.421875 
Q 20.796875 -1.421875 13.15625 6.1875 
Q 5.515625 13.8125 5.515625 26.8125 
Q 5.515625 40.234375 12.765625 48.109375 
Q 20.015625 56 32.328125 56 
Q 43.359375 56 49.78125 48.890625 
Q 56.203125 41.796875 56.203125 29.59375 
z
M 47.21875 32.234375 
Q 47.125 39.59375 43.09375 43.984375 
Q 39.0625 48.390625 32.421875 48.390625 
Q 24.90625 48.390625 20.390625 44.140625 
Q 15.875 39.890625 15.1875 32.171875 
z
" id="DejaVuSans-101"/>
       <path id="DejaVuSans-32"/>
       <path d="M 31 75.875 
Q 24.46875 64.65625 21.28125 53.65625 
Q 18.109375 42.671875 18.109375 31.390625 
Q 18.109375 20.125 21.3125 9.0625 
Q 24.515625 -2 31 -13.1875 
L 23.1875 -13.1875 
Q 15.875 -1.703125 12.234375 9.375 
Q 8.59375 20.453125 8.59375 31.390625 
Q 8.59375 42.28125 12.203125 53.3125 
Q 15.828125 64.359375 23.1875 75.875 
z
" id="DejaVuSans-40"/>
       <path d="M 44.28125 53.078125 
L 44.28125 44.578125 
Q 40.484375 46.53125 36.375 47.5 
Q 32.28125 48.484375 27.875 48.484375 
Q 21.1875 48.484375 17.84375 46.4375 
Q 14.5 44.390625 14.5 40.28125 
Q 14.5 37.15625 16.890625 35.375 
Q 19.28125 33.59375 26.515625 31.984375 
L 29.59375 31.296875 
Q 39.15625 29.25 43.1875 25.515625 
Q 47.21875 21.78125 47.21875 15.09375 
Q 47.21875 7.46875 41.1875 3.015625 
Q 35.15625 -1.421875 24.609375 -1.421875 
Q 20.21875 -1.421875 15.453125 -0.5625 
Q 10.6875 0.296875 5.421875 2 
L 5.421875 11.28125 
Q 10.40625 8.6875 15.234375 7.390625 
Q 20.0625 6.109375 24.8125 6.109375 
Q 31.15625 6.109375 34.5625 8.28125 
Q 37.984375 10.453125 37.984375 14.40625 
Q 37.984375 18.0625 35.515625 20.015625 
Q 33.0625 21.96875 24.703125 23.78125 
L 21.578125 24.515625 
Q 13.234375 26.265625 9.515625 29.90625 
Q 5.8125 33.546875 5.8125 39.890625 
Q 5.8125 47.609375 11.28125 51.796875 
Q 16.75 56 26.8125 56 
Q 31.78125 56 36.171875 55.265625 
Q 40.578125 54.546875 44.28125 53.078125 
z
" id="DejaVuSans-115"/>
       <path d="M 8.015625 75.875 
L 15.828125 75.875 
Q 23.140625 64.359375 26.78125 53.3125 
Q 30.421875 42.28125 30.421875 31.390625 
Q 30.421875 20.453125 26.78125 9.375 
Q 23.140625 -1.703125 15.828125 -13.1875 
L 8.015625 -13.1875 
Q 14.5 -2 17.703125 9.0625 
Q 20.90625 20.125 20.90625 31.390625 
Q 20.90625 42.671875 17.703125 53.65625 
Q 14.5 64.65625 8.015625 75.875 
z
" id="DejaVuSans-41"/>
      </defs>
      <use xlink:href="#DejaVuSans-84"/>
      <use x="57.958984" xlink:href="#DejaVuSans-105"/>
      <use x="85.742188" xlink:href="#DejaVuSans-109"/>
      <use x="183.154297" xlink:href="#DejaVuSans-101"/>
      <use x="244.677734" xlink:href="#DejaVuSans-32"/>
      <use x="276.464844" xlink:href="#DejaVuSans-40"/>
      <use x="315.478516" xlink:href="#DejaVuSans-115"/>
      <use x="367.578125" xlink:href="#DejaVuSans-41"/>
     </g>
    </g>
   </g>
   <g id="matplotlib.axis_2">
    <g id="ytick_1">
     <g id="line2d_7">
      <defs>
       <path d="M 0 0 
L -3.5 0 
" id="mc8ab1b1999" style="stroke:#000000;stroke-width:0.8;"/>
      </defs>
      <g>
       <use style="stroke:#000000;stroke-width:0.8;" x="126" xlink:href="#mc8ab1b1999" y="427.379349"/>
      </g>
     </g>
     <g id="text_8">
      <!-- −20 -->
      <g transform="translate(97.895313 431.178568)scale(0.1 -0.1)">
       <defs>
        <path d="M 10.59375 35.5 
L 73.1875 35.5 
L 73.1875 27.203125 
L 10.59375 27.203125 
z
" id="DejaVuSans-8722"/>
       </defs>
       <use xlink:href="#DejaVuSans-8722"/>
       <use x="83.789062" xlink:href="#DejaVuSans-50"/>
       <use x="147.412109" xlink:href="#DejaVuSans-48"/>
      </g>
     </g>
    </g>
    <g id="ytick_2">
     <g id="line2d_8">
      <g>
       <use style="stroke:#000000;stroke-width:0.8;" x="126" xlink:href="#mc8ab1b1999" y="359.17254"/>
      </g>
     </g>
     <g id="text_9">
      <!-- −10 -->
      <g transform="translate(97.895313 362.971758)scale(0.1 -0.1)">
       <use xlink:href="#DejaVuSans-8722"/>
       <use x="83.789062" xlink:href="#DejaVuSans-49"/>
       <use x="147.412109" xlink:href="#DejaVuSans-48"/>
      </g>
     </g>
    </g>
    <g id="ytick_3">
     <g id="line2d_9">
      <g>
       <use style="stroke:#000000;stroke-width:0.8;" x="126" xlink:href="#mc8ab1b1999" y="290.96573"/>
      </g>
     </g>
     <g id="text_10">
      <!-- 0 -->
      <g transform="translate(112.6375 294.764949)scale(0.1 -0.1)">
       <use xlink:href="#DejaVuSans-48"/>
      </g>
     </g>
    </g>
    <g id="ytick_4">
     <g id="line2d_10">
      <g>
       <use style="stroke:#000000;stroke-width:0.8;" x="126" xlink:href="#mc8ab1b1999" y="222.75892"/>
      </g>
     </g>
     <g id="text_11">
      <!-- 10 -->
      <g transform="translate(106.275 226.558139)scale(0.1 -0.1)">
       <use xlink:href="#DejaVuSans-49"/>
       <use x="63.623047" xlink:href="#DejaVuSans-48"/>
      </g>
     </g>
    </g>
    <g id="ytick_5">
     <g id="line2d_11">
      <g>
       <use style="stroke:#000000;stroke-width:0.8;" x="126" xlink:href="#mc8ab1b1999" y="154.552111"/>
      </g>
     </g>
     <g id="text_12">
      <!-- 20 -->
      <g transform="translate(106.275 158.35133)scale(0.1 -0.1)">
       <use xlink:href="#DejaVuSans-50"/>
       <use x="63.623047" xlink:href="#DejaVuSans-48"/>
      </g>
     </g>
    </g>
    <g id="ytick_6">
     <g id="line2d_12">
      <g>
       <use style="stroke:#000000;stroke-width:0.8;" x="126" xlink:href="#mc8ab1b1999" y="86.345301"/>
      </g>
     </g>
     <g id="text_13">
      <!-- 30 -->
      <g transform="translate(106.275 90.14452)scale(0.1 -0.1)">
       <defs>
        <path d="M 40.578125 39.3125 
Q 47.65625 37.796875 51.625 33 
Q 55.609375 28.21875 55.609375 21.1875 
Q 55.609375 10.40625 48.1875 4.484375 
Q 40.765625 -1.421875 27.09375 -1.421875 
Q 22.515625 -1.421875 17.65625 -0.515625 
Q 12.796875 0.390625 7.625 2.203125 
L 7.625 11.71875 
Q 11.71875 9.328125 16.59375 8.109375 
Q 21.484375 6.890625 26.8125 6.890625 
Q 36.078125 6.890625 40.9375 10.546875 
Q 45.796875 14.203125 45.796875 21.1875 
Q 45.796875 27.640625 41.28125 31.265625 
Q 36.765625 34.90625 28.71875 34.90625 
L 20.21875 34.90625 
L 20.21875 43.015625 
L 29.109375 43.015625 
Q 36.375 43.015625 40.234375 45.921875 
Q 44.09375 48.828125 44.09375 54.296875 
Q 44.09375 59.90625 40.109375 62.90625 
Q 36.140625 65.921875 28.71875 65.921875 
Q 24.65625 65.921875 20.015625 65.03125 
Q 15.375 64.15625 9.8125 62.3125 
L 9.8125 71.09375 
Q 15.4375 72.65625 20.34375 73.4375 
Q 25.25 74.21875 29.59375 74.21875 
Q 40.828125 74.21875 47.359375 69.109375 
Q 53.90625 64.015625 53.90625 55.328125 
Q 53.90625 49.265625 50.4375 45.09375 
Q 46.96875 40.921875 40.578125 39.3125 
z
" id="DejaVuSans-51"/>
       </defs>
       <use xlink:href="#DejaVuSans-51"/>
       <use x="63.623047" xlink:href="#DejaVuSans-48"/>
      </g>
     </g>
    </g>
    <g id="text_14">
     <!-- Voltage (μV) -->
     <g transform="translate(91.815625 281.588437)rotate(-90)scale(0.1 -0.1)">
      <defs>
       <path d="M 28.609375 0 
L 0.78125 72.90625 
L 11.078125 72.90625 
L 34.1875 11.53125 
L 57.328125 72.90625 
L 67.578125 72.90625 
L 39.796875 0 
z
" id="DejaVuSans-86"/>
       <path d="M 30.609375 48.390625 
Q 23.390625 48.390625 19.1875 42.75 
Q 14.984375 37.109375 14.984375 27.296875 
Q 14.984375 17.484375 19.15625 11.84375 
Q 23.34375 6.203125 30.609375 6.203125 
Q 37.796875 6.203125 41.984375 11.859375 
Q 46.1875 17.53125 46.1875 27.296875 
Q 46.1875 37.015625 41.984375 42.703125 
Q 37.796875 48.390625 30.609375 48.390625 
z
M 30.609375 56 
Q 42.328125 56 49.015625 48.375 
Q 55.71875 40.765625 55.71875 27.296875 
Q 55.71875 13.875 49.015625 6.21875 
Q 42.328125 -1.421875 30.609375 -1.421875 
Q 18.84375 -1.421875 12.171875 6.21875 
Q 5.515625 13.875 5.515625 27.296875 
Q 5.515625 40.765625 12.171875 48.375 
Q 18.84375 56 30.609375 56 
z
" id="DejaVuSans-111"/>
       <path d="M 9.421875 75.984375 
L 18.40625 75.984375 
L 18.40625 0 
L 9.421875 0 
z
" id="DejaVuSans-108"/>
       <path d="M 18.3125 70.21875 
L 18.3125 54.6875 
L 36.8125 54.6875 
L 36.8125 47.703125 
L 18.3125 47.703125 
L 18.3125 18.015625 
Q 18.3125 11.328125 20.140625 9.421875 
Q 21.96875 7.515625 27.59375 7.515625 
L 36.8125 7.515625 
L 36.8125 0 
L 27.59375 0 
Q 17.1875 0 13.234375 3.875 
Q 9.28125 7.765625 9.28125 18.015625 
L 9.28125 47.703125 
L 2.6875 47.703125 
L 2.6875 54.6875 
L 9.28125 54.6875 
L 9.28125 70.21875 
z
" id="DejaVuSans-116"/>
       <path d="M 34.28125 27.484375 
Q 23.390625 27.484375 19.1875 25 
Q 14.984375 22.515625 14.984375 16.5 
Q 14.984375 11.71875 18.140625 8.90625 
Q 21.296875 6.109375 26.703125 6.109375 
Q 34.1875 6.109375 38.703125 11.40625 
Q 43.21875 16.703125 43.21875 25.484375 
L 43.21875 27.484375 
z
M 52.203125 31.203125 
L 52.203125 0 
L 43.21875 0 
L 43.21875 8.296875 
Q 40.140625 3.328125 35.546875 0.953125 
Q 30.953125 -1.421875 24.3125 -1.421875 
Q 15.921875 -1.421875 10.953125 3.296875 
Q 6 8.015625 6 15.921875 
Q 6 25.140625 12.171875 29.828125 
Q 18.359375 34.515625 30.609375 34.515625 
L 43.21875 34.515625 
L 43.21875 35.40625 
Q 43.21875 41.609375 39.140625 45 
Q 35.0625 48.390625 27.6875 48.390625 
Q 23 48.390625 18.546875 47.265625 
Q 14.109375 46.140625 10.015625 43.890625 
L 10.015625 52.203125 
Q 14.9375 54.109375 19.578125 55.046875 
Q 24.21875 56 28.609375 56 
Q 40.484375 56 46.34375 49.84375 
Q 52.203125 43.703125 52.203125 31.203125 
z
" id="DejaVuSans-97"/>
       <path d="M 45.40625 27.984375 
Q 45.40625 37.75 41.375 43.109375 
Q 37.359375 48.484375 30.078125 48.484375 
Q 22.859375 48.484375 18.828125 43.109375 
Q 14.796875 37.75 14.796875 27.984375 
Q 14.796875 18.265625 18.828125 12.890625 
Q 22.859375 7.515625 30.078125 7.515625 
Q 37.359375 7.515625 41.375 12.890625 
Q 45.40625 18.265625 45.40625 27.984375 
z
M 54.390625 6.78125 
Q 54.390625 -7.171875 48.1875 -13.984375 
Q 42 -20.796875 29.203125 -20.796875 
Q 24.46875 -20.796875 20.265625 -20.09375 
Q 16.0625 -19.390625 12.109375 -17.921875 
L 12.109375 -9.1875 
Q 16.0625 -11.328125 19.921875 -12.34375 
Q 23.78125 -13.375 27.78125 -13.375 
Q 36.625 -13.375 41.015625 -8.765625 
Q 45.40625 -4.15625 45.40625 5.171875 
L 45.40625 9.625 
Q 42.625 4.78125 38.28125 2.390625 
Q 33.9375 0 27.875 0 
Q 17.828125 0 11.671875 7.65625 
Q 5.515625 15.328125 5.515625 27.984375 
Q 5.515625 40.671875 11.671875 48.328125 
Q 17.828125 56 27.875 56 
Q 33.9375 56 38.28125 53.609375 
Q 42.625 51.21875 45.40625 46.390625 
L 45.40625 54.6875 
L 54.390625 54.6875 
z
" id="DejaVuSans-103"/>
       <path d="M 8.5 -20.796875 
L 8.5 54.6875 
L 17.484375 54.6875 
L 17.484375 20.703125 
Q 17.484375 13.625 20.84375 10 
Q 24.21875 6.390625 30.8125 6.390625 
Q 38.03125 6.390625 41.671875 10.484375 
Q 45.3125 14.59375 45.3125 22.796875 
L 45.3125 54.6875 
L 54.296875 54.6875 
L 54.296875 12.59375 
Q 54.296875 9.671875 55.140625 8.28125 
Q 56 6.890625 57.8125 6.890625 
Q 58.25 6.890625 59.03125 7.15625 
Q 59.8125 7.421875 61.1875 8.015625 
L 61.1875 0.78125 
Q 59.1875 -0.34375 57.390625 -0.875 
Q 55.609375 -1.421875 53.90625 -1.421875 
Q 50.53125 -1.421875 48.53125 0.484375 
Q 46.53125 2.390625 45.796875 6.296875 
Q 43.359375 2.4375 39.8125 0.5 
Q 36.28125 -1.421875 31.5 -1.421875 
Q 26.515625 -1.421875 23.015625 0.484375 
Q 19.53125 2.390625 17.484375 6.203125 
L 17.484375 -20.796875 
z
" id="DejaVuSans-956"/>
      </defs>
      <use xlink:href="#DejaVuSans-86"/>
      <use x="60.658203" xlink:href="#DejaVuSans-111"/>
      <use x="121.839844" xlink:href="#DejaVuSans-108"/>
      <use x="149.623047" xlink:href="#DejaVuSans-116"/>
      <use x="188.832031" xlink:href="#DejaVuSans-97"/>
      <use x="250.111328" xlink:href="#DejaVuSans-103"/>
      <use x="313.587891" xlink:href="#DejaVuSans-101"/>
      <use x="375.111328" xlink:href="#DejaVuSans-32"/>
      <use x="406.898438" xlink:href="#DejaVuSans-40"/>
      <use x="445.912109" xlink:href="#DejaVuSans-956"/>
      <use x="509.535156" xlink:href="#DejaVuSans-86"/>
      <use x="577.943359" xlink:href="#DejaVuSans-41"/>
     </g>
    </g>
   </g>
   <g id="line2d_13">
    <path clip-path="url(#pc8debc15bc)" d="M 161.509091 213.122739 
L 162.932301 235.477078 
L 164.355511 251.651772 
L 165.778721 260.378587 
L 167.201931 263.254117 
L 168.625141 266.411254 
L 170.048351 279.544407 
L 171.471561 286.357098 
L 172.894771 273.354696 
L 174.317981 269.463536 
L 175.741191 272.987962 
L 177.164402 294.828227 
L 178.587612 332.720458 
L 180.010822 340.402405 
L 181.434032 340.277175 
L 182.857242 330.14947 
L 184.280452 313.797498 
L 185.703662 311.416279 
L 187.126872 306.142366 
L 188.550082 310.405524 
L 189.973292 310.501083 
L 191.396502 307.975159 
L 192.819712 298.273105 
L 194.242922 279.057155 
L 195.666132 264.999696 
L 197.089342 258.091642 
L 198.512552 279.007517 
L 199.935762 294.286971 
L 201.358972 301.962909 
L 202.782183 304.468155 
L 204.205393 295.843265 
L 205.628603 299.713927 
L 207.051813 301.936957 
L 208.475023 286.314207 
L 209.898233 268.399927 
L 211.321443 254.152606 
L 212.744653 287.462237 
L 214.167863 372.179727 
L 215.591073 347.529917 
L 217.014283 258.66377 
L 218.437493 193.858498 
L 219.860703 135.36626 
L 221.283913 173.824171 
L 222.707123 219.700548 
L 224.130333 232.785155 
L 225.553543 247.083372 
L 226.976754 247.671458 
L 228.399964 252.768394 
L 229.823174 281.32272 
L 231.246384 278.103979 
L 232.669594 294.237465 
L 234.092804 286.719352 
L 235.516014 292.427856 
L 236.939224 289.623172 
L 238.362434 297.301041 
L 239.785644 302.975884 
L 241.208854 311.653418 
L 242.632064 312.825426 
L 244.055274 318.174879 
L 245.478484 324.458338 
L 246.901694 322.823575 
L 248.324904 324.939704 
L 251.171324 330.962658 
L 252.594535 324.812516 
L 254.017745 289.288145 
L 255.440955 232.691124 
L 256.864165 218.990919 
L 258.287375 225.000021 
L 261.133795 319.5486 
L 262.557005 319.022225 
L 263.980215 318.371119 
L 265.403425 310.207325 
L 266.826635 309.497272 
L 268.249845 290.287289 
L 269.673055 292.045473 
L 271.096265 303.891444 
L 272.519475 293.521764 
L 273.942685 276.792164 
L 275.365895 234.967278 
L 276.789105 218.142465 
L 278.212316 231.545411 
L 279.635526 246.453575 
L 281.058736 262.620396 
L 282.481946 282.652098 
L 283.905156 307.689716 
L 285.328366 315.701529 
L 286.751576 321.805632 
L 288.174786 317.101093 
L 289.597996 318.829912 
L 291.021206 323.964844 
L 293.867626 322.379026 
L 295.290836 317.642636 
L 296.714046 317.615424 
L 298.137256 334.925559 
L 299.560466 345.983174 
L 300.983676 333.742604 
L 302.406887 323.690912 
L 303.830097 319.386398 
L 305.253307 318.20508 
L 306.676517 307.661997 
L 308.099727 307.336024 
L 309.522937 302.176696 
L 310.946147 302.221965 
L 312.369357 289.168174 
L 313.792567 256.355318 
L 315.215777 246.617282 
L 316.638987 270.153107 
L 318.062197 281.327724 
L 319.485407 284.656275 
L 320.908617 286.023921 
L 322.331827 287.045484 
L 323.755037 289.32754 
L 325.178247 288.293015 
L 326.601457 280.59777 
L 328.024668 280.50781 
L 329.447878 288.235195 
L 330.871088 308.222187 
L 332.294298 342.042456 
L 333.717508 346.703144 
L 335.140718 345.101681 
L 336.563928 336.489798 
L 337.987138 322.98977 
L 339.410348 321.200735 
L 340.833558 305.339735 
L 342.256768 284.714376 
L 343.679978 276.989355 
L 345.103188 282.503427 
L 346.526398 269.013501 
L 347.949608 267.757165 
L 349.372818 252.680477 
L 350.796028 247.036875 
L 352.219238 238.382453 
L 353.642449 242.475962 
L 355.065659 252.603999 
L 356.488869 261.52614 
L 357.912079 263.173346 
L 359.335289 269.822178 
L 360.758499 280.829735 
L 363.604919 307.801493 
L 365.028129 305.609481 
L 366.451339 305.087331 
L 367.874549 298.028208 
L 369.297759 303.261651 
L 370.720969 316.695228 
L 372.144179 313.691662 
L 373.567389 308.536661 
L 374.990599 308.082504 
L 376.413809 300.732728 
L 377.837019 288.037637 
L 379.26023 274.101573 
L 380.68344 266.713689 
L 382.10665 263.820582 
L 383.52986 276.864084 
L 384.95307 263.576711 
L 386.37628 270.699663 
L 387.79949 271.427434 
L 389.2227 280.586379 
L 390.64591 265.770004 
L 392.06912 264.920589 
L 393.49233 268.269659 
L 394.91554 278.055972 
L 396.33875 285.110406 
L 397.76196 287.534506 
L 399.18517 291.942332 
L 400.60838 295.585333 
L 402.03159 295.936222 
L 403.454801 278.445912 
L 404.878011 277.763173 
L 406.301221 288.486656 
L 407.724431 308.056392 
L 409.147641 334.551778 
L 410.570851 325.56184 
L 411.994061 310.913258 
L 413.417271 332.077327 
L 414.840481 344.177068 
L 416.263691 343.647889 
L 417.686901 334.917054 
L 419.110111 325.460086 
L 420.533321 322.064964 
L 421.956531 310.944229 
L 423.379741 315.675016 
L 424.802951 312.275755 
L 426.226161 310.280514 
L 427.649371 304.380492 
L 429.072582 304.549014 
L 430.495792 302.9656 
L 431.919002 304.727506 
L 433.342212 309.984345 
L 434.765422 314.201766 
L 437.611842 304.217889 
L 439.035052 308.202801 
L 440.458262 305.982307 
L 441.881472 287.499914 
L 443.304682 279.446284 
L 444.727892 282.821214 
L 446.151102 259.990635 
L 447.574312 226.05774 
L 448.997522 208.503347 
L 450.420732 209.234334 
L 451.843942 263.483866 
L 453.267152 312.429029 
L 454.690363 300.501802 
L 456.113573 295.019886 
L 457.536783 291.480919 
L 458.959993 291.603129 
L 460.383203 310.385345 
L 463.229623 396.584648 
L 464.652833 394.06436 
L 466.076043 358.840397 
L 467.499253 269.270278 
L 468.922463 168.946732 
L 470.345673 77.776364 
L 471.768883 81.785926 
L 473.192093 153.759112 
L 474.615303 220.025083 
L 476.038513 303.741073 
L 477.461723 311.033675 
L 478.884934 312.470522 
L 480.308144 303.898536 
L 481.731354 296.174827 
L 483.154564 298.897923 
L 484.577774 309.756638 
L 486.000984 341.673207 
L 487.424194 332.590082 
L 488.847404 324.909748 
L 490.270614 319.940027 
L 493.117034 312.726402 
L 494.540244 308.890692 
L 495.963454 304.272561 
L 497.386664 304.298556 
L 498.809874 316.631573 
L 500.233084 321.086708 
L 501.656294 311.011126 
L 503.079504 292.912577 
L 504.502715 265.31673 
L 505.925925 246.025492 
L 507.349135 237.911629 
L 508.772345 250.647263 
L 510.195555 265.053877 
L 511.618765 277.89908 
L 513.041975 283.909128 
L 514.465185 291.677405 
L 515.888395 320.641759 
L 517.311605 344.832616 
L 518.734815 351.552736 
L 520.158025 334.860991 
L 521.581235 293.588944 
L 523.004445 284.229724 
L 524.427655 301.360655 
L 525.850865 302.067123 
L 527.274075 306.428053 
L 528.697285 287.19384 
L 530.120496 275.458598 
L 531.543706 285.467122 
L 532.966916 293.210961 
L 534.390126 300.104857 
L 535.813336 303.136562 
L 537.236546 300.779431 
L 538.659756 303.824017 
L 540.082966 306.324728 
L 541.506176 289.868412 
L 542.929386 270.098293 
L 544.352596 248.74123 
L 545.775806 245.650269 
L 547.199016 265.564955 
L 548.622226 270.979771 
L 550.045436 264.433518 
L 551.468646 274.668157 
L 552.891856 289.193907 
L 554.315066 295.059323 
L 555.738277 298.520409 
L 557.161487 289.909733 
L 558.584697 287.912521 
L 560.007907 290.518551 
L 561.431117 312.434471 
L 562.854327 351.626724 
L 564.277537 352.399869 
L 565.700747 341.78358 
L 568.547167 286.179625 
L 569.970377 291.526909 
L 572.816797 283.443531 
L 574.240007 281.772875 
L 575.663217 274.4606 
L 577.086427 261.39371 
L 578.509637 267.391747 
L 579.932848 255.756029 
L 581.356058 265.336073 
L 584.202478 300.069366 
L 585.625688 300.840145 
L 587.048898 307.923204 
L 588.472108 308.9846 
L 589.895318 316.25042 
L 591.318528 325.327359 
L 592.741738 318.389475 
L 594.164948 312.518781 
L 595.588158 301.351825 
L 597.011368 297.361153 
L 598.434578 292.51152 
L 599.857788 280.157641 
L 601.280998 261.69739 
L 602.704208 260.855413 
L 604.127418 264.986679 
L 605.550629 267.865409 
L 606.973839 275.331265 
L 608.397049 288.783987 
L 609.820259 291.734648 
L 611.243469 283.384219 
L 612.666679 281.97134 
L 614.089889 267.981113 
L 615.513099 262.94389 
L 616.936309 283.61052 
L 618.359519 265.787035 
L 619.782729 262.536155 
L 621.205939 250.136033 
L 622.629149 263.548713 
L 624.052359 293.570027 
L 625.475569 306.100214 
L 626.898779 302.165749 
L 628.321989 300.235694 
L 629.745199 301.535845 
L 632.59162 325.566812 
L 634.01483 316.482257 
L 635.43804 308.150617 
L 636.86125 288.258099 
L 638.28446 291.277754 
L 639.70767 305.642694 
L 641.13088 304.890741 
L 642.55409 305.27478 
L 643.9773 324.866433 
L 645.40051 336.538845 
L 646.82372 330.975446 
L 649.67014 308.133717 
L 651.09335 304.151809 
L 652.51656 319.912254 
L 653.93977 321.252834 
L 655.362981 302.101515 
L 656.786191 278.160295 
L 658.209401 246.556138 
L 659.632611 238.123499 
L 661.055821 284.052546 
L 662.479031 398.843445 
L 663.902241 385.59642 
L 665.325451 288.349389 
L 666.748661 240.117862 
L 668.171871 199.818439 
L 671.018291 310.969282 
L 673.864711 294.344319 
L 675.287921 272.027877 
L 676.711131 277.294231 
L 678.134341 298.868676 
L 679.557551 299.18101 
L 680.980762 304.100256 
L 682.403972 334.258473 
L 683.827182 352.595083 
L 685.250392 335.350729 
L 686.673602 321.563521 
L 688.096812 317.511261 
L 689.520022 315.664813 
L 690.943232 317.120098 
L 692.366442 322.425449 
L 693.789652 313.679984 
L 695.212862 305.831154 
L 696.636072 299.604353 
L 698.059282 320.002259 
L 699.482492 325.225704 
L 700.905702 317.009259 
L 702.328912 315.329004 
L 703.752122 311.12805 
L 705.175332 324.045125 
L 706.598543 339.523673 
L 708.021753 330.331257 
L 709.444963 317.467282 
L 710.868173 301.740554 
L 712.291383 291.378266 
L 713.714593 289.206956 
L 715.137803 264.209161 
L 716.561013 231.55386 
L 717.984223 220.880169 
L 719.407433 227.514503 
L 722.253853 290.09324 
L 723.677063 277.407894 
L 725.100273 274.718416 
L 726.523483 279.448264 
L 727.946693 281.97526 
L 729.369903 280.138832 
L 730.793113 263.217 
L 732.216324 259.690497 
L 733.639534 240.566505 
L 735.062744 228.767646 
L 736.485954 207.295315 
L 737.909164 209.675828 
L 740.755584 249.806343 
L 745.025214 287.643198 
L 746.448424 285.887893 
L 747.871634 285.077502 
L 749.294844 286.696156 
L 750.718054 297.231988 
L 752.141264 312.190148 
L 753.564474 331.777983 
L 754.987684 355.545221 
L 756.410895 350.925234 
L 757.834105 334.127123 
L 759.257315 313.793777 
L 760.680525 291.74986 
L 762.103735 298.994615 
L 763.526945 293.850572 
L 764.950155 285.371519 
L 766.373365 282.378773 
L 767.796575 294.63104 
L 769.219785 295.491061 
L 770.642995 297.855196 
L 772.066205 273.649178 
L 773.489415 245.529647 
L 774.912625 213.701265 
L 776.335835 209.400336 
L 777.759045 238.712733 
L 779.182255 263.045886 
L 780.605465 282.970552 
L 782.028676 285.629063 
L 783.451886 281.680737 
L 784.875096 276.739689 
L 787.721516 254.214367 
L 789.144726 254.656069 
L 790.567936 270.848808 
L 791.991146 291.930543 
L 793.414356 322.499619 
L 794.837566 317.954941 
L 796.260776 305.45279 
L 797.683986 303.500736 
L 799.107196 297.589246 
L 800.530406 304.487088 
L 801.953616 298.199367 
L 803.376826 287.317317 
L 804.800036 283.144825 
L 806.223246 293.745009 
L 807.646457 295.139946 
L 809.069667 299.130496 
L 810.492877 274.037049 
L 811.916087 262.697824 
L 813.339297 280.172678 
L 816.185717 322.0332 
L 817.608927 332.068971 
L 819.032137 327.729243 
L 820.455347 319.401214 
L 821.878557 307.213132 
L 823.301767 302.577286 
L 824.724977 301.094375 
L 826.148187 304.706507 
L 827.571397 304.124901 
L 828.994607 292.19521 
L 830.417817 258.893478 
L 831.841028 210.708752 
L 833.264238 211.846984 
L 834.687448 233.71751 
L 836.110658 271.494727 
L 837.533868 306.049908 
L 838.957078 294.779609 
L 840.380288 286.710972 
L 841.803498 279.462142 
L 843.226708 277.742299 
L 844.649918 289.31744 
L 846.073128 284.172991 
L 847.496338 287.16536 
L 848.919548 271.087615 
L 850.342758 257.979541 
L 851.765968 237.988241 
L 853.189178 232.5996 
L 854.612388 239.864885 
L 856.035598 249.934542 
L 857.458809 257.146168 
L 858.882019 277.866047 
L 860.305229 312.575074 
L 863.151649 417.636986 
L 864.574859 423.703636 
L 865.998069 393.587947 
L 868.844489 234.295335 
L 870.267699 150.646731 
L 871.690909 167.343495 
L 871.690909 167.343495 
" style="fill:none;stroke:#000000;stroke-linecap:square;stroke-width:1.5;"/>
   </g>
   <g id="line2d_14">
    <path clip-path="url(#pc8debc15bc)" d="M 161.509091 213.122739 
L 162.932301 234.901666 
L 164.355511 234.901666 
L 165.778721 256.680593 
L 168.625141 256.680593 
L 170.048351 278.459521 
L 177.164402 278.459521 
L 180.010822 322.017376 
L 191.396502 322.017376 
L 192.819712 300.238448 
L 194.242922 300.238448 
L 195.666132 278.459521 
L 199.935762 278.459521 
L 201.358972 300.238448 
L 208.475023 300.238448 
L 211.321443 256.680593 
L 215.591073 322.017376 
L 221.283913 234.901666 
L 228.399964 234.901666 
L 229.823174 256.680593 
L 231.246384 256.680593 
L 232.669594 278.459521 
L 238.362434 278.459521 
L 239.785644 300.238448 
L 244.055274 300.238448 
L 245.478484 322.017376 
L 252.594535 322.017376 
L 258.287375 234.901666 
L 262.557005 300.238448 
L 272.519475 300.238448 
L 276.789105 234.901666 
L 279.635526 234.901666 
L 283.905156 300.238448 
L 289.597996 300.238448 
L 291.021206 322.017376 
L 298.137256 322.017376 
L 299.560466 343.796303 
L 302.406887 343.796303 
L 303.830097 322.017376 
L 310.946147 322.017376 
L 315.215777 256.680593 
L 316.638987 256.680593 
L 318.062197 278.459521 
L 329.447878 278.459521 
L 333.717508 343.796303 
L 337.987138 343.796303 
L 339.410348 322.017376 
L 340.833558 322.017376 
L 343.679978 278.459521 
L 347.949608 278.459521 
L 349.372818 256.680593 
L 359.335289 256.680593 
L 360.758499 278.459521 
L 362.181709 278.459521 
L 363.604919 300.238448 
L 377.837019 300.238448 
L 379.26023 278.459521 
L 406.301221 278.459521 
L 409.147641 322.017376 
L 413.417271 322.017376 
L 414.840481 343.796303 
L 420.533321 343.796303 
L 421.956531 322.017376 
L 440.458262 322.017376 
L 441.881472 300.238448 
L 444.727892 300.238448 
L 450.420732 213.122739 
L 454.690363 278.459521 
L 458.959993 278.459521 
L 464.652833 365.57523 
L 466.076043 365.57523 
L 474.615303 234.901666 
L 478.884934 300.238448 
L 484.577774 300.238448 
L 486.000984 322.017376 
L 501.656294 322.017376 
L 505.925925 256.680593 
L 511.618765 256.680593 
L 513.041975 278.459521 
L 514.465185 278.459521 
L 518.734815 343.796303 
L 520.158025 343.796303 
L 523.004445 300.238448 
L 528.697285 300.238448 
L 530.120496 278.459521 
L 534.390126 278.459521 
L 535.813336 300.238448 
L 541.506176 300.238448 
L 544.352596 256.680593 
L 551.468646 256.680593 
L 552.891856 278.459521 
L 560.007907 278.459521 
L 564.277537 343.796303 
L 565.700747 343.796303 
L 568.547167 300.238448 
L 574.240007 300.238448 
L 575.663217 278.459521 
L 578.509637 278.459521 
L 579.932848 256.680593 
L 581.356058 256.680593 
L 582.779268 278.459521 
L 584.202478 278.459521 
L 585.625688 300.238448 
L 589.895318 300.238448 
L 591.318528 322.017376 
L 595.588158 322.017376 
L 597.011368 300.238448 
L 599.857788 300.238448 
L 601.280998 278.459521 
L 619.782729 278.459521 
L 621.205939 256.680593 
L 622.629149 256.680593 
L 625.475569 300.238448 
L 631.16841 300.238448 
L 632.59162 322.017376 
L 635.43804 322.017376 
L 636.86125 300.238448 
L 642.55409 300.238448 
L 643.9773 322.017376 
L 655.362981 322.017376 
L 659.632611 256.680593 
L 663.902241 322.017376 
L 668.171871 256.680593 
L 669.595081 256.680593 
L 672.441501 300.238448 
L 673.864711 300.238448 
L 675.287921 278.459521 
L 679.557551 278.459521 
L 683.827182 343.796303 
L 685.250392 343.796303 
L 686.673602 322.017376 
L 695.212862 322.017376 
L 696.636072 300.238448 
L 698.059282 300.238448 
L 699.482492 322.017376 
L 710.868173 322.017376 
L 712.291383 300.238448 
L 713.714593 300.238448 
L 717.984223 234.901666 
L 719.407433 234.901666 
L 722.253853 278.459521 
L 732.216324 278.459521 
L 736.485954 213.122739 
L 739.332374 213.122739 
L 742.178794 256.680593 
L 743.602004 256.680593 
L 745.025214 278.459521 
L 750.718054 278.459521 
L 754.987684 343.796303 
L 757.834105 343.796303 
L 760.680525 300.238448 
L 770.642995 300.238448 
L 776.335835 213.122739 
L 780.605465 278.459521 
L 786.298306 278.459521 
L 787.721516 256.680593 
L 790.567936 256.680593 
L 793.414356 300.238448 
L 809.069667 300.238448 
L 810.492877 278.459521 
L 813.339297 278.459521 
L 816.185717 322.017376 
L 827.571397 322.017376 
L 833.264238 234.901666 
L 834.687448 234.901666 
L 837.533868 278.459521 
L 850.342758 278.459521 
L 853.189178 234.901666 
L 856.035598 234.901666 
L 857.458809 256.680593 
L 858.882019 256.680593 
L 865.998069 365.57523 
L 870.267699 300.238448 
L 871.690909 300.238448 
L 871.690909 300.238448 
" style="fill:none;stroke:#ff0000;stroke-dasharray:5.55,2.4;stroke-dashoffset:0;stroke-width:1.5;"/>
   </g>
   <g id="patch_3">
    <path d="M 126 441 
L 126 60.48 
" style="fill:none;stroke:#000000;stroke-linecap:square;stroke-linejoin:miter;stroke-width:0.8;"/>
   </g>
   <g id="patch_4">
    <path d="M 907.2 441 
L 907.2 60.48 
" style="fill:none;stroke:#000000;stroke-linecap:square;stroke-linejoin:miter;stroke-width:0.8;"/>
   </g>
   <g id="patch_5">
    <path d="M 126 441 
L 907.2 441 
" style="fill:none;stroke:#000000;stroke-linecap:square;stroke-linejoin:miter;stroke-width:0.8;"/>
   </g>
   <g id="patch_6">
    <path d="M 126 60.48 
L 907.2 60.48 
" style="fill:none;stroke:#000000;stroke-linecap:square;stroke-linejoin:miter;stroke-width:0.8;"/>
   </g>
   <g id="text_15">
    <!-- Signal Reconstruction -->
    <g transform="translate(451.359375 54.48)scale(0.12 -0.12)">
     <defs>
      <path d="M 53.515625 70.515625 
L 53.515625 60.890625 
Q 47.90625 63.578125 42.921875 64.890625 
Q 37.9375 66.21875 33.296875 66.21875 
Q 25.25 66.21875 20.875 63.09375 
Q 16.5 59.96875 16.5 54.203125 
Q 16.5 49.359375 19.40625 46.890625 
Q 22.3125 44.4375 30.421875 42.921875 
L 36.375 41.703125 
Q 47.40625 39.59375 52.65625 34.296875 
Q 57.90625 29 57.90625 20.125 
Q 57.90625 9.515625 50.796875 4.046875 
Q 43.703125 -1.421875 29.984375 -1.421875 
Q 24.8125 -1.421875 18.96875 -0.25 
Q 13.140625 0.921875 6.890625 3.21875 
L 6.890625 13.375 
Q 12.890625 10.015625 18.65625 8.296875 
Q 24.421875 6.59375 29.984375 6.59375 
Q 38.421875 6.59375 43.015625 9.90625 
Q 47.609375 13.234375 47.609375 19.390625 
Q 47.609375 24.75 44.3125 27.78125 
Q 41.015625 30.8125 33.5 32.328125 
L 27.484375 33.5 
Q 16.453125 35.6875 11.515625 40.375 
Q 6.59375 45.0625 6.59375 53.421875 
Q 6.59375 63.09375 13.40625 68.65625 
Q 20.21875 74.21875 32.171875 74.21875 
Q 37.3125 74.21875 42.625 73.28125 
Q 47.953125 72.359375 53.515625 70.515625 
z
" id="DejaVuSans-83"/>
      <path d="M 54.890625 33.015625 
L 54.890625 0 
L 45.90625 0 
L 45.90625 32.71875 
Q 45.90625 40.484375 42.875 44.328125 
Q 39.84375 48.1875 33.796875 48.1875 
Q 26.515625 48.1875 22.3125 43.546875 
Q 18.109375 38.921875 18.109375 30.90625 
L 18.109375 0 
L 9.078125 0 
L 9.078125 54.6875 
L 18.109375 54.6875 
L 18.109375 46.1875 
Q 21.34375 51.125 25.703125 53.5625 
Q 30.078125 56 35.796875 56 
Q 45.21875 56 50.046875 50.171875 
Q 54.890625 44.34375 54.890625 33.015625 
z
" id="DejaVuSans-110"/>
      <path d="M 44.390625 34.1875 
Q 47.5625 33.109375 50.5625 29.59375 
Q 53.5625 26.078125 56.59375 19.921875 
L 66.609375 0 
L 56 0 
L 46.6875 18.703125 
Q 43.0625 26.03125 39.671875 28.421875 
Q 36.28125 30.8125 30.421875 30.8125 
L 19.671875 30.8125 
L 19.671875 0 
L 9.8125 0 
L 9.8125 72.90625 
L 32.078125 72.90625 
Q 44.578125 72.90625 50.734375 67.671875 
Q 56.890625 62.453125 56.890625 51.90625 
Q 56.890625 45.015625 53.6875 40.46875 
Q 50.484375 35.9375 44.390625 34.1875 
z
M 19.671875 64.796875 
L 19.671875 38.921875 
L 32.078125 38.921875 
Q 39.203125 38.921875 42.84375 42.21875 
Q 46.484375 45.515625 46.484375 51.90625 
Q 46.484375 58.296875 42.84375 61.546875 
Q 39.203125 64.796875 32.078125 64.796875 
z
" id="DejaVuSans-82"/>
      <path d="M 48.78125 52.59375 
L 48.78125 44.1875 
Q 44.96875 46.296875 41.140625 47.34375 
Q 37.3125 48.390625 33.40625 48.390625 
Q 24.65625 48.390625 19.8125 42.84375 
Q 14.984375 37.3125 14.984375 27.296875 
Q 14.984375 17.28125 19.8125 11.734375 
Q 24.65625 6.203125 33.40625 6.203125 
Q 37.3125 6.203125 41.140625 7.25 
Q 44.96875 8.296875 48.78125 10.40625 
L 48.78125 2.09375 
Q 45.015625 0.34375 40.984375 -0.53125 
Q 36.96875 -1.421875 32.421875 -1.421875 
Q 20.0625 -1.421875 12.78125 6.34375 
Q 5.515625 14.109375 5.515625 27.296875 
Q 5.515625 40.671875 12.859375 48.328125 
Q 20.21875 56 33.015625 56 
Q 37.15625 56 41.109375 55.140625 
Q 45.0625 54.296875 48.78125 52.59375 
z
" id="DejaVuSans-99"/>
      <path d="M 41.109375 46.296875 
Q 39.59375 47.171875 37.8125 47.578125 
Q 36.03125 48 33.890625 48 
Q 26.265625 48 22.1875 43.046875 
Q 18.109375 38.09375 18.109375 28.8125 
L 18.109375 0 
L 9.078125 0 
L 9.078125 54.6875 
L 18.109375 54.6875 
L 18.109375 46.1875 
Q 20.953125 51.171875 25.484375 53.578125 
Q 30.03125 56 36.53125 56 
Q 37.453125 56 38.578125 55.875 
Q 39.703125 55.765625 41.0625 55.515625 
z
" id="DejaVuSans-114"/>
      <path d="M 8.5 21.578125 
L 8.5 54.6875 
L 17.484375 54.6875 
L 17.484375 21.921875 
Q 17.484375 14.15625 20.5 10.265625 
Q 23.53125 6.390625 29.59375 6.390625 
Q 36.859375 6.390625 41.078125 11.03125 
Q 45.3125 15.671875 45.3125 23.6875 
L 45.3125 54.6875 
L 54.296875 54.6875 
L 54.296875 0 
L 45.3125 0 
L 45.3125 8.40625 
Q 42.046875 3.421875 37.71875 1 
Q 33.40625 -1.421875 27.6875 -1.421875 
Q 18.265625 -1.421875 13.375 4.4375 
Q 8.5 10.296875 8.5 21.578125 
z
M 31.109375 56 
z
" id="DejaVuSans-117"/>
     </defs>
     <use xlink:href="#DejaVuSans-83"/>
     <use x="63.476562" xlink:href="#DejaVuSans-105"/>
     <use x="91.259766" xlink:href="#DejaVuSans-103"/>
     <use x="154.736328" xlink:href="#DejaVuSans-110"/>
     <use x="218.115234" xlink:href="#DejaVuSans-97"/>
     <use x="279.394531" xlink:href="#DejaVuSans-108"/>
     <use x="307.177734" xlink:href="#DejaVuSans-32"/>
     <use x="338.964844" xlink:href="#DejaVuSans-82"/>
     <use x="403.947266" xlink:href="#DejaVuSans-101"/>
     <use x="465.470703" xlink:href="#DejaVuSans-99"/>
     <use x="520.451172" xlink:href="#DejaVuSans-111"/>
     <use x="581.632812" xlink:href="#DejaVuSans-110"/>
     <use x="645.011719" xlink:href="#DejaVuSans-115"/>
     <use x="697.111328" xlink:href="#DejaVuSans-116"/>
     <use x="736.320312" xlink:href="#DejaVuSans-114"/>
     <use x="777.433594" xlink:href="#DejaVuSans-117"/>
     <use x="840.8125" xlink:href="#DejaVuSans-99"/>
     <use x="895.792969" xlink:href="#DejaVuSans-116"/>
     <use x="935.001953" xlink:href="#DejaVuSans-105"/>
     <use x="962.785156" xlink:href="#DejaVuSans-111"/>
     <use x="1023.966797" xlink:href="#DejaVuSans-110"/>
    </g>
   </g>
   <g id="legend_1">
    <g id="patch_7">
     <path d="M 798.707813 97.83625 
L 900.2 97.83625 
Q 902.2 97.83625 902.2 95.83625 
L 902.2 67.48 
Q 902.2 65.48 900.2 65.48 
L 798.707813 65.48 
Q 796.707813 65.48 796.707813 67.48 
L 796.707813 95.83625 
Q 796.707813 97.83625 798.707813 97.83625 
z
" style="fill:#ffffff;opacity:0.8;stroke:#cccccc;stroke-linejoin:miter;"/>
    </g>
    <g id="line2d_15">
     <path d="M 800.707813 73.578438 
L 820.707813 73.578438 
" style="fill:none;stroke:#000000;stroke-linecap:square;stroke-width:1.5;"/>
    </g>
    <g id="line2d_16"/>
    <g id="text_16">
     <!-- original -->
     <g transform="translate(828.707813 77.078438)scale(0.1 -0.1)">
      <use xlink:href="#DejaVuSans-111"/>
      <use x="61.181641" xlink:href="#DejaVuSans-114"/>
      <use x="102.294922" xlink:href="#DejaVuSans-105"/>
      <use x="130.078125" xlink:href="#DejaVuSans-103"/>
      <use x="193.554688" xlink:href="#DejaVuSans-105"/>
      <use x="221.337891" xlink:href="#DejaVuSans-110"/>
      <use x="284.716797" xlink:href="#DejaVuSans-97"/>
      <use x="345.996094" xlink:href="#DejaVuSans-108"/>
     </g>
    </g>
    <g id="line2d_17">
     <path d="M 800.707813 88.256563 
L 820.707813 88.256563 
" style="fill:none;stroke:#ff0000;stroke-dasharray:5.55,2.4;stroke-dashoffset:0;stroke-width:1.5;"/>
    </g>
    <g id="line2d_18"/>
    <g id="text_17">
     <!-- reconstructed -->
     <g transform="translate(828.707813 91.756563)scale(0.1 -0.1)">
      <defs>
       <path d="M 45.40625 46.390625 
L 45.40625 75.984375 
L 54.390625 75.984375 
L 54.390625 0 
L 45.40625 0 
L 45.40625 8.203125 
Q 42.578125 3.328125 38.25 0.953125 
Q 33.9375 -1.421875 27.875 -1.421875 
Q 17.96875 -1.421875 11.734375 6.484375 
Q 5.515625 14.40625 5.515625 27.296875 
Q 5.515625 40.1875 11.734375 48.09375 
Q 17.96875 56 27.875 56 
Q 33.9375 56 38.25 53.625 
Q 42.578125 51.265625 45.40625 46.390625 
z
M 14.796875 27.296875 
Q 14.796875 17.390625 18.875 11.75 
Q 22.953125 6.109375 30.078125 6.109375 
Q 37.203125 6.109375 41.296875 11.75 
Q 45.40625 17.390625 45.40625 27.296875 
Q 45.40625 37.203125 41.296875 42.84375 
Q 37.203125 48.484375 30.078125 48.484375 
Q 22.953125 48.484375 18.875 42.84375 
Q 14.796875 37.203125 14.796875 27.296875 
z
" id="DejaVuSans-100"/>
      </defs>
      <use xlink:href="#DejaVuSans-114"/>
      <use x="38.863281" xlink:href="#DejaVuSans-101"/>
      <use x="100.386719" xlink:href="#DejaVuSans-99"/>
      <use x="155.367188" xlink:href="#DejaVuSans-111"/>
      <use x="216.548828" xlink:href="#DejaVuSans-110"/>
      <use x="279.927734" xlink:href="#DejaVuSans-115"/>
      <use x="332.027344" xlink:href="#DejaVuSans-116"/>
      <use x="371.236328" xlink:href="#DejaVuSans-114"/>
      <use x="412.349609" xlink:href="#DejaVuSans-117"/>
      <use x="475.728516" xlink:href="#DejaVuSans-99"/>
      <use x="530.708984" xlink:href="#DejaVuSans-116"/>
      <use x="569.917969" xlink:href="#DejaVuSans-101"/>
      <use x="631.441406" xlink:href="#DejaVuSans-100"/>
     </g>
    </g>
   </g>
  </g>
 </g>
 <defs>
  <clipPath id="pc8debc15bc">
   <rect height="380.52" width="781.2" x="126" y="60.48"/>
  </clipPath>
 </defs>
</svg>
