<?xml version="1.0" encoding="utf-8" standalone="no"?>
<!DOCTYPE svg PUBLIC "-//W3C//DTD SVG 1.1//EN"
  "http://www.w3.org/Graphics/SVG/1.1/DTD/svg11.dtd">
<!-- Created with matplotlib (https://matplotlib.org/) -->
<svg height="504pt" version="1.1" viewBox="0 0 720 504" width="720pt" xmlns="http://www.w3.org/2000/svg" xmlns:xlink="http://www.w3.org/1999/xlink">
 <metadata>
  <rdf:RDF xmlns:cc="http://creativecommons.org/ns#" xmlns:dc="http://purl.org/dc/elements/1.1/" xmlns:rdf="http://www.w3.org/1999/02/22-rdf-syntax-ns#">
   <cc:Work>
    <dc:type rdf:resource="http://purl.org/dc/dcmitype/StillImage"/>
    <dc:date>2022-03-22T14:24:13.337906</dc:date>
    <dc:format>image/svg+xml</dc:format>
    <dc:creator>
     <cc:Agent>
      <dc:title>Matplotlib v3.3.4, https://matplotlib.org/</dc:title>
     </cc:Agent>
    </dc:creator>
   </cc:Work>
  </rdf:RDF>
 </metadata>
 <defs>
  <style type="text/css">*{stroke-linecap:butt;stroke-linejoin:round;}</style>
 </defs>
 <g id="figure_1">
  <g id="patch_1">
   <path d="M 0 504 
L 720 504 
L 720 0 
L 0 0 
z
" style="fill:#ffffff;"/>
  </g>
  <g id="axes_1">
   <g id="patch_2">
    <path d="M 90 172.397647 
L 648 172.397647 
L 648 60.48 
L 90 60.48 
z
" style="fill:#ffffff;"/>
   </g>
   <g id="matplotlib.axis_1">
    <g id="xtick_1">
     <g id="line2d_1">
      <defs>
       <path d="M 0 0 
L 0 3.5 
" id="md1925018c1" style="stroke:#000000;stroke-width:0.8;"/>
      </defs>
      <g>
       <use style="stroke:#000000;stroke-width:0.8;" x="115.363636" xlink:href="#md1925018c1" y="172.397647"/>
      </g>
     </g>
    </g>
    <g id="xtick_2">
     <g id="line2d_2">
      <g>
       <use style="stroke:#000000;stroke-width:0.8;" x="216.818182" xlink:href="#md1925018c1" y="172.397647"/>
      </g>
     </g>
    </g>
    <g id="xtick_3">
     <g id="line2d_3">
      <g>
       <use style="stroke:#000000;stroke-width:0.8;" x="318.272727" xlink:href="#md1925018c1" y="172.397647"/>
      </g>
     </g>
    </g>
    <g id="xtick_4">
     <g id="line2d_4">
      <g>
       <use style="stroke:#000000;stroke-width:0.8;" x="419.727273" xlink:href="#md1925018c1" y="172.397647"/>
      </g>
     </g>
    </g>
    <g id="xtick_5">
     <g id="line2d_5">
      <g>
       <use style="stroke:#000000;stroke-width:0.8;" x="521.181818" xlink:href="#md1925018c1" y="172.397647"/>
      </g>
     </g>
    </g>
    <g id="xtick_6">
     <g id="line2d_6">
      <g>
       <use style="stroke:#000000;stroke-width:0.8;" x="622.636364" xlink:href="#md1925018c1" y="172.397647"/>
      </g>
     </g>
    </g>
   </g>
   <g id="matplotlib.axis_2">
    <g id="ytick_1">
     <g id="line2d_7">
      <defs>
       <path d="M 0 0 
L -3.5 0 
" id="m8ea9c1a119" style="stroke:#000000;stroke-width:0.8;"/>
      </defs>
      <g>
       <use style="stroke:#000000;stroke-width:0.8;" x="90" xlink:href="#m8ea9c1a119" y="168.391573"/>
      </g>
     </g>
     <g id="text_1">
      <!-- −20 -->
      <g transform="translate(61.895313 172.190792)scale(0.1 -0.1)">
       <defs>
        <path d="M 10.59375 35.5 
L 73.1875 35.5 
L 73.1875 27.203125 
L 10.59375 27.203125 
z
" id="DejaVuSans-8722"/>
        <path d="M 19.1875 8.296875 
L 53.609375 8.296875 
L 53.609375 0 
L 7.328125 0 
L 7.328125 8.296875 
Q 12.9375 14.109375 22.625 23.890625 
Q 32.328125 33.6875 34.8125 36.53125 
Q 39.546875 41.84375 41.421875 45.53125 
Q 43.3125 49.21875 43.3125 52.78125 
Q 43.3125 58.59375 39.234375 62.25 
Q 35.15625 65.921875 28.609375 65.921875 
Q 23.96875 65.921875 18.8125 64.3125 
Q 13.671875 62.703125 7.8125 59.421875 
L 7.8125 69.390625 
Q 13.765625 71.78125 18.9375 73 
Q 24.125 74.21875 28.421875 74.21875 
Q 39.75 74.21875 46.484375 68.546875 
Q 53.21875 62.890625 53.21875 53.421875 
Q 53.21875 48.921875 51.53125 44.890625 
Q 49.859375 40.875 45.40625 35.40625 
Q 44.1875 33.984375 37.640625 27.21875 
Q 31.109375 20.453125 19.1875 8.296875 
z
" id="DejaVuSans-50"/>
        <path d="M 31.78125 66.40625 
Q 24.171875 66.40625 20.328125 58.90625 
Q 16.5 51.421875 16.5 36.375 
Q 16.5 21.390625 20.328125 13.890625 
Q 24.171875 6.390625 31.78125 6.390625 
Q 39.453125 6.390625 43.28125 13.890625 
Q 47.125 21.390625 47.125 36.375 
Q 47.125 51.421875 43.28125 58.90625 
Q 39.453125 66.40625 31.78125 66.40625 
z
M 31.78125 74.21875 
Q 44.046875 74.21875 50.515625 64.515625 
Q 56.984375 54.828125 56.984375 36.375 
Q 56.984375 17.96875 50.515625 8.265625 
Q 44.046875 -1.421875 31.78125 -1.421875 
Q 19.53125 -1.421875 13.0625 8.265625 
Q 6.59375 17.96875 6.59375 36.375 
Q 6.59375 54.828125 13.0625 64.515625 
Q 19.53125 74.21875 31.78125 74.21875 
z
" id="DejaVuSans-48"/>
       </defs>
       <use xlink:href="#DejaVuSans-8722"/>
       <use x="83.789062" xlink:href="#DejaVuSans-50"/>
       <use x="147.412109" xlink:href="#DejaVuSans-48"/>
      </g>
     </g>
    </g>
    <g id="ytick_2">
     <g id="line2d_8">
      <g>
       <use style="stroke:#000000;stroke-width:0.8;" x="90" xlink:href="#m8ea9c1a119" y="128.269921"/>
      </g>
     </g>
     <g id="text_2">
      <!-- 0 -->
      <g transform="translate(76.6375 132.069139)scale(0.1 -0.1)">
       <use xlink:href="#DejaVuSans-48"/>
      </g>
     </g>
    </g>
    <g id="ytick_3">
     <g id="line2d_9">
      <g>
       <use style="stroke:#000000;stroke-width:0.8;" x="90" xlink:href="#m8ea9c1a119" y="88.148268"/>
      </g>
     </g>
     <g id="text_3">
      <!-- 20 -->
      <g transform="translate(70.275 91.947487)scale(0.1 -0.1)">
       <use xlink:href="#DejaVuSans-50"/>
       <use x="63.623047" xlink:href="#DejaVuSans-48"/>
      </g>
     </g>
    </g>
    <g id="text_4">
     <!-- Voltage (μV) -->
     <g transform="translate(55.815625 147.287261)rotate(-90)scale(0.1 -0.1)">
      <defs>
       <path d="M 28.609375 0 
L 0.78125 72.90625 
L 11.078125 72.90625 
L 34.1875 11.53125 
L 57.328125 72.90625 
L 67.578125 72.90625 
L 39.796875 0 
z
" id="DejaVuSans-86"/>
       <path d="M 30.609375 48.390625 
Q 23.390625 48.390625 19.1875 42.75 
Q 14.984375 37.109375 14.984375 27.296875 
Q 14.984375 17.484375 19.15625 11.84375 
Q 23.34375 6.203125 30.609375 6.203125 
Q 37.796875 6.203125 41.984375 11.859375 
Q 46.1875 17.53125 46.1875 27.296875 
Q 46.1875 37.015625 41.984375 42.703125 
Q 37.796875 48.390625 30.609375 48.390625 
z
M 30.609375 56 
Q 42.328125 56 49.015625 48.375 
Q 55.71875 40.765625 55.71875 27.296875 
Q 55.71875 13.875 49.015625 6.21875 
Q 42.328125 -1.421875 30.609375 -1.421875 
Q 18.84375 -1.421875 12.171875 6.21875 
Q 5.515625 13.875 5.515625 27.296875 
Q 5.515625 40.765625 12.171875 48.375 
Q 18.84375 56 30.609375 56 
z
" id="DejaVuSans-111"/>
       <path d="M 9.421875 75.984375 
L 18.40625 75.984375 
L 18.40625 0 
L 9.421875 0 
z
" id="DejaVuSans-108"/>
       <path d="M 18.3125 70.21875 
L 18.3125 54.6875 
L 36.8125 54.6875 
L 36.8125 47.703125 
L 18.3125 47.703125 
L 18.3125 18.015625 
Q 18.3125 11.328125 20.140625 9.421875 
Q 21.96875 7.515625 27.59375 7.515625 
L 36.8125 7.515625 
L 36.8125 0 
L 27.59375 0 
Q 17.1875 0 13.234375 3.875 
Q 9.28125 7.765625 9.28125 18.015625 
L 9.28125 47.703125 
L 2.6875 47.703125 
L 2.6875 54.6875 
L 9.28125 54.6875 
L 9.28125 70.21875 
z
" id="DejaVuSans-116"/>
       <path d="M 34.28125 27.484375 
Q 23.390625 27.484375 19.1875 25 
Q 14.984375 22.515625 14.984375 16.5 
Q 14.984375 11.71875 18.140625 8.90625 
Q 21.296875 6.109375 26.703125 6.109375 
Q 34.1875 6.109375 38.703125 11.40625 
Q 43.21875 16.703125 43.21875 25.484375 
L 43.21875 27.484375 
z
M 52.203125 31.203125 
L 52.203125 0 
L 43.21875 0 
L 43.21875 8.296875 
Q 40.140625 3.328125 35.546875 0.953125 
Q 30.953125 -1.421875 24.3125 -1.421875 
Q 15.921875 -1.421875 10.953125 3.296875 
Q 6 8.015625 6 15.921875 
Q 6 25.140625 12.171875 29.828125 
Q 18.359375 34.515625 30.609375 34.515625 
L 43.21875 34.515625 
L 43.21875 35.40625 
Q 43.21875 41.609375 39.140625 45 
Q 35.0625 48.390625 27.6875 48.390625 
Q 23 48.390625 18.546875 47.265625 
Q 14.109375 46.140625 10.015625 43.890625 
L 10.015625 52.203125 
Q 14.9375 54.109375 19.578125 55.046875 
Q 24.21875 56 28.609375 56 
Q 40.484375 56 46.34375 49.84375 
Q 52.203125 43.703125 52.203125 31.203125 
z
" id="DejaVuSans-97"/>
       <path d="M 45.40625 27.984375 
Q 45.40625 37.75 41.375 43.109375 
Q 37.359375 48.484375 30.078125 48.484375 
Q 22.859375 48.484375 18.828125 43.109375 
Q 14.796875 37.75 14.796875 27.984375 
Q 14.796875 18.265625 18.828125 12.890625 
Q 22.859375 7.515625 30.078125 7.515625 
Q 37.359375 7.515625 41.375 12.890625 
Q 45.40625 18.265625 45.40625 27.984375 
z
M 54.390625 6.78125 
Q 54.390625 -7.171875 48.1875 -13.984375 
Q 42 -20.796875 29.203125 -20.796875 
Q 24.46875 -20.796875 20.265625 -20.09375 
Q 16.0625 -19.390625 12.109375 -17.921875 
L 12.109375 -9.1875 
Q 16.0625 -11.328125 19.921875 -12.34375 
Q 23.78125 -13.375 27.78125 -13.375 
Q 36.625 -13.375 41.015625 -8.765625 
Q 45.40625 -4.15625 45.40625 5.171875 
L 45.40625 9.625 
Q 42.625 4.78125 38.28125 2.390625 
Q 33.9375 0 27.875 0 
Q 17.828125 0 11.671875 7.65625 
Q 5.515625 15.328125 5.515625 27.984375 
Q 5.515625 40.671875 11.671875 48.328125 
Q 17.828125 56 27.875 56 
Q 33.9375 56 38.28125 53.609375 
Q 42.625 51.21875 45.40625 46.390625 
L 45.40625 54.6875 
L 54.390625 54.6875 
z
" id="DejaVuSans-103"/>
       <path d="M 56.203125 29.59375 
L 56.203125 25.203125 
L 14.890625 25.203125 
Q 15.484375 15.921875 20.484375 11.0625 
Q 25.484375 6.203125 34.421875 6.203125 
Q 39.59375 6.203125 44.453125 7.46875 
Q 49.3125 8.734375 54.109375 11.28125 
L 54.109375 2.78125 
Q 49.265625 0.734375 44.1875 -0.34375 
Q 39.109375 -1.421875 33.890625 -1.421875 
Q 20.796875 -1.421875 13.15625 6.1875 
Q 5.515625 13.8125 5.515625 26.8125 
Q 5.515625 40.234375 12.765625 48.109375 
Q 20.015625 56 32.328125 56 
Q 43.359375 56 49.78125 48.890625 
Q 56.203125 41.796875 56.203125 29.59375 
z
M 47.21875 32.234375 
Q 47.125 39.59375 43.09375 43.984375 
Q 39.0625 48.390625 32.421875 48.390625 
Q 24.90625 48.390625 20.390625 44.140625 
Q 15.875 39.890625 15.1875 32.171875 
z
" id="DejaVuSans-101"/>
       <path id="DejaVuSans-32"/>
       <path d="M 31 75.875 
Q 24.46875 64.65625 21.28125 53.65625 
Q 18.109375 42.671875 18.109375 31.390625 
Q 18.109375 20.125 21.3125 9.0625 
Q 24.515625 -2 31 -13.1875 
L 23.1875 -13.1875 
Q 15.875 -1.703125 12.234375 9.375 
Q 8.59375 20.453125 8.59375 31.390625 
Q 8.59375 42.28125 12.203125 53.3125 
Q 15.828125 64.359375 23.1875 75.875 
z
" id="DejaVuSans-40"/>
       <path d="M 8.5 -20.796875 
L 8.5 54.6875 
L 17.484375 54.6875 
L 17.484375 20.703125 
Q 17.484375 13.625 20.84375 10 
Q 24.21875 6.390625 30.8125 6.390625 
Q 38.03125 6.390625 41.671875 10.484375 
Q 45.3125 14.59375 45.3125 22.796875 
L 45.3125 54.6875 
L 54.296875 54.6875 
L 54.296875 12.59375 
Q 54.296875 9.671875 55.140625 8.28125 
Q 56 6.890625 57.8125 6.890625 
Q 58.25 6.890625 59.03125 7.15625 
Q 59.8125 7.421875 61.1875 8.015625 
L 61.1875 0.78125 
Q 59.1875 -0.34375 57.390625 -0.875 
Q 55.609375 -1.421875 53.90625 -1.421875 
Q 50.53125 -1.421875 48.53125 0.484375 
Q 46.53125 2.390625 45.796875 6.296875 
Q 43.359375 2.4375 39.8125 0.5 
Q 36.28125 -1.421875 31.5 -1.421875 
Q 26.515625 -1.421875 23.015625 0.484375 
Q 19.53125 2.390625 17.484375 6.203125 
L 17.484375 -20.796875 
z
" id="DejaVuSans-956"/>
       <path d="M 8.015625 75.875 
L 15.828125 75.875 
Q 23.140625 64.359375 26.78125 53.3125 
Q 30.421875 42.28125 30.421875 31.390625 
Q 30.421875 20.453125 26.78125 9.375 
Q 23.140625 -1.703125 15.828125 -13.1875 
L 8.015625 -13.1875 
Q 14.5 -2 17.703125 9.0625 
Q 20.90625 20.125 20.90625 31.390625 
Q 20.90625 42.671875 17.703125 53.65625 
Q 14.5 64.65625 8.015625 75.875 
z
" id="DejaVuSans-41"/>
      </defs>
      <use xlink:href="#DejaVuSans-86"/>
      <use x="60.658203" xlink:href="#DejaVuSans-111"/>
      <use x="121.839844" xlink:href="#DejaVuSans-108"/>
      <use x="149.623047" xlink:href="#DejaVuSans-116"/>
      <use x="188.832031" xlink:href="#DejaVuSans-97"/>
      <use x="250.111328" xlink:href="#DejaVuSans-103"/>
      <use x="313.587891" xlink:href="#DejaVuSans-101"/>
      <use x="375.111328" xlink:href="#DejaVuSans-32"/>
      <use x="406.898438" xlink:href="#DejaVuSans-40"/>
      <use x="445.912109" xlink:href="#DejaVuSans-956"/>
      <use x="509.535156" xlink:href="#DejaVuSans-86"/>
      <use x="577.943359" xlink:href="#DejaVuSans-41"/>
     </g>
    </g>
   </g>
   <g id="line2d_10">
    <path clip-path="url(#p10e96551b3)" d="M 115.363636 105.374923 
L 116.380215 111.949729 
L 117.396794 116.706992 
L 118.413372 119.273702 
L 120.446529 121.048016 
L 121.463108 124.910708 
L 122.479687 126.914441 
L 123.496265 123.090205 
L 124.512844 121.945746 
L 125.529422 122.982342 
L 126.546001 129.405949 
L 127.56258 140.550723 
L 128.579158 142.810119 
L 129.595737 142.773287 
L 130.612316 139.79455 
L 131.628894 134.985146 
L 132.645473 134.284788 
L 133.662051 132.733637 
L 134.67863 133.987507 
L 135.695209 134.015613 
L 136.711787 133.272694 
L 137.728366 130.419149 
L 138.744944 124.767398 
L 139.761523 120.632852 
L 140.778102 118.601071 
L 141.79468 124.752799 
L 142.811259 129.246756 
L 143.827837 131.504385 
L 144.844416 132.241222 
L 145.860995 129.70449 
L 146.877573 130.84292 
L 147.894152 131.496752 
L 148.910731 126.901825 
L 149.927309 121.63292 
L 150.943888 117.442531 
L 151.960466 127.239481 
L 152.977045 152.15639 
L 153.993624 144.906446 
L 155.010202 118.769344 
L 157.043359 82.50537 
L 158.059938 93.816521 
L 159.076517 107.309573 
L 161.109674 115.363345 
L 162.126253 115.536311 
L 163.142831 117.03541 
L 164.15941 125.433741 
L 165.175988 124.487053 
L 166.192567 129.232196 
L 167.209146 127.020986 
L 168.225724 128.699958 
L 169.242303 127.875051 
L 170.258881 130.133247 
L 171.27546 131.802319 
L 172.292039 134.354535 
L 173.308617 134.699243 
L 174.325196 136.272611 
L 175.341774 138.120688 
L 176.358353 137.639875 
L 177.374932 138.262266 
L 179.408089 140.033723 
L 180.424668 138.224858 
L 181.441246 127.776513 
L 182.457825 111.130331 
L 183.474403 107.100858 
L 184.490982 108.868241 
L 186.524139 136.676647 
L 188.557296 136.330329 
L 189.573875 133.929213 
L 190.590454 133.720374 
L 191.607032 128.070379 
L 192.623611 128.587492 
L 193.640189 132.071601 
L 194.656768 129.021695 
L 195.673347 124.101225 
L 196.689925 111.799788 
L 197.706504 106.851313 
L 199.739661 115.17811 
L 200.75624 119.933058 
L 201.772818 125.824735 
L 202.789397 133.18874 
L 203.805976 135.545156 
L 204.822554 137.34048 
L 205.839133 135.956792 
L 206.855711 136.465268 
L 207.87229 137.975542 
L 209.905447 137.509125 
L 210.922026 136.116069 
L 211.938604 136.108066 
L 212.955183 141.199282 
L 213.971762 144.451522 
L 214.98834 140.851354 
L 216.004919 137.894974 
L 217.021498 136.62894 
L 218.038076 136.281494 
L 219.054655 133.180587 
L 220.071233 133.084713 
L 221.087812 131.567264 
L 222.104391 131.580578 
L 223.120969 127.741228 
L 224.137548 118.090388 
L 225.154126 115.226259 
L 226.170705 122.148561 
L 227.187284 125.435213 
L 228.203862 126.414199 
L 230.237019 127.116907 
L 231.253598 127.7881 
L 232.270177 127.483828 
L 233.286755 125.22052 
L 234.303334 125.194062 
L 235.319913 127.466822 
L 236.336491 133.345349 
L 237.35307 143.292487 
L 238.369648 144.663278 
L 239.386227 144.192259 
L 240.402806 141.659352 
L 241.419384 137.688756 
L 242.435963 137.162569 
L 243.452541 132.497569 
L 244.46912 126.431287 
L 245.485699 124.159222 
L 246.502277 125.781008 
L 247.518856 121.813383 
L 248.535435 121.443872 
L 249.552013 117.009552 
L 250.568592 115.349669 
L 251.58517 112.804251 
L 252.601749 114.008224 
L 253.618328 116.987058 
L 254.634906 119.611218 
L 255.651485 120.09569 
L 256.668063 122.051229 
L 257.684642 125.288745 
L 259.717799 133.221615 
L 260.734378 132.576906 
L 261.750956 132.423333 
L 262.767535 130.34712 
L 263.784114 131.886368 
L 264.800692 135.83742 
L 265.817271 134.954018 
L 266.83385 133.437841 
L 267.850428 133.304266 
L 268.867007 131.142567 
L 270.900164 123.309874 
L 271.916743 121.136967 
L 272.933321 120.286053 
L 273.9499 124.122378 
L 274.966478 120.214327 
L 275.983057 122.309313 
L 276.999636 122.523363 
L 278.016214 125.21717 
L 279.032793 120.859413 
L 280.049371 120.609585 
L 281.06595 121.594606 
L 282.082529 124.472933 
L 283.099107 126.547766 
L 284.115686 127.260737 
L 285.132265 128.557157 
L 286.148843 129.628627 
L 287.165422 129.73183 
L 288.182 124.587621 
L 289.198579 124.386816 
L 290.215158 127.540781 
L 291.231736 133.296586 
L 292.248315 141.089346 
L 293.264893 138.445247 
L 294.281472 134.136841 
L 295.298051 140.361567 
L 296.314629 143.920314 
L 297.331208 143.764673 
L 299.364365 138.415319 
L 300.380944 137.416754 
L 301.397522 134.14595 
L 302.414101 135.537358 
L 303.43068 134.537575 
L 304.447258 133.950739 
L 305.463837 132.215439 
L 306.480415 132.265004 
L 307.496994 131.799294 
L 308.513573 132.317502 
L 309.530151 133.863631 
L 310.54673 135.104049 
L 312.579887 132.167614 
L 313.596466 133.339647 
L 314.613044 132.686561 
L 315.629623 127.250563 
L 316.646201 124.881848 
L 317.66278 125.874475 
L 318.679359 119.159598 
L 319.695937 109.179335 
L 320.712516 104.016279 
L 321.729095 104.231275 
L 323.762252 134.582656 
L 324.77883 131.074648 
L 325.795409 129.462319 
L 326.811988 128.421447 
L 327.828566 128.457391 
L 328.845145 133.981572 
L 330.878302 159.334308 
L 331.894881 158.593047 
L 332.911459 148.233058 
L 333.928038 121.888905 
L 335.961195 65.567166 
L 336.977774 66.746449 
L 340.02751 132.027374 
L 341.044088 134.172257 
L 342.060667 134.594859 
L 344.093824 129.802008 
L 345.110403 130.602919 
L 346.126981 133.796658 
L 347.14356 143.183884 
L 348.160138 140.512377 
L 349.176717 138.253455 
L 350.193296 136.791773 
L 353.243032 133.541968 
L 354.25961 132.183694 
L 355.276189 132.19134 
L 356.292767 135.818698 
L 357.309346 137.129032 
L 358.325925 134.165625 
L 359.342503 128.842523 
L 360.359082 120.726097 
L 361.37566 115.052204 
L 362.392239 112.665773 
L 363.408818 116.411548 
L 365.441975 124.426788 
L 366.458553 126.194449 
L 367.475132 128.479237 
L 368.491711 136.998164 
L 369.508289 144.113122 
L 370.524868 146.089628 
L 371.541447 141.180292 
L 372.558025 129.041454 
L 373.574604 126.288742 
L 374.591182 131.327251 
L 375.607761 131.535036 
L 376.62434 132.817663 
L 377.640918 127.160541 
L 378.657497 123.708999 
L 379.674075 126.652683 
L 381.707233 130.957899 
L 382.723811 131.849577 
L 383.74039 131.156303 
L 384.756968 132.05177 
L 385.773547 132.787273 
L 386.790126 127.94718 
L 388.823283 115.85095 
L 389.839862 114.941844 
L 390.85644 120.799104 
L 391.873019 122.391697 
L 392.889597 120.466329 
L 393.906176 123.476517 
L 394.922755 127.748796 
L 395.939333 129.473918 
L 396.955912 130.491885 
L 397.97249 127.959333 
L 398.989069 127.371918 
L 400.005648 128.138397 
L 401.022226 134.584256 
L 402.038805 146.111389 
L 403.055383 146.338785 
L 404.071962 143.216347 
L 406.105119 126.862243 
L 407.121698 128.434973 
L 409.154855 126.057509 
L 410.171434 125.56614 
L 411.188012 123.41547 
L 412.204591 119.572268 
L 413.22117 121.336396 
L 414.237748 117.914126 
L 415.254327 120.731786 
L 417.287484 130.94746 
L 418.304063 131.17416 
L 419.320641 133.257413 
L 420.33722 133.569588 
L 421.353799 135.706594 
L 422.370377 138.376282 
L 423.386956 136.335728 
L 424.403534 134.609053 
L 425.420113 131.324654 
L 426.436692 130.150927 
L 427.45327 128.724565 
L 428.469849 125.091071 
L 429.486427 119.661585 
L 430.503006 119.413945 
L 431.519585 120.629023 
L 432.536163 121.475709 
L 433.552742 123.671548 
L 434.56932 127.628232 
L 435.585899 128.496073 
L 436.602478 126.040064 
L 437.619056 125.624512 
L 438.635635 121.509739 
L 439.652214 120.028203 
L 440.668792 126.106624 
L 441.685371 120.864422 
L 442.701949 119.908281 
L 443.718528 116.261186 
L 444.735107 120.206092 
L 445.751685 129.03589 
L 446.768264 132.72124 
L 447.784842 131.564044 
L 448.801421 130.996381 
L 449.818 131.378778 
L 451.851157 138.446709 
L 453.884314 133.324299 
L 454.900893 127.473559 
L 455.917471 128.361692 
L 456.93405 132.586675 
L 457.950629 132.365512 
L 458.967207 132.478465 
L 459.983786 138.240715 
L 461.000364 141.673778 
L 462.016943 140.037484 
L 464.0501 133.319329 
L 465.066679 132.148179 
L 466.083257 136.783604 
L 467.099836 137.177892 
L 468.116415 131.545151 
L 469.132993 124.503616 
L 470.149572 115.208276 
L 471.16615 112.728088 
L 472.182729 126.236631 
L 473.199308 159.99866 
L 474.215886 156.102477 
L 475.232465 127.500409 
L 476.249044 113.314665 
L 477.265622 101.461894 
L 479.298779 134.153318 
L 481.331937 129.263623 
L 482.348515 122.699964 
L 483.365094 124.248891 
L 484.381672 130.594317 
L 485.398251 130.686179 
L 486.41483 132.133017 
L 487.431408 141.00308 
L 488.447987 146.396201 
L 489.464565 141.324332 
L 490.481144 137.269271 
L 491.497723 136.07743 
L 492.514301 135.534357 
L 493.53088 135.962382 
L 494.547459 137.522779 
L 496.580616 132.642104 
L 497.597194 130.810692 
L 498.613773 136.810076 
L 499.630352 138.346384 
L 500.64693 135.929782 
L 501.663509 135.435589 
L 502.680087 134.200015 
L 503.696666 137.999154 
L 504.713245 142.551668 
L 505.729823 139.848017 
L 506.746402 136.064495 
L 507.762981 131.438986 
L 508.779559 128.391255 
L 509.796138 127.752634 
L 510.812716 120.400341 
L 511.829295 110.795841 
L 512.845874 107.65652 
L 513.862452 109.607795 
L 515.895609 128.013306 
L 516.912188 124.282322 
L 517.928767 123.491299 
L 518.945345 124.88243 
L 519.961924 125.625665 
L 520.978502 125.085539 
L 521.995081 120.108529 
L 523.01166 119.071323 
L 524.028238 113.446619 
L 525.044817 109.976366 
L 526.061396 103.660975 
L 527.077974 104.361126 
L 529.111131 116.164218 
L 532.160867 127.292705 
L 533.177446 126.776439 
L 534.194024 126.538089 
L 535.210603 127.014164 
L 536.227182 130.112938 
L 537.24376 134.512397 
L 538.260339 140.273524 
L 539.276917 147.263889 
L 540.293496 145.905069 
L 541.310075 140.964448 
L 543.343232 128.500547 
L 544.359811 130.631357 
L 545.376389 129.118403 
L 546.392968 126.624564 
L 547.409546 125.744345 
L 548.426125 129.347953 
L 549.442704 129.6009 
L 550.459282 130.296234 
L 551.475861 123.176817 
L 552.492439 114.906367 
L 553.509018 105.545078 
L 554.525597 104.280099 
L 555.542175 112.901392 
L 556.558754 120.058202 
L 557.575332 125.918398 
L 558.591911 126.700313 
L 559.60849 125.53904 
L 560.625068 124.085791 
L 562.658226 117.460696 
L 563.674804 117.590608 
L 564.691383 122.353179 
L 565.707961 128.553689 
L 566.72454 137.544594 
L 567.741119 136.207924 
L 568.757697 132.530821 
L 569.774276 131.956687 
L 570.790854 130.218014 
L 571.807433 132.246791 
L 572.824012 130.397461 
L 573.84059 127.196858 
L 574.857169 125.969654 
L 575.873747 129.087356 
L 576.890326 129.497631 
L 577.906905 130.671322 
L 578.923483 123.290897 
L 579.940062 119.955831 
L 580.956641 125.095494 
L 582.989798 137.407412 
L 584.006376 140.359109 
L 585.022955 139.082718 
L 586.039534 136.633298 
L 587.056112 133.048568 
L 588.072691 131.685084 
L 589.089269 131.248934 
L 590.105848 132.311326 
L 591.122427 132.140265 
L 592.139005 128.631532 
L 593.155584 118.836905 
L 594.172163 104.664927 
L 595.188741 104.999701 
L 596.20532 111.432209 
L 598.238477 132.706444 
L 599.255056 129.39165 
L 601.288213 124.886512 
L 602.304791 124.380676 
L 603.32137 127.785129 
L 604.337949 126.272056 
L 605.354527 127.152165 
L 606.371106 122.423416 
L 607.387684 118.5681 
L 608.404263 112.688306 
L 609.420842 111.103412 
L 610.43742 113.24026 
L 611.453999 116.201924 
L 612.470578 118.32299 
L 613.487156 124.417073 
L 614.503735 134.62561 
L 616.536892 165.526172 
L 617.553471 167.310481 
L 618.570049 158.452926 
L 621.619785 86.999627 
L 622.636364 91.91044 
L 622.636364 91.91044 
" style="fill:none;stroke:#000000;stroke-linecap:square;stroke-width:1.5;"/>
   </g>
   <g id="patch_3">
    <path d="M 90 172.397647 
L 90 60.48 
" style="fill:none;stroke:#000000;stroke-linecap:square;stroke-linejoin:miter;stroke-width:0.8;"/>
   </g>
   <g id="patch_4">
    <path d="M 648 172.397647 
L 648 60.48 
" style="fill:none;stroke:#000000;stroke-linecap:square;stroke-linejoin:miter;stroke-width:0.8;"/>
   </g>
   <g id="patch_5">
    <path d="M 90 172.397647 
L 648 172.397647 
" style="fill:none;stroke:#000000;stroke-linecap:square;stroke-linejoin:miter;stroke-width:0.8;"/>
   </g>
   <g id="patch_6">
    <path d="M 90 60.48 
L 648 60.48 
" style="fill:none;stroke:#000000;stroke-linecap:square;stroke-linejoin:miter;stroke-width:0.8;"/>
   </g>
   <g id="text_5">
    <!-- raw EMG data -->
    <g transform="translate(327.00375 54.48)scale(0.12 -0.12)">
     <defs>
      <path d="M 41.109375 46.296875 
Q 39.59375 47.171875 37.8125 47.578125 
Q 36.03125 48 33.890625 48 
Q 26.265625 48 22.1875 43.046875 
Q 18.109375 38.09375 18.109375 28.8125 
L 18.109375 0 
L 9.078125 0 
L 9.078125 54.6875 
L 18.109375 54.6875 
L 18.109375 46.1875 
Q 20.953125 51.171875 25.484375 53.578125 
Q 30.03125 56 36.53125 56 
Q 37.453125 56 38.578125 55.875 
Q 39.703125 55.765625 41.0625 55.515625 
z
" id="DejaVuSans-114"/>
      <path d="M 4.203125 54.6875 
L 13.1875 54.6875 
L 24.421875 12.015625 
L 35.59375 54.6875 
L 46.1875 54.6875 
L 57.421875 12.015625 
L 68.609375 54.6875 
L 77.59375 54.6875 
L 63.28125 0 
L 52.6875 0 
L 40.921875 44.828125 
L 29.109375 0 
L 18.5 0 
z
" id="DejaVuSans-119"/>
      <path d="M 9.8125 72.90625 
L 55.90625 72.90625 
L 55.90625 64.59375 
L 19.671875 64.59375 
L 19.671875 43.015625 
L 54.390625 43.015625 
L 54.390625 34.71875 
L 19.671875 34.71875 
L 19.671875 8.296875 
L 56.78125 8.296875 
L 56.78125 0 
L 9.8125 0 
z
" id="DejaVuSans-69"/>
      <path d="M 9.8125 72.90625 
L 24.515625 72.90625 
L 43.109375 23.296875 
L 61.8125 72.90625 
L 76.515625 72.90625 
L 76.515625 0 
L 66.890625 0 
L 66.890625 64.015625 
L 48.09375 14.015625 
L 38.1875 14.015625 
L 19.390625 64.015625 
L 19.390625 0 
L 9.8125 0 
z
" id="DejaVuSans-77"/>
      <path d="M 59.515625 10.40625 
L 59.515625 29.984375 
L 43.40625 29.984375 
L 43.40625 38.09375 
L 69.28125 38.09375 
L 69.28125 6.78125 
Q 63.578125 2.734375 56.6875 0.65625 
Q 49.8125 -1.421875 42 -1.421875 
Q 24.90625 -1.421875 15.25 8.5625 
Q 5.609375 18.5625 5.609375 36.375 
Q 5.609375 54.25 15.25 64.234375 
Q 24.90625 74.21875 42 74.21875 
Q 49.125 74.21875 55.546875 72.453125 
Q 61.96875 70.703125 67.390625 67.28125 
L 67.390625 56.78125 
Q 61.921875 61.421875 55.765625 63.765625 
Q 49.609375 66.109375 42.828125 66.109375 
Q 29.4375 66.109375 22.71875 58.640625 
Q 16.015625 51.171875 16.015625 36.375 
Q 16.015625 21.625 22.71875 14.15625 
Q 29.4375 6.6875 42.828125 6.6875 
Q 48.046875 6.6875 52.140625 7.59375 
Q 56.25 8.5 59.515625 10.40625 
z
" id="DejaVuSans-71"/>
      <path d="M 45.40625 46.390625 
L 45.40625 75.984375 
L 54.390625 75.984375 
L 54.390625 0 
L 45.40625 0 
L 45.40625 8.203125 
Q 42.578125 3.328125 38.25 0.953125 
Q 33.9375 -1.421875 27.875 -1.421875 
Q 17.96875 -1.421875 11.734375 6.484375 
Q 5.515625 14.40625 5.515625 27.296875 
Q 5.515625 40.1875 11.734375 48.09375 
Q 17.96875 56 27.875 56 
Q 33.9375 56 38.25 53.625 
Q 42.578125 51.265625 45.40625 46.390625 
z
M 14.796875 27.296875 
Q 14.796875 17.390625 18.875 11.75 
Q 22.953125 6.109375 30.078125 6.109375 
Q 37.203125 6.109375 41.296875 11.75 
Q 45.40625 17.390625 45.40625 27.296875 
Q 45.40625 37.203125 41.296875 42.84375 
Q 37.203125 48.484375 30.078125 48.484375 
Q 22.953125 48.484375 18.875 42.84375 
Q 14.796875 37.203125 14.796875 27.296875 
z
" id="DejaVuSans-100"/>
     </defs>
     <use xlink:href="#DejaVuSans-114"/>
     <use x="41.113281" xlink:href="#DejaVuSans-97"/>
     <use x="102.392578" xlink:href="#DejaVuSans-119"/>
     <use x="184.179688" xlink:href="#DejaVuSans-32"/>
     <use x="215.966797" xlink:href="#DejaVuSans-69"/>
     <use x="279.150391" xlink:href="#DejaVuSans-77"/>
     <use x="365.429688" xlink:href="#DejaVuSans-71"/>
     <use x="442.919922" xlink:href="#DejaVuSans-32"/>
     <use x="474.707031" xlink:href="#DejaVuSans-100"/>
     <use x="538.183594" xlink:href="#DejaVuSans-97"/>
     <use x="599.462891" xlink:href="#DejaVuSans-116"/>
     <use x="638.671875" xlink:href="#DejaVuSans-97"/>
    </g>
   </g>
  </g>
  <g id="axes_2">
   <g id="patch_7">
    <path d="M 90 306.698824 
L 648 306.698824 
L 648 194.781176 
L 90 194.781176 
z
" style="fill:#ffffff;"/>
   </g>
   <g id="matplotlib.axis_3">
    <g id="xtick_7">
     <g id="line2d_11">
      <g>
       <use style="stroke:#000000;stroke-width:0.8;" x="115.363636" xlink:href="#md1925018c1" y="306.698824"/>
      </g>
     </g>
    </g>
    <g id="xtick_8">
     <g id="line2d_12">
      <g>
       <use style="stroke:#000000;stroke-width:0.8;" x="216.818182" xlink:href="#md1925018c1" y="306.698824"/>
      </g>
     </g>
    </g>
    <g id="xtick_9">
     <g id="line2d_13">
      <g>
       <use style="stroke:#000000;stroke-width:0.8;" x="318.272727" xlink:href="#md1925018c1" y="306.698824"/>
      </g>
     </g>
    </g>
    <g id="xtick_10">
     <g id="line2d_14">
      <g>
       <use style="stroke:#000000;stroke-width:0.8;" x="419.727273" xlink:href="#md1925018c1" y="306.698824"/>
      </g>
     </g>
    </g>
    <g id="xtick_11">
     <g id="line2d_15">
      <g>
       <use style="stroke:#000000;stroke-width:0.8;" x="521.181818" xlink:href="#md1925018c1" y="306.698824"/>
      </g>
     </g>
    </g>
    <g id="xtick_12">
     <g id="line2d_16">
      <g>
       <use style="stroke:#000000;stroke-width:0.8;" x="622.636364" xlink:href="#md1925018c1" y="306.698824"/>
      </g>
     </g>
    </g>
   </g>
   <g id="matplotlib.axis_4">
    <g id="ytick_4">
     <g id="line2d_17">
      <g>
       <use style="stroke:#000000;stroke-width:0.8;" x="90" xlink:href="#m8ea9c1a119" y="276.175829"/>
      </g>
     </g>
     <g id="text_6">
      <!-- DOWN -->
      <g transform="translate(50.059375 279.975048)scale(0.1 -0.1)">
       <defs>
        <path d="M 19.671875 64.796875 
L 19.671875 8.109375 
L 31.59375 8.109375 
Q 46.6875 8.109375 53.6875 14.9375 
Q 60.6875 21.78125 60.6875 36.53125 
Q 60.6875 51.171875 53.6875 57.984375 
Q 46.6875 64.796875 31.59375 64.796875 
z
M 9.8125 72.90625 
L 30.078125 72.90625 
Q 51.265625 72.90625 61.171875 64.09375 
Q 71.09375 55.28125 71.09375 36.53125 
Q 71.09375 17.671875 61.125 8.828125 
Q 51.171875 0 30.078125 0 
L 9.8125 0 
z
" id="DejaVuSans-68"/>
        <path d="M 39.40625 66.21875 
Q 28.65625 66.21875 22.328125 58.203125 
Q 16.015625 50.203125 16.015625 36.375 
Q 16.015625 22.609375 22.328125 14.59375 
Q 28.65625 6.59375 39.40625 6.59375 
Q 50.140625 6.59375 56.421875 14.59375 
Q 62.703125 22.609375 62.703125 36.375 
Q 62.703125 50.203125 56.421875 58.203125 
Q 50.140625 66.21875 39.40625 66.21875 
z
M 39.40625 74.21875 
Q 54.734375 74.21875 63.90625 63.9375 
Q 73.09375 53.65625 73.09375 36.375 
Q 73.09375 19.140625 63.90625 8.859375 
Q 54.734375 -1.421875 39.40625 -1.421875 
Q 24.03125 -1.421875 14.8125 8.828125 
Q 5.609375 19.09375 5.609375 36.375 
Q 5.609375 53.65625 14.8125 63.9375 
Q 24.03125 74.21875 39.40625 74.21875 
z
" id="DejaVuSans-79"/>
        <path d="M 3.328125 72.90625 
L 13.28125 72.90625 
L 28.609375 11.28125 
L 43.890625 72.90625 
L 54.984375 72.90625 
L 70.3125 11.28125 
L 85.59375 72.90625 
L 95.609375 72.90625 
L 77.296875 0 
L 64.890625 0 
L 49.515625 63.28125 
L 33.984375 0 
L 21.578125 0 
z
" id="DejaVuSans-87"/>
        <path d="M 9.8125 72.90625 
L 23.09375 72.90625 
L 55.421875 11.921875 
L 55.421875 72.90625 
L 64.984375 72.90625 
L 64.984375 0 
L 51.703125 0 
L 19.390625 60.984375 
L 19.390625 0 
L 9.8125 0 
z
" id="DejaVuSans-78"/>
       </defs>
       <use xlink:href="#DejaVuSans-68"/>
       <use x="77.001953" xlink:href="#DejaVuSans-79"/>
       <use x="155.712891" xlink:href="#DejaVuSans-87"/>
       <use x="254.589844" xlink:href="#DejaVuSans-78"/>
      </g>
     </g>
    </g>
    <g id="ytick_5">
     <g id="line2d_18">
      <g>
       <use style="stroke:#000000;stroke-width:0.8;" x="90" xlink:href="#m8ea9c1a119" y="225.304171"/>
      </g>
     </g>
     <g id="text_7">
      <!-- UP -->
      <g transform="translate(69.651562 229.10339)scale(0.1 -0.1)">
       <defs>
        <path d="M 8.6875 72.90625 
L 18.609375 72.90625 
L 18.609375 28.609375 
Q 18.609375 16.890625 22.84375 11.734375 
Q 27.09375 6.59375 36.625 6.59375 
Q 46.09375 6.59375 50.34375 11.734375 
Q 54.59375 16.890625 54.59375 28.609375 
L 54.59375 72.90625 
L 64.5 72.90625 
L 64.5 27.390625 
Q 64.5 13.140625 57.4375 5.859375 
Q 50.390625 -1.421875 36.625 -1.421875 
Q 22.796875 -1.421875 15.734375 5.859375 
Q 8.6875 13.140625 8.6875 27.390625 
z
" id="DejaVuSans-85"/>
        <path d="M 19.671875 64.796875 
L 19.671875 37.40625 
L 32.078125 37.40625 
Q 38.96875 37.40625 42.71875 40.96875 
Q 46.484375 44.53125 46.484375 51.125 
Q 46.484375 57.671875 42.71875 61.234375 
Q 38.96875 64.796875 32.078125 64.796875 
z
M 9.8125 72.90625 
L 32.078125 72.90625 
Q 44.34375 72.90625 50.609375 67.359375 
Q 56.890625 61.8125 56.890625 51.125 
Q 56.890625 40.328125 50.609375 34.8125 
Q 44.34375 29.296875 32.078125 29.296875 
L 19.671875 29.296875 
L 19.671875 0 
L 9.8125 0 
z
" id="DejaVuSans-80"/>
       </defs>
       <use xlink:href="#DejaVuSans-85"/>
       <use x="73.193359" xlink:href="#DejaVuSans-80"/>
      </g>
     </g>
    </g>
    <g id="text_8">
     <!-- Neuron activation -->
     <g transform="translate(43.979687 295.249375)rotate(-90)scale(0.1 -0.1)">
      <defs>
       <path d="M 8.5 21.578125 
L 8.5 54.6875 
L 17.484375 54.6875 
L 17.484375 21.921875 
Q 17.484375 14.15625 20.5 10.265625 
Q 23.53125 6.390625 29.59375 6.390625 
Q 36.859375 6.390625 41.078125 11.03125 
Q 45.3125 15.671875 45.3125 23.6875 
L 45.3125 54.6875 
L 54.296875 54.6875 
L 54.296875 0 
L 45.3125 0 
L 45.3125 8.40625 
Q 42.046875 3.421875 37.71875 1 
Q 33.40625 -1.421875 27.6875 -1.421875 
Q 18.265625 -1.421875 13.375 4.4375 
Q 8.5 10.296875 8.5 21.578125 
z
M 31.109375 56 
z
" id="DejaVuSans-117"/>
       <path d="M 54.890625 33.015625 
L 54.890625 0 
L 45.90625 0 
L 45.90625 32.71875 
Q 45.90625 40.484375 42.875 44.328125 
Q 39.84375 48.1875 33.796875 48.1875 
Q 26.515625 48.1875 22.3125 43.546875 
Q 18.109375 38.921875 18.109375 30.90625 
L 18.109375 0 
L 9.078125 0 
L 9.078125 54.6875 
L 18.109375 54.6875 
L 18.109375 46.1875 
Q 21.34375 51.125 25.703125 53.5625 
Q 30.078125 56 35.796875 56 
Q 45.21875 56 50.046875 50.171875 
Q 54.890625 44.34375 54.890625 33.015625 
z
" id="DejaVuSans-110"/>
       <path d="M 48.78125 52.59375 
L 48.78125 44.1875 
Q 44.96875 46.296875 41.140625 47.34375 
Q 37.3125 48.390625 33.40625 48.390625 
Q 24.65625 48.390625 19.8125 42.84375 
Q 14.984375 37.3125 14.984375 27.296875 
Q 14.984375 17.28125 19.8125 11.734375 
Q 24.65625 6.203125 33.40625 6.203125 
Q 37.3125 6.203125 41.140625 7.25 
Q 44.96875 8.296875 48.78125 10.40625 
L 48.78125 2.09375 
Q 45.015625 0.34375 40.984375 -0.53125 
Q 36.96875 -1.421875 32.421875 -1.421875 
Q 20.0625 -1.421875 12.78125 6.34375 
Q 5.515625 14.109375 5.515625 27.296875 
Q 5.515625 40.671875 12.859375 48.328125 
Q 20.21875 56 33.015625 56 
Q 37.15625 56 41.109375 55.140625 
Q 45.0625 54.296875 48.78125 52.59375 
z
" id="DejaVuSans-99"/>
       <path d="M 9.421875 54.6875 
L 18.40625 54.6875 
L 18.40625 0 
L 9.421875 0 
z
M 9.421875 75.984375 
L 18.40625 75.984375 
L 18.40625 64.59375 
L 9.421875 64.59375 
z
" id="DejaVuSans-105"/>
       <path d="M 2.984375 54.6875 
L 12.5 54.6875 
L 29.59375 8.796875 
L 46.6875 54.6875 
L 56.203125 54.6875 
L 35.6875 0 
L 23.484375 0 
z
" id="DejaVuSans-118"/>
      </defs>
      <use xlink:href="#DejaVuSans-78"/>
      <use x="74.804688" xlink:href="#DejaVuSans-101"/>
      <use x="136.328125" xlink:href="#DejaVuSans-117"/>
      <use x="199.707031" xlink:href="#DejaVuSans-114"/>
      <use x="238.570312" xlink:href="#DejaVuSans-111"/>
      <use x="299.751953" xlink:href="#DejaVuSans-110"/>
      <use x="363.130859" xlink:href="#DejaVuSans-32"/>
      <use x="394.917969" xlink:href="#DejaVuSans-97"/>
      <use x="456.197266" xlink:href="#DejaVuSans-99"/>
      <use x="511.177734" xlink:href="#DejaVuSans-116"/>
      <use x="550.386719" xlink:href="#DejaVuSans-105"/>
      <use x="578.169922" xlink:href="#DejaVuSans-118"/>
      <use x="637.349609" xlink:href="#DejaVuSans-97"/>
      <use x="698.628906" xlink:href="#DejaVuSans-116"/>
      <use x="737.837891" xlink:href="#DejaVuSans-105"/>
      <use x="765.621094" xlink:href="#DejaVuSans-111"/>
      <use x="826.802734" xlink:href="#DejaVuSans-110"/>
     </g>
    </g>
   </g>
   <g id="EventCollection_1">
    <path clip-path="url(#pa477158fce)" d="M 137.683636 263.457914 
L 137.683636 288.893743 
" style="fill:none;stroke:#000000;stroke-width:1.5;"/>
    <path clip-path="url(#pa477158fce)" d="M 139.712727 263.457914 
L 139.712727 288.893743 
" style="fill:none;stroke:#000000;stroke-width:1.5;"/>
    <path clip-path="url(#pa477158fce)" d="M 149.858182 263.457914 
L 149.858182 288.893743 
" style="fill:none;stroke:#000000;stroke-width:1.5;"/>
    <path clip-path="url(#pa477158fce)" d="M 150.872727 263.457914 
L 150.872727 288.893743 
" style="fill:none;stroke:#000000;stroke-width:1.5;"/>
    <path clip-path="url(#pa477158fce)" d="M 154.930909 263.457914 
L 154.930909 288.893743 
" style="fill:none;stroke:#000000;stroke-width:1.5;"/>
    <path clip-path="url(#pa477158fce)" d="M 155.945455 263.457914 
L 155.945455 288.893743 
" style="fill:none;stroke:#000000;stroke-width:1.5;"/>
    <path clip-path="url(#pa477158fce)" d="M 156.96 263.457914 
L 156.96 288.893743 
" style="fill:none;stroke:#000000;stroke-width:1.5;"/>
    <path clip-path="url(#pa477158fce)" d="M 157.974545 263.457914 
L 157.974545 288.893743 
" style="fill:none;stroke:#000000;stroke-width:1.5;"/>
    <path clip-path="url(#pa477158fce)" d="M 181.309091 263.457914 
L 181.309091 288.893743 
" style="fill:none;stroke:#000000;stroke-width:1.5;"/>
    <path clip-path="url(#pa477158fce)" d="M 182.323636 263.457914 
L 182.323636 288.893743 
" style="fill:none;stroke:#000000;stroke-width:1.5;"/>
    <path clip-path="url(#pa477158fce)" d="M 183.338182 263.457914 
L 183.338182 288.893743 
" style="fill:none;stroke:#000000;stroke-width:1.5;"/>
    <path clip-path="url(#pa477158fce)" d="M 184.352727 263.457914 
L 184.352727 288.893743 
" style="fill:none;stroke:#000000;stroke-width:1.5;"/>
    <path clip-path="url(#pa477158fce)" d="M 195.512727 263.457914 
L 195.512727 288.893743 
" style="fill:none;stroke:#000000;stroke-width:1.5;"/>
    <path clip-path="url(#pa477158fce)" d="M 196.527273 263.457914 
L 196.527273 288.893743 
" style="fill:none;stroke:#000000;stroke-width:1.5;"/>
    <path clip-path="url(#pa477158fce)" d="M 197.541818 263.457914 
L 197.541818 288.893743 
" style="fill:none;stroke:#000000;stroke-width:1.5;"/>
    <path clip-path="url(#pa477158fce)" d="M 216.818182 263.457914 
L 216.818182 288.893743 
" style="fill:none;stroke:#000000;stroke-width:1.5;"/>
    <path clip-path="url(#pa477158fce)" d="M 222.905455 263.457914 
L 222.905455 288.893743 
" style="fill:none;stroke:#000000;stroke-width:1.5;"/>
    <path clip-path="url(#pa477158fce)" d="M 223.92 263.457914 
L 223.92 288.893743 
" style="fill:none;stroke:#000000;stroke-width:1.5;"/>
    <path clip-path="url(#pa477158fce)" d="M 224.934545 263.457914 
L 224.934545 288.893743 
" style="fill:none;stroke:#000000;stroke-width:1.5;"/>
    <path clip-path="url(#pa477158fce)" d="M 242.181818 263.457914 
L 242.181818 288.893743 
" style="fill:none;stroke:#000000;stroke-width:1.5;"/>
    <path clip-path="url(#pa477158fce)" d="M 244.210909 263.457914 
L 244.210909 288.893743 
" style="fill:none;stroke:#000000;stroke-width:1.5;"/>
    <path clip-path="url(#pa477158fce)" d="M 245.225455 263.457914 
L 245.225455 288.893743 
" style="fill:none;stroke:#000000;stroke-width:1.5;"/>
    <path clip-path="url(#pa477158fce)" d="M 249.283636 263.457914 
L 249.283636 288.893743 
" style="fill:none;stroke:#000000;stroke-width:1.5;"/>
    <path clip-path="url(#pa477158fce)" d="M 270.589091 263.457914 
L 270.589091 288.893743 
" style="fill:none;stroke:#000000;stroke-width:1.5;"/>
    <path clip-path="url(#pa477158fce)" d="M 301.025455 263.457914 
L 301.025455 288.893743 
" style="fill:none;stroke:#000000;stroke-width:1.5;"/>
    <path clip-path="url(#pa477158fce)" d="M 315.229091 263.457914 
L 315.229091 288.893743 
" style="fill:none;stroke:#000000;stroke-width:1.5;"/>
    <path clip-path="url(#pa477158fce)" d="M 318.272727 263.457914 
L 318.272727 288.893743 
" style="fill:none;stroke:#000000;stroke-width:1.5;"/>
    <path clip-path="url(#pa477158fce)" d="M 319.287273 263.457914 
L 319.287273 288.893743 
" style="fill:none;stroke:#000000;stroke-width:1.5;"/>
    <path clip-path="url(#pa477158fce)" d="M 320.301818 263.457914 
L 320.301818 288.893743 
" style="fill:none;stroke:#000000;stroke-width:1.5;"/>
    <path clip-path="url(#pa477158fce)" d="M 321.316364 263.457914 
L 321.316364 288.893743 
" style="fill:none;stroke:#000000;stroke-width:1.5;"/>
    <path clip-path="url(#pa477158fce)" d="M 333.490909 263.457914 
L 333.490909 288.893743 
" style="fill:none;stroke:#000000;stroke-width:1.5;"/>
    <path clip-path="url(#pa477158fce)" d="M 334.505455 263.457914 
L 334.505455 288.893743 
" style="fill:none;stroke:#000000;stroke-width:1.5;"/>
    <path clip-path="url(#pa477158fce)" d="M 335.52 263.457914 
L 335.52 288.893743 
" style="fill:none;stroke:#000000;stroke-width:1.5;"/>
    <path clip-path="url(#pa477158fce)" d="M 336.534545 263.457914 
L 336.534545 288.893743 
" style="fill:none;stroke:#000000;stroke-width:1.5;"/>
    <path clip-path="url(#pa477158fce)" d="M 337.549091 263.457914 
L 337.549091 288.893743 
" style="fill:none;stroke:#000000;stroke-width:1.5;"/>
    <path clip-path="url(#pa477158fce)" d="M 338.563636 263.457914 
L 338.563636 288.893743 
" style="fill:none;stroke:#000000;stroke-width:1.5;"/>
    <path clip-path="url(#pa477158fce)" d="M 358.854545 263.457914 
L 358.854545 288.893743 
" style="fill:none;stroke:#000000;stroke-width:1.5;"/>
    <path clip-path="url(#pa477158fce)" d="M 359.869091 263.457914 
L 359.869091 288.893743 
" style="fill:none;stroke:#000000;stroke-width:1.5;"/>
    <path clip-path="url(#pa477158fce)" d="M 360.883636 263.457914 
L 360.883636 288.893743 
" style="fill:none;stroke:#000000;stroke-width:1.5;"/>
    <path clip-path="url(#pa477158fce)" d="M 372.043636 263.457914 
L 372.043636 288.893743 
" style="fill:none;stroke:#000000;stroke-width:1.5;"/>
    <path clip-path="url(#pa477158fce)" d="M 373.058182 263.457914 
L 373.058182 288.893743 
" style="fill:none;stroke:#000000;stroke-width:1.5;"/>
    <path clip-path="url(#pa477158fce)" d="M 378.130909 263.457914 
L 378.130909 288.893743 
" style="fill:none;stroke:#000000;stroke-width:1.5;"/>
    <path clip-path="url(#pa477158fce)" d="M 387.261818 263.457914 
L 387.261818 288.893743 
" style="fill:none;stroke:#000000;stroke-width:1.5;"/>
    <path clip-path="url(#pa477158fce)" d="M 388.276364 263.457914 
L 388.276364 288.893743 
" style="fill:none;stroke:#000000;stroke-width:1.5;"/>
    <path clip-path="url(#pa477158fce)" d="M 404.509091 263.457914 
L 404.509091 288.893743 
" style="fill:none;stroke:#000000;stroke-width:1.5;"/>
    <path clip-path="url(#pa477158fce)" d="M 405.523636 263.457914 
L 405.523636 288.893743 
" style="fill:none;stroke:#000000;stroke-width:1.5;"/>
    <path clip-path="url(#pa477158fce)" d="M 410.596364 263.457914 
L 410.596364 288.893743 
" style="fill:none;stroke:#000000;stroke-width:1.5;"/>
    <path clip-path="url(#pa477158fce)" d="M 413.64 263.457914 
L 413.64 288.893743 
" style="fill:none;stroke:#000000;stroke-width:1.5;"/>
    <path clip-path="url(#pa477158fce)" d="M 425.814545 263.457914 
L 425.814545 288.893743 
" style="fill:none;stroke:#000000;stroke-width:1.5;"/>
    <path clip-path="url(#pa477158fce)" d="M 428.858182 263.457914 
L 428.858182 288.893743 
" style="fill:none;stroke:#000000;stroke-width:1.5;"/>
    <path clip-path="url(#pa477158fce)" d="M 443.061818 263.457914 
L 443.061818 288.893743 
" style="fill:none;stroke:#000000;stroke-width:1.5;"/>
    <path clip-path="url(#pa477158fce)" d="M 454.221818 263.457914 
L 454.221818 288.893743 
" style="fill:none;stroke:#000000;stroke-width:1.5;"/>
    <path clip-path="url(#pa477158fce)" d="M 468.425455 263.457914 
L 468.425455 288.893743 
" style="fill:none;stroke:#000000;stroke-width:1.5;"/>
    <path clip-path="url(#pa477158fce)" d="M 469.44 263.457914 
L 469.44 288.893743 
" style="fill:none;stroke:#000000;stroke-width:1.5;"/>
    <path clip-path="url(#pa477158fce)" d="M 470.454545 263.457914 
L 470.454545 288.893743 
" style="fill:none;stroke:#000000;stroke-width:1.5;"/>
    <path clip-path="url(#pa477158fce)" d="M 474.512727 263.457914 
L 474.512727 288.893743 
" style="fill:none;stroke:#000000;stroke-width:1.5;"/>
    <path clip-path="url(#pa477158fce)" d="M 475.527273 263.457914 
L 475.527273 288.893743 
" style="fill:none;stroke:#000000;stroke-width:1.5;"/>
    <path clip-path="url(#pa477158fce)" d="M 476.541818 263.457914 
L 476.541818 288.893743 
" style="fill:none;stroke:#000000;stroke-width:1.5;"/>
    <path clip-path="url(#pa477158fce)" d="M 481.614545 263.457914 
L 481.614545 288.893743 
" style="fill:none;stroke:#000000;stroke-width:1.5;"/>
    <path clip-path="url(#pa477158fce)" d="M 489.730909 263.457914 
L 489.730909 288.893743 
" style="fill:none;stroke:#000000;stroke-width:1.5;"/>
    <path clip-path="url(#pa477158fce)" d="M 496.832727 263.457914 
L 496.832727 288.893743 
" style="fill:none;stroke:#000000;stroke-width:1.5;"/>
    <path clip-path="url(#pa477158fce)" d="M 507.992727 263.457914 
L 507.992727 288.893743 
" style="fill:none;stroke:#000000;stroke-width:1.5;"/>
    <path clip-path="url(#pa477158fce)" d="M 510.021818 263.457914 
L 510.021818 288.893743 
" style="fill:none;stroke:#000000;stroke-width:1.5;"/>
    <path clip-path="url(#pa477158fce)" d="M 511.036364 263.457914 
L 511.036364 288.893743 
" style="fill:none;stroke:#000000;stroke-width:1.5;"/>
    <path clip-path="url(#pa477158fce)" d="M 512.050909 263.457914 
L 512.050909 288.893743 
" style="fill:none;stroke:#000000;stroke-width:1.5;"/>
    <path clip-path="url(#pa477158fce)" d="M 523.210909 263.457914 
L 523.210909 288.893743 
" style="fill:none;stroke:#000000;stroke-width:1.5;"/>
    <path clip-path="url(#pa477158fce)" d="M 524.225455 263.457914 
L 524.225455 288.893743 
" style="fill:none;stroke:#000000;stroke-width:1.5;"/>
    <path clip-path="url(#pa477158fce)" d="M 525.24 263.457914 
L 525.24 288.893743 
" style="fill:none;stroke:#000000;stroke-width:1.5;"/>
    <path clip-path="url(#pa477158fce)" d="M 541.472727 263.457914 
L 541.472727 288.893743 
" style="fill:none;stroke:#000000;stroke-width:1.5;"/>
    <path clip-path="url(#pa477158fce)" d="M 542.487273 263.457914 
L 542.487273 288.893743 
" style="fill:none;stroke:#000000;stroke-width:1.5;"/>
    <path clip-path="url(#pa477158fce)" d="M 550.603636 263.457914 
L 550.603636 288.893743 
" style="fill:none;stroke:#000000;stroke-width:1.5;"/>
    <path clip-path="url(#pa477158fce)" d="M 551.618182 263.457914 
L 551.618182 288.893743 
" style="fill:none;stroke:#000000;stroke-width:1.5;"/>
    <path clip-path="url(#pa477158fce)" d="M 552.632727 263.457914 
L 552.632727 288.893743 
" style="fill:none;stroke:#000000;stroke-width:1.5;"/>
    <path clip-path="url(#pa477158fce)" d="M 553.647273 263.457914 
L 553.647273 288.893743 
" style="fill:none;stroke:#000000;stroke-width:1.5;"/>
    <path clip-path="url(#pa477158fce)" d="M 561.763636 263.457914 
L 561.763636 288.893743 
" style="fill:none;stroke:#000000;stroke-width:1.5;"/>
    <path clip-path="url(#pa477158fce)" d="M 577.996364 263.457914 
L 577.996364 288.893743 
" style="fill:none;stroke:#000000;stroke-width:1.5;"/>
    <path clip-path="url(#pa477158fce)" d="M 591.185455 263.457914 
L 591.185455 288.893743 
" style="fill:none;stroke:#000000;stroke-width:1.5;"/>
    <path clip-path="url(#pa477158fce)" d="M 592.2 263.457914 
L 592.2 288.893743 
" style="fill:none;stroke:#000000;stroke-width:1.5;"/>
    <path clip-path="url(#pa477158fce)" d="M 593.214545 263.457914 
L 593.214545 288.893743 
" style="fill:none;stroke:#000000;stroke-width:1.5;"/>
    <path clip-path="url(#pa477158fce)" d="M 594.229091 263.457914 
L 594.229091 288.893743 
" style="fill:none;stroke:#000000;stroke-width:1.5;"/>
    <path clip-path="url(#pa477158fce)" d="M 607.418182 263.457914 
L 607.418182 288.893743 
" style="fill:none;stroke:#000000;stroke-width:1.5;"/>
    <path clip-path="url(#pa477158fce)" d="M 608.432727 263.457914 
L 608.432727 288.893743 
" style="fill:none;stroke:#000000;stroke-width:1.5;"/>
    <path clip-path="url(#pa477158fce)" d="M 618.578182 263.457914 
L 618.578182 288.893743 
" style="fill:none;stroke:#000000;stroke-width:1.5;"/>
    <path clip-path="url(#pa477158fce)" d="M 619.592727 263.457914 
L 619.592727 288.893743 
" style="fill:none;stroke:#000000;stroke-width:1.5;"/>
    <path clip-path="url(#pa477158fce)" d="M 620.607273 263.457914 
L 620.607273 288.893743 
" style="fill:none;stroke:#000000;stroke-width:1.5;"/>
   </g>
   <g id="EventCollection_2">
    <path clip-path="url(#pa477158fce)" d="M 116.378182 212.586257 
L 116.378182 238.022086 
" style="fill:none;stroke:#000000;stroke-width:1.5;"/>
    <path clip-path="url(#pa477158fce)" d="M 118.407273 212.586257 
L 118.407273 238.022086 
" style="fill:none;stroke:#000000;stroke-width:1.5;"/>
    <path clip-path="url(#pa477158fce)" d="M 121.450909 212.586257 
L 121.450909 238.022086 
" style="fill:none;stroke:#000000;stroke-width:1.5;"/>
    <path clip-path="url(#pa477158fce)" d="M 127.538182 212.586257 
L 127.538182 238.022086 
" style="fill:none;stroke:#000000;stroke-width:1.5;"/>
    <path clip-path="url(#pa477158fce)" d="M 128.552727 212.586257 
L 128.552727 238.022086 
" style="fill:none;stroke:#000000;stroke-width:1.5;"/>
    <path clip-path="url(#pa477158fce)" d="M 143.770909 212.586257 
L 143.770909 238.022086 
" style="fill:none;stroke:#000000;stroke-width:1.5;"/>
    <path clip-path="url(#pa477158fce)" d="M 151.887273 212.586257 
L 151.887273 238.022086 
" style="fill:none;stroke:#000000;stroke-width:1.5;"/>
    <path clip-path="url(#pa477158fce)" d="M 152.901818 212.586257 
L 152.901818 238.022086 
" style="fill:none;stroke:#000000;stroke-width:1.5;"/>
    <path clip-path="url(#pa477158fce)" d="M 153.916364 212.586257 
L 153.916364 238.022086 
" style="fill:none;stroke:#000000;stroke-width:1.5;"/>
    <path clip-path="url(#pa477158fce)" d="M 164.061818 212.586257 
L 164.061818 238.022086 
" style="fill:none;stroke:#000000;stroke-width:1.5;"/>
    <path clip-path="url(#pa477158fce)" d="M 166.090909 212.586257 
L 166.090909 238.022086 
" style="fill:none;stroke:#000000;stroke-width:1.5;"/>
    <path clip-path="url(#pa477158fce)" d="M 171.163636 212.586257 
L 171.163636 238.022086 
" style="fill:none;stroke:#000000;stroke-width:1.5;"/>
    <path clip-path="url(#pa477158fce)" d="M 175.221818 212.586257 
L 175.221818 238.022086 
" style="fill:none;stroke:#000000;stroke-width:1.5;"/>
    <path clip-path="url(#pa477158fce)" d="M 185.367273 212.586257 
L 185.367273 238.022086 
" style="fill:none;stroke:#000000;stroke-width:1.5;"/>
    <path clip-path="url(#pa477158fce)" d="M 186.381818 212.586257 
L 186.381818 238.022086 
" style="fill:none;stroke:#000000;stroke-width:1.5;"/>
    <path clip-path="url(#pa477158fce)" d="M 187.396364 212.586257 
L 187.396364 238.022086 
" style="fill:none;stroke:#000000;stroke-width:1.5;"/>
    <path clip-path="url(#pa477158fce)" d="M 200.585455 212.586257 
L 200.585455 238.022086 
" style="fill:none;stroke:#000000;stroke-width:1.5;"/>
    <path clip-path="url(#pa477158fce)" d="M 201.6 212.586257 
L 201.6 238.022086 
" style="fill:none;stroke:#000000;stroke-width:1.5;"/>
    <path clip-path="url(#pa477158fce)" d="M 202.614545 212.586257 
L 202.614545 238.022086 
" style="fill:none;stroke:#000000;stroke-width:1.5;"/>
    <path clip-path="url(#pa477158fce)" d="M 207.687273 212.586257 
L 207.687273 238.022086 
" style="fill:none;stroke:#000000;stroke-width:1.5;"/>
    <path clip-path="url(#pa477158fce)" d="M 213.774545 212.586257 
L 213.774545 238.022086 
" style="fill:none;stroke:#000000;stroke-width:1.5;"/>
    <path clip-path="url(#pa477158fce)" d="M 226.963636 212.586257 
L 226.963636 238.022086 
" style="fill:none;stroke:#000000;stroke-width:1.5;"/>
    <path clip-path="url(#pa477158fce)" d="M 236.094545 212.586257 
L 236.094545 238.022086 
" style="fill:none;stroke:#000000;stroke-width:1.5;"/>
    <path clip-path="url(#pa477158fce)" d="M 237.109091 212.586257 
L 237.109091 238.022086 
" style="fill:none;stroke:#000000;stroke-width:1.5;"/>
    <path clip-path="url(#pa477158fce)" d="M 238.123636 212.586257 
L 238.123636 238.022086 
" style="fill:none;stroke:#000000;stroke-width:1.5;"/>
    <path clip-path="url(#pa477158fce)" d="M 257.4 212.586257 
L 257.4 238.022086 
" style="fill:none;stroke:#000000;stroke-width:1.5;"/>
    <path clip-path="url(#pa477158fce)" d="M 259.429091 212.586257 
L 259.429091 238.022086 
" style="fill:none;stroke:#000000;stroke-width:1.5;"/>
    <path clip-path="url(#pa477158fce)" d="M 290.88 212.586257 
L 290.88 238.022086 
" style="fill:none;stroke:#000000;stroke-width:1.5;"/>
    <path clip-path="url(#pa477158fce)" d="M 291.894545 212.586257 
L 291.894545 238.022086 
" style="fill:none;stroke:#000000;stroke-width:1.5;"/>
    <path clip-path="url(#pa477158fce)" d="M 295.952727 212.586257 
L 295.952727 238.022086 
" style="fill:none;stroke:#000000;stroke-width:1.5;"/>
    <path clip-path="url(#pa477158fce)" d="M 322.330909 212.586257 
L 322.330909 238.022086 
" style="fill:none;stroke:#000000;stroke-width:1.5;"/>
    <path clip-path="url(#pa477158fce)" d="M 323.345455 212.586257 
L 323.345455 238.022086 
" style="fill:none;stroke:#000000;stroke-width:1.5;"/>
    <path clip-path="url(#pa477158fce)" d="M 324.36 212.586257 
L 324.36 238.022086 
" style="fill:none;stroke:#000000;stroke-width:1.5;"/>
    <path clip-path="url(#pa477158fce)" d="M 328.418182 212.586257 
L 328.418182 238.022086 
" style="fill:none;stroke:#000000;stroke-width:1.5;"/>
    <path clip-path="url(#pa477158fce)" d="M 329.432727 212.586257 
L 329.432727 238.022086 
" style="fill:none;stroke:#000000;stroke-width:1.5;"/>
    <path clip-path="url(#pa477158fce)" d="M 330.447273 212.586257 
L 330.447273 238.022086 
" style="fill:none;stroke:#000000;stroke-width:1.5;"/>
    <path clip-path="url(#pa477158fce)" d="M 331.461818 212.586257 
L 331.461818 238.022086 
" style="fill:none;stroke:#000000;stroke-width:1.5;"/>
    <path clip-path="url(#pa477158fce)" d="M 339.578182 212.586257 
L 339.578182 238.022086 
" style="fill:none;stroke:#000000;stroke-width:1.5;"/>
    <path clip-path="url(#pa477158fce)" d="M 340.592727 212.586257 
L 340.592727 238.022086 
" style="fill:none;stroke:#000000;stroke-width:1.5;"/>
    <path clip-path="url(#pa477158fce)" d="M 341.607273 212.586257 
L 341.607273 238.022086 
" style="fill:none;stroke:#000000;stroke-width:1.5;"/>
    <path clip-path="url(#pa477158fce)" d="M 346.68 212.586257 
L 346.68 238.022086 
" style="fill:none;stroke:#000000;stroke-width:1.5;"/>
    <path clip-path="url(#pa477158fce)" d="M 365.956364 212.586257 
L 365.956364 238.022086 
" style="fill:none;stroke:#000000;stroke-width:1.5;"/>
    <path clip-path="url(#pa477158fce)" d="M 367.985455 212.586257 
L 367.985455 238.022086 
" style="fill:none;stroke:#000000;stroke-width:1.5;"/>
    <path clip-path="url(#pa477158fce)" d="M 369 212.586257 
L 369 238.022086 
" style="fill:none;stroke:#000000;stroke-width:1.5;"/>
    <path clip-path="url(#pa477158fce)" d="M 370.014545 212.586257 
L 370.014545 238.022086 
" style="fill:none;stroke:#000000;stroke-width:1.5;"/>
    <path clip-path="url(#pa477158fce)" d="M 382.189091 212.586257 
L 382.189091 238.022086 
" style="fill:none;stroke:#000000;stroke-width:1.5;"/>
    <path clip-path="url(#pa477158fce)" d="M 394.363636 212.586257 
L 394.363636 238.022086 
" style="fill:none;stroke:#000000;stroke-width:1.5;"/>
    <path clip-path="url(#pa477158fce)" d="M 400.450909 212.586257 
L 400.450909 238.022086 
" style="fill:none;stroke:#000000;stroke-width:1.5;"/>
    <path clip-path="url(#pa477158fce)" d="M 401.465455 212.586257 
L 401.465455 238.022086 
" style="fill:none;stroke:#000000;stroke-width:1.5;"/>
    <path clip-path="url(#pa477158fce)" d="M 402.48 212.586257 
L 402.48 238.022086 
" style="fill:none;stroke:#000000;stroke-width:1.5;"/>
    <path clip-path="url(#pa477158fce)" d="M 415.669091 212.586257 
L 415.669091 238.022086 
" style="fill:none;stroke:#000000;stroke-width:1.5;"/>
    <path clip-path="url(#pa477158fce)" d="M 417.698182 212.586257 
L 417.698182 238.022086 
" style="fill:none;stroke:#000000;stroke-width:1.5;"/>
    <path clip-path="url(#pa477158fce)" d="M 421.756364 212.586257 
L 421.756364 238.022086 
" style="fill:none;stroke:#000000;stroke-width:1.5;"/>
    <path clip-path="url(#pa477158fce)" d="M 445.090909 212.586257 
L 445.090909 238.022086 
" style="fill:none;stroke:#000000;stroke-width:1.5;"/>
    <path clip-path="url(#pa477158fce)" d="M 446.105455 212.586257 
L 446.105455 238.022086 
" style="fill:none;stroke:#000000;stroke-width:1.5;"/>
    <path clip-path="url(#pa477158fce)" d="M 451.178182 212.586257 
L 451.178182 238.022086 
" style="fill:none;stroke:#000000;stroke-width:1.5;"/>
    <path clip-path="url(#pa477158fce)" d="M 459.294545 212.586257 
L 459.294545 238.022086 
" style="fill:none;stroke:#000000;stroke-width:1.5;"/>
    <path clip-path="url(#pa477158fce)" d="M 471.469091 212.586257 
L 471.469091 238.022086 
" style="fill:none;stroke:#000000;stroke-width:1.5;"/>
    <path clip-path="url(#pa477158fce)" d="M 472.483636 212.586257 
L 472.483636 238.022086 
" style="fill:none;stroke:#000000;stroke-width:1.5;"/>
    <path clip-path="url(#pa477158fce)" d="M 473.498182 212.586257 
L 473.498182 238.022086 
" style="fill:none;stroke:#000000;stroke-width:1.5;"/>
    <path clip-path="url(#pa477158fce)" d="M 478.570909 212.586257 
L 478.570909 238.022086 
" style="fill:none;stroke:#000000;stroke-width:1.5;"/>
    <path clip-path="url(#pa477158fce)" d="M 479.585455 212.586257 
L 479.585455 238.022086 
" style="fill:none;stroke:#000000;stroke-width:1.5;"/>
    <path clip-path="url(#pa477158fce)" d="M 485.672727 212.586257 
L 485.672727 238.022086 
" style="fill:none;stroke:#000000;stroke-width:1.5;"/>
    <path clip-path="url(#pa477158fce)" d="M 486.687273 212.586257 
L 486.687273 238.022086 
" style="fill:none;stroke:#000000;stroke-width:1.5;"/>
    <path clip-path="url(#pa477158fce)" d="M 487.701818 212.586257 
L 487.701818 238.022086 
" style="fill:none;stroke:#000000;stroke-width:1.5;"/>
    <path clip-path="url(#pa477158fce)" d="M 498.861818 212.586257 
L 498.861818 238.022086 
" style="fill:none;stroke:#000000;stroke-width:1.5;"/>
    <path clip-path="url(#pa477158fce)" d="M 514.08 212.586257 
L 514.08 238.022086 
" style="fill:none;stroke:#000000;stroke-width:1.5;"/>
    <path clip-path="url(#pa477158fce)" d="M 515.094545 212.586257 
L 515.094545 238.022086 
" style="fill:none;stroke:#000000;stroke-width:1.5;"/>
    <path clip-path="url(#pa477158fce)" d="M 528.283636 212.586257 
L 528.283636 238.022086 
" style="fill:none;stroke:#000000;stroke-width:1.5;"/>
    <path clip-path="url(#pa477158fce)" d="M 529.298182 212.586257 
L 529.298182 238.022086 
" style="fill:none;stroke:#000000;stroke-width:1.5;"/>
    <path clip-path="url(#pa477158fce)" d="M 531.327273 212.586257 
L 531.327273 238.022086 
" style="fill:none;stroke:#000000;stroke-width:1.5;"/>
    <path clip-path="url(#pa477158fce)" d="M 536.4 212.586257 
L 536.4 238.022086 
" style="fill:none;stroke:#000000;stroke-width:1.5;"/>
    <path clip-path="url(#pa477158fce)" d="M 537.414545 212.586257 
L 537.414545 238.022086 
" style="fill:none;stroke:#000000;stroke-width:1.5;"/>
    <path clip-path="url(#pa477158fce)" d="M 538.429091 212.586257 
L 538.429091 238.022086 
" style="fill:none;stroke:#000000;stroke-width:1.5;"/>
    <path clip-path="url(#pa477158fce)" d="M 554.661818 212.586257 
L 554.661818 238.022086 
" style="fill:none;stroke:#000000;stroke-width:1.5;"/>
    <path clip-path="url(#pa477158fce)" d="M 555.676364 212.586257 
L 555.676364 238.022086 
" style="fill:none;stroke:#000000;stroke-width:1.5;"/>
    <path clip-path="url(#pa477158fce)" d="M 556.690909 212.586257 
L 556.690909 238.022086 
" style="fill:none;stroke:#000000;stroke-width:1.5;"/>
    <path clip-path="url(#pa477158fce)" d="M 564.807273 212.586257 
L 564.807273 238.022086 
" style="fill:none;stroke:#000000;stroke-width:1.5;"/>
    <path clip-path="url(#pa477158fce)" d="M 565.821818 212.586257 
L 565.821818 238.022086 
" style="fill:none;stroke:#000000;stroke-width:1.5;"/>
    <path clip-path="url(#pa477158fce)" d="M 581.04 212.586257 
L 581.04 238.022086 
" style="fill:none;stroke:#000000;stroke-width:1.5;"/>
    <path clip-path="url(#pa477158fce)" d="M 582.054545 212.586257 
L 582.054545 238.022086 
" style="fill:none;stroke:#000000;stroke-width:1.5;"/>
    <path clip-path="url(#pa477158fce)" d="M 596.258182 212.586257 
L 596.258182 238.022086 
" style="fill:none;stroke:#000000;stroke-width:1.5;"/>
    <path clip-path="url(#pa477158fce)" d="M 597.272727 212.586257 
L 597.272727 238.022086 
" style="fill:none;stroke:#000000;stroke-width:1.5;"/>
    <path clip-path="url(#pa477158fce)" d="M 611.476364 212.586257 
L 611.476364 238.022086 
" style="fill:none;stroke:#000000;stroke-width:1.5;"/>
    <path clip-path="url(#pa477158fce)" d="M 613.505455 212.586257 
L 613.505455 238.022086 
" style="fill:none;stroke:#000000;stroke-width:1.5;"/>
    <path clip-path="url(#pa477158fce)" d="M 614.52 212.586257 
L 614.52 238.022086 
" style="fill:none;stroke:#000000;stroke-width:1.5;"/>
    <path clip-path="url(#pa477158fce)" d="M 615.534545 212.586257 
L 615.534545 238.022086 
" style="fill:none;stroke:#000000;stroke-width:1.5;"/>
    <path clip-path="url(#pa477158fce)" d="M 616.549091 212.586257 
L 616.549091 238.022086 
" style="fill:none;stroke:#000000;stroke-width:1.5;"/>
    <path clip-path="url(#pa477158fce)" d="M 617.563636 212.586257 
L 617.563636 238.022086 
" style="fill:none;stroke:#000000;stroke-width:1.5;"/>
   </g>
   <g id="patch_8">
    <path d="M 90 306.698824 
L 90 194.781176 
" style="fill:none;stroke:#000000;stroke-linecap:square;stroke-linejoin:miter;stroke-width:0.8;"/>
   </g>
   <g id="patch_9">
    <path d="M 648 306.698824 
L 648 194.781176 
" style="fill:none;stroke:#000000;stroke-linecap:square;stroke-linejoin:miter;stroke-width:0.8;"/>
   </g>
   <g id="patch_10">
    <path d="M 90 306.698824 
L 648 306.698824 
" style="fill:none;stroke:#000000;stroke-linecap:square;stroke-linejoin:miter;stroke-width:0.8;"/>
   </g>
   <g id="patch_11">
    <path d="M 90 194.781176 
L 648 194.781176 
" style="fill:none;stroke:#000000;stroke-linecap:square;stroke-linejoin:miter;stroke-width:0.8;"/>
   </g>
   <g id="text_9">
    <!-- Spike encoding raster plot -->
    <g transform="translate(290.214375 188.781176)scale(0.12 -0.12)">
     <defs>
      <path d="M 53.515625 70.515625 
L 53.515625 60.890625 
Q 47.90625 63.578125 42.921875 64.890625 
Q 37.9375 66.21875 33.296875 66.21875 
Q 25.25 66.21875 20.875 63.09375 
Q 16.5 59.96875 16.5 54.203125 
Q 16.5 49.359375 19.40625 46.890625 
Q 22.3125 44.4375 30.421875 42.921875 
L 36.375 41.703125 
Q 47.40625 39.59375 52.65625 34.296875 
Q 57.90625 29 57.90625 20.125 
Q 57.90625 9.515625 50.796875 4.046875 
Q 43.703125 -1.421875 29.984375 -1.421875 
Q 24.8125 -1.421875 18.96875 -0.25 
Q 13.140625 0.921875 6.890625 3.21875 
L 6.890625 13.375 
Q 12.890625 10.015625 18.65625 8.296875 
Q 24.421875 6.59375 29.984375 6.59375 
Q 38.421875 6.59375 43.015625 9.90625 
Q 47.609375 13.234375 47.609375 19.390625 
Q 47.609375 24.75 44.3125 27.78125 
Q 41.015625 30.8125 33.5 32.328125 
L 27.484375 33.5 
Q 16.453125 35.6875 11.515625 40.375 
Q 6.59375 45.0625 6.59375 53.421875 
Q 6.59375 63.09375 13.40625 68.65625 
Q 20.21875 74.21875 32.171875 74.21875 
Q 37.3125 74.21875 42.625 73.28125 
Q 47.953125 72.359375 53.515625 70.515625 
z
" id="DejaVuSans-83"/>
      <path d="M 18.109375 8.203125 
L 18.109375 -20.796875 
L 9.078125 -20.796875 
L 9.078125 54.6875 
L 18.109375 54.6875 
L 18.109375 46.390625 
Q 20.953125 51.265625 25.265625 53.625 
Q 29.59375 56 35.59375 56 
Q 45.5625 56 51.78125 48.09375 
Q 58.015625 40.1875 58.015625 27.296875 
Q 58.015625 14.40625 51.78125 6.484375 
Q 45.5625 -1.421875 35.59375 -1.421875 
Q 29.59375 -1.421875 25.265625 0.953125 
Q 20.953125 3.328125 18.109375 8.203125 
z
M 48.6875 27.296875 
Q 48.6875 37.203125 44.609375 42.84375 
Q 40.53125 48.484375 33.40625 48.484375 
Q 26.265625 48.484375 22.1875 42.84375 
Q 18.109375 37.203125 18.109375 27.296875 
Q 18.109375 17.390625 22.1875 11.75 
Q 26.265625 6.109375 33.40625 6.109375 
Q 40.53125 6.109375 44.609375 11.75 
Q 48.6875 17.390625 48.6875 27.296875 
z
" id="DejaVuSans-112"/>
      <path d="M 9.078125 75.984375 
L 18.109375 75.984375 
L 18.109375 31.109375 
L 44.921875 54.6875 
L 56.390625 54.6875 
L 27.390625 29.109375 
L 57.625 0 
L 45.90625 0 
L 18.109375 26.703125 
L 18.109375 0 
L 9.078125 0 
z
" id="DejaVuSans-107"/>
      <path d="M 44.28125 53.078125 
L 44.28125 44.578125 
Q 40.484375 46.53125 36.375 47.5 
Q 32.28125 48.484375 27.875 48.484375 
Q 21.1875 48.484375 17.84375 46.4375 
Q 14.5 44.390625 14.5 40.28125 
Q 14.5 37.15625 16.890625 35.375 
Q 19.28125 33.59375 26.515625 31.984375 
L 29.59375 31.296875 
Q 39.15625 29.25 43.1875 25.515625 
Q 47.21875 21.78125 47.21875 15.09375 
Q 47.21875 7.46875 41.1875 3.015625 
Q 35.15625 -1.421875 24.609375 -1.421875 
Q 20.21875 -1.421875 15.453125 -0.5625 
Q 10.6875 0.296875 5.421875 2 
L 5.421875 11.28125 
Q 10.40625 8.6875 15.234375 7.390625 
Q 20.0625 6.109375 24.8125 6.109375 
Q 31.15625 6.109375 34.5625 8.28125 
Q 37.984375 10.453125 37.984375 14.40625 
Q 37.984375 18.0625 35.515625 20.015625 
Q 33.0625 21.96875 24.703125 23.78125 
L 21.578125 24.515625 
Q 13.234375 26.265625 9.515625 29.90625 
Q 5.8125 33.546875 5.8125 39.890625 
Q 5.8125 47.609375 11.28125 51.796875 
Q 16.75 56 26.8125 56 
Q 31.78125 56 36.171875 55.265625 
Q 40.578125 54.546875 44.28125 53.078125 
z
" id="DejaVuSans-115"/>
     </defs>
     <use xlink:href="#DejaVuSans-83"/>
     <use x="63.476562" xlink:href="#DejaVuSans-112"/>
     <use x="126.953125" xlink:href="#DejaVuSans-105"/>
     <use x="154.736328" xlink:href="#DejaVuSans-107"/>
     <use x="209.021484" xlink:href="#DejaVuSans-101"/>
     <use x="270.544922" xlink:href="#DejaVuSans-32"/>
     <use x="302.332031" xlink:href="#DejaVuSans-101"/>
     <use x="363.855469" xlink:href="#DejaVuSans-110"/>
     <use x="427.234375" xlink:href="#DejaVuSans-99"/>
     <use x="482.214844" xlink:href="#DejaVuSans-111"/>
     <use x="543.396484" xlink:href="#DejaVuSans-100"/>
     <use x="606.873047" xlink:href="#DejaVuSans-105"/>
     <use x="634.65625" xlink:href="#DejaVuSans-110"/>
     <use x="698.035156" xlink:href="#DejaVuSans-103"/>
     <use x="761.511719" xlink:href="#DejaVuSans-32"/>
     <use x="793.298828" xlink:href="#DejaVuSans-114"/>
     <use x="834.412109" xlink:href="#DejaVuSans-97"/>
     <use x="895.691406" xlink:href="#DejaVuSans-115"/>
     <use x="947.791016" xlink:href="#DejaVuSans-116"/>
     <use x="987" xlink:href="#DejaVuSans-101"/>
     <use x="1048.523438" xlink:href="#DejaVuSans-114"/>
     <use x="1089.636719" xlink:href="#DejaVuSans-32"/>
     <use x="1121.423828" xlink:href="#DejaVuSans-112"/>
     <use x="1184.900391" xlink:href="#DejaVuSans-108"/>
     <use x="1212.683594" xlink:href="#DejaVuSans-111"/>
     <use x="1273.865234" xlink:href="#DejaVuSans-116"/>
    </g>
   </g>
  </g>
  <g id="axes_3">
   <g id="patch_12">
    <path d="M 90 441 
L 648 441 
L 648 329.082353 
L 90 329.082353 
z
" style="fill:#ffffff;"/>
   </g>
   <g id="matplotlib.axis_5">
    <g id="xtick_13">
     <g id="line2d_19">
      <g>
       <use style="stroke:#000000;stroke-width:0.8;" x="115.363636" xlink:href="#md1925018c1" y="441"/>
      </g>
     </g>
     <g id="text_10">
      <!-- 0.00 -->
      <g transform="translate(104.230824 455.598437)scale(0.1 -0.1)">
       <defs>
        <path d="M 10.6875 12.40625 
L 21 12.40625 
L 21 0 
L 10.6875 0 
z
" id="DejaVuSans-46"/>
       </defs>
       <use xlink:href="#DejaVuSans-48"/>
       <use x="63.623047" xlink:href="#DejaVuSans-46"/>
       <use x="95.410156" xlink:href="#DejaVuSans-48"/>
       <use x="159.033203" xlink:href="#DejaVuSans-48"/>
      </g>
     </g>
    </g>
    <g id="xtick_14">
     <g id="line2d_20">
      <g>
       <use style="stroke:#000000;stroke-width:0.8;" x="216.818182" xlink:href="#md1925018c1" y="441"/>
      </g>
     </g>
     <g id="text_11">
      <!-- 0.05 -->
      <g transform="translate(205.685369 455.598437)scale(0.1 -0.1)">
       <defs>
        <path d="M 10.796875 72.90625 
L 49.515625 72.90625 
L 49.515625 64.59375 
L 19.828125 64.59375 
L 19.828125 46.734375 
Q 21.96875 47.46875 24.109375 47.828125 
Q 26.265625 48.1875 28.421875 48.1875 
Q 40.625 48.1875 47.75 41.5 
Q 54.890625 34.8125 54.890625 23.390625 
Q 54.890625 11.625 47.5625 5.09375 
Q 40.234375 -1.421875 26.90625 -1.421875 
Q 22.3125 -1.421875 17.546875 -0.640625 
Q 12.796875 0.140625 7.71875 1.703125 
L 7.71875 11.625 
Q 12.109375 9.234375 16.796875 8.0625 
Q 21.484375 6.890625 26.703125 6.890625 
Q 35.15625 6.890625 40.078125 11.328125 
Q 45.015625 15.765625 45.015625 23.390625 
Q 45.015625 31 40.078125 35.4375 
Q 35.15625 39.890625 26.703125 39.890625 
Q 22.75 39.890625 18.8125 39.015625 
Q 14.890625 38.140625 10.796875 36.28125 
z
" id="DejaVuSans-53"/>
       </defs>
       <use xlink:href="#DejaVuSans-48"/>
       <use x="63.623047" xlink:href="#DejaVuSans-46"/>
       <use x="95.410156" xlink:href="#DejaVuSans-48"/>
       <use x="159.033203" xlink:href="#DejaVuSans-53"/>
      </g>
     </g>
    </g>
    <g id="xtick_15">
     <g id="line2d_21">
      <g>
       <use style="stroke:#000000;stroke-width:0.8;" x="318.272727" xlink:href="#md1925018c1" y="441"/>
      </g>
     </g>
     <g id="text_12">
      <!-- 0.10 -->
      <g transform="translate(307.139915 455.598437)scale(0.1 -0.1)">
       <defs>
        <path d="M 12.40625 8.296875 
L 28.515625 8.296875 
L 28.515625 63.921875 
L 10.984375 60.40625 
L 10.984375 69.390625 
L 28.421875 72.90625 
L 38.28125 72.90625 
L 38.28125 8.296875 
L 54.390625 8.296875 
L 54.390625 0 
L 12.40625 0 
z
" id="DejaVuSans-49"/>
       </defs>
       <use xlink:href="#DejaVuSans-48"/>
       <use x="63.623047" xlink:href="#DejaVuSans-46"/>
       <use x="95.410156" xlink:href="#DejaVuSans-49"/>
       <use x="159.033203" xlink:href="#DejaVuSans-48"/>
      </g>
     </g>
    </g>
    <g id="xtick_16">
     <g id="line2d_22">
      <g>
       <use style="stroke:#000000;stroke-width:0.8;" x="419.727273" xlink:href="#md1925018c1" y="441"/>
      </g>
     </g>
     <g id="text_13">
      <!-- 0.15 -->
      <g transform="translate(408.59446 455.598437)scale(0.1 -0.1)">
       <use xlink:href="#DejaVuSans-48"/>
       <use x="63.623047" xlink:href="#DejaVuSans-46"/>
       <use x="95.410156" xlink:href="#DejaVuSans-49"/>
       <use x="159.033203" xlink:href="#DejaVuSans-53"/>
      </g>
     </g>
    </g>
    <g id="xtick_17">
     <g id="line2d_23">
      <g>
       <use style="stroke:#000000;stroke-width:0.8;" x="521.181818" xlink:href="#md1925018c1" y="441"/>
      </g>
     </g>
     <g id="text_14">
      <!-- 0.20 -->
      <g transform="translate(510.049006 455.598437)scale(0.1 -0.1)">
       <use xlink:href="#DejaVuSans-48"/>
       <use x="63.623047" xlink:href="#DejaVuSans-46"/>
       <use x="95.410156" xlink:href="#DejaVuSans-50"/>
       <use x="159.033203" xlink:href="#DejaVuSans-48"/>
      </g>
     </g>
    </g>
    <g id="xtick_18">
     <g id="line2d_24">
      <g>
       <use style="stroke:#000000;stroke-width:0.8;" x="622.636364" xlink:href="#md1925018c1" y="441"/>
      </g>
     </g>
     <g id="text_15">
      <!-- 0.25 -->
      <g transform="translate(611.503551 455.598437)scale(0.1 -0.1)">
       <use xlink:href="#DejaVuSans-48"/>
       <use x="63.623047" xlink:href="#DejaVuSans-46"/>
       <use x="95.410156" xlink:href="#DejaVuSans-50"/>
       <use x="159.033203" xlink:href="#DejaVuSans-53"/>
      </g>
     </g>
    </g>
    <g id="text_16">
     <!-- Time (s) -->
     <g transform="translate(348.671094 469.276563)scale(0.1 -0.1)">
      <defs>
       <path d="M -0.296875 72.90625 
L 61.375 72.90625 
L 61.375 64.59375 
L 35.5 64.59375 
L 35.5 0 
L 25.59375 0 
L 25.59375 64.59375 
L -0.296875 64.59375 
z
" id="DejaVuSans-84"/>
       <path d="M 52 44.1875 
Q 55.375 50.25 60.0625 53.125 
Q 64.75 56 71.09375 56 
Q 79.640625 56 84.28125 50.015625 
Q 88.921875 44.046875 88.921875 33.015625 
L 88.921875 0 
L 79.890625 0 
L 79.890625 32.71875 
Q 79.890625 40.578125 77.09375 44.375 
Q 74.3125 48.1875 68.609375 48.1875 
Q 61.625 48.1875 57.5625 43.546875 
Q 53.515625 38.921875 53.515625 30.90625 
L 53.515625 0 
L 44.484375 0 
L 44.484375 32.71875 
Q 44.484375 40.625 41.703125 44.40625 
Q 38.921875 48.1875 33.109375 48.1875 
Q 26.21875 48.1875 22.15625 43.53125 
Q 18.109375 38.875 18.109375 30.90625 
L 18.109375 0 
L 9.078125 0 
L 9.078125 54.6875 
L 18.109375 54.6875 
L 18.109375 46.1875 
Q 21.1875 51.21875 25.484375 53.609375 
Q 29.78125 56 35.6875 56 
Q 41.65625 56 45.828125 52.96875 
Q 50 49.953125 52 44.1875 
z
" id="DejaVuSans-109"/>
      </defs>
      <use xlink:href="#DejaVuSans-84"/>
      <use x="57.958984" xlink:href="#DejaVuSans-105"/>
      <use x="85.742188" xlink:href="#DejaVuSans-109"/>
      <use x="183.154297" xlink:href="#DejaVuSans-101"/>
      <use x="244.677734" xlink:href="#DejaVuSans-32"/>
      <use x="276.464844" xlink:href="#DejaVuSans-40"/>
      <use x="315.478516" xlink:href="#DejaVuSans-115"/>
      <use x="367.578125" xlink:href="#DejaVuSans-41"/>
     </g>
    </g>
   </g>
   <g id="matplotlib.axis_6">
    <g id="ytick_6">
     <g id="line2d_25">
      <g>
       <use style="stroke:#000000;stroke-width:0.8;" x="90" xlink:href="#m8ea9c1a119" y="436.993926"/>
      </g>
     </g>
     <g id="text_17">
      <!-- −20 -->
      <g transform="translate(61.895313 440.793145)scale(0.1 -0.1)">
       <use xlink:href="#DejaVuSans-8722"/>
       <use x="83.789062" xlink:href="#DejaVuSans-50"/>
       <use x="147.412109" xlink:href="#DejaVuSans-48"/>
      </g>
     </g>
    </g>
    <g id="ytick_7">
     <g id="line2d_26">
      <g>
       <use style="stroke:#000000;stroke-width:0.8;" x="90" xlink:href="#m8ea9c1a119" y="396.872274"/>
      </g>
     </g>
     <g id="text_18">
      <!-- 0 -->
      <g transform="translate(76.6375 400.671492)scale(0.1 -0.1)">
       <use xlink:href="#DejaVuSans-48"/>
      </g>
     </g>
    </g>
    <g id="ytick_8">
     <g id="line2d_27">
      <g>
       <use style="stroke:#000000;stroke-width:0.8;" x="90" xlink:href="#m8ea9c1a119" y="356.750621"/>
      </g>
     </g>
     <g id="text_19">
      <!-- 20 -->
      <g transform="translate(70.275 360.54984)scale(0.1 -0.1)">
       <use xlink:href="#DejaVuSans-50"/>
       <use x="63.623047" xlink:href="#DejaVuSans-48"/>
      </g>
     </g>
    </g>
    <g id="text_20">
     <!-- Voltage (μV) -->
     <g transform="translate(55.815625 415.889614)rotate(-90)scale(0.1 -0.1)">
      <use xlink:href="#DejaVuSans-86"/>
      <use x="60.658203" xlink:href="#DejaVuSans-111"/>
      <use x="121.839844" xlink:href="#DejaVuSans-108"/>
      <use x="149.623047" xlink:href="#DejaVuSans-116"/>
      <use x="188.832031" xlink:href="#DejaVuSans-97"/>
      <use x="250.111328" xlink:href="#DejaVuSans-103"/>
      <use x="313.587891" xlink:href="#DejaVuSans-101"/>
      <use x="375.111328" xlink:href="#DejaVuSans-32"/>
      <use x="406.898438" xlink:href="#DejaVuSans-40"/>
      <use x="445.912109" xlink:href="#DejaVuSans-956"/>
      <use x="509.535156" xlink:href="#DejaVuSans-86"/>
      <use x="577.943359" xlink:href="#DejaVuSans-41"/>
     </g>
    </g>
   </g>
   <g id="line2d_28">
    <path clip-path="url(#p8b077b25b3)" d="M 115.363636 373.977276 
L 116.380215 380.382843 
L 117.396794 380.382843 
L 118.413372 386.78841 
L 120.446529 386.78841 
L 121.463108 393.193977 
L 126.546001 393.193977 
L 128.579158 406.00511 
L 136.711787 406.00511 
L 137.728366 399.599544 
L 138.744944 399.599544 
L 139.761523 393.193977 
L 142.811259 393.193977 
L 143.827837 399.599544 
L 148.910731 399.599544 
L 150.943888 386.78841 
L 153.993624 406.00511 
L 158.059938 380.382843 
L 163.142831 380.382843 
L 164.15941 386.78841 
L 165.175988 386.78841 
L 166.192567 393.193977 
L 170.258881 393.193977 
L 171.27546 399.599544 
L 174.325196 399.599544 
L 175.341774 406.00511 
L 180.424668 406.00511 
L 184.490982 380.382843 
L 187.540718 399.599544 
L 194.656768 399.599544 
L 197.706504 380.382843 
L 199.739661 380.382843 
L 202.789397 399.599544 
L 206.855711 399.599544 
L 207.87229 406.00511 
L 212.955183 406.00511 
L 213.971762 412.410677 
L 216.004919 412.410677 
L 217.021498 406.00511 
L 222.104391 406.00511 
L 225.154126 386.78841 
L 226.170705 386.78841 
L 227.187284 393.193977 
L 235.319913 393.193977 
L 238.369648 412.410677 
L 241.419384 412.410677 
L 242.435963 406.00511 
L 243.452541 406.00511 
L 245.485699 393.193977 
L 248.535435 393.193977 
L 249.552013 386.78841 
L 256.668063 386.78841 
L 257.684642 393.193977 
L 258.701221 393.193977 
L 259.717799 399.599544 
L 269.883585 399.599544 
L 270.900164 393.193977 
L 290.215158 393.193977 
L 292.248315 406.00511 
L 295.298051 406.00511 
L 296.314629 412.410677 
L 300.380944 412.410677 
L 301.397522 406.00511 
L 314.613044 406.00511 
L 315.629623 399.599544 
L 317.66278 399.599544 
L 321.729095 373.977276 
L 324.77883 393.193977 
L 327.828566 393.193977 
L 331.894881 418.816244 
L 332.911459 418.816244 
L 339.010931 380.382843 
L 342.060667 399.599544 
L 346.126981 399.599544 
L 347.14356 406.00511 
L 358.325925 406.00511 
L 361.37566 386.78841 
L 365.441975 386.78841 
L 366.458553 393.193977 
L 367.475132 393.193977 
L 370.524868 412.410677 
L 371.541447 412.410677 
L 373.574604 399.599544 
L 377.640918 399.599544 
L 378.657497 393.193977 
L 381.707233 393.193977 
L 382.723811 399.599544 
L 386.790126 399.599544 
L 388.823283 386.78841 
L 393.906176 386.78841 
L 394.922755 393.193977 
L 400.005648 393.193977 
L 403.055383 412.410677 
L 404.071962 412.410677 
L 406.105119 399.599544 
L 410.171434 399.599544 
L 411.188012 393.193977 
L 413.22117 393.193977 
L 414.237748 386.78841 
L 415.254327 386.78841 
L 416.270905 393.193977 
L 417.287484 393.193977 
L 418.304063 399.599544 
L 421.353799 399.599544 
L 422.370377 406.00511 
L 425.420113 406.00511 
L 426.436692 399.599544 
L 428.469849 399.599544 
L 429.486427 393.193977 
L 442.701949 393.193977 
L 443.718528 386.78841 
L 444.735107 386.78841 
L 446.768264 399.599544 
L 450.834578 399.599544 
L 451.851157 406.00511 
L 453.884314 406.00511 
L 454.900893 399.599544 
L 458.967207 399.599544 
L 459.983786 406.00511 
L 468.116415 406.00511 
L 471.16615 386.78841 
L 474.215886 406.00511 
L 477.265622 386.78841 
L 478.282201 386.78841 
L 480.315358 399.599544 
L 481.331937 399.599544 
L 482.348515 393.193977 
L 485.398251 393.193977 
L 488.447987 412.410677 
L 489.464565 412.410677 
L 490.481144 406.00511 
L 496.580616 406.00511 
L 497.597194 399.599544 
L 498.613773 399.599544 
L 499.630352 406.00511 
L 507.762981 406.00511 
L 508.779559 399.599544 
L 509.796138 399.599544 
L 512.845874 380.382843 
L 513.862452 380.382843 
L 515.895609 393.193977 
L 523.01166 393.193977 
L 526.061396 373.977276 
L 528.094553 373.977276 
L 530.12771 386.78841 
L 531.144289 386.78841 
L 532.160867 393.193977 
L 536.227182 393.193977 
L 539.276917 412.410677 
L 541.310075 412.410677 
L 543.343232 399.599544 
L 550.459282 399.599544 
L 554.525597 373.977276 
L 557.575332 393.193977 
L 561.641647 393.193977 
L 562.658226 386.78841 
L 564.691383 386.78841 
L 566.72454 399.599544 
L 577.906905 399.599544 
L 578.923483 393.193977 
L 580.956641 393.193977 
L 582.989798 406.00511 
L 591.122427 406.00511 
L 595.188741 380.382843 
L 596.20532 380.382843 
L 598.238477 393.193977 
L 607.387684 393.193977 
L 609.420842 380.382843 
L 611.453999 380.382843 
L 612.470578 386.78841 
L 613.487156 386.78841 
L 618.570049 418.816244 
L 621.619785 399.599544 
L 622.636364 399.599544 
L 622.636364 399.599544 
" style="fill:none;stroke:#000000;stroke-linecap:square;stroke-width:1.5;"/>
   </g>
   <g id="patch_13">
    <path d="M 90 441 
L 90 329.082353 
" style="fill:none;stroke:#000000;stroke-linecap:square;stroke-linejoin:miter;stroke-width:0.8;"/>
   </g>
   <g id="patch_14">
    <path d="M 648 441 
L 648 329.082353 
" style="fill:none;stroke:#000000;stroke-linecap:square;stroke-linejoin:miter;stroke-width:0.8;"/>
   </g>
   <g id="patch_15">
    <path d="M 90 441 
L 648 441 
" style="fill:none;stroke:#000000;stroke-linecap:square;stroke-linejoin:miter;stroke-width:0.8;"/>
   </g>
   <g id="patch_16">
    <path d="M 90 329.082353 
L 648 329.082353 
" style="fill:none;stroke:#000000;stroke-linecap:square;stroke-linejoin:miter;stroke-width:0.8;"/>
   </g>
   <g id="text_21">
    <!-- Reconstructed signal -->
    <g transform="translate(306.0825 323.082353)scale(0.12 -0.12)">
     <defs>
      <path d="M 44.390625 34.1875 
Q 47.5625 33.109375 50.5625 29.59375 
Q 53.5625 26.078125 56.59375 19.921875 
L 66.609375 0 
L 56 0 
L 46.6875 18.703125 
Q 43.0625 26.03125 39.671875 28.421875 
Q 36.28125 30.8125 30.421875 30.8125 
L 19.671875 30.8125 
L 19.671875 0 
L 9.8125 0 
L 9.8125 72.90625 
L 32.078125 72.90625 
Q 44.578125 72.90625 50.734375 67.671875 
Q 56.890625 62.453125 56.890625 51.90625 
Q 56.890625 45.015625 53.6875 40.46875 
Q 50.484375 35.9375 44.390625 34.1875 
z
M 19.671875 64.796875 
L 19.671875 38.921875 
L 32.078125 38.921875 
Q 39.203125 38.921875 42.84375 42.21875 
Q 46.484375 45.515625 46.484375 51.90625 
Q 46.484375 58.296875 42.84375 61.546875 
Q 39.203125 64.796875 32.078125 64.796875 
z
" id="DejaVuSans-82"/>
     </defs>
     <use xlink:href="#DejaVuSans-82"/>
     <use x="64.982422" xlink:href="#DejaVuSans-101"/>
     <use x="126.505859" xlink:href="#DejaVuSans-99"/>
     <use x="181.486328" xlink:href="#DejaVuSans-111"/>
     <use x="242.667969" xlink:href="#DejaVuSans-110"/>
     <use x="306.046875" xlink:href="#DejaVuSans-115"/>
     <use x="358.146484" xlink:href="#DejaVuSans-116"/>
     <use x="397.355469" xlink:href="#DejaVuSans-114"/>
     <use x="438.46875" xlink:href="#DejaVuSans-117"/>
     <use x="501.847656" xlink:href="#DejaVuSans-99"/>
     <use x="556.828125" xlink:href="#DejaVuSans-116"/>
     <use x="596.037109" xlink:href="#DejaVuSans-101"/>
     <use x="657.560547" xlink:href="#DejaVuSans-100"/>
     <use x="721.037109" xlink:href="#DejaVuSans-32"/>
     <use x="752.824219" xlink:href="#DejaVuSans-115"/>
     <use x="804.923828" xlink:href="#DejaVuSans-105"/>
     <use x="832.707031" xlink:href="#DejaVuSans-103"/>
     <use x="896.183594" xlink:href="#DejaVuSans-110"/>
     <use x="959.5625" xlink:href="#DejaVuSans-97"/>
     <use x="1020.841797" xlink:href="#DejaVuSans-108"/>
    </g>
   </g>
  </g>
 </g>
 <defs>
  <clipPath id="p10e96551b3">
   <rect height="111.917647" width="558" x="90" y="60.48"/>
  </clipPath>
  <clipPath id="pa477158fce">
   <rect height="111.917647" width="558" x="90" y="194.781176"/>
  </clipPath>
  <clipPath id="p8b077b25b3">
   <rect height="111.917647" width="558" x="90" y="329.082353"/>
  </clipPath>
 </defs>
</svg>
