<?xml version="1.0" encoding="utf-8" standalone="no"?>
<!DOCTYPE svg PUBLIC "-//W3C//DTD SVG 1.1//EN"
  "http://www.w3.org/Graphics/SVG/1.1/DTD/svg11.dtd">
<svg height="504pt" version="1.1" viewBox="0 0 720 504" width="720pt" xmlns="http://www.w3.org/2000/svg" xmlns:xlink="http://www.w3.org/1999/xlink">
 <metadata>
  <rdf:RDF xmlns:cc="http://creativecommons.org/ns#" xmlns:dc="http://purl.org/dc/elements/1.1/" xmlns:rdf="http://www.w3.org/1999/02/22-rdf-syntax-ns#">
   <cc:Work>
    <dc:type rdf:resource="http://purl.org/dc/dcmitype/StillImage"/>
    <dc:date>2022-04-29T15:17:27.286810</dc:date>
    <dc:format>image/svg+xml</dc:format>
    <dc:creator>
     <cc:Agent>
      <dc:title>Matplotlib v3.4.1, https://matplotlib.org/</dc:title>
     </cc:Agent>
    </dc:creator>
   </cc:Work>
  </rdf:RDF>
 </metadata>
 <defs>
  <style type="text/css">*{stroke-linecap:butt;stroke-linejoin:round;}</style>
 </defs>
 <g id="figure_1">
  <g id="patch_1">
   <path d="M 0 504 
L 720 504 
L 720 0 
L 0 0 
z
" style="fill:none;"/>
  </g>
  <g id="axes_1">
   <g id="patch_2">
    <path d="M 90 441 
L 648 441 
L 648 60.48 
L 90 60.48 
z
" style="fill:#ffffff;"/>
   </g>
   <g id="PathCollection_1">
    <defs>
     <path d="M -3 0 
L 3 0 
M 0 3 
L 0 -3 
" id="me084419e6b" style="stroke:#52ad89;stroke-width:1.5;"/>
    </defs>
    <g clip-path="url(#p06085e80d8)">
     <use style="fill:#52ad89;stroke:#52ad89;stroke-width:1.5;" x="121" xlink:href="#me084419e6b" y="164.258182"/>
     <use style="fill:#52ad89;stroke:#52ad89;stroke-width:1.5;" x="121" xlink:href="#me084419e6b" y="164.258182"/>
     <use style="fill:#52ad89;stroke:#52ad89;stroke-width:1.5;" x="121" xlink:href="#me084419e6b" y="207.499091"/>
     <use style="fill:#52ad89;stroke:#52ad89;stroke-width:1.5;" x="121" xlink:href="#me084419e6b" y="207.499091"/>
     <use style="fill:#52ad89;stroke:#52ad89;stroke-width:1.5;" x="121" xlink:href="#me084419e6b" y="207.499091"/>
     <use style="fill:#52ad89;stroke:#52ad89;stroke-width:1.5;" x="121" xlink:href="#me084419e6b" y="207.499091"/>
     <use style="fill:#52ad89;stroke:#52ad89;stroke-width:1.5;" x="152" xlink:href="#me084419e6b" y="293.980909"/>
     <use style="fill:#52ad89;stroke:#52ad89;stroke-width:1.5;" x="152" xlink:href="#me084419e6b" y="293.980909"/>
     <use style="fill:#52ad89;stroke:#52ad89;stroke-width:1.5;" x="152" xlink:href="#me084419e6b" y="250.74"/>
     <use style="fill:#52ad89;stroke:#52ad89;stroke-width:1.5;" x="152" xlink:href="#me084419e6b" y="293.980909"/>
     <use style="fill:#52ad89;stroke:#52ad89;stroke-width:1.5;" x="152" xlink:href="#me084419e6b" y="337.221818"/>
     <use style="fill:#52ad89;stroke:#52ad89;stroke-width:1.5;" x="152" xlink:href="#me084419e6b" y="250.74"/>
     <use style="fill:#52ad89;stroke:#52ad89;stroke-width:1.5;" x="183" xlink:href="#me084419e6b" y="250.74"/>
     <use style="fill:#52ad89;stroke:#52ad89;stroke-width:1.5;" x="183" xlink:href="#me084419e6b" y="207.499091"/>
     <use style="fill:#52ad89;stroke:#52ad89;stroke-width:1.5;" x="183" xlink:href="#me084419e6b" y="164.258182"/>
     <use style="fill:#52ad89;stroke:#52ad89;stroke-width:1.5;" x="183" xlink:href="#me084419e6b" y="207.499091"/>
     <use style="fill:#52ad89;stroke:#52ad89;stroke-width:1.5;" x="183" xlink:href="#me084419e6b" y="164.258182"/>
     <use style="fill:#52ad89;stroke:#52ad89;stroke-width:1.5;" x="183" xlink:href="#me084419e6b" y="207.499091"/>
     <use style="fill:#52ad89;stroke:#52ad89;stroke-width:1.5;" x="214" xlink:href="#me084419e6b" y="337.221818"/>
     <use style="fill:#52ad89;stroke:#52ad89;stroke-width:1.5;" x="214" xlink:href="#me084419e6b" y="337.221818"/>
     <use style="fill:#52ad89;stroke:#52ad89;stroke-width:1.5;" x="214" xlink:href="#me084419e6b" y="380.462727"/>
     <use style="fill:#52ad89;stroke:#52ad89;stroke-width:1.5;" x="214" xlink:href="#me084419e6b" y="380.462727"/>
     <use style="fill:#52ad89;stroke:#52ad89;stroke-width:1.5;" x="214" xlink:href="#me084419e6b" y="293.980909"/>
     <use style="fill:#52ad89;stroke:#52ad89;stroke-width:1.5;" x="214" xlink:href="#me084419e6b" y="337.221818"/>
     <use style="fill:#52ad89;stroke:#52ad89;stroke-width:1.5;" x="245" xlink:href="#me084419e6b" y="337.221818"/>
     <use style="fill:#52ad89;stroke:#52ad89;stroke-width:1.5;" x="245" xlink:href="#me084419e6b" y="337.221818"/>
     <use style="fill:#52ad89;stroke:#52ad89;stroke-width:1.5;" x="245" xlink:href="#me084419e6b" y="380.462727"/>
     <use style="fill:#52ad89;stroke:#52ad89;stroke-width:1.5;" x="245" xlink:href="#me084419e6b" y="380.462727"/>
     <use style="fill:#52ad89;stroke:#52ad89;stroke-width:1.5;" x="245" xlink:href="#me084419e6b" y="293.980909"/>
     <use style="fill:#52ad89;stroke:#52ad89;stroke-width:1.5;" x="245" xlink:href="#me084419e6b" y="337.221818"/>
     <use style="fill:#52ad89;stroke:#52ad89;stroke-width:1.5;" x="276" xlink:href="#me084419e6b" y="293.980909"/>
     <use style="fill:#52ad89;stroke:#52ad89;stroke-width:1.5;" x="276" xlink:href="#me084419e6b" y="250.74"/>
     <use style="fill:#52ad89;stroke:#52ad89;stroke-width:1.5;" x="276" xlink:href="#me084419e6b" y="337.221818"/>
     <use style="fill:#52ad89;stroke:#52ad89;stroke-width:1.5;" x="276" xlink:href="#me084419e6b" y="337.221818"/>
     <use style="fill:#52ad89;stroke:#52ad89;stroke-width:1.5;" x="276" xlink:href="#me084419e6b" y="207.499091"/>
     <use style="fill:#52ad89;stroke:#52ad89;stroke-width:1.5;" x="276" xlink:href="#me084419e6b" y="250.74"/>
     <use style="fill:#52ad89;stroke:#52ad89;stroke-width:1.5;" x="307" xlink:href="#me084419e6b" y="293.980909"/>
     <use style="fill:#52ad89;stroke:#52ad89;stroke-width:1.5;" x="307" xlink:href="#me084419e6b" y="337.221818"/>
     <use style="fill:#52ad89;stroke:#52ad89;stroke-width:1.5;" x="307" xlink:href="#me084419e6b" y="293.980909"/>
     <use style="fill:#52ad89;stroke:#52ad89;stroke-width:1.5;" x="307" xlink:href="#me084419e6b" y="293.980909"/>
     <use style="fill:#52ad89;stroke:#52ad89;stroke-width:1.5;" x="307" xlink:href="#me084419e6b" y="250.74"/>
     <use style="fill:#52ad89;stroke:#52ad89;stroke-width:1.5;" x="307" xlink:href="#me084419e6b" y="250.74"/>
     <use style="fill:#52ad89;stroke:#52ad89;stroke-width:1.5;" x="338" xlink:href="#me084419e6b" y="250.74"/>
     <use style="fill:#52ad89;stroke:#52ad89;stroke-width:1.5;" x="338" xlink:href="#me084419e6b" y="207.499091"/>
     <use style="fill:#52ad89;stroke:#52ad89;stroke-width:1.5;" x="338" xlink:href="#me084419e6b" y="121.017273"/>
     <use style="fill:#52ad89;stroke:#52ad89;stroke-width:1.5;" x="338" xlink:href="#me084419e6b" y="207.499091"/>
     <use style="fill:#52ad89;stroke:#52ad89;stroke-width:1.5;" x="338" xlink:href="#me084419e6b" y="207.499091"/>
     <use style="fill:#52ad89;stroke:#52ad89;stroke-width:1.5;" x="338" xlink:href="#me084419e6b" y="164.258182"/>
     <use style="fill:#52ad89;stroke:#52ad89;stroke-width:1.5;" x="369" xlink:href="#me084419e6b" y="380.462727"/>
     <use style="fill:#52ad89;stroke:#52ad89;stroke-width:1.5;" x="369" xlink:href="#me084419e6b" y="337.221818"/>
     <use style="fill:#52ad89;stroke:#52ad89;stroke-width:1.5;" x="369" xlink:href="#me084419e6b" y="337.221818"/>
     <use style="fill:#52ad89;stroke:#52ad89;stroke-width:1.5;" x="369" xlink:href="#me084419e6b" y="337.221818"/>
     <use style="fill:#52ad89;stroke:#52ad89;stroke-width:1.5;" x="369" xlink:href="#me084419e6b" y="423.703636"/>
     <use style="fill:#52ad89;stroke:#52ad89;stroke-width:1.5;" x="369" xlink:href="#me084419e6b" y="423.703636"/>
     <use style="fill:#52ad89;stroke:#52ad89;stroke-width:1.5;" x="400" xlink:href="#me084419e6b" y="250.74"/>
     <use style="fill:#52ad89;stroke:#52ad89;stroke-width:1.5;" x="400" xlink:href="#me084419e6b" y="121.017273"/>
     <use style="fill:#52ad89;stroke:#52ad89;stroke-width:1.5;" x="400" xlink:href="#me084419e6b" y="164.258182"/>
     <use style="fill:#52ad89;stroke:#52ad89;stroke-width:1.5;" x="400" xlink:href="#me084419e6b" y="164.258182"/>
     <use style="fill:#52ad89;stroke:#52ad89;stroke-width:1.5;" x="400" xlink:href="#me084419e6b" y="164.258182"/>
     <use style="fill:#52ad89;stroke:#52ad89;stroke-width:1.5;" x="400" xlink:href="#me084419e6b" y="164.258182"/>
     <use style="fill:#52ad89;stroke:#52ad89;stroke-width:1.5;" x="431" xlink:href="#me084419e6b" y="423.703636"/>
     <use style="fill:#52ad89;stroke:#52ad89;stroke-width:1.5;" x="431" xlink:href="#me084419e6b" y="423.703636"/>
     <use style="fill:#52ad89;stroke:#52ad89;stroke-width:1.5;" x="431" xlink:href="#me084419e6b" y="423.703636"/>
     <use style="fill:#52ad89;stroke:#52ad89;stroke-width:1.5;" x="431" xlink:href="#me084419e6b" y="423.703636"/>
     <use style="fill:#52ad89;stroke:#52ad89;stroke-width:1.5;" x="431" xlink:href="#me084419e6b" y="423.703636"/>
     <use style="fill:#52ad89;stroke:#52ad89;stroke-width:1.5;" x="431" xlink:href="#me084419e6b" y="423.703636"/>
     <use style="fill:#52ad89;stroke:#52ad89;stroke-width:1.5;" x="462" xlink:href="#me084419e6b" y="164.258182"/>
     <use style="fill:#52ad89;stroke:#52ad89;stroke-width:1.5;" x="462" xlink:href="#me084419e6b" y="164.258182"/>
     <use style="fill:#52ad89;stroke:#52ad89;stroke-width:1.5;" x="462" xlink:href="#me084419e6b" y="207.499091"/>
     <use style="fill:#52ad89;stroke:#52ad89;stroke-width:1.5;" x="462" xlink:href="#me084419e6b" y="164.258182"/>
     <use style="fill:#52ad89;stroke:#52ad89;stroke-width:1.5;" x="462" xlink:href="#me084419e6b" y="164.258182"/>
     <use style="fill:#52ad89;stroke:#52ad89;stroke-width:1.5;" x="462" xlink:href="#me084419e6b" y="77.776364"/>
     <use style="fill:#52ad89;stroke:#52ad89;stroke-width:1.5;" x="493" xlink:href="#me084419e6b" y="164.258182"/>
     <use style="fill:#52ad89;stroke:#52ad89;stroke-width:1.5;" x="493" xlink:href="#me084419e6b" y="207.499091"/>
     <use style="fill:#52ad89;stroke:#52ad89;stroke-width:1.5;" x="493" xlink:href="#me084419e6b" y="250.74"/>
     <use style="fill:#52ad89;stroke:#52ad89;stroke-width:1.5;" x="493" xlink:href="#me084419e6b" y="250.74"/>
     <use style="fill:#52ad89;stroke:#52ad89;stroke-width:1.5;" x="493" xlink:href="#me084419e6b" y="207.499091"/>
     <use style="fill:#52ad89;stroke:#52ad89;stroke-width:1.5;" x="493" xlink:href="#me084419e6b" y="337.221818"/>
     <use style="fill:#52ad89;stroke:#52ad89;stroke-width:1.5;" x="524" xlink:href="#me084419e6b" y="337.221818"/>
     <use style="fill:#52ad89;stroke:#52ad89;stroke-width:1.5;" x="524" xlink:href="#me084419e6b" y="293.980909"/>
     <use style="fill:#52ad89;stroke:#52ad89;stroke-width:1.5;" x="524" xlink:href="#me084419e6b" y="293.980909"/>
     <use style="fill:#52ad89;stroke:#52ad89;stroke-width:1.5;" x="524" xlink:href="#me084419e6b" y="380.462727"/>
     <use style="fill:#52ad89;stroke:#52ad89;stroke-width:1.5;" x="524" xlink:href="#me084419e6b" y="337.221818"/>
     <use style="fill:#52ad89;stroke:#52ad89;stroke-width:1.5;" x="524" xlink:href="#me084419e6b" y="337.221818"/>
     <use style="fill:#52ad89;stroke:#52ad89;stroke-width:1.5;" x="555" xlink:href="#me084419e6b" y="207.499091"/>
     <use style="fill:#52ad89;stroke:#52ad89;stroke-width:1.5;" x="555" xlink:href="#me084419e6b" y="337.221818"/>
     <use style="fill:#52ad89;stroke:#52ad89;stroke-width:1.5;" x="555" xlink:href="#me084419e6b" y="337.221818"/>
     <use style="fill:#52ad89;stroke:#52ad89;stroke-width:1.5;" x="555" xlink:href="#me084419e6b" y="293.980909"/>
     <use style="fill:#52ad89;stroke:#52ad89;stroke-width:1.5;" x="555" xlink:href="#me084419e6b" y="337.221818"/>
     <use style="fill:#52ad89;stroke:#52ad89;stroke-width:1.5;" x="555" xlink:href="#me084419e6b" y="293.980909"/>
     <use style="fill:#52ad89;stroke:#52ad89;stroke-width:1.5;" x="586" xlink:href="#me084419e6b" y="164.258182"/>
     <use style="fill:#52ad89;stroke:#52ad89;stroke-width:1.5;" x="586" xlink:href="#me084419e6b" y="207.499091"/>
     <use style="fill:#52ad89;stroke:#52ad89;stroke-width:1.5;" x="586" xlink:href="#me084419e6b" y="250.74"/>
     <use style="fill:#52ad89;stroke:#52ad89;stroke-width:1.5;" x="586" xlink:href="#me084419e6b" y="164.258182"/>
     <use style="fill:#52ad89;stroke:#52ad89;stroke-width:1.5;" x="586" xlink:href="#me084419e6b" y="250.74"/>
     <use style="fill:#52ad89;stroke:#52ad89;stroke-width:1.5;" x="586" xlink:href="#me084419e6b" y="121.017273"/>
     <use style="fill:#52ad89;stroke:#52ad89;stroke-width:1.5;" x="617" xlink:href="#me084419e6b" y="164.258182"/>
     <use style="fill:#52ad89;stroke:#52ad89;stroke-width:1.5;" x="617" xlink:href="#me084419e6b" y="207.499091"/>
     <use style="fill:#52ad89;stroke:#52ad89;stroke-width:1.5;" x="617" xlink:href="#me084419e6b" y="207.499091"/>
     <use style="fill:#52ad89;stroke:#52ad89;stroke-width:1.5;" x="617" xlink:href="#me084419e6b" y="164.258182"/>
     <use style="fill:#52ad89;stroke:#52ad89;stroke-width:1.5;" x="617" xlink:href="#me084419e6b" y="207.499091"/>
     <use style="fill:#52ad89;stroke:#52ad89;stroke-width:1.5;" x="617" xlink:href="#me084419e6b" y="207.499091"/>
    </g>
   </g>
   <g id="matplotlib.axis_1">
    <g id="xtick_1">
     <g id="line2d_1">
      <defs>
       <path d="M 0 0 
L 0 3.5 
" id="m92e56ea8ba" style="stroke:#000000;stroke-width:0.8;"/>
      </defs>
      <g>
       <use style="stroke:#000000;stroke-width:0.8;" x="90" xlink:href="#m92e56ea8ba" y="441"/>
      </g>
     </g>
     <g id="text_1">
      <!-- 0 -->
      <g transform="translate(86.81875 455.598437)scale(0.1 -0.1)">
       <defs>
        <path d="M 2034 4250 
Q 1547 4250 1301 3770 
Q 1056 3291 1056 2328 
Q 1056 1369 1301 889 
Q 1547 409 2034 409 
Q 2525 409 2770 889 
Q 3016 1369 3016 2328 
Q 3016 3291 2770 3770 
Q 2525 4250 2034 4250 
z
M 2034 4750 
Q 2819 4750 3233 4129 
Q 3647 3509 3647 2328 
Q 3647 1150 3233 529 
Q 2819 -91 2034 -91 
Q 1250 -91 836 529 
Q 422 1150 422 2328 
Q 422 3509 836 4129 
Q 1250 4750 2034 4750 
z
" id="DejaVuSans-30" transform="scale(0.015625)"/>
       </defs>
       <use xlink:href="#DejaVuSans-30"/>
      </g>
     </g>
    </g>
    <g id="xtick_2">
     <g id="line2d_2">
      <g>
       <use style="stroke:#000000;stroke-width:0.8;" x="152" xlink:href="#m92e56ea8ba" y="441"/>
      </g>
     </g>
     <g id="text_2">
      <!-- 2 -->
      <g transform="translate(148.81875 455.598437)scale(0.1 -0.1)">
       <defs>
        <path d="M 1228 531 
L 3431 531 
L 3431 0 
L 469 0 
L 469 531 
Q 828 903 1448 1529 
Q 2069 2156 2228 2338 
Q 2531 2678 2651 2914 
Q 2772 3150 2772 3378 
Q 2772 3750 2511 3984 
Q 2250 4219 1831 4219 
Q 1534 4219 1204 4116 
Q 875 4013 500 3803 
L 500 4441 
Q 881 4594 1212 4672 
Q 1544 4750 1819 4750 
Q 2544 4750 2975 4387 
Q 3406 4025 3406 3419 
Q 3406 3131 3298 2873 
Q 3191 2616 2906 2266 
Q 2828 2175 2409 1742 
Q 1991 1309 1228 531 
z
" id="DejaVuSans-32" transform="scale(0.015625)"/>
       </defs>
       <use xlink:href="#DejaVuSans-32"/>
      </g>
     </g>
    </g>
    <g id="xtick_3">
     <g id="line2d_3">
      <g>
       <use style="stroke:#000000;stroke-width:0.8;" x="214" xlink:href="#m92e56ea8ba" y="441"/>
      </g>
     </g>
     <g id="text_3">
      <!-- 4 -->
      <g transform="translate(210.81875 455.598437)scale(0.1 -0.1)">
       <defs>
        <path d="M 2419 4116 
L 825 1625 
L 2419 1625 
L 2419 4116 
z
M 2253 4666 
L 3047 4666 
L 3047 1625 
L 3713 1625 
L 3713 1100 
L 3047 1100 
L 3047 0 
L 2419 0 
L 2419 1100 
L 313 1100 
L 313 1709 
L 2253 4666 
z
" id="DejaVuSans-34" transform="scale(0.015625)"/>
       </defs>
       <use xlink:href="#DejaVuSans-34"/>
      </g>
     </g>
    </g>
    <g id="xtick_4">
     <g id="line2d_4">
      <g>
       <use style="stroke:#000000;stroke-width:0.8;" x="276" xlink:href="#m92e56ea8ba" y="441"/>
      </g>
     </g>
     <g id="text_4">
      <!-- 6 -->
      <g transform="translate(272.81875 455.598437)scale(0.1 -0.1)">
       <defs>
        <path d="M 2113 2584 
Q 1688 2584 1439 2293 
Q 1191 2003 1191 1497 
Q 1191 994 1439 701 
Q 1688 409 2113 409 
Q 2538 409 2786 701 
Q 3034 994 3034 1497 
Q 3034 2003 2786 2293 
Q 2538 2584 2113 2584 
z
M 3366 4563 
L 3366 3988 
Q 3128 4100 2886 4159 
Q 2644 4219 2406 4219 
Q 1781 4219 1451 3797 
Q 1122 3375 1075 2522 
Q 1259 2794 1537 2939 
Q 1816 3084 2150 3084 
Q 2853 3084 3261 2657 
Q 3669 2231 3669 1497 
Q 3669 778 3244 343 
Q 2819 -91 2113 -91 
Q 1303 -91 875 529 
Q 447 1150 447 2328 
Q 447 3434 972 4092 
Q 1497 4750 2381 4750 
Q 2619 4750 2861 4703 
Q 3103 4656 3366 4563 
z
" id="DejaVuSans-36" transform="scale(0.015625)"/>
       </defs>
       <use xlink:href="#DejaVuSans-36"/>
      </g>
     </g>
    </g>
    <g id="xtick_5">
     <g id="line2d_5">
      <g>
       <use style="stroke:#000000;stroke-width:0.8;" x="338" xlink:href="#m92e56ea8ba" y="441"/>
      </g>
     </g>
     <g id="text_5">
      <!-- 8 -->
      <g transform="translate(334.81875 455.598437)scale(0.1 -0.1)">
       <defs>
        <path d="M 2034 2216 
Q 1584 2216 1326 1975 
Q 1069 1734 1069 1313 
Q 1069 891 1326 650 
Q 1584 409 2034 409 
Q 2484 409 2743 651 
Q 3003 894 3003 1313 
Q 3003 1734 2745 1975 
Q 2488 2216 2034 2216 
z
M 1403 2484 
Q 997 2584 770 2862 
Q 544 3141 544 3541 
Q 544 4100 942 4425 
Q 1341 4750 2034 4750 
Q 2731 4750 3128 4425 
Q 3525 4100 3525 3541 
Q 3525 3141 3298 2862 
Q 3072 2584 2669 2484 
Q 3125 2378 3379 2068 
Q 3634 1759 3634 1313 
Q 3634 634 3220 271 
Q 2806 -91 2034 -91 
Q 1263 -91 848 271 
Q 434 634 434 1313 
Q 434 1759 690 2068 
Q 947 2378 1403 2484 
z
M 1172 3481 
Q 1172 3119 1398 2916 
Q 1625 2713 2034 2713 
Q 2441 2713 2670 2916 
Q 2900 3119 2900 3481 
Q 2900 3844 2670 4047 
Q 2441 4250 2034 4250 
Q 1625 4250 1398 4047 
Q 1172 3844 1172 3481 
z
" id="DejaVuSans-38" transform="scale(0.015625)"/>
       </defs>
       <use xlink:href="#DejaVuSans-38"/>
      </g>
     </g>
    </g>
    <g id="xtick_6">
     <g id="line2d_6">
      <g>
       <use style="stroke:#000000;stroke-width:0.8;" x="400" xlink:href="#m92e56ea8ba" y="441"/>
      </g>
     </g>
     <g id="text_6">
      <!-- 10 -->
      <g transform="translate(393.6375 455.598437)scale(0.1 -0.1)">
       <defs>
        <path d="M 794 531 
L 1825 531 
L 1825 4091 
L 703 3866 
L 703 4441 
L 1819 4666 
L 2450 4666 
L 2450 531 
L 3481 531 
L 3481 0 
L 794 0 
L 794 531 
z
" id="DejaVuSans-31" transform="scale(0.015625)"/>
       </defs>
       <use xlink:href="#DejaVuSans-31"/>
       <use x="63.623047" xlink:href="#DejaVuSans-30"/>
      </g>
     </g>
    </g>
    <g id="xtick_7">
     <g id="line2d_7">
      <g>
       <use style="stroke:#000000;stroke-width:0.8;" x="462" xlink:href="#m92e56ea8ba" y="441"/>
      </g>
     </g>
     <g id="text_7">
      <!-- 12 -->
      <g transform="translate(455.6375 455.598437)scale(0.1 -0.1)">
       <use xlink:href="#DejaVuSans-31"/>
       <use x="63.623047" xlink:href="#DejaVuSans-32"/>
      </g>
     </g>
    </g>
    <g id="xtick_8">
     <g id="line2d_8">
      <g>
       <use style="stroke:#000000;stroke-width:0.8;" x="524" xlink:href="#m92e56ea8ba" y="441"/>
      </g>
     </g>
     <g id="text_8">
      <!-- 14 -->
      <g transform="translate(517.6375 455.598437)scale(0.1 -0.1)">
       <use xlink:href="#DejaVuSans-31"/>
       <use x="63.623047" xlink:href="#DejaVuSans-34"/>
      </g>
     </g>
    </g>
    <g id="xtick_9">
     <g id="line2d_9">
      <g>
       <use style="stroke:#000000;stroke-width:0.8;" x="586" xlink:href="#m92e56ea8ba" y="441"/>
      </g>
     </g>
     <g id="text_9">
      <!-- 16 -->
      <g transform="translate(579.6375 455.598437)scale(0.1 -0.1)">
       <use xlink:href="#DejaVuSans-31"/>
       <use x="63.623047" xlink:href="#DejaVuSans-36"/>
      </g>
     </g>
    </g>
    <g id="xtick_10">
     <g id="line2d_10">
      <g>
       <use style="stroke:#000000;stroke-width:0.8;" x="648" xlink:href="#m92e56ea8ba" y="441"/>
      </g>
     </g>
     <g id="text_10">
      <!-- 18 -->
      <g transform="translate(641.6375 455.598437)scale(0.1 -0.1)">
       <use xlink:href="#DejaVuSans-31"/>
       <use x="63.623047" xlink:href="#DejaVuSans-38"/>
      </g>
     </g>
    </g>
    <g id="text_11">
     <!-- Class ID [dimensionless] -->
     <g transform="translate(306.3975 470.063125)scale(0.12 -0.12)">
      <defs>
       <path d="M 3256 4175 
L 3256 3309 
L 2947 3309 
Q 2872 3581 2756 3742 
Q 2641 3903 2487 3972 
Q 2334 4041 2119 4041 
Q 1797 4041 1545 3827 
Q 1294 3613 1150 3183 
Q 1006 2753 1006 2144 
Q 1006 1531 1125 1098 
Q 1244 666 1475 445 
Q 1706 225 2044 225 
Q 2300 225 2462 298 
Q 2625 372 2736 531 
Q 2847 691 2947 1000 
L 3256 1000 
L 3256 106 
Q 2963 28 2655 -11 
Q 2347 -50 1978 -50 
Q 1184 -50 778 487 
Q 372 1025 372 2091 
Q 372 2759 583 3262 
Q 794 3766 1203 4041 
Q 1613 4316 2181 4316 
Q 2466 4316 2706 4286 
Q 2947 4256 3256 4175 
z
" id="Cambria-43" transform="scale(0.015625)"/>
       <path d="M 1138 781 
Q 1138 513 1163 408 
Q 1188 303 1258 248 
Q 1328 194 1488 153 
L 1488 0 
L 247 0 
L 247 153 
Q 403 194 464 237 
Q 525 281 551 342 
Q 578 403 589 508 
Q 600 613 600 781 
L 600 3397 
Q 600 3697 595 3815 
Q 591 3934 570 4017 
Q 550 4100 514 4147 
Q 478 4194 417 4222 
Q 356 4250 197 4278 
L 197 4441 
L 950 4472 
L 1138 4472 
L 1138 781 
z
" id="Cambria-6c" transform="scale(0.015625)"/>
       <path d="M 2109 447 
L 2063 459 
Q 1791 181 1552 65 
Q 1313 -50 1044 -50 
Q 806 -50 625 42 
Q 444 134 347 301 
Q 250 469 250 688 
Q 250 1144 701 1392 
Q 1153 1641 2056 1681 
L 2056 1884 
Q 2056 2209 1993 2396 
Q 1931 2584 1797 2671 
Q 1663 2759 1438 2759 
Q 1194 2759 1045 2631 
Q 897 2503 822 2247 
L 413 2247 
L 413 2653 
Q 713 2809 913 2882 
Q 1113 2956 1313 2998 
Q 1513 3041 1719 3041 
Q 2028 3041 2215 2942 
Q 2403 2844 2497 2641 
Q 2591 2438 2591 2028 
L 2591 941 
Q 2591 709 2594 614 
Q 2597 519 2612 437 
Q 2628 356 2659 307 
Q 2691 259 2752 225 
Q 2813 191 2950 153 
L 2950 0 
L 2094 0 
L 2109 447 
z
M 2056 1425 
Q 1422 1419 1106 1256 
Q 791 1094 791 766 
Q 791 588 862 484 
Q 934 381 1043 342 
Q 1153 303 1303 303 
Q 1516 303 1689 406 
Q 1863 509 1959 668 
Q 2056 828 2056 984 
L 2056 1425 
z
" id="Cambria-61" transform="scale(0.015625)"/>
       <path d="M 2397 2303 
L 2097 2303 
Q 2028 2491 1934 2598 
Q 1841 2706 1722 2750 
Q 1603 2794 1431 2794 
Q 1181 2794 1032 2676 
Q 884 2559 884 2356 
Q 884 2213 943 2119 
Q 1003 2025 1128 1944 
Q 1253 1863 1569 1728 
Q 1888 1591 2061 1475 
Q 2234 1359 2332 1206 
Q 2431 1053 2431 841 
Q 2431 594 2347 425 
Q 2263 256 2109 150 
Q 1956 44 1745 -3 
Q 1534 -50 1284 -50 
Q 1022 -50 775 -11 
Q 528 28 294 91 
L 294 744 
L 600 744 
Q 684 456 850 326 
Q 1016 197 1306 197 
Q 1419 197 1526 220 
Q 1634 244 1718 298 
Q 1803 353 1853 447 
Q 1903 541 1903 681 
Q 1903 841 1840 941 
Q 1778 1041 1647 1123 
Q 1516 1206 1184 1347 
Q 900 1466 728 1578 
Q 556 1691 457 1844 
Q 359 1997 359 2206 
Q 359 2463 498 2652 
Q 638 2841 900 2941 
Q 1163 3041 1516 3041 
Q 1722 3041 1914 3020 
Q 2106 3000 2397 2941 
L 2397 2303 
z
" id="Cambria-73" transform="scale(0.015625)"/>
       <path id="Cambria-20" transform="scale(0.015625)"/>
       <path d="M 1331 781 
Q 1331 572 1345 475 
Q 1359 378 1392 322 
Q 1425 266 1489 228 
Q 1553 191 1697 153 
L 1697 0 
L 378 0 
L 378 153 
Q 572 203 637 264 
Q 703 325 723 437 
Q 744 550 744 781 
L 744 3484 
Q 744 3700 728 3798 
Q 713 3897 677 3951 
Q 641 4006 581 4039 
Q 522 4072 378 4113 
L 378 4266 
L 1697 4266 
L 1697 4113 
Q 1559 4078 1498 4043 
Q 1438 4009 1402 3957 
Q 1366 3906 1348 3803 
Q 1331 3700 1331 3484 
L 1331 781 
z
" id="Cambria-49" transform="scale(0.015625)"/>
       <path d="M 375 0 
L 375 153 
Q 519 191 581 225 
Q 644 259 678 312 
Q 713 366 728 466 
Q 744 566 744 781 
L 744 3484 
Q 744 3703 728 3801 
Q 713 3900 677 3953 
Q 641 4006 581 4039 
Q 522 4072 375 4113 
L 375 4266 
L 1744 4266 
Q 2334 4266 2711 4136 
Q 3088 4006 3347 3753 
Q 3606 3500 3734 3123 
Q 3863 2747 3863 2225 
Q 3863 1697 3742 1295 
Q 3622 894 3391 622 
Q 3191 384 2900 231 
Q 2659 106 2343 53 
Q 2028 0 1506 0 
L 375 0 
z
M 1328 291 
Q 1453 278 1697 278 
Q 1959 278 2165 322 
Q 2372 366 2540 459 
Q 2709 553 2843 720 
Q 2978 888 3062 1105 
Q 3147 1322 3186 1587 
Q 3225 1853 3225 2169 
Q 3225 2803 3042 3211 
Q 2859 3619 2526 3806 
Q 2194 3994 1731 3994 
Q 1519 3994 1328 3981 
L 1328 291 
z
" id="Cambria-44" transform="scale(0.015625)"/>
       <path d="M 2106 -1344 
L 713 -1344 
L 713 4472 
L 2106 4472 
L 2106 4216 
L 1263 4216 
L 1263 -1088 
L 2106 -1088 
L 2106 -1344 
z
" id="Cambria-5b" transform="scale(0.015625)"/>
       <path d="M 2413 3397 
Q 2413 3697 2408 3815 
Q 2403 3934 2383 4017 
Q 2363 4100 2327 4147 
Q 2291 4194 2230 4222 
Q 2169 4250 2009 4278 
L 2009 4441 
L 2766 4472 
L 2950 4472 
L 2950 853 
Q 2950 609 2959 504 
Q 2969 400 3000 337 
Q 3031 275 3098 236 
Q 3166 197 3334 163 
L 3334 0 
L 2597 -31 
L 2409 -31 
L 2447 481 
L 2400 494 
Q 2203 284 2058 179 
Q 1913 75 1748 12 
Q 1584 -50 1397 -50 
Q 884 -50 606 339 
Q 328 728 328 1463 
Q 328 1975 509 2333 
Q 691 2691 998 2866 
Q 1306 3041 1691 3041 
Q 1897 3041 2065 3008 
Q 2234 2975 2413 2900 
L 2413 3397 
z
M 2413 1853 
Q 2413 2097 2391 2244 
Q 2369 2391 2317 2491 
Q 2266 2591 2178 2659 
Q 2091 2728 1986 2759 
Q 1881 2791 1734 2791 
Q 1334 2791 1125 2470 
Q 916 2150 916 1550 
Q 916 950 1087 637 
Q 1259 325 1609 325 
Q 1747 325 1837 348 
Q 1928 372 2015 423 
Q 2103 475 2193 565 
Q 2284 656 2326 731 
Q 2369 806 2391 903 
Q 2413 1000 2413 1153 
L 2413 1853 
z
" id="Cambria-64" transform="scale(0.015625)"/>
       <path d="M 1197 4213 
L 1197 3606 
L 622 3606 
L 622 4213 
L 1197 4213 
z
M 303 153 
Q 425 191 476 219 
Q 528 247 564 297 
Q 600 347 620 450 
Q 641 553 641 772 
L 641 2134 
Q 641 2334 634 2456 
Q 628 2578 590 2651 
Q 553 2725 476 2761 
Q 400 2797 259 2822 
L 259 2988 
L 988 3016 
L 1178 3016 
L 1178 781 
Q 1178 513 1203 408 
Q 1228 303 1298 248 
Q 1369 194 1528 153 
L 1528 0 
L 303 0 
L 303 153 
z
" id="Cambria-69" transform="scale(0.015625)"/>
       <path d="M 1147 2506 
L 1191 2494 
Q 1378 2681 1498 2776 
Q 1619 2872 1731 2930 
Q 1844 2988 1942 3013 
Q 2041 3038 2144 3038 
Q 2456 3038 2653 2894 
Q 2850 2750 2925 2453 
Q 3159 2691 3304 2803 
Q 3450 2916 3601 2977 
Q 3753 3038 3928 3038 
Q 4138 3038 4289 2977 
Q 4441 2916 4545 2789 
Q 4650 2663 4698 2472 
Q 4747 2281 4747 1959 
L 4747 781 
Q 4747 544 4762 453 
Q 4778 363 4808 313 
Q 4838 263 4897 227 
Q 4956 191 5097 153 
L 5097 0 
L 3869 0 
L 3869 153 
Q 3991 191 4044 219 
Q 4097 247 4133 297 
Q 4169 347 4189 451 
Q 4209 556 4209 769 
L 4209 1588 
Q 4209 1853 4195 2026 
Q 4181 2200 4151 2303 
Q 4122 2406 4080 2465 
Q 4038 2525 3984 2569 
Q 3931 2613 3859 2638 
Q 3788 2663 3669 2663 
Q 3544 2663 3436 2613 
Q 3328 2563 3201 2444 
Q 3075 2325 3019 2204 
Q 2963 2084 2963 1922 
L 2963 781 
Q 2963 544 2978 453 
Q 2994 363 3023 313 
Q 3053 263 3112 227 
Q 3172 191 3313 153 
L 3313 0 
L 2084 0 
L 2084 153 
Q 2206 191 2259 219 
Q 2313 247 2348 297 
Q 2384 347 2404 451 
Q 2425 556 2425 769 
L 2425 1588 
Q 2425 1866 2409 2041 
Q 2394 2216 2361 2322 
Q 2328 2428 2276 2493 
Q 2225 2559 2172 2593 
Q 2119 2628 2047 2645 
Q 1975 2663 1884 2663 
Q 1756 2663 1643 2605 
Q 1531 2547 1414 2437 
Q 1297 2328 1237 2209 
Q 1178 2091 1178 1953 
L 1178 781 
Q 1178 603 1187 509 
Q 1197 416 1217 362 
Q 1238 309 1269 276 
Q 1300 244 1358 214 
Q 1416 184 1531 153 
L 1531 0 
L 306 0 
L 306 153 
Q 425 191 476 219 
Q 528 247 565 297 
Q 603 347 622 450 
Q 641 553 641 772 
L 641 2134 
Q 641 2334 634 2456 
Q 628 2578 590 2651 
Q 553 2725 476 2761 
Q 400 2797 259 2822 
L 259 2988 
L 991 3016 
L 1181 3016 
L 1147 2506 
z
" id="Cambria-6d" transform="scale(0.015625)"/>
       <path d="M 2800 531 
Q 2600 322 2433 203 
Q 2266 84 2066 17 
Q 1866 -50 1625 -50 
Q 981 -50 653 336 
Q 325 722 325 1475 
Q 325 1941 492 2297 
Q 659 2653 968 2847 
Q 1278 3041 1681 3041 
Q 1997 3041 2219 2941 
Q 2441 2841 2573 2667 
Q 2706 2494 2779 2230 
Q 2853 1966 2863 1541 
L 894 1541 
L 894 1484 
Q 894 1116 976 864 
Q 1059 613 1248 470 
Q 1438 328 1741 328 
Q 1997 328 2201 423 
Q 2406 519 2609 734 
L 2800 531 
z
M 2275 1800 
Q 2256 2138 2190 2352 
Q 2125 2566 1994 2680 
Q 1863 2794 1650 2794 
Q 1328 2794 1136 2536 
Q 944 2278 909 1800 
L 2275 1800 
z
" id="Cambria-65" transform="scale(0.015625)"/>
       <path d="M 3347 0 
L 2116 0 
L 2116 153 
Q 2238 191 2291 219 
Q 2344 247 2380 297 
Q 2416 347 2436 451 
Q 2456 556 2456 769 
L 2456 1588 
Q 2456 1806 2443 1984 
Q 2431 2163 2401 2277 
Q 2372 2391 2330 2455 
Q 2288 2519 2230 2564 
Q 2172 2609 2097 2636 
Q 2022 2663 1900 2663 
Q 1778 2663 1668 2614 
Q 1559 2566 1428 2447 
Q 1297 2328 1237 2212 
Q 1178 2097 1178 1947 
L 1178 781 
Q 1178 513 1203 408 
Q 1228 303 1298 248 
Q 1369 194 1528 153 
L 1528 0 
L 303 0 
L 303 153 
Q 425 191 476 219 
Q 528 247 564 297 
Q 600 347 620 450 
Q 641 553 641 772 
L 641 2134 
Q 641 2334 634 2456 
Q 628 2578 590 2651 
Q 553 2725 476 2761 
Q 400 2797 259 2822 
L 259 2988 
L 991 3016 
L 1181 3016 
L 1147 2506 
L 1191 2494 
Q 1422 2728 1564 2828 
Q 1706 2928 1851 2983 
Q 1997 3038 2159 3038 
Q 2328 3038 2461 2998 
Q 2594 2959 2695 2878 
Q 2797 2797 2862 2676 
Q 2928 2556 2961 2387 
Q 2994 2219 2994 1959 
L 2994 781 
Q 2994 566 3006 469 
Q 3019 372 3050 319 
Q 3081 266 3140 230 
Q 3200 194 3347 153 
L 3347 0 
z
" id="Cambria-6e" transform="scale(0.015625)"/>
       <path d="M 1663 -50 
Q 1013 -50 670 333 
Q 328 716 328 1466 
Q 328 1981 508 2337 
Q 688 2694 1000 2867 
Q 1313 3041 1713 3041 
Q 2381 3041 2725 2652 
Q 3069 2263 3069 1534 
Q 3069 1016 2897 659 
Q 2725 303 2409 126 
Q 2094 -50 1663 -50 
z
M 919 1531 
Q 919 888 1123 542 
Q 1328 197 1709 197 
Q 1919 197 2066 298 
Q 2213 400 2305 572 
Q 2397 744 2437 970 
Q 2478 1197 2478 1444 
Q 2478 1903 2376 2206 
Q 2275 2509 2100 2651 
Q 1925 2794 1700 2794 
Q 1322 2794 1120 2466 
Q 919 2138 919 1531 
z
" id="Cambria-6f" transform="scale(0.015625)"/>
       <path d="M 1528 -1344 
L 134 -1344 
L 134 -1088 
L 978 -1088 
L 978 4216 
L 134 4216 
L 134 4472 
L 1528 4472 
L 1528 -1344 
z
" id="Cambria-5d" transform="scale(0.015625)"/>
      </defs>
      <use xlink:href="#Cambria-43"/>
      <use x="56.25" xlink:href="#Cambria-6c"/>
      <use x="83.398438" xlink:href="#Cambria-61"/>
      <use x="132.226562" xlink:href="#Cambria-73"/>
      <use x="175.195312" xlink:href="#Cambria-73"/>
      <use x="218.164062" xlink:href="#Cambria-20"/>
      <use x="240.185547" xlink:href="#Cambria-49"/>
      <use x="272.607422" xlink:href="#Cambria-44"/>
      <use x="338.769531" xlink:href="#Cambria-20"/>
      <use x="360.791016" xlink:href="#Cambria-5b"/>
      <use x="395.800781" xlink:href="#Cambria-64"/>
      <use x="451.269531" xlink:href="#Cambria-69"/>
      <use x="479.052734" xlink:href="#Cambria-6d"/>
      <use x="562.255859" xlink:href="#Cambria-65"/>
      <use x="611.035156" xlink:href="#Cambria-6e"/>
      <use x="666.845703" xlink:href="#Cambria-73"/>
      <use x="709.814453" xlink:href="#Cambria-69"/>
      <use x="737.597656" xlink:href="#Cambria-6f"/>
      <use x="790.673828" xlink:href="#Cambria-6e"/>
      <use x="846.484375" xlink:href="#Cambria-6c"/>
      <use x="873.632812" xlink:href="#Cambria-65"/>
      <use x="922.412109" xlink:href="#Cambria-73"/>
      <use x="965.380859" xlink:href="#Cambria-73"/>
      <use x="1008.349609" xlink:href="#Cambria-5d"/>
     </g>
    </g>
   </g>
   <g id="matplotlib.axis_2">
    <g id="ytick_1">
     <g id="line2d_11">
      <defs>
       <path d="M 0 0 
L -3.5 0 
" id="m8ab7969cf0" style="stroke:#000000;stroke-width:0.8;"/>
      </defs>
      <g>
       <use style="stroke:#000000;stroke-width:0.8;" x="90" xlink:href="#m8ab7969cf0" y="423.703636"/>
      </g>
     </g>
     <g id="text_12">
      <!-- 2 -->
      <g transform="translate(76.6375 427.502855)scale(0.1 -0.1)">
       <use xlink:href="#DejaVuSans-32"/>
      </g>
     </g>
    </g>
    <g id="ytick_2">
     <g id="line2d_12">
      <g>
       <use style="stroke:#000000;stroke-width:0.8;" x="90" xlink:href="#m8ab7969cf0" y="380.462727"/>
      </g>
     </g>
     <g id="text_13">
      <!-- 3 -->
      <g transform="translate(76.6375 384.261946)scale(0.1 -0.1)">
       <defs>
        <path d="M 2597 2516 
Q 3050 2419 3304 2112 
Q 3559 1806 3559 1356 
Q 3559 666 3084 287 
Q 2609 -91 1734 -91 
Q 1441 -91 1130 -33 
Q 819 25 488 141 
L 488 750 
Q 750 597 1062 519 
Q 1375 441 1716 441 
Q 2309 441 2620 675 
Q 2931 909 2931 1356 
Q 2931 1769 2642 2001 
Q 2353 2234 1838 2234 
L 1294 2234 
L 1294 2753 
L 1863 2753 
Q 2328 2753 2575 2939 
Q 2822 3125 2822 3475 
Q 2822 3834 2567 4026 
Q 2313 4219 1838 4219 
Q 1578 4219 1281 4162 
Q 984 4106 628 3988 
L 628 4550 
Q 988 4650 1302 4700 
Q 1616 4750 1894 4750 
Q 2613 4750 3031 4423 
Q 3450 4097 3450 3541 
Q 3450 3153 3228 2886 
Q 3006 2619 2597 2516 
z
" id="DejaVuSans-33" transform="scale(0.015625)"/>
       </defs>
       <use xlink:href="#DejaVuSans-33"/>
      </g>
     </g>
    </g>
    <g id="ytick_3">
     <g id="line2d_13">
      <g>
       <use style="stroke:#000000;stroke-width:0.8;" x="90" xlink:href="#m8ab7969cf0" y="337.221818"/>
      </g>
     </g>
     <g id="text_14">
      <!-- 4 -->
      <g transform="translate(76.6375 341.021037)scale(0.1 -0.1)">
       <use xlink:href="#DejaVuSans-34"/>
      </g>
     </g>
    </g>
    <g id="ytick_4">
     <g id="line2d_14">
      <g>
       <use style="stroke:#000000;stroke-width:0.8;" x="90" xlink:href="#m8ab7969cf0" y="293.980909"/>
      </g>
     </g>
     <g id="text_15">
      <!-- 5 -->
      <g transform="translate(76.6375 297.780128)scale(0.1 -0.1)">
       <defs>
        <path d="M 691 4666 
L 3169 4666 
L 3169 4134 
L 1269 4134 
L 1269 2991 
Q 1406 3038 1543 3061 
Q 1681 3084 1819 3084 
Q 2600 3084 3056 2656 
Q 3513 2228 3513 1497 
Q 3513 744 3044 326 
Q 2575 -91 1722 -91 
Q 1428 -91 1123 -41 
Q 819 9 494 109 
L 494 744 
Q 775 591 1075 516 
Q 1375 441 1709 441 
Q 2250 441 2565 725 
Q 2881 1009 2881 1497 
Q 2881 1984 2565 2268 
Q 2250 2553 1709 2553 
Q 1456 2553 1204 2497 
Q 953 2441 691 2322 
L 691 4666 
z
" id="DejaVuSans-35" transform="scale(0.015625)"/>
       </defs>
       <use xlink:href="#DejaVuSans-35"/>
      </g>
     </g>
    </g>
    <g id="ytick_5">
     <g id="line2d_15">
      <g>
       <use style="stroke:#000000;stroke-width:0.8;" x="90" xlink:href="#m8ab7969cf0" y="250.74"/>
      </g>
     </g>
     <g id="text_16">
      <!-- 6 -->
      <g transform="translate(76.6375 254.539219)scale(0.1 -0.1)">
       <use xlink:href="#DejaVuSans-36"/>
      </g>
     </g>
    </g>
    <g id="ytick_6">
     <g id="line2d_16">
      <g>
       <use style="stroke:#000000;stroke-width:0.8;" x="90" xlink:href="#m8ab7969cf0" y="207.499091"/>
      </g>
     </g>
     <g id="text_17">
      <!-- 7 -->
      <g transform="translate(76.6375 211.29831)scale(0.1 -0.1)">
       <defs>
        <path d="M 525 4666 
L 3525 4666 
L 3525 4397 
L 1831 0 
L 1172 0 
L 2766 4134 
L 525 4134 
L 525 4666 
z
" id="DejaVuSans-37" transform="scale(0.015625)"/>
       </defs>
       <use xlink:href="#DejaVuSans-37"/>
      </g>
     </g>
    </g>
    <g id="ytick_7">
     <g id="line2d_17">
      <g>
       <use style="stroke:#000000;stroke-width:0.8;" x="90" xlink:href="#m8ab7969cf0" y="164.258182"/>
      </g>
     </g>
     <g id="text_18">
      <!-- 8 -->
      <g transform="translate(76.6375 168.057401)scale(0.1 -0.1)">
       <use xlink:href="#DejaVuSans-38"/>
      </g>
     </g>
    </g>
    <g id="ytick_8">
     <g id="line2d_18">
      <g>
       <use style="stroke:#000000;stroke-width:0.8;" x="90" xlink:href="#m8ab7969cf0" y="121.017273"/>
      </g>
     </g>
     <g id="text_19">
      <!-- 9 -->
      <g transform="translate(76.6375 124.816491)scale(0.1 -0.1)">
       <defs>
        <path d="M 703 97 
L 703 672 
Q 941 559 1184 500 
Q 1428 441 1663 441 
Q 2288 441 2617 861 
Q 2947 1281 2994 2138 
Q 2813 1869 2534 1725 
Q 2256 1581 1919 1581 
Q 1219 1581 811 2004 
Q 403 2428 403 3163 
Q 403 3881 828 4315 
Q 1253 4750 1959 4750 
Q 2769 4750 3195 4129 
Q 3622 3509 3622 2328 
Q 3622 1225 3098 567 
Q 2575 -91 1691 -91 
Q 1453 -91 1209 -44 
Q 966 3 703 97 
z
M 1959 2075 
Q 2384 2075 2632 2365 
Q 2881 2656 2881 3163 
Q 2881 3666 2632 3958 
Q 2384 4250 1959 4250 
Q 1534 4250 1286 3958 
Q 1038 3666 1038 3163 
Q 1038 2656 1286 2365 
Q 1534 2075 1959 2075 
z
" id="DejaVuSans-39" transform="scale(0.015625)"/>
       </defs>
       <use xlink:href="#DejaVuSans-39"/>
      </g>
     </g>
    </g>
    <g id="ytick_9">
     <g id="line2d_19">
      <g>
       <use style="stroke:#000000;stroke-width:0.8;" x="90" xlink:href="#m8ab7969cf0" y="77.776364"/>
      </g>
     </g>
     <g id="text_20">
      <!-- 10 -->
      <g transform="translate(70.275 81.575582)scale(0.1 -0.1)">
       <use xlink:href="#DejaVuSans-31"/>
       <use x="63.623047" xlink:href="#DejaVuSans-30"/>
      </g>
     </g>
    </g>
    <g id="text_21">
     <!-- Principal Electrodes Count [dimensionless] -->
     <g transform="translate(63.755 361.205625)rotate(-90)scale(0.12 -0.12)">
      <defs>
       <path d="M 1328 791 
Q 1328 606 1348 497 
Q 1369 388 1411 323 
Q 1453 259 1525 223 
Q 1597 188 1750 153 
L 1750 0 
L 378 0 
L 378 153 
Q 572 203 637 264 
Q 703 325 723 437 
Q 744 550 744 781 
L 744 3484 
Q 744 3700 728 3798 
Q 713 3897 677 3951 
Q 641 4006 581 4039 
Q 522 4072 378 4113 
L 378 4266 
L 1928 4266 
Q 2659 4266 3017 3986 
Q 3375 3706 3375 3134 
Q 3375 2809 3262 2550 
Q 3150 2291 2944 2125 
Q 2738 1959 2456 1887 
Q 2175 1816 1866 1816 
Q 1519 1816 1328 1828 
L 1328 791 
z
M 1328 2088 
L 1691 2088 
Q 2044 2088 2273 2180 
Q 2503 2272 2625 2486 
Q 2747 2700 2747 3053 
Q 2747 3322 2675 3501 
Q 2603 3681 2476 3790 
Q 2350 3900 2175 3945 
Q 2000 3991 1794 3991 
Q 1484 3991 1328 3978 
L 1328 2088 
z
" id="Cambria-50" transform="scale(0.015625)"/>
       <path d="M 1147 2469 
L 1191 2459 
Q 1363 2669 1509 2789 
Q 1656 2909 1826 2975 
Q 1997 3041 2213 3041 
Q 2394 3041 2541 3022 
L 2541 2303 
L 2188 2303 
Q 2113 2472 2028 2548 
Q 1944 2625 1797 2625 
Q 1684 2625 1573 2559 
Q 1463 2494 1359 2369 
Q 1256 2244 1217 2134 
Q 1178 2025 1178 1875 
L 1178 781 
Q 1178 497 1212 389 
Q 1247 281 1326 231 
Q 1406 181 1566 153 
L 1566 0 
L 306 0 
L 306 153 
Q 425 191 476 219 
Q 528 247 565 297 
Q 603 347 622 450 
Q 641 553 641 772 
L 641 2134 
Q 641 2334 634 2456 
Q 628 2578 590 2651 
Q 553 2725 476 2761 
Q 400 2797 259 2822 
L 259 2984 
L 991 3016 
L 1181 3016 
L 1147 2469 
z
" id="Cambria-72" transform="scale(0.015625)"/>
       <path d="M 2631 2916 
L 2631 2263 
L 2234 2263 
Q 2181 2466 2103 2583 
Q 2025 2700 1922 2747 
Q 1819 2794 1666 2794 
Q 1447 2794 1278 2653 
Q 1109 2513 1011 2225 
Q 913 1938 913 1522 
Q 913 1256 950 1036 
Q 988 816 1078 659 
Q 1169 503 1319 415 
Q 1469 328 1691 328 
Q 1906 328 2092 412 
Q 2278 497 2478 709 
L 2656 503 
Q 2497 328 2375 233 
Q 2253 138 2114 73 
Q 1975 9 1839 -20 
Q 1703 -50 1544 -50 
Q 953 -50 640 342 
Q 328 734 328 1475 
Q 328 1938 503 2295 
Q 678 2653 993 2847 
Q 1309 3041 1722 3041 
Q 1978 3041 2195 3011 
Q 2413 2981 2631 2916 
z
" id="Cambria-63" transform="scale(0.015625)"/>
       <path d="M 1150 94 
L 1150 -566 
Q 1150 -769 1164 -869 
Q 1178 -969 1214 -1026 
Q 1250 -1084 1317 -1121 
Q 1384 -1159 1534 -1191 
L 1534 -1344 
L 259 -1344 
L 259 -1191 
Q 372 -1159 442 -1126 
Q 513 -1094 550 -1030 
Q 588 -966 600 -856 
Q 613 -747 613 -566 
L 613 2116 
Q 613 2341 606 2436 
Q 600 2531 581 2593 
Q 563 2656 527 2697 
Q 491 2738 430 2766 
Q 369 2794 228 2822 
L 228 2988 
L 963 3016 
L 1153 3016 
L 1113 2506 
L 1159 2494 
Q 1353 2691 1465 2780 
Q 1578 2869 1698 2928 
Q 1819 2988 1930 3013 
Q 2041 3038 2166 3038 
Q 2681 3038 2957 2652 
Q 3234 2266 3234 1522 
Q 3234 1006 3078 654 
Q 2922 303 2623 126 
Q 2325 -50 1913 -50 
Q 1681 -50 1493 -11 
Q 1306 28 1150 94 
z
M 1150 1125 
Q 1150 825 1187 662 
Q 1225 500 1320 398 
Q 1416 297 1545 247 
Q 1675 197 1888 197 
Q 2266 197 2456 511 
Q 2647 825 2647 1438 
Q 2647 2663 1931 2663 
Q 1756 2663 1629 2608 
Q 1503 2553 1378 2431 
Q 1253 2309 1201 2195 
Q 1150 2081 1150 1950 
L 1150 1125 
z
" id="Cambria-70" transform="scale(0.015625)"/>
       <path d="M 3300 4266 
L 3300 3322 
L 2994 3322 
Q 2947 3475 2897 3590 
Q 2847 3706 2794 3784 
Q 2741 3863 2677 3909 
Q 2613 3956 2525 3973 
Q 2438 3991 2316 3991 
L 1328 3991 
L 1328 2353 
L 1997 2353 
Q 2134 2353 2212 2392 
Q 2291 2431 2342 2525 
Q 2394 2619 2441 2819 
L 2734 2819 
L 2734 1619 
L 2441 1619 
Q 2397 1806 2344 1901 
Q 2291 1997 2217 2037 
Q 2144 2078 1997 2078 
L 1328 2078 
L 1328 275 
L 2300 275 
Q 2453 275 2548 301 
Q 2644 328 2712 392 
Q 2781 456 2834 559 
Q 2888 663 2923 773 
Q 2959 884 3022 1097 
L 3331 1097 
L 3272 0 
L 378 0 
L 378 153 
Q 572 203 637 264 
Q 703 325 723 437 
Q 744 550 744 781 
L 744 3484 
Q 744 3700 728 3798 
Q 713 3897 677 3951 
Q 641 4006 581 4039 
Q 522 4072 378 4113 
L 378 4266 
L 3300 4266 
z
" id="Cambria-45" transform="scale(0.015625)"/>
       <path d="M 116 2831 
Q 272 2856 369 2918 
Q 466 2981 520 3079 
Q 575 3178 606 3326 
Q 638 3475 672 3759 
L 1116 3759 
L 1116 2988 
L 2125 2988 
L 2125 2672 
L 1116 2672 
L 1116 1281 
Q 1116 978 1141 798 
Q 1166 619 1234 517 
Q 1303 416 1390 372 
Q 1478 328 1616 328 
Q 1741 328 1850 379 
Q 1959 431 2066 528 
L 2206 359 
Q 1984 144 1786 47 
Q 1588 -50 1375 -50 
Q 972 -50 775 189 
Q 578 428 578 938 
L 578 2672 
L 116 2672 
L 116 2831 
z
" id="Cambria-74" transform="scale(0.015625)"/>
       <path d="M 228 2988 
L 1119 2988 
L 1119 1397 
Q 1119 1031 1147 840 
Q 1175 650 1231 553 
Q 1288 456 1391 390 
Q 1494 325 1675 325 
Q 1794 325 1903 372 
Q 2013 419 2147 536 
Q 2281 653 2339 768 
Q 2397 884 2397 1038 
L 2397 2209 
Q 2397 2388 2387 2478 
Q 2378 2569 2356 2623 
Q 2334 2678 2304 2712 
Q 2275 2747 2220 2775 
Q 2166 2803 2044 2834 
L 2044 2988 
L 2934 2988 
L 2934 853 
Q 2934 613 2943 506 
Q 2953 400 2984 337 
Q 3016 275 3081 236 
Q 3147 197 3316 163 
L 3316 0 
L 2600 -31 
L 2409 -31 
L 2428 481 
L 2381 494 
Q 2122 213 1886 81 
Q 1650 -50 1413 -50 
Q 1128 -50 943 62 
Q 759 175 668 398 
Q 578 622 578 1028 
L 578 2209 
Q 578 2472 558 2570 
Q 538 2669 480 2726 
Q 422 2784 228 2834 
L 228 2988 
z
" id="Cambria-75" transform="scale(0.015625)"/>
      </defs>
      <use xlink:href="#Cambria-50"/>
      <use x="56.787109" xlink:href="#Cambria-72"/>
      <use x="98.144531" xlink:href="#Cambria-69"/>
      <use x="125.927734" xlink:href="#Cambria-6e"/>
      <use x="181.738281" xlink:href="#Cambria-63"/>
      <use x="225.830078" xlink:href="#Cambria-69"/>
      <use x="253.613281" xlink:href="#Cambria-70"/>
      <use x="309.228516" xlink:href="#Cambria-61"/>
      <use x="358.056641" xlink:href="#Cambria-6c"/>
      <use x="385.205078" xlink:href="#Cambria-20"/>
      <use x="407.226562" xlink:href="#Cambria-45"/>
      <use x="464.746094" xlink:href="#Cambria-6c"/>
      <use x="491.894531" xlink:href="#Cambria-65"/>
      <use x="540.673828" xlink:href="#Cambria-63"/>
      <use x="584.765625" xlink:href="#Cambria-74"/>
      <use x="618.603516" xlink:href="#Cambria-72"/>
      <use x="659.960938" xlink:href="#Cambria-6f"/>
      <use x="713.037109" xlink:href="#Cambria-64"/>
      <use x="768.505859" xlink:href="#Cambria-65"/>
      <use x="817.285156" xlink:href="#Cambria-73"/>
      <use x="860.253906" xlink:href="#Cambria-20"/>
      <use x="882.275391" xlink:href="#Cambria-43"/>
      <use x="938.525391" xlink:href="#Cambria-6f"/>
      <use x="991.601562" xlink:href="#Cambria-75"/>
      <use x="1046.826172" xlink:href="#Cambria-6e"/>
      <use x="1102.636719" xlink:href="#Cambria-74"/>
      <use x="1136.474609" xlink:href="#Cambria-20"/>
      <use x="1158.496094" xlink:href="#Cambria-5b"/>
      <use x="1193.505859" xlink:href="#Cambria-64"/>
      <use x="1248.974609" xlink:href="#Cambria-69"/>
      <use x="1276.757812" xlink:href="#Cambria-6d"/>
      <use x="1359.960938" xlink:href="#Cambria-65"/>
      <use x="1408.740234" xlink:href="#Cambria-6e"/>
      <use x="1464.550781" xlink:href="#Cambria-73"/>
      <use x="1507.519531" xlink:href="#Cambria-69"/>
      <use x="1535.302734" xlink:href="#Cambria-6f"/>
      <use x="1588.378906" xlink:href="#Cambria-6e"/>
      <use x="1644.189453" xlink:href="#Cambria-6c"/>
      <use x="1671.337891" xlink:href="#Cambria-65"/>
      <use x="1720.117188" xlink:href="#Cambria-73"/>
      <use x="1763.085938" xlink:href="#Cambria-73"/>
      <use x="1806.054688" xlink:href="#Cambria-5d"/>
     </g>
    </g>
   </g>
   <g id="LineCollection_1">
    <path clip-path="url(#p06085e80d8)" d="M 105.5 265.153636 
L 632.5 265.153636 
" style="fill:none;stroke:#ad5276;stroke-width:1.5;"/>
   </g>
   <g id="LineCollection_2">
    <path clip-path="url(#p06085e80d8)" d="M 105.5 179.666712 
L 632.5 179.666712 
" style="fill:none;stroke:#ad5276;stroke-dasharray:5.55,2.4;stroke-dashoffset:0;stroke-width:1.5;"/>
   </g>
   <g id="LineCollection_3">
    <path clip-path="url(#p06085e80d8)" d="M 105.5 350.640561 
L 632.5 350.640561 
" style="fill:none;stroke:#ad5276;stroke-dasharray:5.55,2.4;stroke-dashoffset:0;stroke-width:1.5;"/>
   </g>
   <g id="patch_3">
    <path d="M 90 441 
L 90 60.48 
" style="fill:none;stroke:#000000;stroke-linecap:square;stroke-linejoin:miter;stroke-width:0.8;"/>
   </g>
   <g id="patch_4">
    <path d="M 648 441 
L 648 60.48 
" style="fill:none;stroke:#000000;stroke-linecap:square;stroke-linejoin:miter;stroke-width:0.8;"/>
   </g>
   <g id="patch_5">
    <path d="M 90 441 
L 648 441 
" style="fill:none;stroke:#000000;stroke-linecap:square;stroke-linejoin:miter;stroke-width:0.8;"/>
   </g>
   <g id="patch_6">
    <path d="M 90 60.48 
L 648 60.48 
" style="fill:none;stroke:#000000;stroke-linecap:square;stroke-linejoin:miter;stroke-width:0.8;"/>
   </g>
   <g id="text_22">
    <!-- No. of Principal Electrodes -->
    <g transform="translate(301.24125 54.48)scale(0.12 -0.12)">
     <defs>
      <path d="M 2888 1691 
Q 3000 1503 3076 1362 
Q 3153 1222 3234 1047 
L 3275 1047 
Q 3259 1238 3246 1805 
Q 3234 2372 3234 2828 
L 3234 3484 
Q 3234 3700 3221 3800 
Q 3209 3900 3176 3953 
Q 3144 4006 3086 4039 
Q 3028 4072 2884 4113 
L 2884 4266 
L 4009 4266 
L 4009 4113 
Q 3869 4075 3811 4044 
Q 3753 4013 3717 3963 
Q 3681 3913 3662 3813 
Q 3644 3713 3644 3484 
L 3644 -19 
L 3253 -19 
L 1513 2900 
Q 1350 3172 1281 3297 
Q 1213 3422 1153 3544 
L 1100 3544 
Q 1122 3303 1131 2673 
Q 1141 2044 1141 1419 
L 1141 781 
Q 1141 572 1155 475 
Q 1169 378 1201 322 
Q 1234 266 1298 228 
Q 1363 191 1506 153 
L 1506 0 
L 366 0 
L 366 153 
Q 559 203 625 264 
Q 691 325 711 437 
Q 731 550 731 781 
L 731 3484 
Q 731 3700 715 3798 
Q 700 3897 664 3951 
Q 628 4006 568 4039 
Q 509 4072 366 4113 
L 366 4266 
L 1344 4266 
L 2888 1691 
z
" id="Cambria-4e" transform="scale(0.015625)"/>
      <path d="M 972 725 
L 972 0 
L 341 0 
L 341 725 
L 972 725 
z
" id="Cambria-2e" transform="scale(0.015625)"/>
      <path d="M 1909 2672 
L 1163 2672 
L 1163 781 
Q 1163 572 1183 465 
Q 1203 359 1242 304 
Q 1281 250 1345 217 
Q 1409 184 1550 153 
L 1550 0 
L 272 0 
L 272 153 
Q 409 191 468 225 
Q 528 259 561 312 
Q 594 366 609 466 
Q 625 566 625 781 
L 625 2672 
L 247 2672 
L 247 2831 
Q 366 2850 405 2861 
Q 444 2872 480 2894 
Q 516 2916 542 2956 
Q 569 2997 589 3076 
Q 609 3156 622 3300 
Q 650 3641 745 3853 
Q 841 4066 1023 4216 
Q 1206 4366 1414 4427 
Q 1622 4488 1903 4488 
Q 2150 4488 2322 4453 
L 2322 3888 
L 2013 3888 
Q 1953 4072 1873 4148 
Q 1794 4225 1650 4225 
Q 1547 4225 1476 4197 
Q 1406 4169 1347 4109 
Q 1288 4050 1245 3950 
Q 1203 3850 1183 3701 
Q 1163 3553 1163 3316 
L 1163 2988 
L 1909 2988 
L 1909 2672 
z
" id="Cambria-66" transform="scale(0.015625)"/>
     </defs>
     <use xlink:href="#Cambria-4e"/>
     <use x="68.066406" xlink:href="#Cambria-6f"/>
     <use x="121.142578" xlink:href="#Cambria-2e"/>
     <use x="141.650391" xlink:href="#Cambria-20"/>
     <use x="163.671875" xlink:href="#Cambria-6f"/>
     <use x="216.748047" xlink:href="#Cambria-66"/>
     <use x="247.021484" xlink:href="#Cambria-20"/>
     <use x="269.042969" xlink:href="#Cambria-50"/>
     <use x="325.830078" xlink:href="#Cambria-72"/>
     <use x="367.1875" xlink:href="#Cambria-69"/>
     <use x="394.970703" xlink:href="#Cambria-6e"/>
     <use x="450.78125" xlink:href="#Cambria-63"/>
     <use x="494.873047" xlink:href="#Cambria-69"/>
     <use x="522.65625" xlink:href="#Cambria-70"/>
     <use x="578.271484" xlink:href="#Cambria-61"/>
     <use x="627.099609" xlink:href="#Cambria-6c"/>
     <use x="654.248047" xlink:href="#Cambria-20"/>
     <use x="676.269531" xlink:href="#Cambria-45"/>
     <use x="733.789062" xlink:href="#Cambria-6c"/>
     <use x="760.9375" xlink:href="#Cambria-65"/>
     <use x="809.716797" xlink:href="#Cambria-63"/>
     <use x="853.808594" xlink:href="#Cambria-74"/>
     <use x="887.646484" xlink:href="#Cambria-72"/>
     <use x="929.003906" xlink:href="#Cambria-6f"/>
     <use x="982.080078" xlink:href="#Cambria-64"/>
     <use x="1037.548828" xlink:href="#Cambria-65"/>
     <use x="1086.328125" xlink:href="#Cambria-73"/>
    </g>
   </g>
  </g>
 </g>
 <defs>
  <clipPath id="p06085e80d8">
   <rect height="380.52" width="558" x="90" y="60.48"/>
  </clipPath>
 </defs>
</svg>
