<?xml version="1.0" encoding="utf-8" standalone="no"?>
<!DOCTYPE svg PUBLIC "-//W3C//DTD SVG 1.1//EN"
  "http://www.w3.org/Graphics/SVG/1.1/DTD/svg11.dtd">
<!-- Created with matplotlib (http://matplotlib.org/) -->
<svg height="504pt" version="1.1" viewBox="0 0 720 504" width="720pt" xmlns="http://www.w3.org/2000/svg" xmlns:xlink="http://www.w3.org/1999/xlink">
 <defs>
  <style type="text/css">
*{stroke-linecap:butt;stroke-linejoin:round;}
  </style>
 </defs>
 <g id="figure_1">
  <g id="patch_1">
   <path d="M 0 504 
L 720 504 
L 720 0 
L 0 0 
z
" style="fill:#ffffff;"/>
  </g>
  <g id="axes_1">
   <g id="patch_2">
    <path d="M 90 441 
L 648 441 
L 648 60.48 
L 90 60.48 
z
" style="fill:#ffffff;"/>
   </g>
   <g id="patch_3">
    <path clip-path="url(#p7a65ff5030)" d="M 115.363636 441 
L 151.750288 441 
L 151.750288 83.3112 
L 115.363636 83.3112 
z
" style="fill:#52ad89;opacity:0.7;"/>
   </g>
   <g id="patch_4">
    <path clip-path="url(#p7a65ff5030)" d="M 158.171461 441 
L 194.558113 441 
L 194.558113 78.2376 
L 158.171461 78.2376 
z
" style="fill:#52ad89;opacity:0.7;"/>
   </g>
   <g id="patch_5">
    <path clip-path="url(#p7a65ff5030)" d="M 200.979287 441 
L 237.365938 441 
L 237.365938 235.5192 
L 200.979287 235.5192 
z
" style="fill:#52ad89;opacity:0.7;"/>
   </g>
   <g id="patch_6">
    <path clip-path="url(#p7a65ff5030)" d="M 243.787112 441 
L 280.173763 441 
L 280.173763 296.4024 
L 243.787112 296.4024 
z
" style="fill:#52ad89;opacity:0.7;"/>
   </g>
   <g id="patch_7">
    <path clip-path="url(#p7a65ff5030)" d="M 286.594937 441 
L 322.981588 441 
L 322.981588 260.8872 
L 286.594937 260.8872 
z
" style="fill:#52ad89;opacity:0.7;"/>
   </g>
   <g id="patch_8">
    <path clip-path="url(#p7a65ff5030)" d="M 329.402762 441 
L 365.789413 441 
L 365.789413 253.2768 
L 329.402762 253.2768 
z
" style="fill:#52ad89;opacity:0.7;"/>
   </g>
   <g id="patch_9">
    <path clip-path="url(#p7a65ff5030)" d="M 372.210587 441 
L 408.597238 441 
L 408.597238 194.9304 
L 372.210587 194.9304 
z
" style="fill:#52ad89;opacity:0.7;"/>
   </g>
   <g id="patch_10">
    <path clip-path="url(#p7a65ff5030)" d="M 415.018412 441 
L 451.405063 441 
L 451.405063 174.636 
L 415.018412 174.636 
z
" style="fill:#52ad89;opacity:0.7;"/>
   </g>
   <g id="patch_11">
    <path clip-path="url(#p7a65ff5030)" d="M 457.826237 441 
L 494.212888 441 
L 494.212888 182.2464 
L 457.826237 182.2464 
z
" style="fill:#52ad89;opacity:0.7;"/>
   </g>
   <g id="patch_12">
    <path clip-path="url(#p7a65ff5030)" d="M 500.634062 441 
L 537.020713 441 
L 537.020713 85.848 
L 500.634062 85.848 
z
" style="fill:#52ad89;opacity:0.7;"/>
   </g>
   <g id="patch_13">
    <path clip-path="url(#p7a65ff5030)" d="M 543.441887 441 
L 579.828539 441 
L 579.828539 200.004 
L 543.441887 200.004 
z
" style="fill:#52ad89;opacity:0.7;"/>
   </g>
   <g id="patch_14">
    <path clip-path="url(#p7a65ff5030)" d="M 586.249712 441 
L 622.636364 441 
L 622.636364 205.0776 
L 586.249712 205.0776 
z
" style="fill:#52ad89;opacity:0.7;"/>
   </g>
   <g id="matplotlib.axis_1">
    <g id="xtick_1">
     <g id="line2d_1">
      <defs>
       <path d="M 0 0 
L 0 3.5 
" id="mc8689634ee" style="stroke:#000000;stroke-width:0.8;"/>
      </defs>
      <g>
       <use style="stroke:#000000;stroke-width:0.8;" x="133.556962" xlink:href="#mc8689634ee" y="441"/>
      </g>
     </g>
     <g id="text_1">
      <!-- 0 -->
      <defs>
       <path d="M 31.78125 66.40625 
Q 24.171875 66.40625 20.328125 58.90625 
Q 16.5 51.421875 16.5 36.375 
Q 16.5 21.390625 20.328125 13.890625 
Q 24.171875 6.390625 31.78125 6.390625 
Q 39.453125 6.390625 43.28125 13.890625 
Q 47.125 21.390625 47.125 36.375 
Q 47.125 51.421875 43.28125 58.90625 
Q 39.453125 66.40625 31.78125 66.40625 
z
M 31.78125 74.21875 
Q 44.046875 74.21875 50.515625 64.515625 
Q 56.984375 54.828125 56.984375 36.375 
Q 56.984375 17.96875 50.515625 8.265625 
Q 44.046875 -1.421875 31.78125 -1.421875 
Q 19.53125 -1.421875 13.0625 8.265625 
Q 6.59375 17.96875 6.59375 36.375 
Q 6.59375 54.828125 13.0625 64.515625 
Q 19.53125 74.21875 31.78125 74.21875 
z
" id="DejaVuSans-30"/>
      </defs>
      <g transform="translate(130.375712 455.598437)scale(0.1 -0.1)">
       <use xlink:href="#DejaVuSans-30"/>
      </g>
     </g>
    </g>
    <g id="xtick_2">
     <g id="line2d_2">
      <g>
       <use style="stroke:#000000;stroke-width:0.8;" x="176.364787" xlink:href="#mc8689634ee" y="441"/>
      </g>
     </g>
     <g id="text_2">
      <!-- 1 -->
      <defs>
       <path d="M 12.40625 8.296875 
L 28.515625 8.296875 
L 28.515625 63.921875 
L 10.984375 60.40625 
L 10.984375 69.390625 
L 28.421875 72.90625 
L 38.28125 72.90625 
L 38.28125 8.296875 
L 54.390625 8.296875 
L 54.390625 0 
L 12.40625 0 
z
" id="DejaVuSans-31"/>
      </defs>
      <g transform="translate(173.183537 455.598437)scale(0.1 -0.1)">
       <use xlink:href="#DejaVuSans-31"/>
      </g>
     </g>
    </g>
    <g id="xtick_3">
     <g id="line2d_3">
      <g>
       <use style="stroke:#000000;stroke-width:0.8;" x="219.172612" xlink:href="#mc8689634ee" y="441"/>
      </g>
     </g>
     <g id="text_3">
      <!-- 2 -->
      <defs>
       <path d="M 19.1875 8.296875 
L 53.609375 8.296875 
L 53.609375 0 
L 7.328125 0 
L 7.328125 8.296875 
Q 12.9375 14.109375 22.625 23.890625 
Q 32.328125 33.6875 34.8125 36.53125 
Q 39.546875 41.84375 41.421875 45.53125 
Q 43.3125 49.21875 43.3125 52.78125 
Q 43.3125 58.59375 39.234375 62.25 
Q 35.15625 65.921875 28.609375 65.921875 
Q 23.96875 65.921875 18.8125 64.3125 
Q 13.671875 62.703125 7.8125 59.421875 
L 7.8125 69.390625 
Q 13.765625 71.78125 18.9375 73 
Q 24.125 74.21875 28.421875 74.21875 
Q 39.75 74.21875 46.484375 68.546875 
Q 53.21875 62.890625 53.21875 53.421875 
Q 53.21875 48.921875 51.53125 44.890625 
Q 49.859375 40.875 45.40625 35.40625 
Q 44.1875 33.984375 37.640625 27.21875 
Q 31.109375 20.453125 19.1875 8.296875 
z
" id="DejaVuSans-32"/>
      </defs>
      <g transform="translate(215.991362 455.598437)scale(0.1 -0.1)">
       <use xlink:href="#DejaVuSans-32"/>
      </g>
     </g>
    </g>
    <g id="xtick_4">
     <g id="line2d_4">
      <g>
       <use style="stroke:#000000;stroke-width:0.8;" x="261.980437" xlink:href="#mc8689634ee" y="441"/>
      </g>
     </g>
     <g id="text_4">
      <!-- 3 -->
      <defs>
       <path d="M 40.578125 39.3125 
Q 47.65625 37.796875 51.625 33 
Q 55.609375 28.21875 55.609375 21.1875 
Q 55.609375 10.40625 48.1875 4.484375 
Q 40.765625 -1.421875 27.09375 -1.421875 
Q 22.515625 -1.421875 17.65625 -0.515625 
Q 12.796875 0.390625 7.625 2.203125 
L 7.625 11.71875 
Q 11.71875 9.328125 16.59375 8.109375 
Q 21.484375 6.890625 26.8125 6.890625 
Q 36.078125 6.890625 40.9375 10.546875 
Q 45.796875 14.203125 45.796875 21.1875 
Q 45.796875 27.640625 41.28125 31.265625 
Q 36.765625 34.90625 28.71875 34.90625 
L 20.21875 34.90625 
L 20.21875 43.015625 
L 29.109375 43.015625 
Q 36.375 43.015625 40.234375 45.921875 
Q 44.09375 48.828125 44.09375 54.296875 
Q 44.09375 59.90625 40.109375 62.90625 
Q 36.140625 65.921875 28.71875 65.921875 
Q 24.65625 65.921875 20.015625 65.03125 
Q 15.375 64.15625 9.8125 62.3125 
L 9.8125 71.09375 
Q 15.4375 72.65625 20.34375 73.4375 
Q 25.25 74.21875 29.59375 74.21875 
Q 40.828125 74.21875 47.359375 69.109375 
Q 53.90625 64.015625 53.90625 55.328125 
Q 53.90625 49.265625 50.4375 45.09375 
Q 46.96875 40.921875 40.578125 39.3125 
z
" id="DejaVuSans-33"/>
      </defs>
      <g transform="translate(258.799187 455.598437)scale(0.1 -0.1)">
       <use xlink:href="#DejaVuSans-33"/>
      </g>
     </g>
    </g>
    <g id="xtick_5">
     <g id="line2d_5">
      <g>
       <use style="stroke:#000000;stroke-width:0.8;" x="304.788262" xlink:href="#mc8689634ee" y="441"/>
      </g>
     </g>
     <g id="text_5">
      <!-- 4 -->
      <defs>
       <path d="M 37.796875 64.3125 
L 12.890625 25.390625 
L 37.796875 25.390625 
z
M 35.203125 72.90625 
L 47.609375 72.90625 
L 47.609375 25.390625 
L 58.015625 25.390625 
L 58.015625 17.1875 
L 47.609375 17.1875 
L 47.609375 0 
L 37.796875 0 
L 37.796875 17.1875 
L 4.890625 17.1875 
L 4.890625 26.703125 
z
" id="DejaVuSans-34"/>
      </defs>
      <g transform="translate(301.607012 455.598437)scale(0.1 -0.1)">
       <use xlink:href="#DejaVuSans-34"/>
      </g>
     </g>
    </g>
    <g id="xtick_6">
     <g id="line2d_6">
      <g>
       <use style="stroke:#000000;stroke-width:0.8;" x="347.596087" xlink:href="#mc8689634ee" y="441"/>
      </g>
     </g>
     <g id="text_6">
      <!-- 5 -->
      <defs>
       <path d="M 10.796875 72.90625 
L 49.515625 72.90625 
L 49.515625 64.59375 
L 19.828125 64.59375 
L 19.828125 46.734375 
Q 21.96875 47.46875 24.109375 47.828125 
Q 26.265625 48.1875 28.421875 48.1875 
Q 40.625 48.1875 47.75 41.5 
Q 54.890625 34.8125 54.890625 23.390625 
Q 54.890625 11.625 47.5625 5.09375 
Q 40.234375 -1.421875 26.90625 -1.421875 
Q 22.3125 -1.421875 17.546875 -0.640625 
Q 12.796875 0.140625 7.71875 1.703125 
L 7.71875 11.625 
Q 12.109375 9.234375 16.796875 8.0625 
Q 21.484375 6.890625 26.703125 6.890625 
Q 35.15625 6.890625 40.078125 11.328125 
Q 45.015625 15.765625 45.015625 23.390625 
Q 45.015625 31 40.078125 35.4375 
Q 35.15625 39.890625 26.703125 39.890625 
Q 22.75 39.890625 18.8125 39.015625 
Q 14.890625 38.140625 10.796875 36.28125 
z
" id="DejaVuSans-35"/>
      </defs>
      <g transform="translate(344.414837 455.598437)scale(0.1 -0.1)">
       <use xlink:href="#DejaVuSans-35"/>
      </g>
     </g>
    </g>
    <g id="xtick_7">
     <g id="line2d_7">
      <g>
       <use style="stroke:#000000;stroke-width:0.8;" x="390.403913" xlink:href="#mc8689634ee" y="441"/>
      </g>
     </g>
     <g id="text_7">
      <!-- 6 -->
      <defs>
       <path d="M 33.015625 40.375 
Q 26.375 40.375 22.484375 35.828125 
Q 18.609375 31.296875 18.609375 23.390625 
Q 18.609375 15.53125 22.484375 10.953125 
Q 26.375 6.390625 33.015625 6.390625 
Q 39.65625 6.390625 43.53125 10.953125 
Q 47.40625 15.53125 47.40625 23.390625 
Q 47.40625 31.296875 43.53125 35.828125 
Q 39.65625 40.375 33.015625 40.375 
z
M 52.59375 71.296875 
L 52.59375 62.3125 
Q 48.875 64.0625 45.09375 64.984375 
Q 41.3125 65.921875 37.59375 65.921875 
Q 27.828125 65.921875 22.671875 59.328125 
Q 17.53125 52.734375 16.796875 39.40625 
Q 19.671875 43.65625 24.015625 45.921875 
Q 28.375 48.1875 33.59375 48.1875 
Q 44.578125 48.1875 50.953125 41.515625 
Q 57.328125 34.859375 57.328125 23.390625 
Q 57.328125 12.15625 50.6875 5.359375 
Q 44.046875 -1.421875 33.015625 -1.421875 
Q 20.359375 -1.421875 13.671875 8.265625 
Q 6.984375 17.96875 6.984375 36.375 
Q 6.984375 53.65625 15.1875 63.9375 
Q 23.390625 74.21875 37.203125 74.21875 
Q 40.921875 74.21875 44.703125 73.484375 
Q 48.484375 72.75 52.59375 71.296875 
z
" id="DejaVuSans-36"/>
      </defs>
      <g transform="translate(387.222663 455.598437)scale(0.1 -0.1)">
       <use xlink:href="#DejaVuSans-36"/>
      </g>
     </g>
    </g>
    <g id="xtick_8">
     <g id="line2d_8">
      <g>
       <use style="stroke:#000000;stroke-width:0.8;" x="433.211738" xlink:href="#mc8689634ee" y="441"/>
      </g>
     </g>
     <g id="text_8">
      <!-- 7 -->
      <defs>
       <path d="M 8.203125 72.90625 
L 55.078125 72.90625 
L 55.078125 68.703125 
L 28.609375 0 
L 18.3125 0 
L 43.21875 64.59375 
L 8.203125 64.59375 
z
" id="DejaVuSans-37"/>
      </defs>
      <g transform="translate(430.030488 455.598437)scale(0.1 -0.1)">
       <use xlink:href="#DejaVuSans-37"/>
      </g>
     </g>
    </g>
    <g id="xtick_9">
     <g id="line2d_9">
      <g>
       <use style="stroke:#000000;stroke-width:0.8;" x="476.019563" xlink:href="#mc8689634ee" y="441"/>
      </g>
     </g>
     <g id="text_9">
      <!-- 8 -->
      <defs>
       <path d="M 31.78125 34.625 
Q 24.75 34.625 20.71875 30.859375 
Q 16.703125 27.09375 16.703125 20.515625 
Q 16.703125 13.921875 20.71875 10.15625 
Q 24.75 6.390625 31.78125 6.390625 
Q 38.8125 6.390625 42.859375 10.171875 
Q 46.921875 13.96875 46.921875 20.515625 
Q 46.921875 27.09375 42.890625 30.859375 
Q 38.875 34.625 31.78125 34.625 
z
M 21.921875 38.8125 
Q 15.578125 40.375 12.03125 44.71875 
Q 8.5 49.078125 8.5 55.328125 
Q 8.5 64.0625 14.71875 69.140625 
Q 20.953125 74.21875 31.78125 74.21875 
Q 42.671875 74.21875 48.875 69.140625 
Q 55.078125 64.0625 55.078125 55.328125 
Q 55.078125 49.078125 51.53125 44.71875 
Q 48 40.375 41.703125 38.8125 
Q 48.828125 37.15625 52.796875 32.3125 
Q 56.78125 27.484375 56.78125 20.515625 
Q 56.78125 9.90625 50.3125 4.234375 
Q 43.84375 -1.421875 31.78125 -1.421875 
Q 19.734375 -1.421875 13.25 4.234375 
Q 6.78125 9.90625 6.78125 20.515625 
Q 6.78125 27.484375 10.78125 32.3125 
Q 14.796875 37.15625 21.921875 38.8125 
z
M 18.3125 54.390625 
Q 18.3125 48.734375 21.84375 45.5625 
Q 25.390625 42.390625 31.78125 42.390625 
Q 38.140625 42.390625 41.71875 45.5625 
Q 45.3125 48.734375 45.3125 54.390625 
Q 45.3125 60.0625 41.71875 63.234375 
Q 38.140625 66.40625 31.78125 66.40625 
Q 25.390625 66.40625 21.84375 63.234375 
Q 18.3125 60.0625 18.3125 54.390625 
z
" id="DejaVuSans-38"/>
      </defs>
      <g transform="translate(472.838313 455.598437)scale(0.1 -0.1)">
       <use xlink:href="#DejaVuSans-38"/>
      </g>
     </g>
    </g>
    <g id="xtick_10">
     <g id="line2d_10">
      <g>
       <use style="stroke:#000000;stroke-width:0.8;" x="518.827388" xlink:href="#mc8689634ee" y="441"/>
      </g>
     </g>
     <g id="text_10">
      <!-- 9 -->
      <defs>
       <path d="M 10.984375 1.515625 
L 10.984375 10.5 
Q 14.703125 8.734375 18.5 7.8125 
Q 22.3125 6.890625 25.984375 6.890625 
Q 35.75 6.890625 40.890625 13.453125 
Q 46.046875 20.015625 46.78125 33.40625 
Q 43.953125 29.203125 39.59375 26.953125 
Q 35.25 24.703125 29.984375 24.703125 
Q 19.046875 24.703125 12.671875 31.3125 
Q 6.296875 37.9375 6.296875 49.421875 
Q 6.296875 60.640625 12.9375 67.421875 
Q 19.578125 74.21875 30.609375 74.21875 
Q 43.265625 74.21875 49.921875 64.515625 
Q 56.59375 54.828125 56.59375 36.375 
Q 56.59375 19.140625 48.40625 8.859375 
Q 40.234375 -1.421875 26.421875 -1.421875 
Q 22.703125 -1.421875 18.890625 -0.6875 
Q 15.09375 0.046875 10.984375 1.515625 
z
M 30.609375 32.421875 
Q 37.25 32.421875 41.125 36.953125 
Q 45.015625 41.5 45.015625 49.421875 
Q 45.015625 57.28125 41.125 61.84375 
Q 37.25 66.40625 30.609375 66.40625 
Q 23.96875 66.40625 20.09375 61.84375 
Q 16.21875 57.28125 16.21875 49.421875 
Q 16.21875 41.5 20.09375 36.953125 
Q 23.96875 32.421875 30.609375 32.421875 
z
" id="DejaVuSans-39"/>
      </defs>
      <g transform="translate(515.646138 455.598437)scale(0.1 -0.1)">
       <use xlink:href="#DejaVuSans-39"/>
      </g>
     </g>
    </g>
    <g id="xtick_11">
     <g id="line2d_11">
      <g>
       <use style="stroke:#000000;stroke-width:0.8;" x="561.635213" xlink:href="#mc8689634ee" y="441"/>
      </g>
     </g>
     <g id="text_11">
      <!-- 10 -->
      <g transform="translate(555.272713 455.598437)scale(0.1 -0.1)">
       <use xlink:href="#DejaVuSans-31"/>
       <use x="63.623047" xlink:href="#DejaVuSans-30"/>
      </g>
     </g>
    </g>
    <g id="xtick_12">
     <g id="line2d_12">
      <g>
       <use style="stroke:#000000;stroke-width:0.8;" x="604.443038" xlink:href="#mc8689634ee" y="441"/>
      </g>
     </g>
     <g id="text_12">
      <!-- 11 -->
      <g transform="translate(598.080538 455.598437)scale(0.1 -0.1)">
       <use xlink:href="#DejaVuSans-31"/>
       <use x="63.623047" xlink:href="#DejaVuSans-31"/>
      </g>
     </g>
    </g>
    <g id="text_13">
     <!-- Electrode ID [dimensionless] -->
     <defs>
      <path d="M 53.125 66.65625 
L 53.125 51.125 
L 46.4375 51.125 
Q 44.828125 55.765625 43.703125 57.390625 
Q 42.578125 59.03125 41.015625 59.984375 
Q 39.453125 60.9375 35.6875 60.9375 
L 25.046875 60.9375 
L 25.046875 37.5 
L 31.5 37.5 
Q 33.640625 37.5 34.859375 38.109375 
Q 36.078125 38.71875 36.890625 40.125 
Q 37.703125 41.546875 38.421875 44.53125 
L 43.953125 44.53125 
L 43.953125 24.703125 
L 38.421875 24.703125 
Q 37.75 27.546875 36.90625 29.03125 
Q 36.078125 30.515625 34.9375 31.140625 
Q 33.796875 31.78125 31.5 31.78125 
L 25.046875 31.78125 
L 25.046875 5.71875 
L 35.640625 5.71875 
Q 37.359375 5.71875 38.53125 5.9375 
Q 39.703125 6.15625 40.625 6.6875 
Q 41.546875 7.234375 42.40625 8.15625 
Q 43.265625 9.078125 43.921875 10.15625 
Q 44.578125 11.234375 45.3125 12.984375 
Q 46.046875 14.75 46.921875 17.828125 
L 53.609375 17.828125 
L 52.6875 0 
L 4.6875 0 
L 4.6875 3.21875 
Q 6.5 3.71875 7.546875 4.265625 
Q 8.59375 4.828125 9.109375 5.828125 
Q 9.625 6.84375 9.765625 8.375 
Q 9.90625 9.90625 9.90625 12.25 
L 9.90625 54.34375 
Q 9.90625 56.640625 9.78125 58.203125 
Q 9.671875 59.765625 9.15625 60.734375 
Q 8.640625 61.71875 7.59375 62.328125 
Q 6.546875 62.9375 4.6875 63.421875 
L 4.6875 66.65625 
z
" id="Cambria-Bold-45"/>
      <path d="M 22.46875 14.109375 
Q 22.46875 9.46875 22.75 7.703125 
Q 23.046875 5.953125 23.953125 4.90625 
Q 24.859375 3.859375 27.34375 3.21875 
L 27.34375 0 
L 3.421875 0 
L 3.421875 3.21875 
Q 4.890625 3.5625 5.71875 4.03125 
Q 6.546875 4.5 7 5.109375 
Q 7.46875 5.71875 7.8125 6.671875 
Q 8.15625 7.625 8.25 9.296875 
Q 8.34375 10.984375 8.34375 14.109375 
L 8.34375 52.203125 
Q 8.34375 56.390625 8.265625 58.375 
Q 8.203125 60.359375 7.984375 61.6875 
Q 7.765625 63.03125 7.25 63.84375 
Q 6.734375 64.65625 5.8125 65.140625 
Q 4.890625 65.625 2.828125 66.015625 
L 2.828125 69.234375 
L 16.359375 69.921875 
L 22.46875 69.921875 
z
" id="Cambria-Bold-6c"/>
      <path d="M 48.390625 8.890625 
Q 43.40625 3.609375 38.515625 1.40625 
Q 33.640625 -0.78125 27.296875 -0.78125 
Q 15.921875 -0.78125 10.171875 5.4375 
Q 4.4375 11.671875 4.4375 23.921875 
Q 4.4375 31.84375 7.390625 37.578125 
Q 10.359375 43.3125 15.765625 46.265625 
Q 21.1875 49.21875 28.375 49.21875 
Q 32.8125 49.21875 36.15625 48.1875 
Q 39.5 47.171875 41.890625 45.328125 
Q 44.28125 43.5 45.84375 40.921875 
Q 47.703125 37.84375 48.640625 33.890625 
Q 49.609375 29.828125 49.65625 24.078125 
L 18.703125 24.078125 
Q 18.75 15.234375 21.84375 11.0625 
Q 24.953125 6.890625 31.296875 6.890625 
Q 35.015625 6.890625 37.984375 8.28125 
Q 40.96875 9.671875 44.4375 13.1875 
z
M 35.203125 29.34375 
Q 35.015625 36.8125 33.25 40.46875 
Q 31.5 44.140625 27.59375 44.140625 
Q 23.828125 44.140625 21.609375 40.328125 
Q 19.390625 36.53125 18.953125 29.34375 
z
" id="Cambria-Bold-65"/>
      <path d="M 41.40625 12.5 
L 45.171875 7.953125 
Q 40.375 3.265625 35.90625 1.234375 
Q 31.453125 -0.78125 26.171875 -0.78125 
Q 15.578125 -0.78125 10 5.4375 
Q 4.4375 11.671875 4.4375 23.53125 
Q 4.4375 31.546875 7.484375 37.375 
Q 10.546875 43.21875 16.25 46.21875 
Q 21.96875 49.21875 29.34375 49.21875 
Q 33.296875 49.21875 37.21875 48.65625 
Q 41.15625 48.09375 44.390625 47.125 
L 44.390625 35.359375 
L 34.71875 35.359375 
Q 33.984375 39.9375 32.515625 42.03125 
Q 31.0625 44.140625 28.328125 44.140625 
Q 26.515625 44.140625 24.875 43.234375 
Q 23.25 42.328125 22 40.109375 
Q 20.75 37.890625 20.015625 34.15625 
Q 19.28125 30.421875 19.28125 24.703125 
Q 19.28125 19 20.359375 15.0625 
Q 21.4375 11.140625 23.828125 9.015625 
Q 26.21875 6.890625 30.125 6.890625 
Q 32.953125 6.890625 35.46875 8.109375 
Q 37.984375 9.328125 41.40625 12.5 
z
" id="Cambria-Bold-63"/>
      <path d="M 37.59375 5.859375 
Q 33.296875 2.203125 29.78125 0.703125 
Q 26.265625 -0.78125 22.359375 -0.78125 
Q 15.09375 -0.78125 11.5 3.140625 
Q 7.90625 7.078125 7.90625 15.046875 
L 7.90625 42.328125 
L 1.8125 42.328125 
L 1.8125 45.703125 
Q 4.78125 46.1875 6.203125 47.15625 
Q 7.625 48.140625 8.40625 49.78125 
Q 9.1875 51.421875 9.640625 54.046875 
Q 10.109375 56.6875 10.359375 60.640625 
L 22.015625 60.640625 
L 22.015625 48.4375 
L 35.9375 48.4375 
L 35.9375 42.328125 
L 22.015625 42.328125 
L 22.015625 20.3125 
Q 22.015625 14.796875 22.53125 12.15625 
Q 23.046875 9.515625 24.265625 8.265625 
Q 25.484375 7.03125 27.296875 7.03125 
Q 28.65625 7.03125 29.734375 7.265625 
Q 30.8125 7.515625 32 8.15625 
Q 33.203125 8.796875 34.515625 9.96875 
z
" id="Cambria-Bold-74"/>
      <path d="M 22.40625 41.453125 
L 23.046875 41.3125 
Q 26.609375 45.515625 30.359375 47.359375 
Q 34.125 49.21875 38.53125 49.21875 
Q 41.5 49.21875 44.78125 48.578125 
L 44.78125 35.109375 
L 35.9375 35.109375 
Q 35.109375 37.9375 33.765625 39.453125 
Q 32.421875 40.96875 30.171875 40.96875 
Q 29.109375 40.96875 27.8125 40.3125 
Q 26.515625 39.65625 25.40625 38.453125 
Q 24.3125 37.25 23.84375 36 
Q 23.390625 34.765625 23.234375 33.5 
Q 23.09375 32.234375 23.09375 29.6875 
L 23.09375 14.109375 
Q 23.09375 9.46875 23.4375 7.609375 
Q 23.78125 5.765625 24.796875 4.703125 
Q 25.828125 3.65625 28.265625 3.21875 
L 28.265625 0 
L 4.203125 0 
L 4.203125 3.21875 
Q 6.546875 3.859375 7.4375 4.875 
Q 8.34375 5.90625 8.65625 7.65625 
Q 8.984375 9.421875 8.984375 14.0625 
L 8.984375 34.125 
Q 8.984375 37.75 8.859375 39.484375 
Q 8.734375 41.21875 8.265625 42.265625 
Q 7.8125 43.3125 6.859375 43.96875 
Q 5.90625 44.625 3.5625 45.125 
L 3.5625 48.4375 
L 16.9375 48.828125 
L 23.09375 48.828125 
z
" id="Cambria-Bold-72"/>
      <path d="M 27.875 -0.78125 
Q 20.703125 -0.78125 15.5 1.734375 
Q 10.296875 4.25 7.359375 9.78125 
Q 4.4375 15.328125 4.4375 23.875 
Q 4.4375 30.421875 6.25 35.203125 
Q 8.0625 39.984375 11.28125 43.109375 
Q 14.5 46.234375 18.96875 47.71875 
Q 23.4375 49.21875 28.65625 49.21875 
Q 40.484375 49.21875 46.484375 42.984375 
Q 52.484375 36.765625 52.484375 24.75 
Q 52.484375 16.265625 49.5 10.515625 
Q 46.53125 4.78125 41.015625 2 
Q 35.5 -0.78125 27.875 -0.78125 
z
M 19.28125 24.953125 
Q 19.28125 14.59375 21.59375 9.4375 
Q 23.921875 4.296875 28.609375 4.296875 
Q 31.203125 4.296875 32.9375 5.609375 
Q 34.671875 6.9375 35.71875 9.421875 
Q 36.765625 11.921875 37.203125 15.40625 
Q 37.640625 18.890625 37.640625 23.25 
Q 37.640625 33.734375 35.328125 38.9375 
Q 33.015625 44.140625 28.46875 44.140625 
Q 25.140625 44.140625 23.140625 42.03125 
Q 21.140625 39.9375 20.203125 35.734375 
Q 19.28125 31.546875 19.28125 24.953125 
z
" id="Cambria-Bold-6f"/>
      <path d="M 51.375 14.265625 
Q 51.375 10.546875 51.484375 8.828125 
Q 51.609375 7.125 52.046875 6.09375 
Q 52.484375 5.078125 53.453125 4.421875 
Q 54.4375 3.765625 56.734375 3.265625 
L 56.734375 0 
L 43.453125 -0.4375 
L 37.546875 -0.4375 
L 37.984375 6.59375 
L 37.25 6.640625 
Q 33.734375 3.078125 29.859375 1.140625 
Q 25.984375 -0.78125 22.40625 -0.78125 
Q 13.53125 -0.78125 9.109375 5.3125 
Q 4.6875 11.421875 4.6875 23.6875 
Q 4.6875 31.984375 7.375 37.671875 
Q 10.0625 43.359375 15.359375 46.28125 
Q 20.65625 49.21875 28.125 49.21875 
Q 30.28125 49.21875 32.34375 48.953125 
Q 34.421875 48.6875 37.25 47.90625 
L 37.25 52.34375 
Q 37.25 57.5625 37.109375 59.734375 
Q 36.96875 61.921875 36.5 63.0625 
Q 36.03125 64.203125 35.109375 64.84375 
Q 34.1875 65.484375 31.734375 65.96875 
L 31.734375 69.234375 
L 45.265625 69.921875 
L 51.375 69.921875 
z
M 37.25 32.421875 
Q 37.25 38.375 35.25 41.25 
Q 33.25 44.140625 29.109375 44.140625 
Q 26.078125 44.140625 23.90625 41.96875 
Q 21.734375 39.796875 20.625 35.6875 
Q 19.53125 31.59375 19.53125 25.984375 
Q 19.53125 16.359375 21.625 11.625 
Q 23.734375 6.890625 28.171875 6.890625 
Q 30.28125 6.890625 32.34375 7.9375 
Q 34.421875 8.984375 35.828125 11.15625 
Q 37.25 13.328125 37.25 16.15625 
z
" id="Cambria-Bold-64"/>
      <path id="Cambria-Bold-20"/>
      <path d="M 25.046875 12.25 
Q 25.046875 10.546875 25.140625 9.078125 
Q 25.25 7.625 25.53125 6.6875 
Q 25.828125 5.765625 26.390625 5.125 
Q 26.953125 4.5 27.921875 4.03125 
Q 28.90625 3.5625 30.328125 3.21875 
L 30.328125 0 
L 4.6875 0 
L 4.6875 3.21875 
Q 6.5 3.71875 7.546875 4.265625 
Q 8.59375 4.828125 9.109375 5.828125 
Q 9.625 6.84375 9.765625 8.375 
Q 9.90625 9.90625 9.90625 12.25 
L 9.90625 54.390625 
Q 9.90625 56.734375 9.78125 58.25 
Q 9.671875 59.765625 9.15625 60.765625 
Q 8.640625 61.765625 7.59375 62.34375 
Q 6.546875 62.9375 4.6875 63.421875 
L 4.6875 66.65625 
L 30.328125 66.65625 
L 30.328125 63.421875 
Q 28.328125 62.890625 27.375 62.28125 
Q 26.421875 61.671875 25.921875 60.78125 
Q 25.4375 59.90625 25.234375 58.484375 
Q 25.046875 57.078125 25.046875 54.34375 
z
" id="Cambria-Bold-49"/>
      <path d="M 30.078125 66.65625 
Q 38.234375 66.65625 43.703125 65.375 
Q 49.171875 64.109375 53.421875 61.375 
Q 57.671875 58.640625 60.28125 54.859375 
Q 62.890625 51.078125 64.15625 46.0625 
Q 65.4375 41.0625 65.4375 34.765625 
Q 65.4375 27.15625 63.640625 21.09375 
Q 61.859375 15.046875 58.296875 10.75 
Q 55.125 6.890625 50.515625 4.390625 
Q 45.90625 1.90625 39.890625 0.875 
Q 34.71875 0 26.859375 0 
L 4.6875 0 
L 4.6875 3.21875 
Q 6.5 3.71875 7.546875 4.265625 
Q 8.59375 4.828125 9.109375 5.828125 
Q 9.625 6.84375 9.765625 8.375 
Q 9.90625 9.90625 9.90625 12.25 
L 9.90625 54.34375 
Q 9.90625 56.640625 9.78125 58.203125 
Q 9.671875 59.765625 9.15625 60.734375 
Q 8.640625 61.71875 7.59375 62.328125 
Q 6.546875 62.9375 4.6875 63.421875 
L 4.6875 66.65625 
z
M 25.046875 5.90625 
Q 25.921875 5.765625 29.5 5.765625 
Q 34.859375 5.765625 38.53125 7.328125 
Q 41.265625 8.5 43.171875 10.546875 
Q 46.34375 13.921875 47.953125 19.28125 
Q 49.703125 25.140625 49.703125 33.59375 
Q 49.703125 42.875 47.21875 49 
Q 44.734375 55.125 40.203125 58.03125 
Q 35.6875 60.9375 29.390625 60.9375 
Q 26.375 60.9375 25.046875 60.84375 
z
" id="Cambria-Bold-44"/>
      <path d="M 34.671875 -21 
L 9.421875 -21 
L 9.421875 69.875 
L 34.671875 69.875 
L 34.671875 64.546875 
L 23.296875 64.546875 
L 23.296875 -15.671875 
L 34.671875 -15.671875 
z
" id="Cambria-Bold-5b"/>
      <path d="M 22.703125 67.921875 
L 22.703125 55.953125 
L 9.328125 55.953125 
L 9.328125 67.921875 
z
M 4.15625 3.21875 
Q 6.546875 3.859375 7.4375 4.875 
Q 8.34375 5.90625 8.65625 7.65625 
Q 8.984375 9.421875 8.984375 14.0625 
L 8.984375 36.765625 
Q 8.984375 39.15625 8.765625 40.625 
Q 8.546875 42.09375 7.9375 42.96875 
Q 7.328125 43.84375 6.265625 44.3125 
Q 5.21875 44.78125 3.5625 45.125 
L 3.5625 48.4375 
L 17 48.828125 
L 23.09375 48.828125 
L 23.09375 14.109375 
Q 23.09375 11.375 23.171875 9.890625 
Q 23.25 8.40625 23.390625 7.59375 
Q 23.53125 6.78125 23.796875 6.140625 
Q 24.078125 5.515625 24.515625 4.96875 
Q 24.953125 4.4375 25.78125 4 
Q 26.609375 3.5625 27.984375 3.21875 
L 27.984375 0 
L 4.15625 0 
z
" id="Cambria-Bold-69"/>
      <path d="M 22.359375 41.796875 
L 22.953125 41.65625 
Q 27.390625 45.796875 30.953125 47.5 
Q 34.515625 49.21875 38.234375 49.21875 
Q 41.84375 49.21875 44.234375 48.28125 
Q 46.625 47.359375 48.28125 45.578125 
Q 49.953125 43.796875 50.984375 40.921875 
Q 55.90625 45.515625 59.546875 47.359375 
Q 63.1875 49.21875 67.140625 49.21875 
Q 71.046875 49.21875 73.609375 48.1875 
Q 76.171875 47.171875 77.828125 45.015625 
Q 79.5 42.875 80.25 39.640625 
Q 81 36.421875 81 31.9375 
L 81 14.109375 
Q 81 11.96875 81.078125 10.078125 
Q 81.15625 8.203125 81.4375 7.078125 
Q 81.734375 5.953125 82.25 5.25 
Q 82.765625 4.546875 83.6875 4.046875 
Q 84.625 3.5625 85.9375 3.21875 
L 85.9375 0 
L 62.40625 0 
L 62.40625 3.21875 
Q 64.59375 3.765625 65.421875 4.78125 
Q 66.265625 5.8125 66.578125 7.609375 
Q 66.890625 9.421875 66.890625 14.0625 
L 66.890625 27.15625 
Q 66.890625 31.546875 66.59375 34.296875 
Q 66.3125 37.0625 65.484375 38.625 
Q 64.65625 40.1875 63.5 40.859375 
Q 62.359375 41.546875 60.5 41.546875 
Q 59.234375 41.546875 58.15625 41.15625 
Q 57.078125 40.765625 55.984375 39.953125 
Q 54.890625 39.15625 54.109375 38.328125 
Q 53.328125 37.5 52.859375 36.46875 
Q 52.390625 35.453125 52.21875 34.171875 
Q 52.046875 32.90625 52.046875 30.03125 
L 52.046875 14.109375 
Q 52.046875 10.796875 52.171875 9.03125 
Q 52.296875 7.28125 52.6875 6.203125 
Q 53.078125 5.125 53.921875 4.421875 
Q 54.78125 3.71875 56.59375 3.21875 
L 56.59375 0 
L 33.34375 0 
L 33.34375 3.21875 
Q 35.59375 3.765625 36.453125 4.78125 
Q 37.3125 5.8125 37.59375 7.59375 
Q 37.890625 9.375 37.890625 14.0625 
L 37.890625 27.15625 
Q 37.890625 30.375 37.765625 32.59375 
Q 37.640625 34.8125 37.34375 36.171875 
Q 37.0625 37.546875 36.546875 38.5625 
Q 36.03125 39.59375 35.375 40.234375 
Q 34.71875 40.875 33.8125 41.203125 
Q 32.90625 41.546875 31.546875 41.546875 
Q 29.734375 41.546875 27.75 40.421875 
Q 25.78125 39.3125 24.4375 37.296875 
Q 23.09375 35.296875 23.09375 33.015625 
L 23.09375 14.109375 
Q 23.09375 9.515625 23.359375 7.6875 
Q 23.640625 5.859375 24.515625 4.8125 
Q 25.390625 3.765625 27.59375 3.21875 
L 27.59375 0 
L 4.203125 0 
L 4.203125 3.21875 
Q 6.546875 3.859375 7.4375 4.875 
Q 8.34375 5.90625 8.65625 7.65625 
Q 8.984375 9.421875 8.984375 14.0625 
L 8.984375 34.125 
Q 8.984375 37.75 8.859375 39.484375 
Q 8.734375 41.21875 8.265625 42.265625 
Q 7.8125 43.3125 6.859375 43.96875 
Q 5.90625 44.625 3.5625 45.125 
L 3.5625 48.4375 
L 16.9375 48.828125 
L 23.09375 48.828125 
z
" id="Cambria-Bold-6d"/>
      <path d="M 57.28125 0 
L 33.59375 0 
L 33.59375 3.21875 
Q 35.84375 3.765625 36.71875 4.8125 
Q 37.59375 5.859375 37.90625 7.640625 
Q 38.234375 9.421875 38.234375 14.0625 
L 38.234375 27.09375 
Q 38.234375 30.5625 38.078125 32.78125 
Q 37.9375 35.015625 37.625 36.421875 
Q 37.3125 37.84375 36.75 38.796875 
Q 36.1875 39.75 35.5 40.359375 
Q 34.8125 40.96875 33.9375 41.25 
Q 33.0625 41.546875 31.6875 41.546875 
Q 29.828125 41.546875 27.828125 40.40625 
Q 25.828125 39.265625 24.453125 37.234375 
Q 23.09375 35.203125 23.09375 32.90625 
L 23.09375 14.109375 
Q 23.09375 9.46875 23.390625 7.65625 
Q 23.6875 5.859375 24.578125 4.8125 
Q 25.484375 3.765625 27.78125 3.21875 
L 27.78125 0 
L 4.203125 0 
L 4.203125 3.21875 
Q 6.546875 3.859375 7.4375 4.875 
Q 8.34375 5.90625 8.65625 7.65625 
Q 8.984375 9.421875 8.984375 14.0625 
L 8.984375 34.125 
Q 8.984375 37.75 8.859375 39.484375 
Q 8.734375 41.21875 8.265625 42.265625 
Q 7.8125 43.3125 6.859375 43.96875 
Q 5.90625 44.625 3.5625 45.125 
L 3.5625 48.4375 
L 16.9375 48.828125 
L 23.09375 48.828125 
L 22.359375 41.796875 
L 22.953125 41.65625 
Q 25.984375 44.34375 28.265625 45.875 
Q 30.5625 47.40625 33.078125 48.3125 
Q 35.59375 49.21875 38.375 49.21875 
Q 42.390625 49.21875 45.015625 48.0625 
Q 47.65625 46.921875 49.28125 44.71875 
Q 50.921875 42.53125 51.625 39.359375 
Q 52.34375 36.1875 52.34375 31.984375 
L 52.34375 14.109375 
Q 52.34375 11.96875 52.40625 10.078125 
Q 52.484375 8.203125 52.78125 7.078125 
Q 53.078125 5.953125 53.59375 5.25 
Q 54.109375 4.546875 55.03125 4.046875 
Q 55.953125 3.5625 57.28125 3.21875 
z
" id="Cambria-Bold-6e"/>
      <path d="M 10.5 13.1875 
Q 11.671875 8.734375 14.203125 6.515625 
Q 16.75 4.296875 21 4.296875 
Q 24.65625 4.296875 26.53125 5.953125 
Q 28.421875 7.625 28.421875 10.796875 
Q 28.421875 12.796875 27.5625 14.203125 
Q 26.703125 15.625 24.71875 16.921875 
Q 22.75 18.21875 17.96875 20.3125 
Q 15.28125 21.484375 12.90625 22.890625 
Q 10.546875 24.3125 8.78125 26.09375 
Q 7.03125 27.875 6 30.078125 
Q 4.984375 32.28125 4.984375 34.96875 
Q 4.984375 39.359375 7.515625 42.578125 
Q 10.0625 45.796875 14.765625 47.5 
Q 19.484375 49.21875 25.53125 49.21875 
Q 29.109375 49.21875 32.515625 48.921875 
Q 35.9375 48.640625 41.359375 47.65625 
L 41.359375 36.28125 
L 34.90625 36.28125 
Q 33.796875 39.40625 32.453125 41.109375 
Q 31.109375 42.828125 29.484375 43.484375 
Q 27.875 44.140625 25.640625 44.140625 
Q 22.40625 44.140625 20.5 42.671875 
Q 18.609375 41.21875 18.609375 38.578125 
Q 18.609375 36.71875 19.28125 35.390625 
Q 19.96875 34.078125 21.71875 32.828125 
Q 23.484375 31.59375 28.515625 29.5 
Q 33.109375 27.59375 35.984375 25.515625 
Q 38.875 23.4375 40.375 20.71875 
Q 41.890625 18.015625 41.890625 14.40625 
Q 41.890625 10.453125 40.421875 7.59375 
Q 38.96875 4.734375 36.328125 2.875 
Q 33.6875 1.03125 30 0.125 
Q 26.3125 -0.78125 21.875 -0.78125 
Q 13.8125 -0.78125 3.953125 1.515625 
L 3.953125 13.1875 
z
" id="Cambria-Bold-73"/>
      <path d="M 2.09375 -15.671875 
L 13.484375 -15.671875 
L 13.484375 64.546875 
L 2.09375 64.546875 
L 2.09375 69.875 
L 27.34375 69.875 
L 27.34375 -21 
L 2.09375 -21 
z
" id="Cambria-Bold-5d"/>
     </defs>
     <g transform="translate(289.325625 470.06875)scale(0.12 -0.12)">
      <use xlink:href="#Cambria-Bold-45"/>
      <use x="57.763672" xlink:href="#Cambria-Bold-6c"/>
      <use x="88.574219" xlink:href="#Cambria-Bold-65"/>
      <use x="141.650391" xlink:href="#Cambria-Bold-63"/>
      <use x="188.525391" xlink:href="#Cambria-Bold-74"/>
      <use x="225.048828" xlink:href="#Cambria-Bold-72"/>
      <use x="271.191406" xlink:href="#Cambria-Bold-6f"/>
      <use x="328.125" xlink:href="#Cambria-Bold-64"/>
      <use x="387.841797" xlink:href="#Cambria-Bold-65"/>
      <use x="440.917969" xlink:href="#Cambria-Bold-20"/>
      <use x="462.939453" xlink:href="#Cambria-Bold-49"/>
      <use x="497.900391" xlink:href="#Cambria-Bold-44"/>
      <use x="568.359375" xlink:href="#Cambria-Bold-20"/>
      <use x="590.380859" xlink:href="#Cambria-Bold-5b"/>
      <use x="627.148438" xlink:href="#Cambria-Bold-64"/>
      <use x="686.865234" xlink:href="#Cambria-Bold-69"/>
      <use x="718.310547" xlink:href="#Cambria-Bold-6d"/>
      <use x="807.324219" xlink:href="#Cambria-Bold-65"/>
      <use x="860.400391" xlink:href="#Cambria-Bold-6e"/>
      <use x="920.751953" xlink:href="#Cambria-Bold-73"/>
      <use x="966.650391" xlink:href="#Cambria-Bold-69"/>
      <use x="998.095703" xlink:href="#Cambria-Bold-6f"/>
      <use x="1055.029297" xlink:href="#Cambria-Bold-6e"/>
      <use x="1115.380859" xlink:href="#Cambria-Bold-6c"/>
      <use x="1146.191406" xlink:href="#Cambria-Bold-65"/>
      <use x="1199.267578" xlink:href="#Cambria-Bold-73"/>
      <use x="1245.166016" xlink:href="#Cambria-Bold-73"/>
      <use x="1291.064453" xlink:href="#Cambria-Bold-5d"/>
     </g>
    </g>
   </g>
   <g id="matplotlib.axis_2">
    <g id="ytick_1">
     <g id="line2d_13">
      <path clip-path="url(#p7a65ff5030)" d="M 90 441 
L 648 441 
" style="fill:none;opacity:0.75;stroke:#b0b0b0;stroke-linecap:square;stroke-width:0.8;"/>
     </g>
     <g id="line2d_14">
      <defs>
       <path d="M 0 0 
L -3.5 0 
" id="mcf4528236b" style="stroke:#000000;stroke-width:0.8;"/>
      </defs>
      <g>
       <use style="stroke:#000000;stroke-width:0.8;" x="90" xlink:href="#mcf4528236b" y="441"/>
      </g>
     </g>
     <g id="text_14">
      <!-- 0 -->
      <g transform="translate(76.6375 444.799219)scale(0.1 -0.1)">
       <use xlink:href="#DejaVuSans-30"/>
      </g>
     </g>
    </g>
    <g id="ytick_2">
     <g id="line2d_15">
      <path clip-path="url(#p7a65ff5030)" d="M 90 390.264 
L 648 390.264 
" style="fill:none;opacity:0.75;stroke:#b0b0b0;stroke-linecap:square;stroke-width:0.8;"/>
     </g>
     <g id="line2d_16">
      <g>
       <use style="stroke:#000000;stroke-width:0.8;" x="90" xlink:href="#mcf4528236b" y="390.264"/>
      </g>
     </g>
     <g id="text_15">
      <!-- 20 -->
      <g transform="translate(70.275 394.063219)scale(0.1 -0.1)">
       <use xlink:href="#DejaVuSans-32"/>
       <use x="63.623047" xlink:href="#DejaVuSans-30"/>
      </g>
     </g>
    </g>
    <g id="ytick_3">
     <g id="line2d_17">
      <path clip-path="url(#p7a65ff5030)" d="M 90 339.528 
L 648 339.528 
" style="fill:none;opacity:0.75;stroke:#b0b0b0;stroke-linecap:square;stroke-width:0.8;"/>
     </g>
     <g id="line2d_18">
      <g>
       <use style="stroke:#000000;stroke-width:0.8;" x="90" xlink:href="#mcf4528236b" y="339.528"/>
      </g>
     </g>
     <g id="text_16">
      <!-- 40 -->
      <g transform="translate(70.275 343.327219)scale(0.1 -0.1)">
       <use xlink:href="#DejaVuSans-34"/>
       <use x="63.623047" xlink:href="#DejaVuSans-30"/>
      </g>
     </g>
    </g>
    <g id="ytick_4">
     <g id="line2d_19">
      <path clip-path="url(#p7a65ff5030)" d="M 90 288.792 
L 648 288.792 
" style="fill:none;opacity:0.75;stroke:#b0b0b0;stroke-linecap:square;stroke-width:0.8;"/>
     </g>
     <g id="line2d_20">
      <g>
       <use style="stroke:#000000;stroke-width:0.8;" x="90" xlink:href="#mcf4528236b" y="288.792"/>
      </g>
     </g>
     <g id="text_17">
      <!-- 60 -->
      <g transform="translate(70.275 292.591219)scale(0.1 -0.1)">
       <use xlink:href="#DejaVuSans-36"/>
       <use x="63.623047" xlink:href="#DejaVuSans-30"/>
      </g>
     </g>
    </g>
    <g id="ytick_5">
     <g id="line2d_21">
      <path clip-path="url(#p7a65ff5030)" d="M 90 238.056 
L 648 238.056 
" style="fill:none;opacity:0.75;stroke:#b0b0b0;stroke-linecap:square;stroke-width:0.8;"/>
     </g>
     <g id="line2d_22">
      <g>
       <use style="stroke:#000000;stroke-width:0.8;" x="90" xlink:href="#mcf4528236b" y="238.056"/>
      </g>
     </g>
     <g id="text_18">
      <!-- 80 -->
      <g transform="translate(70.275 241.855219)scale(0.1 -0.1)">
       <use xlink:href="#DejaVuSans-38"/>
       <use x="63.623047" xlink:href="#DejaVuSans-30"/>
      </g>
     </g>
    </g>
    <g id="ytick_6">
     <g id="line2d_23">
      <path clip-path="url(#p7a65ff5030)" d="M 90 187.32 
L 648 187.32 
" style="fill:none;opacity:0.75;stroke:#b0b0b0;stroke-linecap:square;stroke-width:0.8;"/>
     </g>
     <g id="line2d_24">
      <g>
       <use style="stroke:#000000;stroke-width:0.8;" x="90" xlink:href="#mcf4528236b" y="187.32"/>
      </g>
     </g>
     <g id="text_19">
      <!-- 100 -->
      <g transform="translate(63.9125 191.119219)scale(0.1 -0.1)">
       <use xlink:href="#DejaVuSans-31"/>
       <use x="63.623047" xlink:href="#DejaVuSans-30"/>
       <use x="127.246094" xlink:href="#DejaVuSans-30"/>
      </g>
     </g>
    </g>
    <g id="ytick_7">
     <g id="line2d_25">
      <path clip-path="url(#p7a65ff5030)" d="M 90 136.584 
L 648 136.584 
" style="fill:none;opacity:0.75;stroke:#b0b0b0;stroke-linecap:square;stroke-width:0.8;"/>
     </g>
     <g id="line2d_26">
      <g>
       <use style="stroke:#000000;stroke-width:0.8;" x="90" xlink:href="#mcf4528236b" y="136.584"/>
      </g>
     </g>
     <g id="text_20">
      <!-- 120 -->
      <g transform="translate(63.9125 140.383219)scale(0.1 -0.1)">
       <use xlink:href="#DejaVuSans-31"/>
       <use x="63.623047" xlink:href="#DejaVuSans-32"/>
       <use x="127.246094" xlink:href="#DejaVuSans-30"/>
      </g>
     </g>
    </g>
    <g id="ytick_8">
     <g id="line2d_27">
      <path clip-path="url(#p7a65ff5030)" d="M 90 85.848 
L 648 85.848 
" style="fill:none;opacity:0.75;stroke:#b0b0b0;stroke-linecap:square;stroke-width:0.8;"/>
     </g>
     <g id="line2d_28">
      <g>
       <use style="stroke:#000000;stroke-width:0.8;" x="90" xlink:href="#mcf4528236b" y="85.848"/>
      </g>
     </g>
     <g id="text_21">
      <!-- 140 -->
      <g transform="translate(63.9125 89.647219)scale(0.1 -0.1)">
       <use xlink:href="#DejaVuSans-31"/>
       <use x="63.623047" xlink:href="#DejaVuSans-34"/>
       <use x="127.246094" xlink:href="#DejaVuSans-30"/>
      </g>
     </g>
    </g>
    <g id="text_22">
     <!-- Count [dimensionless] -->
     <defs>
      <path d="M 53.171875 65.140625 
L 53.171875 50.984375 
L 46.53125 50.984375 
Q 45.359375 56.5 42.8125 59.109375 
Q 40.28125 61.71875 36.1875 61.71875 
Q 28.46875 61.71875 24.515625 54.3125 
Q 20.5625 46.921875 20.5625 32.375 
Q 20.5625 18.84375 24.171875 11.890625 
Q 27.78125 4.9375 34.765625 4.9375 
Q 38.328125 4.9375 40.578125 6.125 
Q 42.828125 7.328125 44.171875 9.71875 
Q 45.515625 12.109375 46.484375 16.453125 
L 53.171875 16.453125 
L 53.171875 1.65625 
Q 47.796875 0.390625 43.359375 -0.1875 
Q 38.921875 -0.78125 34.125 -0.78125 
Q 23.96875 -0.78125 17.546875 2.875 
Q 11.140625 6.546875 8.078125 13.9375 
Q 5.03125 21.34375 5.03125 32.671875 
Q 5.03125 43.265625 8.609375 51.09375 
Q 12.203125 58.9375 19.1875 63.1875 
Q 26.171875 67.4375 35.890625 67.4375 
Q 40.828125 67.4375 44.828125 66.890625 
Q 48.828125 66.359375 53.171875 65.140625 
z
" id="Cambria-Bold-43"/>
      <path d="M 3.125 48.4375 
L 22.125 48.4375 
L 22.125 21.34375 
Q 22.125 16.65625 22.40625 14.015625 
Q 22.703125 11.375 23.53125 9.828125 
Q 24.359375 8.296875 25.5625 7.59375 
Q 26.765625 6.890625 28.609375 6.890625 
Q 30.421875 6.890625 32.421875 8 
Q 34.421875 9.125 35.8125 11.15625 
Q 37.203125 13.1875 37.203125 15.484375 
L 37.203125 34.328125 
Q 37.203125 37.890625 37.0625 39.625 
Q 36.921875 41.359375 36.5 42.328125 
Q 36.078125 43.3125 35.203125 43.96875 
Q 34.328125 44.625 32.328125 45.21875 
L 32.328125 48.4375 
L 51.375 48.4375 
L 51.375 14.265625 
Q 51.375 10.546875 51.484375 8.828125 
Q 51.609375 7.125 52.046875 6.09375 
Q 52.484375 5.078125 53.453125 4.421875 
Q 54.4375 3.765625 56.734375 3.265625 
L 56.734375 0 
L 43.453125 -0.4375 
L 37.546875 -0.4375 
L 37.984375 6.59375 
L 37.40625 6.734375 
Q 32.859375 2.546875 29.296875 0.875 
Q 25.734375 -0.78125 22.125 -0.78125 
Q 16.9375 -0.78125 13.84375 1.140625 
Q 10.75 3.078125 9.375 6.8125 
Q 8.015625 10.546875 8.015625 16.453125 
L 8.015625 34.328125 
Q 8.015625 37.0625 7.9375 38.515625 
Q 7.859375 39.984375 7.703125 40.796875 
Q 7.5625 41.609375 7.296875 42.265625 
Q 7.03125 42.921875 6.5625 43.453125 
Q 6.109375 44 5.296875 44.4375 
Q 4.5 44.875 3.125 45.21875 
z
" id="Cambria-Bold-75"/>
     </defs>
     <g transform="translate(57.3925 312.564375)rotate(-90)scale(0.12 -0.12)">
      <use xlink:href="#Cambria-Bold-43"/>
      <use x="57.324219" xlink:href="#Cambria-Bold-6f"/>
      <use x="114.257812" xlink:href="#Cambria-Bold-75"/>
      <use x="173.974609" xlink:href="#Cambria-Bold-6e"/>
      <use x="234.326172" xlink:href="#Cambria-Bold-74"/>
      <use x="270.849609" xlink:href="#Cambria-Bold-20"/>
      <use x="292.871094" xlink:href="#Cambria-Bold-5b"/>
      <use x="329.638672" xlink:href="#Cambria-Bold-64"/>
      <use x="389.355469" xlink:href="#Cambria-Bold-69"/>
      <use x="420.800781" xlink:href="#Cambria-Bold-6d"/>
      <use x="509.814453" xlink:href="#Cambria-Bold-65"/>
      <use x="562.890625" xlink:href="#Cambria-Bold-6e"/>
      <use x="623.242188" xlink:href="#Cambria-Bold-73"/>
      <use x="669.140625" xlink:href="#Cambria-Bold-69"/>
      <use x="700.585938" xlink:href="#Cambria-Bold-6f"/>
      <use x="757.519531" xlink:href="#Cambria-Bold-6e"/>
      <use x="817.871094" xlink:href="#Cambria-Bold-6c"/>
      <use x="848.681641" xlink:href="#Cambria-Bold-65"/>
      <use x="901.757812" xlink:href="#Cambria-Bold-73"/>
      <use x="947.65625" xlink:href="#Cambria-Bold-73"/>
      <use x="993.554688" xlink:href="#Cambria-Bold-5d"/>
     </g>
    </g>
   </g>
   <g id="patch_15">
    <path d="M 90 441 
L 90 60.48 
" style="fill:none;stroke:#000000;stroke-linecap:square;stroke-linejoin:miter;stroke-width:0.8;"/>
   </g>
   <g id="patch_16">
    <path d="M 648 441 
L 648 60.48 
" style="fill:none;stroke:#000000;stroke-linecap:square;stroke-linejoin:miter;stroke-width:0.8;"/>
   </g>
   <g id="patch_17">
    <path d="M 90 441 
L 648 441 
" style="fill:none;stroke:#000000;stroke-linecap:square;stroke-linejoin:miter;stroke-width:0.8;"/>
   </g>
   <g id="patch_18">
    <path d="M 90 60.48 
L 648 60.48 
" style="fill:none;stroke:#000000;stroke-linecap:square;stroke-linejoin:miter;stroke-width:0.8;"/>
   </g>
   <g id="text_23">
    <!-- Global Principal Electrodes Histogram -->
    <defs>
     <path d="M 55.90625 64.84375 
L 55.90625 50.984375 
L 49.21875 50.984375 
Q 48.09375 55.078125 46.65625 57.296875 
Q 45.21875 59.515625 42.9375 60.609375 
Q 40.671875 61.71875 37.109375 61.71875 
Q 32.28125 61.71875 28.5625 58.765625 
Q 24.859375 55.8125 22.703125 49.34375 
Q 20.5625 42.875 20.5625 32.953125 
Q 20.5625 24.421875 22 18.140625 
Q 23.4375 11.859375 26.390625 8.390625 
Q 29.34375 4.9375 33.6875 4.9375 
Q 37.984375 4.9375 40.03125 7.5 
Q 42.09375 10.0625 42.09375 15.671875 
L 42.09375 17.53125 
Q 42.09375 21.234375 41.84375 22.828125 
Q 41.609375 24.421875 41.09375 25.203125 
Q 40.578125 25.984375 39.75 26.46875 
Q 38.921875 26.953125 36.8125 27.59375 
L 36.8125 30.8125 
L 61.8125 30.8125 
L 61.8125 27.59375 
Q 59.375 26.859375 58.5 25.921875 
Q 57.625 25 57.296875 23.453125 
Q 56.984375 21.921875 56.984375 19.140625 
L 56.984375 0.734375 
L 49.953125 -0.734375 
L 46.625 2.78125 
Q 40.828125 -0.78125 33.296875 -0.78125 
Q 19.046875 -0.78125 12.03125 7.546875 
Q 5.03125 15.875 5.03125 32.765625 
Q 5.03125 41.65625 7.515625 48.390625 
Q 10.015625 55.125 14.421875 59.34375 
Q 18.84375 63.578125 24.390625 65.5 
Q 29.9375 67.4375 36.28125 67.4375 
Q 46.96875 67.4375 55.90625 64.84375 
z
" id="Cambria-Bold-47"/>
     <path d="M 7.765625 53.078125 
Q 7.765625 56.59375 7.71875 58.4375 
Q 7.671875 60.296875 7.421875 61.65625 
Q 7.171875 63.03125 6.640625 63.8125 
Q 6.109375 64.59375 5.203125 65.078125 
Q 4.296875 65.578125 2.25 66.015625 
L 2.25 69.234375 
L 15.875 69.921875 
L 21.875 69.921875 
L 21.875 41.9375 
L 21.921875 41.890625 
Q 24.859375 44.578125 27.046875 46.046875 
Q 29.25 47.515625 31.734375 48.359375 
Q 34.234375 49.21875 37.0625 49.21875 
Q 45.75 49.21875 50.09375 43.09375 
Q 54.4375 36.96875 54.4375 24.75 
Q 54.4375 16.3125 51.875 10.625 
Q 49.3125 4.9375 44.234375 2.078125 
Q 39.15625 -0.78125 31.734375 -0.78125 
Q 24.03125 -0.78125 17.625 2 
L 14.015625 -0.78125 
L 7.765625 0.09375 
z
M 21.875 16.015625 
Q 21.875 10.015625 23.953125 7.15625 
Q 26.03125 4.296875 30.375 4.296875 
Q 34.859375 4.296875 37.21875 9 
Q 39.59375 13.71875 39.59375 22.46875 
Q 39.59375 32.078125 37.5 36.8125 
Q 35.40625 41.546875 30.953125 41.546875 
Q 28.8125 41.546875 26.703125 40.421875 
Q 24.609375 39.3125 23.234375 37.234375 
Q 21.875 35.15625 21.875 32.671875 
z
" id="Cambria-Bold-62"/>
     <path d="M 33.0625 6.390625 
L 32.328125 6.640625 
Q 28.328125 2.734375 24.53125 0.96875 
Q 20.75 -0.78125 16.5 -0.78125 
Q 12.3125 -0.78125 9.203125 0.75 
Q 6.109375 2.296875 4.515625 5.03125 
Q 2.9375 7.765625 2.9375 11.328125 
Q 2.9375 18.5 9.984375 22.625 
Q 17.046875 26.765625 31.390625 27.828125 
L 31.390625 32.46875 
Q 31.390625 37.015625 30.359375 39.46875 
Q 29.34375 41.9375 27.734375 42.9375 
Q 26.125 43.953125 23.875 43.953125 
Q 21.625 43.953125 19.984375 43.171875 
Q 18.359375 42.390625 17.03125 40.203125 
Q 15.71875 38.03125 15.09375 34.1875 
L 5.859375 34.1875 
L 5.859375 43.0625 
Q 10.359375 45.0625 13.328125 46.140625 
Q 16.3125 47.21875 19.21875 47.921875 
Q 22.125 48.640625 24.40625 48.921875 
Q 26.703125 49.21875 29 49.21875 
Q 34.90625 49.21875 38.453125 47.65625 
Q 42 46.09375 43.75 42.578125 
Q 45.515625 39.0625 45.515625 32.859375 
L 45.515625 13.8125 
Q 45.515625 10.59375 45.65625 8.828125 
Q 45.796875 7.078125 46.109375 6.21875 
Q 46.4375 5.375 46.921875 4.859375 
Q 47.40625 4.34375 48.109375 4.03125 
Q 48.828125 3.71875 50.78125 3.21875 
L 50.78125 0 
L 32.625 0 
z
M 31.453125 23.046875 
Q 23.875 22.859375 20.234375 20.21875 
Q 16.609375 17.578125 16.609375 12.5 
Q 16.609375 9.46875 18.265625 7.875 
Q 19.921875 6.296875 22.859375 6.296875 
Q 25.09375 6.296875 27.09375 7.484375 
Q 29.109375 8.6875 30.28125 10.6875 
Q 31.453125 12.703125 31.453125 14.9375 
z
" id="Cambria-Bold-61"/>
     <path d="M 25.046875 12.203125 
Q 25.046875 8.984375 25.28125 7.640625 
Q 25.53125 6.296875 26.09375 5.484375 
Q 26.65625 4.6875 27.703125 4.140625 
Q 28.765625 3.609375 30.953125 3.21875 
L 30.953125 0 
L 4.6875 0 
L 4.6875 3.21875 
Q 6.5 3.71875 7.546875 4.265625 
Q 8.59375 4.828125 9.109375 5.828125 
Q 9.625 6.84375 9.765625 8.375 
Q 9.90625 9.90625 9.90625 12.25 
L 9.90625 54.34375 
Q 9.90625 56.640625 9.78125 58.203125 
Q 9.671875 59.765625 9.15625 60.734375 
Q 8.640625 61.71875 7.59375 62.328125 
Q 6.546875 62.9375 4.6875 63.421875 
L 4.6875 66.65625 
L 33.0625 66.65625 
Q 45.40625 66.65625 51.5625 62.234375 
Q 57.71875 57.8125 57.71875 48.640625 
Q 57.71875 42.140625 54.828125 37.34375 
Q 51.953125 32.5625 46.484375 30.09375 
Q 41.015625 27.640625 32.8125 27.640625 
Q 28.078125 27.640625 25.046875 27.828125 
z
M 25.046875 33.34375 
L 29.25 33.34375 
Q 34.125 33.34375 37 34.734375 
Q 39.890625 36.140625 41.28125 39.15625 
Q 42.671875 42.1875 42.671875 47.3125 
Q 42.671875 52.390625 41.28125 55.390625 
Q 39.890625 58.40625 37.203125 59.671875 
Q 34.515625 60.9375 30.328125 60.9375 
Q 26.90625 60.9375 25.046875 60.84375 
z
" id="Cambria-Bold-50"/>
     <path d="M 22.46875 -8.734375 
Q 22.46875 -12.40625 22.859375 -13.921875 
Q 23.25 -15.4375 24.25 -16.3125 
Q 25.25 -17.1875 27.78125 -17.78125 
L 27.78125 -21 
L 3.46875 -21 
L 3.46875 -17.78125 
Q 5.765625 -17.09375 6.65625 -16.265625 
Q 7.5625 -15.4375 7.953125 -13.9375 
Q 8.34375 -12.453125 8.34375 -8.734375 
L 8.34375 33.984375 
Q 8.34375 37.453125 8.265625 38.90625 
Q 8.203125 40.375 7.9375 41.40625 
Q 7.671875 42.4375 7.171875 43.09375 
Q 6.6875 43.75 5.734375 44.234375 
Q 4.78125 44.734375 2.9375 45.125 
L 2.9375 48.4375 
L 16.453125 48.828125 
L 22.46875 48.828125 
L 21.734375 41.75 
L 22.3125 41.609375 
Q 26.515625 45.65625 30.15625 47.4375 
Q 33.796875 49.21875 37.640625 49.21875 
Q 46.34375 49.21875 50.6875 43.09375 
Q 55.03125 36.96875 55.03125 24.75 
Q 55.03125 16.3125 52.46875 10.625 
Q 49.90625 4.9375 44.828125 2.078125 
Q 39.75 -0.78125 32.328125 -0.78125 
Q 27.296875 -0.78125 22.46875 0.484375 
z
M 22.46875 16.015625 
Q 22.46875 10.015625 24.53125 7.15625 
Q 26.609375 4.296875 30.953125 4.296875 
Q 35.453125 4.296875 37.8125 9 
Q 40.1875 13.71875 40.1875 22.46875 
Q 40.1875 32.171875 38.0625 36.859375 
Q 35.9375 41.546875 31.453125 41.546875 
Q 29.25 41.546875 27.171875 40.421875 
Q 25.09375 39.3125 23.78125 37.234375 
Q 22.46875 35.15625 22.46875 32.5625 
z
" id="Cambria-Bold-70"/>
     <path d="M 62.25 12.25 
Q 62.25 8.5 62.5625 7.109375 
Q 62.890625 5.71875 63.859375 4.78125 
Q 64.84375 3.859375 67.4375 3.21875 
L 67.4375 0 
L 41.9375 0 
L 41.9375 3.21875 
Q 44.78125 3.953125 45.609375 4.6875 
Q 46.4375 5.421875 46.78125 6.765625 
Q 47.125 8.109375 47.125 12.25 
L 47.125 31.84375 
L 25.046875 31.84375 
L 25.046875 12.25 
Q 25.046875 10.546875 25.140625 9.078125 
Q 25.25 7.625 25.53125 6.6875 
Q 25.828125 5.765625 26.390625 5.125 
Q 26.953125 4.5 27.921875 4.03125 
Q 28.90625 3.5625 30.328125 3.21875 
L 30.328125 0 
L 4.6875 0 
L 4.6875 3.21875 
Q 6.5 3.71875 7.546875 4.265625 
Q 8.59375 4.828125 9.109375 5.828125 
Q 9.625 6.84375 9.765625 8.375 
Q 9.90625 9.90625 9.90625 12.25 
L 9.90625 54.34375 
Q 9.90625 56.640625 9.78125 58.203125 
Q 9.671875 59.765625 9.15625 60.734375 
Q 8.640625 61.71875 7.59375 62.328125 
Q 6.546875 62.9375 4.6875 63.421875 
L 4.6875 66.65625 
L 30.328125 66.65625 
L 30.328125 63.421875 
Q 27.734375 62.703125 26.78125 61.8125 
Q 25.828125 60.9375 25.4375 59.5 
Q 25.046875 58.0625 25.046875 54.296875 
L 25.046875 37.984375 
L 47.125 37.984375 
L 47.125 54.296875 
Q 47.125 58.015625 46.796875 59.453125 
Q 46.484375 60.890625 45.53125 61.796875 
Q 44.578125 62.703125 41.9375 63.421875 
L 41.9375 66.65625 
L 67.4375 66.65625 
L 67.4375 63.421875 
Q 65.28125 62.84375 64.296875 62.1875 
Q 63.328125 61.53125 62.90625 60.5 
Q 62.5 59.46875 62.375 58.203125 
Q 62.25 56.9375 62.25 54.296875 
z
" id="Cambria-Bold-48"/>
     <path d="M 51.421875 41.890625 
L 43.0625 42.828125 
L 42.875 42.28125 
Q 44.234375 40.921875 45.140625 38.546875 
Q 46.046875 36.1875 46.046875 32.859375 
Q 46.046875 24.359375 40.890625 19.96875 
Q 35.75 15.578125 25.734375 15.578125 
Q 20.90625 15.578125 17.828125 16.453125 
Q 15.375 14.265625 15.375 11.71875 
Q 15.375 10.25 15.984375 9.46875 
Q 16.609375 8.6875 18.0625 8.265625 
Q 19.53125 7.859375 22.21875 7.859375 
L 34.328125 7.859375 
Q 42.484375 7.859375 46.53125 4.6875 
Q 50.59375 1.515625 50.59375 -5.171875 
Q 50.59375 -10.40625 47.625 -14.15625 
Q 44.671875 -17.921875 39.15625 -19.890625 
Q 33.640625 -21.875 26.078125 -21.875 
Q 20.5625 -21.875 16.0625 -21.390625 
Q 11.578125 -20.90625 8.390625 -19.609375 
Q 5.21875 -18.3125 3.484375 -16.0625 
Q 1.765625 -13.8125 1.765625 -10.359375 
Q 1.765625 -7.5625 3.515625 -5.21875 
Q 5.28125 -2.875 8.453125 -1.21875 
Q 6.390625 0.25 5.46875 2.140625 
Q 4.546875 4.046875 4.546875 6.84375 
Q 4.546875 9.125 5.5 11.125 
Q 6.453125 13.140625 8.03125 14.765625 
Q 9.625 16.40625 12.15625 18.359375 
Q 8.34375 20.515625 6.390625 24 
Q 4.4375 27.484375 4.4375 32.171875 
Q 4.4375 36.71875 6.078125 39.96875 
Q 7.71875 43.21875 10.5625 45.265625 
Q 13.421875 47.3125 17.296875 48.265625 
Q 21.1875 49.21875 25.6875 49.21875 
Q 28.171875 49.21875 30.078125 48.96875 
Q 31.984375 48.734375 33.796875 48.4375 
L 51.421875 48.4375 
z
M 18.453125 32.765625 
Q 18.453125 26.609375 20.1875 23.609375 
Q 21.921875 20.609375 25.640625 20.609375 
Q 29 20.609375 30.78125 23.390625 
Q 32.5625 26.171875 32.5625 31.890625 
Q 32.5625 37.890625 30.828125 41.03125 
Q 29.109375 44.1875 25.53125 44.1875 
Q 21.921875 44.1875 20.1875 41.375 
Q 18.453125 38.578125 18.453125 32.765625 
z
M 16.703125 -3.125 
Q 14.9375 -4.5 14.03125 -6.109375 
Q 13.140625 -7.71875 13.140625 -9.8125 
Q 13.140625 -13.328125 16.1875 -15.015625 
Q 19.234375 -16.703125 25.828125 -16.703125 
Q 31.984375 -16.703125 35.171875 -14.640625 
Q 38.375 -12.59375 38.375 -8.890625 
Q 38.375 -7.234375 37.78125 -6.0625 
Q 37.203125 -4.890625 35.5 -4.109375 
Q 33.796875 -3.328125 30.671875 -3.328125 
L 22.265625 -3.328125 
Q 18.703125 -3.328125 16.703125 -3.125 
z
" id="Cambria-Bold-67"/>
    </defs>
    <g transform="translate(263.7525 54.48)scale(0.12 -0.12)">
     <use xlink:href="#Cambria-Bold-47"/>
     <use x="64.648438" xlink:href="#Cambria-Bold-6c"/>
     <use x="95.458984" xlink:href="#Cambria-Bold-6f"/>
     <use x="152.392578" xlink:href="#Cambria-Bold-62"/>
     <use x="211.523438" xlink:href="#Cambria-Bold-61"/>
     <use x="265.039062" xlink:href="#Cambria-Bold-6c"/>
     <use x="295.849609" xlink:href="#Cambria-Bold-20"/>
     <use x="317.871094" xlink:href="#Cambria-Bold-50"/>
     <use x="379.248047" xlink:href="#Cambria-Bold-72"/>
     <use x="425.390625" xlink:href="#Cambria-Bold-69"/>
     <use x="456.835938" xlink:href="#Cambria-Bold-6e"/>
     <use x="517.1875" xlink:href="#Cambria-Bold-63"/>
     <use x="564.0625" xlink:href="#Cambria-Bold-69"/>
     <use x="595.507812" xlink:href="#Cambria-Bold-70"/>
     <use x="655.224609" xlink:href="#Cambria-Bold-61"/>
     <use x="708.740234" xlink:href="#Cambria-Bold-6c"/>
     <use x="739.550781" xlink:href="#Cambria-Bold-20"/>
     <use x="761.572266" xlink:href="#Cambria-Bold-45"/>
     <use x="819.335938" xlink:href="#Cambria-Bold-6c"/>
     <use x="850.146484" xlink:href="#Cambria-Bold-65"/>
     <use x="903.222656" xlink:href="#Cambria-Bold-63"/>
     <use x="950.097656" xlink:href="#Cambria-Bold-74"/>
     <use x="986.621094" xlink:href="#Cambria-Bold-72"/>
     <use x="1032.763672" xlink:href="#Cambria-Bold-6f"/>
     <use x="1089.697266" xlink:href="#Cambria-Bold-64"/>
     <use x="1149.414062" xlink:href="#Cambria-Bold-65"/>
     <use x="1202.490234" xlink:href="#Cambria-Bold-73"/>
     <use x="1248.388672" xlink:href="#Cambria-Bold-20"/>
     <use x="1270.410156" xlink:href="#Cambria-Bold-48"/>
     <use x="1342.578125" xlink:href="#Cambria-Bold-69"/>
     <use x="1374.023438" xlink:href="#Cambria-Bold-73"/>
     <use x="1419.921875" xlink:href="#Cambria-Bold-74"/>
     <use x="1456.445312" xlink:href="#Cambria-Bold-6f"/>
     <use x="1513.378906" xlink:href="#Cambria-Bold-67"/>
     <use x="1565.380859" xlink:href="#Cambria-Bold-72"/>
     <use x="1611.523438" xlink:href="#Cambria-Bold-61"/>
     <use x="1665.039062" xlink:href="#Cambria-Bold-6d"/>
    </g>
   </g>
  </g>
 </g>
 <defs>
  <clipPath id="p7a65ff5030">
   <rect height="380.52" width="558" x="90" y="60.48"/>
  </clipPath>
 </defs>
</svg>
