<?xml version="1.0" encoding="utf-8" standalone="no"?>
<!DOCTYPE svg PUBLIC "-//W3C//DTD SVG 1.1//EN"
  "http://www.w3.org/Graphics/SVG/1.1/DTD/svg11.dtd">
<!-- Created with matplotlib (https://matplotlib.org/) -->
<svg height="504pt" version="1.1" viewBox="0 0 720 504" width="720pt" xmlns="http://www.w3.org/2000/svg" xmlns:xlink="http://www.w3.org/1999/xlink">
 <metadata>
  <rdf:RDF xmlns:cc="http://creativecommons.org/ns#" xmlns:dc="http://purl.org/dc/elements/1.1/" xmlns:rdf="http://www.w3.org/1999/02/22-rdf-syntax-ns#">
   <cc:Work>
    <dc:type rdf:resource="http://purl.org/dc/dcmitype/StillImage"/>
    <dc:date>2022-03-17T15:11:27.978021</dc:date>
    <dc:format>image/svg+xml</dc:format>
    <dc:creator>
     <cc:Agent>
      <dc:title>Matplotlib v3.3.4, https://matplotlib.org/</dc:title>
     </cc:Agent>
    </dc:creator>
   </cc:Work>
  </rdf:RDF>
 </metadata>
 <defs>
  <style type="text/css">*{stroke-linecap:butt;stroke-linejoin:round;}</style>
 </defs>
 <g id="figure_1">
  <g id="patch_1">
   <path d="M 0 504 
L 720 504 
L 720 0 
L 0 0 
z
" style="fill:#ffffff;"/>
  </g>
  <g id="axes_1">
   <g id="patch_2">
    <path d="M 90 441 
L 648 441 
L 648 60.48 
L 90 60.48 
z
" style="fill:#ffffff;"/>
   </g>
   <g id="matplotlib.axis_1">
    <g id="xtick_1">
     <g id="line2d_1">
      <defs>
       <path d="M 0 0 
L 0 3.5 
" id="m49dee7ebc1" style="stroke:#000000;stroke-width:0.8;"/>
      </defs>
      <g>
       <use style="stroke:#000000;stroke-width:0.8;" x="115.363636" xlink:href="#m49dee7ebc1" y="441"/>
      </g>
     </g>
     <g id="text_1">
      <!-- 0.0 -->
      <g transform="translate(107.412074 455.598437)scale(0.1 -0.1)">
       <defs>
        <path d="M 31.78125 66.40625 
Q 24.171875 66.40625 20.328125 58.90625 
Q 16.5 51.421875 16.5 36.375 
Q 16.5 21.390625 20.328125 13.890625 
Q 24.171875 6.390625 31.78125 6.390625 
Q 39.453125 6.390625 43.28125 13.890625 
Q 47.125 21.390625 47.125 36.375 
Q 47.125 51.421875 43.28125 58.90625 
Q 39.453125 66.40625 31.78125 66.40625 
z
M 31.78125 74.21875 
Q 44.046875 74.21875 50.515625 64.515625 
Q 56.984375 54.828125 56.984375 36.375 
Q 56.984375 17.96875 50.515625 8.265625 
Q 44.046875 -1.421875 31.78125 -1.421875 
Q 19.53125 -1.421875 13.0625 8.265625 
Q 6.59375 17.96875 6.59375 36.375 
Q 6.59375 54.828125 13.0625 64.515625 
Q 19.53125 74.21875 31.78125 74.21875 
z
" id="DejaVuSans-48"/>
        <path d="M 10.6875 12.40625 
L 21 12.40625 
L 21 0 
L 10.6875 0 
z
" id="DejaVuSans-46"/>
       </defs>
       <use xlink:href="#DejaVuSans-48"/>
       <use x="63.623047" xlink:href="#DejaVuSans-46"/>
       <use x="95.410156" xlink:href="#DejaVuSans-48"/>
      </g>
     </g>
    </g>
    <g id="xtick_2">
     <g id="line2d_2">
      <g>
       <use style="stroke:#000000;stroke-width:0.8;" x="217.001129" xlink:href="#m49dee7ebc1" y="441"/>
      </g>
     </g>
     <g id="text_2">
      <!-- 0.5 -->
      <g transform="translate(209.049567 455.598437)scale(0.1 -0.1)">
       <defs>
        <path d="M 10.796875 72.90625 
L 49.515625 72.90625 
L 49.515625 64.59375 
L 19.828125 64.59375 
L 19.828125 46.734375 
Q 21.96875 47.46875 24.109375 47.828125 
Q 26.265625 48.1875 28.421875 48.1875 
Q 40.625 48.1875 47.75 41.5 
Q 54.890625 34.8125 54.890625 23.390625 
Q 54.890625 11.625 47.5625 5.09375 
Q 40.234375 -1.421875 26.90625 -1.421875 
Q 22.3125 -1.421875 17.546875 -0.640625 
Q 12.796875 0.140625 7.71875 1.703125 
L 7.71875 11.625 
Q 12.109375 9.234375 16.796875 8.0625 
Q 21.484375 6.890625 26.703125 6.890625 
Q 35.15625 6.890625 40.078125 11.328125 
Q 45.015625 15.765625 45.015625 23.390625 
Q 45.015625 31 40.078125 35.4375 
Q 35.15625 39.890625 26.703125 39.890625 
Q 22.75 39.890625 18.8125 39.015625 
Q 14.890625 38.140625 10.796875 36.28125 
z
" id="DejaVuSans-53"/>
       </defs>
       <use xlink:href="#DejaVuSans-48"/>
       <use x="63.623047" xlink:href="#DejaVuSans-46"/>
       <use x="95.410156" xlink:href="#DejaVuSans-53"/>
      </g>
     </g>
    </g>
    <g id="xtick_3">
     <g id="line2d_3">
      <g>
       <use style="stroke:#000000;stroke-width:0.8;" x="318.638622" xlink:href="#m49dee7ebc1" y="441"/>
      </g>
     </g>
     <g id="text_3">
      <!-- 1.0 -->
      <g transform="translate(310.68706 455.598437)scale(0.1 -0.1)">
       <defs>
        <path d="M 12.40625 8.296875 
L 28.515625 8.296875 
L 28.515625 63.921875 
L 10.984375 60.40625 
L 10.984375 69.390625 
L 28.421875 72.90625 
L 38.28125 72.90625 
L 38.28125 8.296875 
L 54.390625 8.296875 
L 54.390625 0 
L 12.40625 0 
z
" id="DejaVuSans-49"/>
       </defs>
       <use xlink:href="#DejaVuSans-49"/>
       <use x="63.623047" xlink:href="#DejaVuSans-46"/>
       <use x="95.410156" xlink:href="#DejaVuSans-48"/>
      </g>
     </g>
    </g>
    <g id="xtick_4">
     <g id="line2d_4">
      <g>
       <use style="stroke:#000000;stroke-width:0.8;" x="420.276115" xlink:href="#m49dee7ebc1" y="441"/>
      </g>
     </g>
     <g id="text_4">
      <!-- 1.5 -->
      <g transform="translate(412.324553 455.598437)scale(0.1 -0.1)">
       <use xlink:href="#DejaVuSans-49"/>
       <use x="63.623047" xlink:href="#DejaVuSans-46"/>
       <use x="95.410156" xlink:href="#DejaVuSans-53"/>
      </g>
     </g>
    </g>
    <g id="xtick_5">
     <g id="line2d_5">
      <g>
       <use style="stroke:#000000;stroke-width:0.8;" x="521.913608" xlink:href="#m49dee7ebc1" y="441"/>
      </g>
     </g>
     <g id="text_5">
      <!-- 2.0 -->
      <g transform="translate(513.962046 455.598437)scale(0.1 -0.1)">
       <defs>
        <path d="M 19.1875 8.296875 
L 53.609375 8.296875 
L 53.609375 0 
L 7.328125 0 
L 7.328125 8.296875 
Q 12.9375 14.109375 22.625 23.890625 
Q 32.328125 33.6875 34.8125 36.53125 
Q 39.546875 41.84375 41.421875 45.53125 
Q 43.3125 49.21875 43.3125 52.78125 
Q 43.3125 58.59375 39.234375 62.25 
Q 35.15625 65.921875 28.609375 65.921875 
Q 23.96875 65.921875 18.8125 64.3125 
Q 13.671875 62.703125 7.8125 59.421875 
L 7.8125 69.390625 
Q 13.765625 71.78125 18.9375 73 
Q 24.125 74.21875 28.421875 74.21875 
Q 39.75 74.21875 46.484375 68.546875 
Q 53.21875 62.890625 53.21875 53.421875 
Q 53.21875 48.921875 51.53125 44.890625 
Q 49.859375 40.875 45.40625 35.40625 
Q 44.1875 33.984375 37.640625 27.21875 
Q 31.109375 20.453125 19.1875 8.296875 
z
" id="DejaVuSans-50"/>
       </defs>
       <use xlink:href="#DejaVuSans-50"/>
       <use x="63.623047" xlink:href="#DejaVuSans-46"/>
       <use x="95.410156" xlink:href="#DejaVuSans-48"/>
      </g>
     </g>
    </g>
    <g id="xtick_6">
     <g id="line2d_6">
      <g>
       <use style="stroke:#000000;stroke-width:0.8;" x="623.551101" xlink:href="#m49dee7ebc1" y="441"/>
      </g>
     </g>
     <g id="text_6">
      <!-- 2.5 -->
      <g transform="translate(615.599539 455.598437)scale(0.1 -0.1)">
       <use xlink:href="#DejaVuSans-50"/>
       <use x="63.623047" xlink:href="#DejaVuSans-46"/>
       <use x="95.410156" xlink:href="#DejaVuSans-53"/>
      </g>
     </g>
    </g>
    <g id="text_7">
     <!-- Spike time (s) -->
     <g transform="translate(334.491406 469.276563)scale(0.1 -0.1)">
      <defs>
       <path d="M 53.515625 70.515625 
L 53.515625 60.890625 
Q 47.90625 63.578125 42.921875 64.890625 
Q 37.9375 66.21875 33.296875 66.21875 
Q 25.25 66.21875 20.875 63.09375 
Q 16.5 59.96875 16.5 54.203125 
Q 16.5 49.359375 19.40625 46.890625 
Q 22.3125 44.4375 30.421875 42.921875 
L 36.375 41.703125 
Q 47.40625 39.59375 52.65625 34.296875 
Q 57.90625 29 57.90625 20.125 
Q 57.90625 9.515625 50.796875 4.046875 
Q 43.703125 -1.421875 29.984375 -1.421875 
Q 24.8125 -1.421875 18.96875 -0.25 
Q 13.140625 0.921875 6.890625 3.21875 
L 6.890625 13.375 
Q 12.890625 10.015625 18.65625 8.296875 
Q 24.421875 6.59375 29.984375 6.59375 
Q 38.421875 6.59375 43.015625 9.90625 
Q 47.609375 13.234375 47.609375 19.390625 
Q 47.609375 24.75 44.3125 27.78125 
Q 41.015625 30.8125 33.5 32.328125 
L 27.484375 33.5 
Q 16.453125 35.6875 11.515625 40.375 
Q 6.59375 45.0625 6.59375 53.421875 
Q 6.59375 63.09375 13.40625 68.65625 
Q 20.21875 74.21875 32.171875 74.21875 
Q 37.3125 74.21875 42.625 73.28125 
Q 47.953125 72.359375 53.515625 70.515625 
z
" id="DejaVuSans-83"/>
       <path d="M 18.109375 8.203125 
L 18.109375 -20.796875 
L 9.078125 -20.796875 
L 9.078125 54.6875 
L 18.109375 54.6875 
L 18.109375 46.390625 
Q 20.953125 51.265625 25.265625 53.625 
Q 29.59375 56 35.59375 56 
Q 45.5625 56 51.78125 48.09375 
Q 58.015625 40.1875 58.015625 27.296875 
Q 58.015625 14.40625 51.78125 6.484375 
Q 45.5625 -1.421875 35.59375 -1.421875 
Q 29.59375 -1.421875 25.265625 0.953125 
Q 20.953125 3.328125 18.109375 8.203125 
z
M 48.6875 27.296875 
Q 48.6875 37.203125 44.609375 42.84375 
Q 40.53125 48.484375 33.40625 48.484375 
Q 26.265625 48.484375 22.1875 42.84375 
Q 18.109375 37.203125 18.109375 27.296875 
Q 18.109375 17.390625 22.1875 11.75 
Q 26.265625 6.109375 33.40625 6.109375 
Q 40.53125 6.109375 44.609375 11.75 
Q 48.6875 17.390625 48.6875 27.296875 
z
" id="DejaVuSans-112"/>
       <path d="M 9.421875 54.6875 
L 18.40625 54.6875 
L 18.40625 0 
L 9.421875 0 
z
M 9.421875 75.984375 
L 18.40625 75.984375 
L 18.40625 64.59375 
L 9.421875 64.59375 
z
" id="DejaVuSans-105"/>
       <path d="M 9.078125 75.984375 
L 18.109375 75.984375 
L 18.109375 31.109375 
L 44.921875 54.6875 
L 56.390625 54.6875 
L 27.390625 29.109375 
L 57.625 0 
L 45.90625 0 
L 18.109375 26.703125 
L 18.109375 0 
L 9.078125 0 
z
" id="DejaVuSans-107"/>
       <path d="M 56.203125 29.59375 
L 56.203125 25.203125 
L 14.890625 25.203125 
Q 15.484375 15.921875 20.484375 11.0625 
Q 25.484375 6.203125 34.421875 6.203125 
Q 39.59375 6.203125 44.453125 7.46875 
Q 49.3125 8.734375 54.109375 11.28125 
L 54.109375 2.78125 
Q 49.265625 0.734375 44.1875 -0.34375 
Q 39.109375 -1.421875 33.890625 -1.421875 
Q 20.796875 -1.421875 13.15625 6.1875 
Q 5.515625 13.8125 5.515625 26.8125 
Q 5.515625 40.234375 12.765625 48.109375 
Q 20.015625 56 32.328125 56 
Q 43.359375 56 49.78125 48.890625 
Q 56.203125 41.796875 56.203125 29.59375 
z
M 47.21875 32.234375 
Q 47.125 39.59375 43.09375 43.984375 
Q 39.0625 48.390625 32.421875 48.390625 
Q 24.90625 48.390625 20.390625 44.140625 
Q 15.875 39.890625 15.1875 32.171875 
z
" id="DejaVuSans-101"/>
       <path id="DejaVuSans-32"/>
       <path d="M 18.3125 70.21875 
L 18.3125 54.6875 
L 36.8125 54.6875 
L 36.8125 47.703125 
L 18.3125 47.703125 
L 18.3125 18.015625 
Q 18.3125 11.328125 20.140625 9.421875 
Q 21.96875 7.515625 27.59375 7.515625 
L 36.8125 7.515625 
L 36.8125 0 
L 27.59375 0 
Q 17.1875 0 13.234375 3.875 
Q 9.28125 7.765625 9.28125 18.015625 
L 9.28125 47.703125 
L 2.6875 47.703125 
L 2.6875 54.6875 
L 9.28125 54.6875 
L 9.28125 70.21875 
z
" id="DejaVuSans-116"/>
       <path d="M 52 44.1875 
Q 55.375 50.25 60.0625 53.125 
Q 64.75 56 71.09375 56 
Q 79.640625 56 84.28125 50.015625 
Q 88.921875 44.046875 88.921875 33.015625 
L 88.921875 0 
L 79.890625 0 
L 79.890625 32.71875 
Q 79.890625 40.578125 77.09375 44.375 
Q 74.3125 48.1875 68.609375 48.1875 
Q 61.625 48.1875 57.5625 43.546875 
Q 53.515625 38.921875 53.515625 30.90625 
L 53.515625 0 
L 44.484375 0 
L 44.484375 32.71875 
Q 44.484375 40.625 41.703125 44.40625 
Q 38.921875 48.1875 33.109375 48.1875 
Q 26.21875 48.1875 22.15625 43.53125 
Q 18.109375 38.875 18.109375 30.90625 
L 18.109375 0 
L 9.078125 0 
L 9.078125 54.6875 
L 18.109375 54.6875 
L 18.109375 46.1875 
Q 21.1875 51.21875 25.484375 53.609375 
Q 29.78125 56 35.6875 56 
Q 41.65625 56 45.828125 52.96875 
Q 50 49.953125 52 44.1875 
z
" id="DejaVuSans-109"/>
       <path d="M 31 75.875 
Q 24.46875 64.65625 21.28125 53.65625 
Q 18.109375 42.671875 18.109375 31.390625 
Q 18.109375 20.125 21.3125 9.0625 
Q 24.515625 -2 31 -13.1875 
L 23.1875 -13.1875 
Q 15.875 -1.703125 12.234375 9.375 
Q 8.59375 20.453125 8.59375 31.390625 
Q 8.59375 42.28125 12.203125 53.3125 
Q 15.828125 64.359375 23.1875 75.875 
z
" id="DejaVuSans-40"/>
       <path d="M 44.28125 53.078125 
L 44.28125 44.578125 
Q 40.484375 46.53125 36.375 47.5 
Q 32.28125 48.484375 27.875 48.484375 
Q 21.1875 48.484375 17.84375 46.4375 
Q 14.5 44.390625 14.5 40.28125 
Q 14.5 37.15625 16.890625 35.375 
Q 19.28125 33.59375 26.515625 31.984375 
L 29.59375 31.296875 
Q 39.15625 29.25 43.1875 25.515625 
Q 47.21875 21.78125 47.21875 15.09375 
Q 47.21875 7.46875 41.1875 3.015625 
Q 35.15625 -1.421875 24.609375 -1.421875 
Q 20.21875 -1.421875 15.453125 -0.5625 
Q 10.6875 0.296875 5.421875 2 
L 5.421875 11.28125 
Q 10.40625 8.6875 15.234375 7.390625 
Q 20.0625 6.109375 24.8125 6.109375 
Q 31.15625 6.109375 34.5625 8.28125 
Q 37.984375 10.453125 37.984375 14.40625 
Q 37.984375 18.0625 35.515625 20.015625 
Q 33.0625 21.96875 24.703125 23.78125 
L 21.578125 24.515625 
Q 13.234375 26.265625 9.515625 29.90625 
Q 5.8125 33.546875 5.8125 39.890625 
Q 5.8125 47.609375 11.28125 51.796875 
Q 16.75 56 26.8125 56 
Q 31.78125 56 36.171875 55.265625 
Q 40.578125 54.546875 44.28125 53.078125 
z
" id="DejaVuSans-115"/>
       <path d="M 8.015625 75.875 
L 15.828125 75.875 
Q 23.140625 64.359375 26.78125 53.3125 
Q 30.421875 42.28125 30.421875 31.390625 
Q 30.421875 20.453125 26.78125 9.375 
Q 23.140625 -1.703125 15.828125 -13.1875 
L 8.015625 -13.1875 
Q 14.5 -2 17.703125 9.0625 
Q 20.90625 20.125 20.90625 31.390625 
Q 20.90625 42.671875 17.703125 53.65625 
Q 14.5 64.65625 8.015625 75.875 
z
" id="DejaVuSans-41"/>
      </defs>
      <use xlink:href="#DejaVuSans-83"/>
      <use x="63.476562" xlink:href="#DejaVuSans-112"/>
      <use x="126.953125" xlink:href="#DejaVuSans-105"/>
      <use x="154.736328" xlink:href="#DejaVuSans-107"/>
      <use x="209.021484" xlink:href="#DejaVuSans-101"/>
      <use x="270.544922" xlink:href="#DejaVuSans-32"/>
      <use x="302.332031" xlink:href="#DejaVuSans-116"/>
      <use x="341.541016" xlink:href="#DejaVuSans-105"/>
      <use x="369.324219" xlink:href="#DejaVuSans-109"/>
      <use x="466.736328" xlink:href="#DejaVuSans-101"/>
      <use x="528.259766" xlink:href="#DejaVuSans-32"/>
      <use x="560.046875" xlink:href="#DejaVuSans-40"/>
      <use x="599.060547" xlink:href="#DejaVuSans-115"/>
      <use x="651.160156" xlink:href="#DejaVuSans-41"/>
     </g>
    </g>
   </g>
   <g id="matplotlib.axis_2">
    <g id="ytick_1">
     <g id="line2d_7">
      <defs>
       <path d="M 0 0 
L -3.5 0 
" id="me9da6106c6" style="stroke:#000000;stroke-width:0.8;"/>
      </defs>
      <g>
       <use style="stroke:#000000;stroke-width:0.8;" x="90" xlink:href="#me9da6106c6" y="337.221818"/>
      </g>
     </g>
     <g id="text_8">
      <!-- DOWN -->
      <g transform="translate(50.059375 341.021037)scale(0.1 -0.1)">
       <defs>
        <path d="M 19.671875 64.796875 
L 19.671875 8.109375 
L 31.59375 8.109375 
Q 46.6875 8.109375 53.6875 14.9375 
Q 60.6875 21.78125 60.6875 36.53125 
Q 60.6875 51.171875 53.6875 57.984375 
Q 46.6875 64.796875 31.59375 64.796875 
z
M 9.8125 72.90625 
L 30.078125 72.90625 
Q 51.265625 72.90625 61.171875 64.09375 
Q 71.09375 55.28125 71.09375 36.53125 
Q 71.09375 17.671875 61.125 8.828125 
Q 51.171875 0 30.078125 0 
L 9.8125 0 
z
" id="DejaVuSans-68"/>
        <path d="M 39.40625 66.21875 
Q 28.65625 66.21875 22.328125 58.203125 
Q 16.015625 50.203125 16.015625 36.375 
Q 16.015625 22.609375 22.328125 14.59375 
Q 28.65625 6.59375 39.40625 6.59375 
Q 50.140625 6.59375 56.421875 14.59375 
Q 62.703125 22.609375 62.703125 36.375 
Q 62.703125 50.203125 56.421875 58.203125 
Q 50.140625 66.21875 39.40625 66.21875 
z
M 39.40625 74.21875 
Q 54.734375 74.21875 63.90625 63.9375 
Q 73.09375 53.65625 73.09375 36.375 
Q 73.09375 19.140625 63.90625 8.859375 
Q 54.734375 -1.421875 39.40625 -1.421875 
Q 24.03125 -1.421875 14.8125 8.828125 
Q 5.609375 19.09375 5.609375 36.375 
Q 5.609375 53.65625 14.8125 63.9375 
Q 24.03125 74.21875 39.40625 74.21875 
z
" id="DejaVuSans-79"/>
        <path d="M 3.328125 72.90625 
L 13.28125 72.90625 
L 28.609375 11.28125 
L 43.890625 72.90625 
L 54.984375 72.90625 
L 70.3125 11.28125 
L 85.59375 72.90625 
L 95.609375 72.90625 
L 77.296875 0 
L 64.890625 0 
L 49.515625 63.28125 
L 33.984375 0 
L 21.578125 0 
z
" id="DejaVuSans-87"/>
        <path d="M 9.8125 72.90625 
L 23.09375 72.90625 
L 55.421875 11.921875 
L 55.421875 72.90625 
L 64.984375 72.90625 
L 64.984375 0 
L 51.703125 0 
L 19.390625 60.984375 
L 19.390625 0 
L 9.8125 0 
z
" id="DejaVuSans-78"/>
       </defs>
       <use xlink:href="#DejaVuSans-68"/>
       <use x="77.001953" xlink:href="#DejaVuSans-79"/>
       <use x="155.712891" xlink:href="#DejaVuSans-87"/>
       <use x="254.589844" xlink:href="#DejaVuSans-78"/>
      </g>
     </g>
    </g>
    <g id="ytick_2">
     <g id="line2d_8">
      <g>
       <use style="stroke:#000000;stroke-width:0.8;" x="90" xlink:href="#me9da6106c6" y="164.258182"/>
      </g>
     </g>
     <g id="text_9">
      <!-- UP -->
      <g transform="translate(69.651562 168.057401)scale(0.1 -0.1)">
       <defs>
        <path d="M 8.6875 72.90625 
L 18.609375 72.90625 
L 18.609375 28.609375 
Q 18.609375 16.890625 22.84375 11.734375 
Q 27.09375 6.59375 36.625 6.59375 
Q 46.09375 6.59375 50.34375 11.734375 
Q 54.59375 16.890625 54.59375 28.609375 
L 54.59375 72.90625 
L 64.5 72.90625 
L 64.5 27.390625 
Q 64.5 13.140625 57.4375 5.859375 
Q 50.390625 -1.421875 36.625 -1.421875 
Q 22.796875 -1.421875 15.734375 5.859375 
Q 8.6875 13.140625 8.6875 27.390625 
z
" id="DejaVuSans-85"/>
        <path d="M 19.671875 64.796875 
L 19.671875 37.40625 
L 32.078125 37.40625 
Q 38.96875 37.40625 42.71875 40.96875 
Q 46.484375 44.53125 46.484375 51.125 
Q 46.484375 57.671875 42.71875 61.234375 
Q 38.96875 64.796875 32.078125 64.796875 
z
M 9.8125 72.90625 
L 32.078125 72.90625 
Q 44.34375 72.90625 50.609375 67.359375 
Q 56.890625 61.8125 56.890625 51.125 
Q 56.890625 40.328125 50.609375 34.8125 
Q 44.34375 29.296875 32.078125 29.296875 
L 19.671875 29.296875 
L 19.671875 0 
L 9.8125 0 
z
" id="DejaVuSans-80"/>
       </defs>
       <use xlink:href="#DejaVuSans-85"/>
       <use x="73.193359" xlink:href="#DejaVuSans-80"/>
      </g>
     </g>
    </g>
    <g id="text_10">
     <!-- Neuron activation -->
     <g transform="translate(43.979687 295.249375)rotate(-90)scale(0.1 -0.1)">
      <defs>
       <path d="M 8.5 21.578125 
L 8.5 54.6875 
L 17.484375 54.6875 
L 17.484375 21.921875 
Q 17.484375 14.15625 20.5 10.265625 
Q 23.53125 6.390625 29.59375 6.390625 
Q 36.859375 6.390625 41.078125 11.03125 
Q 45.3125 15.671875 45.3125 23.6875 
L 45.3125 54.6875 
L 54.296875 54.6875 
L 54.296875 0 
L 45.3125 0 
L 45.3125 8.40625 
Q 42.046875 3.421875 37.71875 1 
Q 33.40625 -1.421875 27.6875 -1.421875 
Q 18.265625 -1.421875 13.375 4.4375 
Q 8.5 10.296875 8.5 21.578125 
z
M 31.109375 56 
z
" id="DejaVuSans-117"/>
       <path d="M 41.109375 46.296875 
Q 39.59375 47.171875 37.8125 47.578125 
Q 36.03125 48 33.890625 48 
Q 26.265625 48 22.1875 43.046875 
Q 18.109375 38.09375 18.109375 28.8125 
L 18.109375 0 
L 9.078125 0 
L 9.078125 54.6875 
L 18.109375 54.6875 
L 18.109375 46.1875 
Q 20.953125 51.171875 25.484375 53.578125 
Q 30.03125 56 36.53125 56 
Q 37.453125 56 38.578125 55.875 
Q 39.703125 55.765625 41.0625 55.515625 
z
" id="DejaVuSans-114"/>
       <path d="M 30.609375 48.390625 
Q 23.390625 48.390625 19.1875 42.75 
Q 14.984375 37.109375 14.984375 27.296875 
Q 14.984375 17.484375 19.15625 11.84375 
Q 23.34375 6.203125 30.609375 6.203125 
Q 37.796875 6.203125 41.984375 11.859375 
Q 46.1875 17.53125 46.1875 27.296875 
Q 46.1875 37.015625 41.984375 42.703125 
Q 37.796875 48.390625 30.609375 48.390625 
z
M 30.609375 56 
Q 42.328125 56 49.015625 48.375 
Q 55.71875 40.765625 55.71875 27.296875 
Q 55.71875 13.875 49.015625 6.21875 
Q 42.328125 -1.421875 30.609375 -1.421875 
Q 18.84375 -1.421875 12.171875 6.21875 
Q 5.515625 13.875 5.515625 27.296875 
Q 5.515625 40.765625 12.171875 48.375 
Q 18.84375 56 30.609375 56 
z
" id="DejaVuSans-111"/>
       <path d="M 54.890625 33.015625 
L 54.890625 0 
L 45.90625 0 
L 45.90625 32.71875 
Q 45.90625 40.484375 42.875 44.328125 
Q 39.84375 48.1875 33.796875 48.1875 
Q 26.515625 48.1875 22.3125 43.546875 
Q 18.109375 38.921875 18.109375 30.90625 
L 18.109375 0 
L 9.078125 0 
L 9.078125 54.6875 
L 18.109375 54.6875 
L 18.109375 46.1875 
Q 21.34375 51.125 25.703125 53.5625 
Q 30.078125 56 35.796875 56 
Q 45.21875 56 50.046875 50.171875 
Q 54.890625 44.34375 54.890625 33.015625 
z
" id="DejaVuSans-110"/>
       <path d="M 34.28125 27.484375 
Q 23.390625 27.484375 19.1875 25 
Q 14.984375 22.515625 14.984375 16.5 
Q 14.984375 11.71875 18.140625 8.90625 
Q 21.296875 6.109375 26.703125 6.109375 
Q 34.1875 6.109375 38.703125 11.40625 
Q 43.21875 16.703125 43.21875 25.484375 
L 43.21875 27.484375 
z
M 52.203125 31.203125 
L 52.203125 0 
L 43.21875 0 
L 43.21875 8.296875 
Q 40.140625 3.328125 35.546875 0.953125 
Q 30.953125 -1.421875 24.3125 -1.421875 
Q 15.921875 -1.421875 10.953125 3.296875 
Q 6 8.015625 6 15.921875 
Q 6 25.140625 12.171875 29.828125 
Q 18.359375 34.515625 30.609375 34.515625 
L 43.21875 34.515625 
L 43.21875 35.40625 
Q 43.21875 41.609375 39.140625 45 
Q 35.0625 48.390625 27.6875 48.390625 
Q 23 48.390625 18.546875 47.265625 
Q 14.109375 46.140625 10.015625 43.890625 
L 10.015625 52.203125 
Q 14.9375 54.109375 19.578125 55.046875 
Q 24.21875 56 28.609375 56 
Q 40.484375 56 46.34375 49.84375 
Q 52.203125 43.703125 52.203125 31.203125 
z
" id="DejaVuSans-97"/>
       <path d="M 48.78125 52.59375 
L 48.78125 44.1875 
Q 44.96875 46.296875 41.140625 47.34375 
Q 37.3125 48.390625 33.40625 48.390625 
Q 24.65625 48.390625 19.8125 42.84375 
Q 14.984375 37.3125 14.984375 27.296875 
Q 14.984375 17.28125 19.8125 11.734375 
Q 24.65625 6.203125 33.40625 6.203125 
Q 37.3125 6.203125 41.140625 7.25 
Q 44.96875 8.296875 48.78125 10.40625 
L 48.78125 2.09375 
Q 45.015625 0.34375 40.984375 -0.53125 
Q 36.96875 -1.421875 32.421875 -1.421875 
Q 20.0625 -1.421875 12.78125 6.34375 
Q 5.515625 14.109375 5.515625 27.296875 
Q 5.515625 40.671875 12.859375 48.328125 
Q 20.21875 56 33.015625 56 
Q 37.15625 56 41.109375 55.140625 
Q 45.0625 54.296875 48.78125 52.59375 
z
" id="DejaVuSans-99"/>
       <path d="M 2.984375 54.6875 
L 12.5 54.6875 
L 29.59375 8.796875 
L 46.6875 54.6875 
L 56.203125 54.6875 
L 35.6875 0 
L 23.484375 0 
z
" id="DejaVuSans-118"/>
      </defs>
      <use xlink:href="#DejaVuSans-78"/>
      <use x="74.804688" xlink:href="#DejaVuSans-101"/>
      <use x="136.328125" xlink:href="#DejaVuSans-117"/>
      <use x="199.707031" xlink:href="#DejaVuSans-114"/>
      <use x="238.570312" xlink:href="#DejaVuSans-111"/>
      <use x="299.751953" xlink:href="#DejaVuSans-110"/>
      <use x="363.130859" xlink:href="#DejaVuSans-32"/>
      <use x="394.917969" xlink:href="#DejaVuSans-97"/>
      <use x="456.197266" xlink:href="#DejaVuSans-99"/>
      <use x="511.177734" xlink:href="#DejaVuSans-116"/>
      <use x="550.386719" xlink:href="#DejaVuSans-105"/>
      <use x="578.169922" xlink:href="#DejaVuSans-118"/>
      <use x="637.349609" xlink:href="#DejaVuSans-97"/>
      <use x="698.628906" xlink:href="#DejaVuSans-116"/>
      <use x="737.837891" xlink:href="#DejaVuSans-105"/>
      <use x="765.621094" xlink:href="#DejaVuSans-111"/>
      <use x="826.802734" xlink:href="#DejaVuSans-110"/>
     </g>
    </g>
   </g>
   <g id="EventCollection_1">
    <path clip-path="url(#pf48fce779c)" d="M 117.599661 293.980909 
L 117.599661 380.462727 
" style="fill:none;stroke:#000000;stroke-width:1.5;"/>
    <path clip-path="url(#pf48fce779c)" d="M 118.717674 293.980909 
L 118.717674 380.462727 
" style="fill:none;stroke:#000000;stroke-width:1.5;"/>
    <path clip-path="url(#pf48fce779c)" d="M 121.868436 293.980909 
L 121.868436 380.462727 
" style="fill:none;stroke:#000000;stroke-width:1.5;"/>
    <path clip-path="url(#pf48fce779c)" d="M 123.291361 293.980909 
L 123.291361 380.462727 
" style="fill:none;stroke:#000000;stroke-width:1.5;"/>
    <path clip-path="url(#pf48fce779c)" d="M 126.137211 293.980909 
L 126.137211 380.462727 
" style="fill:none;stroke:#000000;stroke-width:1.5;"/>
    <path clip-path="url(#pf48fce779c)" d="M 128.678148 293.980909 
L 128.678148 380.462727 
" style="fill:none;stroke:#000000;stroke-width:1.5;"/>
    <path clip-path="url(#pf48fce779c)" d="M 130.812535 293.980909 
L 130.812535 380.462727 
" style="fill:none;stroke:#000000;stroke-width:1.5;"/>
    <path clip-path="url(#pf48fce779c)" d="M 132.540373 293.980909 
L 132.540373 380.462727 
" style="fill:none;stroke:#000000;stroke-width:1.5;"/>
    <path clip-path="url(#pf48fce779c)" d="M 135.284585 293.980909 
L 135.284585 380.462727 
" style="fill:none;stroke:#000000;stroke-width:1.5;"/>
    <path clip-path="url(#pf48fce779c)" d="M 139.654997 293.980909 
L 139.654997 380.462727 
" style="fill:none;stroke:#000000;stroke-width:1.5;"/>
    <path clip-path="url(#pf48fce779c)" d="M 140.874647 293.980909 
L 140.874647 380.462727 
" style="fill:none;stroke:#000000;stroke-width:1.5;"/>
    <path clip-path="url(#pf48fce779c)" d="M 142.399209 293.980909 
L 142.399209 380.462727 
" style="fill:none;stroke:#000000;stroke-width:1.5;"/>
    <path clip-path="url(#pf48fce779c)" d="M 146.667984 293.980909 
L 146.667984 380.462727 
" style="fill:none;stroke:#000000;stroke-width:1.5;"/>
    <path clip-path="url(#pf48fce779c)" d="M 149.208922 293.980909 
L 149.208922 380.462727 
" style="fill:none;stroke:#000000;stroke-width:1.5;"/>
    <path clip-path="url(#pf48fce779c)" d="M 151.444946 293.980909 
L 151.444946 380.462727 
" style="fill:none;stroke:#000000;stroke-width:1.5;"/>
    <path clip-path="url(#pf48fce779c)" d="M 158.864483 293.980909 
L 158.864483 380.462727 
" style="fill:none;stroke:#000000;stroke-width:1.5;"/>
    <path clip-path="url(#pf48fce779c)" d="M 161.608696 293.980909 
L 161.608696 380.462727 
" style="fill:none;stroke:#000000;stroke-width:1.5;"/>
    <path clip-path="url(#pf48fce779c)" d="M 163.031621 293.980909 
L 163.031621 380.462727 
" style="fill:none;stroke:#000000;stroke-width:1.5;"/>
    <path clip-path="url(#pf48fce779c)" d="M 164.352908 293.980909 
L 164.352908 380.462727 
" style="fill:none;stroke:#000000;stroke-width:1.5;"/>
    <path clip-path="url(#pf48fce779c)" d="M 165.572558 293.980909 
L 165.572558 380.462727 
" style="fill:none;stroke:#000000;stroke-width:1.5;"/>
    <path clip-path="url(#pf48fce779c)" d="M 166.792208 293.980909 
L 166.792208 380.462727 
" style="fill:none;stroke:#000000;stroke-width:1.5;"/>
    <path clip-path="url(#pf48fce779c)" d="M 168.215133 293.980909 
L 168.215133 380.462727 
" style="fill:none;stroke:#000000;stroke-width:1.5;"/>
    <path clip-path="url(#pf48fce779c)" d="M 170.044608 293.980909 
L 170.044608 380.462727 
" style="fill:none;stroke:#000000;stroke-width:1.5;"/>
    <path clip-path="url(#pf48fce779c)" d="M 172.483907 293.980909 
L 172.483907 380.462727 
" style="fill:none;stroke:#000000;stroke-width:1.5;"/>
    <path clip-path="url(#pf48fce779c)" d="M 173.805195 293.980909 
L 173.805195 380.462727 
" style="fill:none;stroke:#000000;stroke-width:1.5;"/>
    <path clip-path="url(#pf48fce779c)" d="M 179.801807 293.980909 
L 179.801807 380.462727 
" style="fill:none;stroke:#000000;stroke-width:1.5;"/>
    <path clip-path="url(#pf48fce779c)" d="M 180.919819 293.980909 
L 180.919819 380.462727 
" style="fill:none;stroke:#000000;stroke-width:1.5;"/>
    <path clip-path="url(#pf48fce779c)" d="M 182.444382 293.980909 
L 182.444382 380.462727 
" style="fill:none;stroke:#000000;stroke-width:1.5;"/>
    <path clip-path="url(#pf48fce779c)" d="M 185.086957 293.980909 
L 185.086957 380.462727 
" style="fill:none;stroke:#000000;stroke-width:1.5;"/>
    <path clip-path="url(#pf48fce779c)" d="M 187.831169 293.980909 
L 187.831169 380.462727 
" style="fill:none;stroke:#000000;stroke-width:1.5;"/>
    <path clip-path="url(#pf48fce779c)" d="M 189.050819 293.980909 
L 189.050819 380.462727 
" style="fill:none;stroke:#000000;stroke-width:1.5;"/>
    <path clip-path="url(#pf48fce779c)" d="M 190.168831 293.980909 
L 190.168831 380.462727 
" style="fill:none;stroke:#000000;stroke-width:1.5;"/>
    <path clip-path="url(#pf48fce779c)" d="M 192.404856 293.980909 
L 192.404856 380.462727 
" style="fill:none;stroke:#000000;stroke-width:1.5;"/>
    <path clip-path="url(#pf48fce779c)" d="M 197.181818 293.980909 
L 197.181818 380.462727 
" style="fill:none;stroke:#000000;stroke-width:1.5;"/>
    <path clip-path="url(#pf48fce779c)" d="M 198.706381 293.980909 
L 198.706381 380.462727 
" style="fill:none;stroke:#000000;stroke-width:1.5;"/>
    <path clip-path="url(#pf48fce779c)" d="M 199.824393 293.980909 
L 199.824393 380.462727 
" style="fill:none;stroke:#000000;stroke-width:1.5;"/>
    <path clip-path="url(#pf48fce779c)" d="M 204.601355 293.980909 
L 204.601355 380.462727 
" style="fill:none;stroke:#000000;stroke-width:1.5;"/>
    <path clip-path="url(#pf48fce779c)" d="M 207.040655 293.980909 
L 207.040655 380.462727 
" style="fill:none;stroke:#000000;stroke-width:1.5;"/>
    <path clip-path="url(#pf48fce779c)" d="M 209.68323 293.980909 
L 209.68323 380.462727 
" style="fill:none;stroke:#000000;stroke-width:1.5;"/>
    <path clip-path="url(#pf48fce779c)" d="M 211.004517 293.980909 
L 211.004517 380.462727 
" style="fill:none;stroke:#000000;stroke-width:1.5;"/>
    <path clip-path="url(#pf48fce779c)" d="M 213.850367 293.980909 
L 213.850367 380.462727 
" style="fill:none;stroke:#000000;stroke-width:1.5;"/>
    <path clip-path="url(#pf48fce779c)" d="M 214.968379 293.980909 
L 214.968379 380.462727 
" style="fill:none;stroke:#000000;stroke-width:1.5;"/>
    <path clip-path="url(#pf48fce779c)" d="M 216.188029 293.980909 
L 216.188029 380.462727 
" style="fill:none;stroke:#000000;stroke-width:1.5;"/>
    <path clip-path="url(#pf48fce779c)" d="M 220.660079 293.980909 
L 220.660079 380.462727 
" style="fill:none;stroke:#000000;stroke-width:1.5;"/>
    <path clip-path="url(#pf48fce779c)" d="M 232.145116 293.980909 
L 232.145116 380.462727 
" style="fill:none;stroke:#000000;stroke-width:1.5;"/>
    <path clip-path="url(#pf48fce779c)" d="M 233.364766 293.980909 
L 233.364766 380.462727 
" style="fill:none;stroke:#000000;stroke-width:1.5;"/>
    <path clip-path="url(#pf48fce779c)" d="M 234.482778 293.980909 
L 234.482778 380.462727 
" style="fill:none;stroke:#000000;stroke-width:1.5;"/>
    <path clip-path="url(#pf48fce779c)" d="M 238.243365 293.980909 
L 238.243365 380.462727 
" style="fill:none;stroke:#000000;stroke-width:1.5;"/>
    <path clip-path="url(#pf48fce779c)" d="M 239.767928 293.980909 
L 239.767928 380.462727 
" style="fill:none;stroke:#000000;stroke-width:1.5;"/>
    <path clip-path="url(#pf48fce779c)" d="M 245.35799 293.980909 
L 245.35799 380.462727 
" style="fill:none;stroke:#000000;stroke-width:1.5;"/>
    <path clip-path="url(#pf48fce779c)" d="M 246.780915 293.980909 
L 246.780915 380.462727 
" style="fill:none;stroke:#000000;stroke-width:1.5;"/>
    <path clip-path="url(#pf48fce779c)" d="M 249.525127 293.980909 
L 249.525127 380.462727 
" style="fill:none;stroke:#000000;stroke-width:1.5;"/>
    <path clip-path="url(#pf48fce779c)" d="M 251.964427 293.980909 
L 251.964427 380.462727 
" style="fill:none;stroke:#000000;stroke-width:1.5;"/>
    <path clip-path="url(#pf48fce779c)" d="M 257.656126 293.980909 
L 257.656126 380.462727 
" style="fill:none;stroke:#000000;stroke-width:1.5;"/>
    <path clip-path="url(#pf48fce779c)" d="M 258.977414 293.980909 
L 258.977414 380.462727 
" style="fill:none;stroke:#000000;stroke-width:1.5;"/>
    <path clip-path="url(#pf48fce779c)" d="M 260.197064 293.980909 
L 260.197064 380.462727 
" style="fill:none;stroke:#000000;stroke-width:1.5;"/>
    <path clip-path="url(#pf48fce779c)" d="M 261.721626 293.980909 
L 261.721626 380.462727 
" style="fill:none;stroke:#000000;stroke-width:1.5;"/>
    <path clip-path="url(#pf48fce779c)" d="M 264.262564 293.980909 
L 264.262564 380.462727 
" style="fill:none;stroke:#000000;stroke-width:1.5;"/>
    <path clip-path="url(#pf48fce779c)" d="M 265.380576 293.980909 
L 265.380576 380.462727 
" style="fill:none;stroke:#000000;stroke-width:1.5;"/>
    <path clip-path="url(#pf48fce779c)" d="M 267.210051 293.980909 
L 267.210051 380.462727 
" style="fill:none;stroke:#000000;stroke-width:1.5;"/>
    <path clip-path="url(#pf48fce779c)" d="M 271.377188 293.980909 
L 271.377188 380.462727 
" style="fill:none;stroke:#000000;stroke-width:1.5;"/>
    <path clip-path="url(#pf48fce779c)" d="M 274.019763 293.980909 
L 274.019763 380.462727 
" style="fill:none;stroke:#000000;stroke-width:1.5;"/>
    <path clip-path="url(#pf48fce779c)" d="M 278.1869 293.980909 
L 278.1869 380.462727 
" style="fill:none;stroke:#000000;stroke-width:1.5;"/>
    <path clip-path="url(#pf48fce779c)" d="M 282.963862 293.980909 
L 282.963862 380.462727 
" style="fill:none;stroke:#000000;stroke-width:1.5;"/>
    <path clip-path="url(#pf48fce779c)" d="M 289.163749 293.980909 
L 289.163749 380.462727 
" style="fill:none;stroke:#000000;stroke-width:1.5;"/>
    <path clip-path="url(#pf48fce779c)" d="M 296.075099 293.980909 
L 296.075099 380.462727 
" style="fill:none;stroke:#000000;stroke-width:1.5;"/>
    <path clip-path="url(#pf48fce779c)" d="M 300.242236 293.980909 
L 300.242236 380.462727 
" style="fill:none;stroke:#000000;stroke-width:1.5;"/>
    <path clip-path="url(#pf48fce779c)" d="M 301.360248 293.980909 
L 301.360248 380.462727 
" style="fill:none;stroke:#000000;stroke-width:1.5;"/>
    <path clip-path="url(#pf48fce779c)" d="M 305.527386 293.980909 
L 305.527386 380.462727 
" style="fill:none;stroke:#000000;stroke-width:1.5;"/>
    <path clip-path="url(#pf48fce779c)" d="M 309.592885 293.980909 
L 309.592885 380.462727 
" style="fill:none;stroke:#000000;stroke-width:1.5;"/>
    <path clip-path="url(#pf48fce779c)" d="M 312.23546 293.980909 
L 312.23546 380.462727 
" style="fill:none;stroke:#000000;stroke-width:1.5;"/>
    <path clip-path="url(#pf48fce779c)" d="M 313.353473 293.980909 
L 313.353473 380.462727 
" style="fill:none;stroke:#000000;stroke-width:1.5;"/>
    <path clip-path="url(#pf48fce779c)" d="M 317.92716 293.980909 
L 317.92716 380.462727 
" style="fill:none;stroke:#000000;stroke-width:1.5;"/>
    <path clip-path="url(#pf48fce779c)" d="M 319.858272 293.980909 
L 319.858272 380.462727 
" style="fill:none;stroke:#000000;stroke-width:1.5;"/>
    <path clip-path="url(#pf48fce779c)" d="M 329.208922 293.980909 
L 329.208922 380.462727 
" style="fill:none;stroke:#000000;stroke-width:1.5;"/>
    <path clip-path="url(#pf48fce779c)" d="M 332.664596 293.980909 
L 332.664596 380.462727 
" style="fill:none;stroke:#000000;stroke-width:1.5;"/>
    <path clip-path="url(#pf48fce779c)" d="M 334.290796 293.980909 
L 334.290796 380.462727 
" style="fill:none;stroke:#000000;stroke-width:1.5;"/>
    <path clip-path="url(#pf48fce779c)" d="M 335.612084 293.980909 
L 335.612084 380.462727 
" style="fill:none;stroke:#000000;stroke-width:1.5;"/>
    <path clip-path="url(#pf48fce779c)" d="M 337.035008 293.980909 
L 337.035008 380.462727 
" style="fill:none;stroke:#000000;stroke-width:1.5;"/>
    <path clip-path="url(#pf48fce779c)" d="M 338.356296 293.980909 
L 338.356296 380.462727 
" style="fill:none;stroke:#000000;stroke-width:1.5;"/>
    <path clip-path="url(#pf48fce779c)" d="M 339.474308 293.980909 
L 339.474308 380.462727 
" style="fill:none;stroke:#000000;stroke-width:1.5;"/>
    <path clip-path="url(#pf48fce779c)" d="M 340.592321 293.980909 
L 340.592321 380.462727 
" style="fill:none;stroke:#000000;stroke-width:1.5;"/>
    <path clip-path="url(#pf48fce779c)" d="M 342.828346 293.980909 
L 342.828346 380.462727 
" style="fill:none;stroke:#000000;stroke-width:1.5;"/>
    <path clip-path="url(#pf48fce779c)" d="M 344.149633 293.980909 
L 344.149633 380.462727 
" style="fill:none;stroke:#000000;stroke-width:1.5;"/>
    <path clip-path="url(#pf48fce779c)" d="M 355.024845 293.980909 
L 355.024845 380.462727 
" style="fill:none;stroke:#000000;stroke-width:1.5;"/>
    <path clip-path="url(#pf48fce779c)" d="M 357.565782 293.980909 
L 357.565782 380.462727 
" style="fill:none;stroke:#000000;stroke-width:1.5;"/>
    <path clip-path="url(#pf48fce779c)" d="M 360.005082 293.980909 
L 360.005082 380.462727 
" style="fill:none;stroke:#000000;stroke-width:1.5;"/>
    <path clip-path="url(#pf48fce779c)" d="M 366.713156 293.980909 
L 366.713156 380.462727 
" style="fill:none;stroke:#000000;stroke-width:1.5;"/>
    <path clip-path="url(#pf48fce779c)" d="M 372.608131 293.980909 
L 372.608131 380.462727 
" style="fill:none;stroke:#000000;stroke-width:1.5;"/>
    <path clip-path="url(#pf48fce779c)" d="M 373.726143 293.980909 
L 373.726143 380.462727 
" style="fill:none;stroke:#000000;stroke-width:1.5;"/>
    <path clip-path="url(#pf48fce779c)" d="M 376.978543 293.980909 
L 376.978543 380.462727 
" style="fill:none;stroke:#000000;stroke-width:1.5;"/>
    <path clip-path="url(#pf48fce779c)" d="M 378.096556 293.980909 
L 378.096556 380.462727 
" style="fill:none;stroke:#000000;stroke-width:1.5;"/>
    <path clip-path="url(#pf48fce779c)" d="M 380.129305 293.980909 
L 380.129305 380.462727 
" style="fill:none;stroke:#000000;stroke-width:1.5;"/>
    <path clip-path="url(#pf48fce779c)" d="M 381.348955 293.980909 
L 381.348955 380.462727 
" style="fill:none;stroke:#000000;stroke-width:1.5;"/>
    <path clip-path="url(#pf48fce779c)" d="M 383.58498 293.980909 
L 383.58498 380.462727 
" style="fill:none;stroke:#000000;stroke-width:1.5;"/>
    <path clip-path="url(#pf48fce779c)" d="M 390.801242 293.980909 
L 390.801242 380.462727 
" style="fill:none;stroke:#000000;stroke-width:1.5;"/>
    <path clip-path="url(#pf48fce779c)" d="M 394.561829 293.980909 
L 394.561829 380.462727 
" style="fill:none;stroke:#000000;stroke-width:1.5;"/>
    <path clip-path="url(#pf48fce779c)" d="M 397.306042 293.980909 
L 397.306042 380.462727 
" style="fill:none;stroke:#000000;stroke-width:1.5;"/>
    <path clip-path="url(#pf48fce779c)" d="M 399.135517 293.980909 
L 399.135517 380.462727 
" style="fill:none;stroke:#000000;stroke-width:1.5;"/>
    <path clip-path="url(#pf48fce779c)" d="M 400.253529 293.980909 
L 400.253529 380.462727 
" style="fill:none;stroke:#000000;stroke-width:1.5;"/>
    <path clip-path="url(#pf48fce779c)" d="M 409.400903 293.980909 
L 409.400903 380.462727 
" style="fill:none;stroke:#000000;stroke-width:1.5;"/>
    <path clip-path="url(#pf48fce779c)" d="M 410.518916 293.980909 
L 410.518916 380.462727 
" style="fill:none;stroke:#000000;stroke-width:1.5;"/>
    <path clip-path="url(#pf48fce779c)" d="M 412.754941 293.980909 
L 412.754941 380.462727 
" style="fill:none;stroke:#000000;stroke-width:1.5;"/>
    <path clip-path="url(#pf48fce779c)" d="M 413.872953 293.980909 
L 413.872953 380.462727 
" style="fill:none;stroke:#000000;stroke-width:1.5;"/>
    <path clip-path="url(#pf48fce779c)" d="M 416.617165 293.980909 
L 416.617165 380.462727 
" style="fill:none;stroke:#000000;stroke-width:1.5;"/>
    <path clip-path="url(#pf48fce779c)" d="M 417.735178 293.980909 
L 417.735178 380.462727 
" style="fill:none;stroke:#000000;stroke-width:1.5;"/>
    <path clip-path="url(#pf48fce779c)" d="M 419.971203 293.980909 
L 419.971203 380.462727 
" style="fill:none;stroke:#000000;stroke-width:1.5;"/>
    <path clip-path="url(#pf48fce779c)" d="M 421.089215 293.980909 
L 421.089215 380.462727 
" style="fill:none;stroke:#000000;stroke-width:1.5;"/>
    <path clip-path="url(#pf48fce779c)" d="M 422.51214 293.980909 
L 422.51214 380.462727 
" style="fill:none;stroke:#000000;stroke-width:1.5;"/>
    <path clip-path="url(#pf48fce779c)" d="M 423.935065 293.980909 
L 423.935065 380.462727 
" style="fill:none;stroke:#000000;stroke-width:1.5;"/>
    <path clip-path="url(#pf48fce779c)" d="M 425.053077 293.980909 
L 425.053077 380.462727 
" style="fill:none;stroke:#000000;stroke-width:1.5;"/>
    <path clip-path="url(#pf48fce779c)" d="M 431.049689 293.980909 
L 431.049689 380.462727 
" style="fill:none;stroke:#000000;stroke-width:1.5;"/>
    <path clip-path="url(#pf48fce779c)" d="M 432.167702 293.980909 
L 432.167702 380.462727 
" style="fill:none;stroke:#000000;stroke-width:1.5;"/>
    <path clip-path="url(#pf48fce779c)" d="M 434.403727 293.980909 
L 434.403727 380.462727 
" style="fill:none;stroke:#000000;stroke-width:1.5;"/>
    <path clip-path="url(#pf48fce779c)" d="M 436.639752 293.980909 
L 436.639752 380.462727 
" style="fill:none;stroke:#000000;stroke-width:1.5;"/>
    <path clip-path="url(#pf48fce779c)" d="M 437.859401 293.980909 
L 437.859401 380.462727 
" style="fill:none;stroke:#000000;stroke-width:1.5;"/>
    <path clip-path="url(#pf48fce779c)" d="M 440.298701 293.980909 
L 440.298701 380.462727 
" style="fill:none;stroke:#000000;stroke-width:1.5;"/>
    <path clip-path="url(#pf48fce779c)" d="M 441.619989 293.980909 
L 441.619989 380.462727 
" style="fill:none;stroke:#000000;stroke-width:1.5;"/>
    <path clip-path="url(#pf48fce779c)" d="M 443.957651 293.980909 
L 443.957651 380.462727 
" style="fill:none;stroke:#000000;stroke-width:1.5;"/>
    <path clip-path="url(#pf48fce779c)" d="M 446.295313 293.980909 
L 446.295313 380.462727 
" style="fill:none;stroke:#000000;stroke-width:1.5;"/>
    <path clip-path="url(#pf48fce779c)" d="M 447.413326 293.980909 
L 447.413326 380.462727 
" style="fill:none;stroke:#000000;stroke-width:1.5;"/>
    <path clip-path="url(#pf48fce779c)" d="M 449.750988 293.980909 
L 449.750988 380.462727 
" style="fill:none;stroke:#000000;stroke-width:1.5;"/>
    <path clip-path="url(#pf48fce779c)" d="M 450.869001 293.980909 
L 450.869001 380.462727 
" style="fill:none;stroke:#000000;stroke-width:1.5;"/>
    <path clip-path="url(#pf48fce779c)" d="M 451.987013 293.980909 
L 451.987013 380.462727 
" style="fill:none;stroke:#000000;stroke-width:1.5;"/>
    <path clip-path="url(#pf48fce779c)" d="M 458.1869 293.980909 
L 458.1869 380.462727 
" style="fill:none;stroke:#000000;stroke-width:1.5;"/>
    <path clip-path="url(#pf48fce779c)" d="M 461.03275 293.980909 
L 461.03275 380.462727 
" style="fill:none;stroke:#000000;stroke-width:1.5;"/>
    <path clip-path="url(#pf48fce779c)" d="M 462.150762 293.980909 
L 462.150762 380.462727 
" style="fill:none;stroke:#000000;stroke-width:1.5;"/>
    <path clip-path="url(#pf48fce779c)" d="M 463.268775 293.980909 
L 463.268775 380.462727 
" style="fill:none;stroke:#000000;stroke-width:1.5;"/>
    <path clip-path="url(#pf48fce779c)" d="M 465.5048 293.980909 
L 465.5048 380.462727 
" style="fill:none;stroke:#000000;stroke-width:1.5;"/>
    <path clip-path="url(#pf48fce779c)" d="M 469.163749 293.980909 
L 469.163749 380.462727 
" style="fill:none;stroke:#000000;stroke-width:1.5;"/>
    <path clip-path="url(#pf48fce779c)" d="M 470.281762 293.980909 
L 470.281762 380.462727 
" style="fill:none;stroke:#000000;stroke-width:1.5;"/>
    <path clip-path="url(#pf48fce779c)" d="M 471.399774 293.980909 
L 471.399774 380.462727 
" style="fill:none;stroke:#000000;stroke-width:1.5;"/>
    <path clip-path="url(#pf48fce779c)" d="M 472.517787 293.980909 
L 472.517787 380.462727 
" style="fill:none;stroke:#000000;stroke-width:1.5;"/>
    <path clip-path="url(#pf48fce779c)" d="M 474.753811 293.980909 
L 474.753811 380.462727 
" style="fill:none;stroke:#000000;stroke-width:1.5;"/>
    <path clip-path="url(#pf48fce779c)" d="M 476.989836 293.980909 
L 476.989836 380.462727 
" style="fill:none;stroke:#000000;stroke-width:1.5;"/>
    <path clip-path="url(#pf48fce779c)" d="M 478.107849 293.980909 
L 478.107849 380.462727 
" style="fill:none;stroke:#000000;stroke-width:1.5;"/>
    <path clip-path="url(#pf48fce779c)" d="M 479.225861 293.980909 
L 479.225861 380.462727 
" style="fill:none;stroke:#000000;stroke-width:1.5;"/>
    <path clip-path="url(#pf48fce779c)" d="M 482.579898 293.980909 
L 482.579898 380.462727 
" style="fill:none;stroke:#000000;stroke-width:1.5;"/>
    <path clip-path="url(#pf48fce779c)" d="M 483.697911 293.980909 
L 483.697911 380.462727 
" style="fill:none;stroke:#000000;stroke-width:1.5;"/>
    <path clip-path="url(#pf48fce779c)" d="M 484.815923 293.980909 
L 484.815923 380.462727 
" style="fill:none;stroke:#000000;stroke-width:1.5;"/>
    <path clip-path="url(#pf48fce779c)" d="M 488.678148 293.980909 
L 488.678148 380.462727 
" style="fill:none;stroke:#000000;stroke-width:1.5;"/>
    <path clip-path="url(#pf48fce779c)" d="M 492.133823 293.980909 
L 492.133823 380.462727 
" style="fill:none;stroke:#000000;stroke-width:1.5;"/>
    <path clip-path="url(#pf48fce779c)" d="M 496.70751 293.980909 
L 496.70751 380.462727 
" style="fill:none;stroke:#000000;stroke-width:1.5;"/>
    <path clip-path="url(#pf48fce779c)" d="M 500.671372 293.980909 
L 500.671372 380.462727 
" style="fill:none;stroke:#000000;stroke-width:1.5;"/>
    <path clip-path="url(#pf48fce779c)" d="M 501.891022 293.980909 
L 501.891022 380.462727 
" style="fill:none;stroke:#000000;stroke-width:1.5;"/>
    <path clip-path="url(#pf48fce779c)" d="M 504.127047 293.980909 
L 504.127047 380.462727 
" style="fill:none;stroke:#000000;stroke-width:1.5;"/>
    <path clip-path="url(#pf48fce779c)" d="M 505.753247 293.980909 
L 505.753247 380.462727 
" style="fill:none;stroke:#000000;stroke-width:1.5;"/>
    <path clip-path="url(#pf48fce779c)" d="M 509.818746 293.980909 
L 509.818746 380.462727 
" style="fill:none;stroke:#000000;stroke-width:1.5;"/>
    <path clip-path="url(#pf48fce779c)" d="M 512.054771 293.980909 
L 512.054771 380.462727 
" style="fill:none;stroke:#000000;stroke-width:1.5;"/>
    <path clip-path="url(#pf48fce779c)" d="M 513.172784 293.980909 
L 513.172784 380.462727 
" style="fill:none;stroke:#000000;stroke-width:1.5;"/>
    <path clip-path="url(#pf48fce779c)" d="M 514.290796 293.980909 
L 514.290796 380.462727 
" style="fill:none;stroke:#000000;stroke-width:1.5;"/>
    <path clip-path="url(#pf48fce779c)" d="M 515.408809 293.980909 
L 515.408809 380.462727 
" style="fill:none;stroke:#000000;stroke-width:1.5;"/>
    <path clip-path="url(#pf48fce779c)" d="M 518.762846 293.980909 
L 518.762846 380.462727 
" style="fill:none;stroke:#000000;stroke-width:1.5;"/>
    <path clip-path="url(#pf48fce779c)" d="M 519.982496 293.980909 
L 519.982496 380.462727 
" style="fill:none;stroke:#000000;stroke-width:1.5;"/>
    <path clip-path="url(#pf48fce779c)" d="M 521.100508 293.980909 
L 521.100508 380.462727 
" style="fill:none;stroke:#000000;stroke-width:1.5;"/>
    <path clip-path="url(#pf48fce779c)" d="M 522.218521 293.980909 
L 522.218521 380.462727 
" style="fill:none;stroke:#000000;stroke-width:1.5;"/>
    <path clip-path="url(#pf48fce779c)" d="M 523.336533 293.980909 
L 523.336533 380.462727 
" style="fill:none;stroke:#000000;stroke-width:1.5;"/>
    <path clip-path="url(#pf48fce779c)" d="M 524.454545 293.980909 
L 524.454545 380.462727 
" style="fill:none;stroke:#000000;stroke-width:1.5;"/>
    <path clip-path="url(#pf48fce779c)" d="M 525.572558 293.980909 
L 525.572558 380.462727 
" style="fill:none;stroke:#000000;stroke-width:1.5;"/>
    <path clip-path="url(#pf48fce779c)" d="M 526.69057 293.980909 
L 526.69057 380.462727 
" style="fill:none;stroke:#000000;stroke-width:1.5;"/>
    <path clip-path="url(#pf48fce779c)" d="M 527.808583 293.980909 
L 527.808583 380.462727 
" style="fill:none;stroke:#000000;stroke-width:1.5;"/>
    <path clip-path="url(#pf48fce779c)" d="M 529.028233 293.980909 
L 529.028233 380.462727 
" style="fill:none;stroke:#000000;stroke-width:1.5;"/>
    <path clip-path="url(#pf48fce779c)" d="M 530.146245 293.980909 
L 530.146245 380.462727 
" style="fill:none;stroke:#000000;stroke-width:1.5;"/>
    <path clip-path="url(#pf48fce779c)" d="M 533.500282 293.980909 
L 533.500282 380.462727 
" style="fill:none;stroke:#000000;stroke-width:1.5;"/>
    <path clip-path="url(#pf48fce779c)" d="M 535.837945 293.980909 
L 535.837945 380.462727 
" style="fill:none;stroke:#000000;stroke-width:1.5;"/>
    <path clip-path="url(#pf48fce779c)" d="M 538.175607 293.980909 
L 538.175607 380.462727 
" style="fill:none;stroke:#000000;stroke-width:1.5;"/>
    <path clip-path="url(#pf48fce779c)" d="M 539.293619 293.980909 
L 539.293619 380.462727 
" style="fill:none;stroke:#000000;stroke-width:1.5;"/>
    <path clip-path="url(#pf48fce779c)" d="M 540.411632 293.980909 
L 540.411632 380.462727 
" style="fill:none;stroke:#000000;stroke-width:1.5;"/>
    <path clip-path="url(#pf48fce779c)" d="M 541.529644 293.980909 
L 541.529644 380.462727 
" style="fill:none;stroke:#000000;stroke-width:1.5;"/>
    <path clip-path="url(#pf48fce779c)" d="M 543.867307 293.980909 
L 543.867307 380.462727 
" style="fill:none;stroke:#000000;stroke-width:1.5;"/>
    <path clip-path="url(#pf48fce779c)" d="M 545.188594 293.980909 
L 545.188594 380.462727 
" style="fill:none;stroke:#000000;stroke-width:1.5;"/>
    <path clip-path="url(#pf48fce779c)" d="M 547.424619 293.980909 
L 547.424619 380.462727 
" style="fill:none;stroke:#000000;stroke-width:1.5;"/>
    <path clip-path="url(#pf48fce779c)" d="M 548.745906 293.980909 
L 548.745906 380.462727 
" style="fill:none;stroke:#000000;stroke-width:1.5;"/>
    <path clip-path="url(#pf48fce779c)" d="M 554.437606 293.980909 
L 554.437606 380.462727 
" style="fill:none;stroke:#000000;stroke-width:1.5;"/>
    <path clip-path="url(#pf48fce779c)" d="M 560.129305 293.980909 
L 560.129305 380.462727 
" style="fill:none;stroke:#000000;stroke-width:1.5;"/>
    <path clip-path="url(#pf48fce779c)" d="M 561.247318 293.980909 
L 561.247318 380.462727 
" style="fill:none;stroke:#000000;stroke-width:1.5;"/>
    <path clip-path="url(#pf48fce779c)" d="M 563.58498 293.980909 
L 563.58498 380.462727 
" style="fill:none;stroke:#000000;stroke-width:1.5;"/>
    <path clip-path="url(#pf48fce779c)" d="M 564.80463 293.980909 
L 564.80463 380.462727 
" style="fill:none;stroke:#000000;stroke-width:1.5;"/>
    <path clip-path="url(#pf48fce779c)" d="M 565.922643 293.980909 
L 565.922643 380.462727 
" style="fill:none;stroke:#000000;stroke-width:1.5;"/>
    <path clip-path="url(#pf48fce779c)" d="M 569.581592 293.980909 
L 569.581592 380.462727 
" style="fill:none;stroke:#000000;stroke-width:1.5;"/>
    <path clip-path="url(#pf48fce779c)" d="M 571.919255 293.980909 
L 571.919255 380.462727 
" style="fill:none;stroke:#000000;stroke-width:1.5;"/>
    <path clip-path="url(#pf48fce779c)" d="M 575.578204 293.980909 
L 575.578204 380.462727 
" style="fill:none;stroke:#000000;stroke-width:1.5;"/>
    <path clip-path="url(#pf48fce779c)" d="M 577.814229 293.980909 
L 577.814229 380.462727 
" style="fill:none;stroke:#000000;stroke-width:1.5;"/>
    <path clip-path="url(#pf48fce779c)" d="M 579.135517 293.980909 
L 579.135517 380.462727 
" style="fill:none;stroke:#000000;stroke-width:1.5;"/>
    <path clip-path="url(#pf48fce779c)" d="M 587.164879 293.980909 
L 587.164879 380.462727 
" style="fill:none;stroke:#000000;stroke-width:1.5;"/>
    <path clip-path="url(#pf48fce779c)" d="M 589.502541 293.980909 
L 589.502541 380.462727 
" style="fill:none;stroke:#000000;stroke-width:1.5;"/>
    <path clip-path="url(#pf48fce779c)" d="M 591.738566 293.980909 
L 591.738566 380.462727 
" style="fill:none;stroke:#000000;stroke-width:1.5;"/>
    <path clip-path="url(#pf48fce779c)" d="M 592.856578 293.980909 
L 592.856578 380.462727 
" style="fill:none;stroke:#000000;stroke-width:1.5;"/>
    <path clip-path="url(#pf48fce779c)" d="M 593.974591 293.980909 
L 593.974591 380.462727 
" style="fill:none;stroke:#000000;stroke-width:1.5;"/>
    <path clip-path="url(#pf48fce779c)" d="M 597.430265 293.980909 
L 597.430265 380.462727 
" style="fill:none;stroke:#000000;stroke-width:1.5;"/>
    <path clip-path="url(#pf48fce779c)" d="M 599.66629 293.980909 
L 599.66629 380.462727 
" style="fill:none;stroke:#000000;stroke-width:1.5;"/>
    <path clip-path="url(#pf48fce779c)" d="M 602.003953 293.980909 
L 602.003953 380.462727 
" style="fill:none;stroke:#000000;stroke-width:1.5;"/>
    <path clip-path="url(#pf48fce779c)" d="M 603.223602 293.980909 
L 603.223602 380.462727 
" style="fill:none;stroke:#000000;stroke-width:1.5;"/>
    <path clip-path="url(#pf48fce779c)" d="M 604.341615 293.980909 
L 604.341615 380.462727 
" style="fill:none;stroke:#000000;stroke-width:1.5;"/>
    <path clip-path="url(#pf48fce779c)" d="M 605.459627 293.980909 
L 605.459627 380.462727 
" style="fill:none;stroke:#000000;stroke-width:1.5;"/>
    <path clip-path="url(#pf48fce779c)" d="M 606.57764 293.980909 
L 606.57764 380.462727 
" style="fill:none;stroke:#000000;stroke-width:1.5;"/>
    <path clip-path="url(#pf48fce779c)" d="M 607.695652 293.980909 
L 607.695652 380.462727 
" style="fill:none;stroke:#000000;stroke-width:1.5;"/>
    <path clip-path="url(#pf48fce779c)" d="M 608.813665 293.980909 
L 608.813665 380.462727 
" style="fill:none;stroke:#000000;stroke-width:1.5;"/>
    <path clip-path="url(#pf48fce779c)" d="M 609.931677 293.980909 
L 609.931677 380.462727 
" style="fill:none;stroke:#000000;stroke-width:1.5;"/>
    <path clip-path="url(#pf48fce779c)" d="M 611.049689 293.980909 
L 611.049689 380.462727 
" style="fill:none;stroke:#000000;stroke-width:1.5;"/>
    <path clip-path="url(#pf48fce779c)" d="M 612.167702 293.980909 
L 612.167702 380.462727 
" style="fill:none;stroke:#000000;stroke-width:1.5;"/>
    <path clip-path="url(#pf48fce779c)" d="M 613.488989 293.980909 
L 613.488989 380.462727 
" style="fill:none;stroke:#000000;stroke-width:1.5;"/>
    <path clip-path="url(#pf48fce779c)" d="M 614.607002 293.980909 
L 614.607002 380.462727 
" style="fill:none;stroke:#000000;stroke-width:1.5;"/>
    <path clip-path="url(#pf48fce779c)" d="M 617.046302 293.980909 
L 617.046302 380.462727 
" style="fill:none;stroke:#000000;stroke-width:1.5;"/>
    <path clip-path="url(#pf48fce779c)" d="M 618.164314 293.980909 
L 618.164314 380.462727 
" style="fill:none;stroke:#000000;stroke-width:1.5;"/>
    <path clip-path="url(#pf48fce779c)" d="M 619.282326 293.980909 
L 619.282326 380.462727 
" style="fill:none;stroke:#000000;stroke-width:1.5;"/>
   </g>
   <g id="EventCollection_2">
    <path clip-path="url(#pf48fce779c)" d="M 115.363636 121.017273 
L 115.363636 207.499091 
" style="fill:none;stroke:#000000;stroke-width:1.5;"/>
    <path clip-path="url(#pf48fce779c)" d="M 116.481649 121.017273 
L 116.481649 207.499091 
" style="fill:none;stroke:#000000;stroke-width:1.5;"/>
    <path clip-path="url(#pf48fce779c)" d="M 119.835686 121.017273 
L 119.835686 207.499091 
" style="fill:none;stroke:#000000;stroke-width:1.5;"/>
    <path clip-path="url(#pf48fce779c)" d="M 125.019198 121.017273 
L 125.019198 207.499091 
" style="fill:none;stroke:#000000;stroke-width:1.5;"/>
    <path clip-path="url(#pf48fce779c)" d="M 127.356861 121.017273 
L 127.356861 207.499091 
" style="fill:none;stroke:#000000;stroke-width:1.5;"/>
    <path clip-path="url(#pf48fce779c)" d="M 136.605872 121.017273 
L 136.605872 207.499091 
" style="fill:none;stroke:#000000;stroke-width:1.5;"/>
    <path clip-path="url(#pf48fce779c)" d="M 137.723885 121.017273 
L 137.723885 207.499091 
" style="fill:none;stroke:#000000;stroke-width:1.5;"/>
    <path clip-path="url(#pf48fce779c)" d="M 143.822134 121.017273 
L 143.822134 207.499091 
" style="fill:none;stroke:#000000;stroke-width:1.5;"/>
    <path clip-path="url(#pf48fce779c)" d="M 145.346697 121.017273 
L 145.346697 207.499091 
" style="fill:none;stroke:#000000;stroke-width:1.5;"/>
    <path clip-path="url(#pf48fce779c)" d="M 147.785997 121.017273 
L 147.785997 207.499091 
" style="fill:none;stroke:#000000;stroke-width:1.5;"/>
    <path clip-path="url(#pf48fce779c)" d="M 150.326934 121.017273 
L 150.326934 207.499091 
" style="fill:none;stroke:#000000;stroke-width:1.5;"/>
    <path clip-path="url(#pf48fce779c)" d="M 152.562959 121.017273 
L 152.562959 207.499091 
" style="fill:none;stroke:#000000;stroke-width:1.5;"/>
    <path clip-path="url(#pf48fce779c)" d="M 154.189159 121.017273 
L 154.189159 207.499091 
" style="fill:none;stroke:#000000;stroke-width:1.5;"/>
    <path clip-path="url(#pf48fce779c)" d="M 155.307171 121.017273 
L 155.307171 207.499091 
" style="fill:none;stroke:#000000;stroke-width:1.5;"/>
    <path clip-path="url(#pf48fce779c)" d="M 156.526821 121.017273 
L 156.526821 207.499091 
" style="fill:none;stroke:#000000;stroke-width:1.5;"/>
    <path clip-path="url(#pf48fce779c)" d="M 157.644833 121.017273 
L 157.644833 207.499091 
" style="fill:none;stroke:#000000;stroke-width:1.5;"/>
    <path clip-path="url(#pf48fce779c)" d="M 160.185771 121.017273 
L 160.185771 207.499091 
" style="fill:none;stroke:#000000;stroke-width:1.5;"/>
    <path clip-path="url(#pf48fce779c)" d="M 171.16262 121.017273 
L 171.16262 207.499091 
" style="fill:none;stroke:#000000;stroke-width:1.5;"/>
    <path clip-path="url(#pf48fce779c)" d="M 175.024845 121.017273 
L 175.024845 207.499091 
" style="fill:none;stroke:#000000;stroke-width:1.5;"/>
    <path clip-path="url(#pf48fce779c)" d="M 177.159232 121.017273 
L 177.159232 207.499091 
" style="fill:none;stroke:#000000;stroke-width:1.5;"/>
    <path clip-path="url(#pf48fce779c)" d="M 178.582157 121.017273 
L 178.582157 207.499091 
" style="fill:none;stroke:#000000;stroke-width:1.5;"/>
    <path clip-path="url(#pf48fce779c)" d="M 183.765669 121.017273 
L 183.765669 207.499091 
" style="fill:none;stroke:#000000;stroke-width:1.5;"/>
    <path clip-path="url(#pf48fce779c)" d="M 186.204969 121.017273 
L 186.204969 207.499091 
" style="fill:none;stroke:#000000;stroke-width:1.5;"/>
    <path clip-path="url(#pf48fce779c)" d="M 191.286844 121.017273 
L 191.286844 207.499091 
" style="fill:none;stroke:#000000;stroke-width:1.5;"/>
    <path clip-path="url(#pf48fce779c)" d="M 194.234331 121.017273 
L 194.234331 207.499091 
" style="fill:none;stroke:#000000;stroke-width:1.5;"/>
    <path clip-path="url(#pf48fce779c)" d="M 196.063806 121.017273 
L 196.063806 207.499091 
" style="fill:none;stroke:#000000;stroke-width:1.5;"/>
    <path clip-path="url(#pf48fce779c)" d="M 202.873518 121.017273 
L 202.873518 207.499091 
" style="fill:none;stroke:#000000;stroke-width:1.5;"/>
    <path clip-path="url(#pf48fce779c)" d="M 205.719368 121.017273 
L 205.719368 207.499091 
" style="fill:none;stroke:#000000;stroke-width:1.5;"/>
    <path clip-path="url(#pf48fce779c)" d="M 208.565217 121.017273 
L 208.565217 207.499091 
" style="fill:none;stroke:#000000;stroke-width:1.5;"/>
    <path clip-path="url(#pf48fce779c)" d="M 212.427442 121.017273 
L 212.427442 207.499091 
" style="fill:none;stroke:#000000;stroke-width:1.5;"/>
    <path clip-path="url(#pf48fce779c)" d="M 218.017504 121.017273 
L 218.017504 207.499091 
" style="fill:none;stroke:#000000;stroke-width:1.5;"/>
    <path clip-path="url(#pf48fce779c)" d="M 221.778091 121.017273 
L 221.778091 207.499091 
" style="fill:none;stroke:#000000;stroke-width:1.5;"/>
    <path clip-path="url(#pf48fce779c)" d="M 222.997741 121.017273 
L 222.997741 207.499091 
" style="fill:none;stroke:#000000;stroke-width:1.5;"/>
    <path clip-path="url(#pf48fce779c)" d="M 224.115754 121.017273 
L 224.115754 207.499091 
" style="fill:none;stroke:#000000;stroke-width:1.5;"/>
    <path clip-path="url(#pf48fce779c)" d="M 226.555054 121.017273 
L 226.555054 207.499091 
" style="fill:none;stroke:#000000;stroke-width:1.5;"/>
    <path clip-path="url(#pf48fce779c)" d="M 227.876341 121.017273 
L 227.876341 207.499091 
" style="fill:none;stroke:#000000;stroke-width:1.5;"/>
    <path clip-path="url(#pf48fce779c)" d="M 229.502541 121.017273 
L 229.502541 207.499091 
" style="fill:none;stroke:#000000;stroke-width:1.5;"/>
    <path clip-path="url(#pf48fce779c)" d="M 230.722191 121.017273 
L 230.722191 207.499091 
" style="fill:none;stroke:#000000;stroke-width:1.5;"/>
    <path clip-path="url(#pf48fce779c)" d="M 235.600791 121.017273 
L 235.600791 207.499091 
" style="fill:none;stroke:#000000;stroke-width:1.5;"/>
    <path clip-path="url(#pf48fce779c)" d="M 236.718803 121.017273 
L 236.718803 207.499091 
" style="fill:none;stroke:#000000;stroke-width:1.5;"/>
    <path clip-path="url(#pf48fce779c)" d="M 241.394128 121.017273 
L 241.394128 207.499091 
" style="fill:none;stroke:#000000;stroke-width:1.5;"/>
    <path clip-path="url(#pf48fce779c)" d="M 242.51214 121.017273 
L 242.51214 207.499091 
" style="fill:none;stroke:#000000;stroke-width:1.5;"/>
    <path clip-path="url(#pf48fce779c)" d="M 243.630152 121.017273 
L 243.630152 207.499091 
" style="fill:none;stroke:#000000;stroke-width:1.5;"/>
    <path clip-path="url(#pf48fce779c)" d="M 248.20384 121.017273 
L 248.20384 207.499091 
" style="fill:none;stroke:#000000;stroke-width:1.5;"/>
    <path clip-path="url(#pf48fce779c)" d="M 250.846414 121.017273 
L 250.846414 207.499091 
" style="fill:none;stroke:#000000;stroke-width:1.5;"/>
    <path clip-path="url(#pf48fce779c)" d="M 253.997177 121.017273 
L 253.997177 207.499091 
" style="fill:none;stroke:#000000;stroke-width:1.5;"/>
    <path clip-path="url(#pf48fce779c)" d="M 255.216827 121.017273 
L 255.216827 207.499091 
" style="fill:none;stroke:#000000;stroke-width:1.5;"/>
    <path clip-path="url(#pf48fce779c)" d="M 256.538114 121.017273 
L 256.538114 207.499091 
" style="fill:none;stroke:#000000;stroke-width:1.5;"/>
    <path clip-path="url(#pf48fce779c)" d="M 262.839639 121.017273 
L 262.839639 207.499091 
" style="fill:none;stroke:#000000;stroke-width:1.5;"/>
    <path clip-path="url(#pf48fce779c)" d="M 268.328063 121.017273 
L 268.328063 207.499091 
" style="fill:none;stroke:#000000;stroke-width:1.5;"/>
    <path clip-path="url(#pf48fce779c)" d="M 270.055901 121.017273 
L 270.055901 207.499091 
" style="fill:none;stroke:#000000;stroke-width:1.5;"/>
    <path clip-path="url(#pf48fce779c)" d="M 272.698475 121.017273 
L 272.698475 207.499091 
" style="fill:none;stroke:#000000;stroke-width:1.5;"/>
    <path clip-path="url(#pf48fce779c)" d="M 275.137775 121.017273 
L 275.137775 207.499091 
" style="fill:none;stroke:#000000;stroke-width:1.5;"/>
    <path clip-path="url(#pf48fce779c)" d="M 276.763975 121.017273 
L 276.763975 207.499091 
" style="fill:none;stroke:#000000;stroke-width:1.5;"/>
    <path clip-path="url(#pf48fce779c)" d="M 279.304912 121.017273 
L 279.304912 207.499091 
" style="fill:none;stroke:#000000;stroke-width:1.5;"/>
    <path clip-path="url(#pf48fce779c)" d="M 281.4393 121.017273 
L 281.4393 207.499091 
" style="fill:none;stroke:#000000;stroke-width:1.5;"/>
    <path clip-path="url(#pf48fce779c)" d="M 284.081875 121.017273 
L 284.081875 207.499091 
" style="fill:none;stroke:#000000;stroke-width:1.5;"/>
    <path clip-path="url(#pf48fce779c)" d="M 285.708075 121.017273 
L 285.708075 207.499091 
" style="fill:none;stroke:#000000;stroke-width:1.5;"/>
    <path clip-path="url(#pf48fce779c)" d="M 286.826087 121.017273 
L 286.826087 207.499091 
" style="fill:none;stroke:#000000;stroke-width:1.5;"/>
    <path clip-path="url(#pf48fce779c)" d="M 288.045737 121.017273 
L 288.045737 207.499091 
" style="fill:none;stroke:#000000;stroke-width:1.5;"/>
    <path clip-path="url(#pf48fce779c)" d="M 290.281762 121.017273 
L 290.281762 207.499091 
" style="fill:none;stroke:#000000;stroke-width:1.5;"/>
    <path clip-path="url(#pf48fce779c)" d="M 292.416149 121.017273 
L 292.416149 207.499091 
" style="fill:none;stroke:#000000;stroke-width:1.5;"/>
    <path clip-path="url(#pf48fce779c)" d="M 294.855449 121.017273 
L 294.855449 207.499091 
" style="fill:none;stroke:#000000;stroke-width:1.5;"/>
    <path clip-path="url(#pf48fce779c)" d="M 297.498024 121.017273 
L 297.498024 207.499091 
" style="fill:none;stroke:#000000;stroke-width:1.5;"/>
    <path clip-path="url(#pf48fce779c)" d="M 299.022586 121.017273 
L 299.022586 207.499091 
" style="fill:none;stroke:#000000;stroke-width:1.5;"/>
    <path clip-path="url(#pf48fce779c)" d="M 302.986448 121.017273 
L 302.986448 207.499091 
" style="fill:none;stroke:#000000;stroke-width:1.5;"/>
    <path clip-path="url(#pf48fce779c)" d="M 304.104461 121.017273 
L 304.104461 207.499091 
" style="fill:none;stroke:#000000;stroke-width:1.5;"/>
    <path clip-path="url(#pf48fce779c)" d="M 306.747036 121.017273 
L 306.747036 207.499091 
" style="fill:none;stroke:#000000;stroke-width:1.5;"/>
    <path clip-path="url(#pf48fce779c)" d="M 307.865048 121.017273 
L 307.865048 207.499091 
" style="fill:none;stroke:#000000;stroke-width:1.5;"/>
    <path clip-path="url(#pf48fce779c)" d="M 310.710898 121.017273 
L 310.710898 207.499091 
" style="fill:none;stroke:#000000;stroke-width:1.5;"/>
    <path clip-path="url(#pf48fce779c)" d="M 314.471485 121.017273 
L 314.471485 207.499091 
" style="fill:none;stroke:#000000;stroke-width:1.5;"/>
    <path clip-path="url(#pf48fce779c)" d="M 315.691135 121.017273 
L 315.691135 207.499091 
" style="fill:none;stroke:#000000;stroke-width:1.5;"/>
    <path clip-path="url(#pf48fce779c)" d="M 316.809147 121.017273 
L 316.809147 207.499091 
" style="fill:none;stroke:#000000;stroke-width:1.5;"/>
    <path clip-path="url(#pf48fce779c)" d="M 321.17956 121.017273 
L 321.17956 207.499091 
" style="fill:none;stroke:#000000;stroke-width:1.5;"/>
    <path clip-path="url(#pf48fce779c)" d="M 322.297572 121.017273 
L 322.297572 207.499091 
" style="fill:none;stroke:#000000;stroke-width:1.5;"/>
    <path clip-path="url(#pf48fce779c)" d="M 323.720497 121.017273 
L 323.720497 207.499091 
" style="fill:none;stroke:#000000;stroke-width:1.5;"/>
    <path clip-path="url(#pf48fce779c)" d="M 324.838509 121.017273 
L 324.838509 207.499091 
" style="fill:none;stroke:#000000;stroke-width:1.5;"/>
    <path clip-path="url(#pf48fce779c)" d="M 325.956522 121.017273 
L 325.956522 207.499091 
" style="fill:none;stroke:#000000;stroke-width:1.5;"/>
    <path clip-path="url(#pf48fce779c)" d="M 328.090909 121.017273 
L 328.090909 207.499091 
" style="fill:none;stroke:#000000;stroke-width:1.5;"/>
    <path clip-path="url(#pf48fce779c)" d="M 330.733484 121.017273 
L 330.733484 207.499091 
" style="fill:none;stroke:#000000;stroke-width:1.5;"/>
    <path clip-path="url(#pf48fce779c)" d="M 341.710333 121.017273 
L 341.710333 207.499091 
" style="fill:none;stroke:#000000;stroke-width:1.5;"/>
    <path clip-path="url(#pf48fce779c)" d="M 345.369283 121.017273 
L 345.369283 207.499091 
" style="fill:none;stroke:#000000;stroke-width:1.5;"/>
    <path clip-path="url(#pf48fce779c)" d="M 346.792208 121.017273 
L 346.792208 207.499091 
" style="fill:none;stroke:#000000;stroke-width:1.5;"/>
    <path clip-path="url(#pf48fce779c)" d="M 348.011858 121.017273 
L 348.011858 207.499091 
" style="fill:none;stroke:#000000;stroke-width:1.5;"/>
    <path clip-path="url(#pf48fce779c)" d="M 349.638058 121.017273 
L 349.638058 207.499091 
" style="fill:none;stroke:#000000;stroke-width:1.5;"/>
    <path clip-path="url(#pf48fce779c)" d="M 350.857708 121.017273 
L 350.857708 207.499091 
" style="fill:none;stroke:#000000;stroke-width:1.5;"/>
    <path clip-path="url(#pf48fce779c)" d="M 352.077357 121.017273 
L 352.077357 207.499091 
" style="fill:none;stroke:#000000;stroke-width:1.5;"/>
    <path clip-path="url(#pf48fce779c)" d="M 353.398645 121.017273 
L 353.398645 207.499091 
" style="fill:none;stroke:#000000;stroke-width:1.5;"/>
    <path clip-path="url(#pf48fce779c)" d="M 356.142857 121.017273 
L 356.142857 207.499091 
" style="fill:none;stroke:#000000;stroke-width:1.5;"/>
    <path clip-path="url(#pf48fce779c)" d="M 358.887069 121.017273 
L 358.887069 207.499091 
" style="fill:none;stroke:#000000;stroke-width:1.5;"/>
    <path clip-path="url(#pf48fce779c)" d="M 361.631282 121.017273 
L 361.631282 207.499091 
" style="fill:none;stroke:#000000;stroke-width:1.5;"/>
    <path clip-path="url(#pf48fce779c)" d="M 363.257482 121.017273 
L 363.257482 207.499091 
" style="fill:none;stroke:#000000;stroke-width:1.5;"/>
    <path clip-path="url(#pf48fce779c)" d="M 364.375494 121.017273 
L 364.375494 207.499091 
" style="fill:none;stroke:#000000;stroke-width:1.5;"/>
    <path clip-path="url(#pf48fce779c)" d="M 365.595144 121.017273 
L 365.595144 207.499091 
" style="fill:none;stroke:#000000;stroke-width:1.5;"/>
    <path clip-path="url(#pf48fce779c)" d="M 368.034444 121.017273 
L 368.034444 207.499091 
" style="fill:none;stroke:#000000;stroke-width:1.5;"/>
    <path clip-path="url(#pf48fce779c)" d="M 369.152456 121.017273 
L 369.152456 207.499091 
" style="fill:none;stroke:#000000;stroke-width:1.5;"/>
    <path clip-path="url(#pf48fce779c)" d="M 370.270469 121.017273 
L 370.270469 207.499091 
" style="fill:none;stroke:#000000;stroke-width:1.5;"/>
    <path clip-path="url(#pf48fce779c)" d="M 371.388481 121.017273 
L 371.388481 207.499091 
" style="fill:none;stroke:#000000;stroke-width:1.5;"/>
    <path clip-path="url(#pf48fce779c)" d="M 375.352343 121.017273 
L 375.352343 207.499091 
" style="fill:none;stroke:#000000;stroke-width:1.5;"/>
    <path clip-path="url(#pf48fce779c)" d="M 382.466968 121.017273 
L 382.466968 207.499091 
" style="fill:none;stroke:#000000;stroke-width:1.5;"/>
    <path clip-path="url(#pf48fce779c)" d="M 385.109543 121.017273 
L 385.109543 207.499091 
" style="fill:none;stroke:#000000;stroke-width:1.5;"/>
    <path clip-path="url(#pf48fce779c)" d="M 386.329193 121.017273 
L 386.329193 207.499091 
" style="fill:none;stroke:#000000;stroke-width:1.5;"/>
    <path clip-path="url(#pf48fce779c)" d="M 387.447205 121.017273 
L 387.447205 207.499091 
" style="fill:none;stroke:#000000;stroke-width:1.5;"/>
    <path clip-path="url(#pf48fce779c)" d="M 388.565217 121.017273 
L 388.565217 207.499091 
" style="fill:none;stroke:#000000;stroke-width:1.5;"/>
    <path clip-path="url(#pf48fce779c)" d="M 389.68323 121.017273 
L 389.68323 207.499091 
" style="fill:none;stroke:#000000;stroke-width:1.5;"/>
    <path clip-path="url(#pf48fce779c)" d="M 392.020892 121.017273 
L 392.020892 207.499091 
" style="fill:none;stroke:#000000;stroke-width:1.5;"/>
    <path clip-path="url(#pf48fce779c)" d="M 393.138905 121.017273 
L 393.138905 207.499091 
" style="fill:none;stroke:#000000;stroke-width:1.5;"/>
    <path clip-path="url(#pf48fce779c)" d="M 396.086392 121.017273 
L 396.086392 207.499091 
" style="fill:none;stroke:#000000;stroke-width:1.5;"/>
    <path clip-path="url(#pf48fce779c)" d="M 401.473179 121.017273 
L 401.473179 207.499091 
" style="fill:none;stroke:#000000;stroke-width:1.5;"/>
    <path clip-path="url(#pf48fce779c)" d="M 402.591191 121.017273 
L 402.591191 207.499091 
" style="fill:none;stroke:#000000;stroke-width:1.5;"/>
    <path clip-path="url(#pf48fce779c)" d="M 404.014116 121.017273 
L 404.014116 207.499091 
" style="fill:none;stroke:#000000;stroke-width:1.5;"/>
    <path clip-path="url(#pf48fce779c)" d="M 405.741954 121.017273 
L 405.741954 207.499091 
" style="fill:none;stroke:#000000;stroke-width:1.5;"/>
    <path clip-path="url(#pf48fce779c)" d="M 407.164879 121.017273 
L 407.164879 207.499091 
" style="fill:none;stroke:#000000;stroke-width:1.5;"/>
    <path clip-path="url(#pf48fce779c)" d="M 408.282891 121.017273 
L 408.282891 207.499091 
" style="fill:none;stroke:#000000;stroke-width:1.5;"/>
    <path clip-path="url(#pf48fce779c)" d="M 411.636928 121.017273 
L 411.636928 207.499091 
" style="fill:none;stroke:#000000;stroke-width:1.5;"/>
    <path clip-path="url(#pf48fce779c)" d="M 414.990966 121.017273 
L 414.990966 207.499091 
" style="fill:none;stroke:#000000;stroke-width:1.5;"/>
    <path clip-path="url(#pf48fce779c)" d="M 418.85319 121.017273 
L 418.85319 207.499091 
" style="fill:none;stroke:#000000;stroke-width:1.5;"/>
    <path clip-path="url(#pf48fce779c)" d="M 426.17109 121.017273 
L 426.17109 207.499091 
" style="fill:none;stroke:#000000;stroke-width:1.5;"/>
    <path clip-path="url(#pf48fce779c)" d="M 427.492377 121.017273 
L 427.492377 207.499091 
" style="fill:none;stroke:#000000;stroke-width:1.5;"/>
    <path clip-path="url(#pf48fce779c)" d="M 428.712027 121.017273 
L 428.712027 207.499091 
" style="fill:none;stroke:#000000;stroke-width:1.5;"/>
    <path clip-path="url(#pf48fce779c)" d="M 429.931677 121.017273 
L 429.931677 207.499091 
" style="fill:none;stroke:#000000;stroke-width:1.5;"/>
    <path clip-path="url(#pf48fce779c)" d="M 433.285714 121.017273 
L 433.285714 207.499091 
" style="fill:none;stroke:#000000;stroke-width:1.5;"/>
    <path clip-path="url(#pf48fce779c)" d="M 435.521739 121.017273 
L 435.521739 207.499091 
" style="fill:none;stroke:#000000;stroke-width:1.5;"/>
    <path clip-path="url(#pf48fce779c)" d="M 439.079051 121.017273 
L 439.079051 207.499091 
" style="fill:none;stroke:#000000;stroke-width:1.5;"/>
    <path clip-path="url(#pf48fce779c)" d="M 442.839639 121.017273 
L 442.839639 207.499091 
" style="fill:none;stroke:#000000;stroke-width:1.5;"/>
    <path clip-path="url(#pf48fce779c)" d="M 445.075663 121.017273 
L 445.075663 207.499091 
" style="fill:none;stroke:#000000;stroke-width:1.5;"/>
    <path clip-path="url(#pf48fce779c)" d="M 448.531338 121.017273 
L 448.531338 207.499091 
" style="fill:none;stroke:#000000;stroke-width:1.5;"/>
    <path clip-path="url(#pf48fce779c)" d="M 453.3083 121.017273 
L 453.3083 207.499091 
" style="fill:none;stroke:#000000;stroke-width:1.5;"/>
    <path clip-path="url(#pf48fce779c)" d="M 454.426313 121.017273 
L 454.426313 207.499091 
" style="fill:none;stroke:#000000;stroke-width:1.5;"/>
    <path clip-path="url(#pf48fce779c)" d="M 455.950875 121.017273 
L 455.950875 207.499091 
" style="fill:none;stroke:#000000;stroke-width:1.5;"/>
    <path clip-path="url(#pf48fce779c)" d="M 457.068888 121.017273 
L 457.068888 207.499091 
" style="fill:none;stroke:#000000;stroke-width:1.5;"/>
    <path clip-path="url(#pf48fce779c)" d="M 459.609825 121.017273 
L 459.609825 207.499091 
" style="fill:none;stroke:#000000;stroke-width:1.5;"/>
    <path clip-path="url(#pf48fce779c)" d="M 464.386787 121.017273 
L 464.386787 207.499091 
" style="fill:none;stroke:#000000;stroke-width:1.5;"/>
    <path clip-path="url(#pf48fce779c)" d="M 466.927724 121.017273 
L 466.927724 207.499091 
" style="fill:none;stroke:#000000;stroke-width:1.5;"/>
    <path clip-path="url(#pf48fce779c)" d="M 468.045737 121.017273 
L 468.045737 207.499091 
" style="fill:none;stroke:#000000;stroke-width:1.5;"/>
    <path clip-path="url(#pf48fce779c)" d="M 473.635799 121.017273 
L 473.635799 207.499091 
" style="fill:none;stroke:#000000;stroke-width:1.5;"/>
    <path clip-path="url(#pf48fce779c)" d="M 475.871824 121.017273 
L 475.871824 207.499091 
" style="fill:none;stroke:#000000;stroke-width:1.5;"/>
    <path clip-path="url(#pf48fce779c)" d="M 480.343874 121.017273 
L 480.343874 207.499091 
" style="fill:none;stroke:#000000;stroke-width:1.5;"/>
    <path clip-path="url(#pf48fce779c)" d="M 481.461886 121.017273 
L 481.461886 207.499091 
" style="fill:none;stroke:#000000;stroke-width:1.5;"/>
    <path clip-path="url(#pf48fce779c)" d="M 486.442123 121.017273 
L 486.442123 207.499091 
" style="fill:none;stroke:#000000;stroke-width:1.5;"/>
    <path clip-path="url(#pf48fce779c)" d="M 487.560136 121.017273 
L 487.560136 207.499091 
" style="fill:none;stroke:#000000;stroke-width:1.5;"/>
    <path clip-path="url(#pf48fce779c)" d="M 489.897798 121.017273 
L 489.897798 207.499091 
" style="fill:none;stroke:#000000;stroke-width:1.5;"/>
    <path clip-path="url(#pf48fce779c)" d="M 491.01581 121.017273 
L 491.01581 207.499091 
" style="fill:none;stroke:#000000;stroke-width:1.5;"/>
    <path clip-path="url(#pf48fce779c)" d="M 493.251835 121.017273 
L 493.251835 207.499091 
" style="fill:none;stroke:#000000;stroke-width:1.5;"/>
    <path clip-path="url(#pf48fce779c)" d="M 494.369848 121.017273 
L 494.369848 207.499091 
" style="fill:none;stroke:#000000;stroke-width:1.5;"/>
    <path clip-path="url(#pf48fce779c)" d="M 495.48786 121.017273 
L 495.48786 207.499091 
" style="fill:none;stroke:#000000;stroke-width:1.5;"/>
    <path clip-path="url(#pf48fce779c)" d="M 497.825522 121.017273 
L 497.825522 207.499091 
" style="fill:none;stroke:#000000;stroke-width:1.5;"/>
    <path clip-path="url(#pf48fce779c)" d="M 499.55336 121.017273 
L 499.55336 207.499091 
" style="fill:none;stroke:#000000;stroke-width:1.5;"/>
    <path clip-path="url(#pf48fce779c)" d="M 503.009034 121.017273 
L 503.009034 207.499091 
" style="fill:none;stroke:#000000;stroke-width:1.5;"/>
    <path clip-path="url(#pf48fce779c)" d="M 507.074534 121.017273 
L 507.074534 207.499091 
" style="fill:none;stroke:#000000;stroke-width:1.5;"/>
    <path clip-path="url(#pf48fce779c)" d="M 508.294184 121.017273 
L 508.294184 207.499091 
" style="fill:none;stroke:#000000;stroke-width:1.5;"/>
    <path clip-path="url(#pf48fce779c)" d="M 510.936759 121.017273 
L 510.936759 207.499091 
" style="fill:none;stroke:#000000;stroke-width:1.5;"/>
    <path clip-path="url(#pf48fce779c)" d="M 516.526821 121.017273 
L 516.526821 207.499091 
" style="fill:none;stroke:#000000;stroke-width:1.5;"/>
    <path clip-path="url(#pf48fce779c)" d="M 517.644833 121.017273 
L 517.644833 207.499091 
" style="fill:none;stroke:#000000;stroke-width:1.5;"/>
    <path clip-path="url(#pf48fce779c)" d="M 531.264257 121.017273 
L 531.264257 207.499091 
" style="fill:none;stroke:#000000;stroke-width:1.5;"/>
    <path clip-path="url(#pf48fce779c)" d="M 532.38227 121.017273 
L 532.38227 207.499091 
" style="fill:none;stroke:#000000;stroke-width:1.5;"/>
    <path clip-path="url(#pf48fce779c)" d="M 534.719932 121.017273 
L 534.719932 207.499091 
" style="fill:none;stroke:#000000;stroke-width:1.5;"/>
    <path clip-path="url(#pf48fce779c)" d="M 537.057595 121.017273 
L 537.057595 207.499091 
" style="fill:none;stroke:#000000;stroke-width:1.5;"/>
    <path clip-path="url(#pf48fce779c)" d="M 542.749294 121.017273 
L 542.749294 207.499091 
" style="fill:none;stroke:#000000;stroke-width:1.5;"/>
    <path clip-path="url(#pf48fce779c)" d="M 546.306606 121.017273 
L 546.306606 207.499091 
" style="fill:none;stroke:#000000;stroke-width:1.5;"/>
    <path clip-path="url(#pf48fce779c)" d="M 549.965556 121.017273 
L 549.965556 207.499091 
" style="fill:none;stroke:#000000;stroke-width:1.5;"/>
    <path clip-path="url(#pf48fce779c)" d="M 551.083569 121.017273 
L 551.083569 207.499091 
" style="fill:none;stroke:#000000;stroke-width:1.5;"/>
    <path clip-path="url(#pf48fce779c)" d="M 552.201581 121.017273 
L 552.201581 207.499091 
" style="fill:none;stroke:#000000;stroke-width:1.5;"/>
    <path clip-path="url(#pf48fce779c)" d="M 553.319593 121.017273 
L 553.319593 207.499091 
" style="fill:none;stroke:#000000;stroke-width:1.5;"/>
    <path clip-path="url(#pf48fce779c)" d="M 555.555618 121.017273 
L 555.555618 207.499091 
" style="fill:none;stroke:#000000;stroke-width:1.5;"/>
    <path clip-path="url(#pf48fce779c)" d="M 556.673631 121.017273 
L 556.673631 207.499091 
" style="fill:none;stroke:#000000;stroke-width:1.5;"/>
    <path clip-path="url(#pf48fce779c)" d="M 557.893281 121.017273 
L 557.893281 207.499091 
" style="fill:none;stroke:#000000;stroke-width:1.5;"/>
    <path clip-path="url(#pf48fce779c)" d="M 559.011293 121.017273 
L 559.011293 207.499091 
" style="fill:none;stroke:#000000;stroke-width:1.5;"/>
    <path clip-path="url(#pf48fce779c)" d="M 562.466968 121.017273 
L 562.466968 207.499091 
" style="fill:none;stroke:#000000;stroke-width:1.5;"/>
    <path clip-path="url(#pf48fce779c)" d="M 567.142292 121.017273 
L 567.142292 207.499091 
" style="fill:none;stroke:#000000;stroke-width:1.5;"/>
    <path clip-path="url(#pf48fce779c)" d="M 568.260305 121.017273 
L 568.260305 207.499091 
" style="fill:none;stroke:#000000;stroke-width:1.5;"/>
    <path clip-path="url(#pf48fce779c)" d="M 570.801242 121.017273 
L 570.801242 207.499091 
" style="fill:none;stroke:#000000;stroke-width:1.5;"/>
    <path clip-path="url(#pf48fce779c)" d="M 573.037267 121.017273 
L 573.037267 207.499091 
" style="fill:none;stroke:#000000;stroke-width:1.5;"/>
    <path clip-path="url(#pf48fce779c)" d="M 574.460192 121.017273 
L 574.460192 207.499091 
" style="fill:none;stroke:#000000;stroke-width:1.5;"/>
    <path clip-path="url(#pf48fce779c)" d="M 576.696217 121.017273 
L 576.696217 207.499091 
" style="fill:none;stroke:#000000;stroke-width:1.5;"/>
    <path clip-path="url(#pf48fce779c)" d="M 580.253529 121.017273 
L 580.253529 207.499091 
" style="fill:none;stroke:#000000;stroke-width:1.5;"/>
    <path clip-path="url(#pf48fce779c)" d="M 581.371542 121.017273 
L 581.371542 207.499091 
" style="fill:none;stroke:#000000;stroke-width:1.5;"/>
    <path clip-path="url(#pf48fce779c)" d="M 582.591191 121.017273 
L 582.591191 207.499091 
" style="fill:none;stroke:#000000;stroke-width:1.5;"/>
    <path clip-path="url(#pf48fce779c)" d="M 583.709204 121.017273 
L 583.709204 207.499091 
" style="fill:none;stroke:#000000;stroke-width:1.5;"/>
    <path clip-path="url(#pf48fce779c)" d="M 584.827216 121.017273 
L 584.827216 207.499091 
" style="fill:none;stroke:#000000;stroke-width:1.5;"/>
    <path clip-path="url(#pf48fce779c)" d="M 585.945229 121.017273 
L 585.945229 207.499091 
" style="fill:none;stroke:#000000;stroke-width:1.5;"/>
    <path clip-path="url(#pf48fce779c)" d="M 588.282891 121.017273 
L 588.282891 207.499091 
" style="fill:none;stroke:#000000;stroke-width:1.5;"/>
    <path clip-path="url(#pf48fce779c)" d="M 590.620553 121.017273 
L 590.620553 207.499091 
" style="fill:none;stroke:#000000;stroke-width:1.5;"/>
    <path clip-path="url(#pf48fce779c)" d="M 595.092603 121.017273 
L 595.092603 207.499091 
" style="fill:none;stroke:#000000;stroke-width:1.5;"/>
    <path clip-path="url(#pf48fce779c)" d="M 596.210615 121.017273 
L 596.210615 207.499091 
" style="fill:none;stroke:#000000;stroke-width:1.5;"/>
    <path clip-path="url(#pf48fce779c)" d="M 598.548278 121.017273 
L 598.548278 207.499091 
" style="fill:none;stroke:#000000;stroke-width:1.5;"/>
    <path clip-path="url(#pf48fce779c)" d="M 600.88594 121.017273 
L 600.88594 207.499091 
" style="fill:none;stroke:#000000;stroke-width:1.5;"/>
    <path clip-path="url(#pf48fce779c)" d="M 615.826652 121.017273 
L 615.826652 207.499091 
" style="fill:none;stroke:#000000;stroke-width:1.5;"/>
    <path clip-path="url(#pf48fce779c)" d="M 620.400339 121.017273 
L 620.400339 207.499091 
" style="fill:none;stroke:#000000;stroke-width:1.5;"/>
    <path clip-path="url(#pf48fce779c)" d="M 621.518351 121.017273 
L 621.518351 207.499091 
" style="fill:none;stroke:#000000;stroke-width:1.5;"/>
    <path clip-path="url(#pf48fce779c)" d="M 622.636364 121.017273 
L 622.636364 207.499091 
" style="fill:none;stroke:#000000;stroke-width:1.5;"/>
   </g>
   <g id="patch_3">
    <path d="M 90 441 
L 90 60.48 
" style="fill:none;stroke:#000000;stroke-linecap:square;stroke-linejoin:miter;stroke-width:0.8;"/>
   </g>
   <g id="patch_4">
    <path d="M 648 441 
L 648 60.48 
" style="fill:none;stroke:#000000;stroke-linecap:square;stroke-linejoin:miter;stroke-width:0.8;"/>
   </g>
   <g id="patch_5">
    <path d="M 90 441 
L 648 441 
" style="fill:none;stroke:#000000;stroke-linecap:square;stroke-linejoin:miter;stroke-width:0.8;"/>
   </g>
   <g id="patch_6">
    <path d="M 90 60.48 
L 648 60.48 
" style="fill:none;stroke:#000000;stroke-linecap:square;stroke-linejoin:miter;stroke-width:0.8;"/>
   </g>
   <g id="text_11">
    <!-- Spike raster plot -->
    <g transform="translate(319.673437 54.48)scale(0.12 -0.12)">
     <defs>
      <path d="M 9.421875 75.984375 
L 18.40625 75.984375 
L 18.40625 0 
L 9.421875 0 
z
" id="DejaVuSans-108"/>
     </defs>
     <use xlink:href="#DejaVuSans-83"/>
     <use x="63.476562" xlink:href="#DejaVuSans-112"/>
     <use x="126.953125" xlink:href="#DejaVuSans-105"/>
     <use x="154.736328" xlink:href="#DejaVuSans-107"/>
     <use x="209.021484" xlink:href="#DejaVuSans-101"/>
     <use x="270.544922" xlink:href="#DejaVuSans-32"/>
     <use x="302.332031" xlink:href="#DejaVuSans-114"/>
     <use x="343.445312" xlink:href="#DejaVuSans-97"/>
     <use x="404.724609" xlink:href="#DejaVuSans-115"/>
     <use x="456.824219" xlink:href="#DejaVuSans-116"/>
     <use x="496.033203" xlink:href="#DejaVuSans-101"/>
     <use x="557.556641" xlink:href="#DejaVuSans-114"/>
     <use x="598.669922" xlink:href="#DejaVuSans-32"/>
     <use x="630.457031" xlink:href="#DejaVuSans-112"/>
     <use x="693.933594" xlink:href="#DejaVuSans-108"/>
     <use x="721.716797" xlink:href="#DejaVuSans-111"/>
     <use x="782.898438" xlink:href="#DejaVuSans-116"/>
    </g>
   </g>
  </g>
 </g>
 <defs>
  <clipPath id="pf48fce779c">
   <rect height="380.52" width="558" x="90" y="60.48"/>
  </clipPath>
 </defs>
</svg>
