<?xml version="1.0" encoding="utf-8" standalone="no"?>
<!DOCTYPE svg PUBLIC "-//W3C//DTD SVG 1.1//EN"
  "http://www.w3.org/Graphics/SVG/1.1/DTD/svg11.dtd">
<svg xmlns:xlink="http://www.w3.org/1999/xlink" width="720pt" height="504pt" viewBox="0 0 720 504" xmlns="http://www.w3.org/2000/svg" version="1.1">
 <metadata>
  <rdf:RDF xmlns:dc="http://purl.org/dc/elements/1.1/" xmlns:cc="http://creativecommons.org/ns#" xmlns:rdf="http://www.w3.org/1999/02/22-rdf-syntax-ns#">
   <cc:Work>
    <dc:type rdf:resource="http://purl.org/dc/dcmitype/StillImage"/>
    <dc:date>2022-06-25T10:17:14.658936</dc:date>
    <dc:format>image/svg+xml</dc:format>
    <dc:creator>
     <cc:Agent>
      <dc:title>Matplotlib v3.5.1, https://matplotlib.org/</dc:title>
     </cc:Agent>
    </dc:creator>
   </cc:Work>
  </rdf:RDF>
 </metadata>
 <defs>
  <style type="text/css">*{stroke-linejoin: round; stroke-linecap: butt}</style>
 </defs>
 <g id="figure_1">
  <g id="patch_1">
   <path d="M 0 504 
L 720 504 
L 720 0 
L 0 0 
L 0 504 
z
" style="fill: none"/>
  </g>
  <g id="axes_1">
   <g id="patch_2">
    <path d="M 90 172.397647 
L 648 172.397647 
L 648 60.48 
L 90 60.48 
z
" style="fill: #ffffff"/>
   </g>
   <g id="matplotlib.axis_1">
    <g id="xtick_1">
     <g id="line2d_1">
      <defs>
       <path id="meefd38740e" d="M 0 0 
L 0 3.5 
" style="stroke: #000000; stroke-width: 0.8"/>
      </defs>
      <g>
       <use xlink:href="#meefd38740e" x="115.363636" y="172.397647" style="stroke: #000000; stroke-width: 0.8"/>
      </g>
     </g>
    </g>
    <g id="xtick_2">
     <g id="line2d_2">
      <g>
       <use xlink:href="#meefd38740e" x="183" y="172.397647" style="stroke: #000000; stroke-width: 0.8"/>
      </g>
     </g>
    </g>
    <g id="xtick_3">
     <g id="line2d_3">
      <g>
       <use xlink:href="#meefd38740e" x="250.636364" y="172.397647" style="stroke: #000000; stroke-width: 0.8"/>
      </g>
     </g>
    </g>
    <g id="xtick_4">
     <g id="line2d_4">
      <g>
       <use xlink:href="#meefd38740e" x="318.272727" y="172.397647" style="stroke: #000000; stroke-width: 0.8"/>
      </g>
     </g>
    </g>
    <g id="xtick_5">
     <g id="line2d_5">
      <g>
       <use xlink:href="#meefd38740e" x="385.909091" y="172.397647" style="stroke: #000000; stroke-width: 0.8"/>
      </g>
     </g>
    </g>
    <g id="xtick_6">
     <g id="line2d_6">
      <g>
       <use xlink:href="#meefd38740e" x="453.545455" y="172.397647" style="stroke: #000000; stroke-width: 0.8"/>
      </g>
     </g>
    </g>
    <g id="xtick_7">
     <g id="line2d_7">
      <g>
       <use xlink:href="#meefd38740e" x="521.181818" y="172.397647" style="stroke: #000000; stroke-width: 0.8"/>
      </g>
     </g>
    </g>
    <g id="xtick_8">
     <g id="line2d_8">
      <g>
       <use xlink:href="#meefd38740e" x="588.818182" y="172.397647" style="stroke: #000000; stroke-width: 0.8"/>
      </g>
     </g>
    </g>
   </g>
   <g id="matplotlib.axis_2">
    <g id="ytick_1">
     <g id="line2d_9">
      <defs>
       <path id="m1f53e9c9ac" d="M 0 0 
L -3.5 0 
" style="stroke: #000000; stroke-width: 0.8"/>
      </defs>
      <g>
       <use xlink:href="#m1f53e9c9ac" x="90" y="164.770613" style="stroke: #000000; stroke-width: 0.8"/>
      </g>
     </g>
     <g id="text_1">
      <!-- −10 -->
      <g transform="translate(66.940625 168.408113)scale(0.1 -0.1)">
       <defs>
        <path id="Palatino-Roman-2212" d="M 234 2063 
L 3653 2063 
L 3650 1716 
L 231 1716 
L 234 2063 
z
" transform="scale(0.015625)"/>
        <path id="Palatino-Roman-31" d="M 478 3559 
L 422 3575 
L 391 3831 
L 422 3863 
Q 756 3959 1150 4128 
Q 1731 4375 1897 4459 
L 1978 4428 
Q 1928 2997 1928 2784 
L 1928 1625 
Q 1928 931 1944 575 
Q 1953 366 1995 311 
Q 2038 256 2120 232 
Q 2203 209 2663 191 
L 2663 0 
Q 1872 25 1672 25 
Q 1522 25 613 0 
L 613 191 
Q 1088 219 1161 236 
Q 1234 253 1270 287 
Q 1306 322 1322 384 
Q 1347 481 1365 942 
Q 1384 1403 1384 1641 
L 1384 2872 
Q 1384 3625 1381 3816 
Q 1381 3900 1359 3922 
Q 1347 3934 1325 3934 
Q 1297 3934 1181 3884 
Q 650 3647 478 3559 
z
" transform="scale(0.015625)"/>
        <path id="Palatino-Roman-30" d="M 194 1934 
Q 194 2825 322 3309 
Q 450 3794 787 4109 
Q 1125 4425 1644 4425 
Q 1906 4425 2129 4336 
Q 2353 4247 2495 4111 
Q 2638 3975 2736 3776 
Q 2834 3578 2875 3378 
Q 2969 2922 2969 2384 
Q 2969 1684 2859 1184 
Q 2797 900 2681 664 
Q 2566 428 2406 262 
Q 2247 97 2022 -1 
Q 1797 -100 1516 -100 
Q 1175 -100 931 44 
Q 688 188 544 413 
Q 344 734 269 1148 
Q 194 1563 194 1934 
z
M 731 2116 
Q 731 1666 790 1233 
Q 850 800 978 531 
Q 1066 350 1234 234 
Q 1403 119 1613 119 
Q 1969 119 2159 416 
Q 2434 841 2434 2106 
Q 2434 2650 2376 3083 
Q 2319 3516 2184 3794 
Q 2097 3972 1939 4086 
Q 1781 4200 1559 4200 
Q 1316 4200 1123 4044 
Q 931 3888 831 3477 
Q 731 3066 731 2116 
z
" transform="scale(0.015625)"/>
       </defs>
       <use xlink:href="#Palatino-Roman-2212"/>
       <use xlink:href="#Palatino-Roman-31" x="60.595703"/>
       <use xlink:href="#Palatino-Roman-30" x="110.595703"/>
      </g>
     </g>
    </g>
    <g id="ytick_2">
     <g id="line2d_10">
      <g>
       <use xlink:href="#m1f53e9c9ac" x="90" y="133.608163" style="stroke: #000000; stroke-width: 0.8"/>
      </g>
     </g>
     <g id="text_2">
      <!-- −5 -->
      <g transform="translate(71.940625 137.245663)scale(0.1 -0.1)">
       <defs>
        <path id="Palatino-Roman-35" d="M 413 69 
Q 341 281 297 394 
L 91 903 
L 244 994 
Q 525 481 590 420 
Q 656 359 884 278 
Q 1113 197 1350 197 
Q 1663 197 1898 328 
Q 2134 459 2264 720 
Q 2394 981 2394 1350 
Q 2394 1894 2098 2156 
Q 1803 2419 1400 2419 
Q 1163 2419 969 2328 
Q 822 2256 619 2034 
L 491 2072 
L 528 2844 
Q 534 3019 534 3128 
L 534 3684 
Q 534 3934 519 4184 
Q 513 4281 509 4341 
L 550 4372 
Q 1059 4334 1619 4334 
Q 2094 4334 2756 4372 
L 2772 4341 
Q 2750 4181 2750 4053 
Q 2750 3991 2756 3838 
L 2725 3819 
Q 2291 3847 1425 3847 
Q 1106 3847 822 3838 
Q 775 3406 759 2538 
Q 1009 2719 1209 2789 
Q 1409 2859 1653 2859 
Q 2016 2859 2317 2704 
Q 2619 2550 2781 2259 
Q 2944 1969 2944 1622 
Q 2944 1081 2575 616 
Q 2019 -91 1081 -91 
Q 875 -91 729 -55 
Q 584 -19 413 69 
z
" transform="scale(0.015625)"/>
       </defs>
       <use xlink:href="#Palatino-Roman-2212"/>
       <use xlink:href="#Palatino-Roman-35" x="60.595703"/>
      </g>
     </g>
    </g>
    <g id="ytick_3">
     <g id="line2d_11">
      <g>
       <use xlink:href="#m1f53e9c9ac" x="90" y="102.445714" style="stroke: #000000; stroke-width: 0.8"/>
      </g>
     </g>
     <g id="text_3">
      <!-- 0 -->
      <g transform="translate(78 106.083214)scale(0.1 -0.1)">
       <use xlink:href="#Palatino-Roman-30"/>
      </g>
     </g>
    </g>
    <g id="ytick_4">
     <g id="line2d_12">
      <g>
       <use xlink:href="#m1f53e9c9ac" x="90" y="71.283264" style="stroke: #000000; stroke-width: 0.8"/>
      </g>
     </g>
     <g id="text_4">
      <!-- 5 -->
      <g transform="translate(78 74.920764)scale(0.1 -0.1)">
       <use xlink:href="#Palatino-Roman-35"/>
      </g>
     </g>
    </g>
    <g id="text_5">
     <!-- Voltage [μV] -->
     <g transform="translate(59.618125 150.006011)rotate(-90)scale(0.12 -0.12)">
      <defs>
       <path id="Palatino-Roman-56" d="M 2150 -31 
Q 2056 241 1759 1019 
L 697 3647 
Q 528 4066 488 4131 
Q 459 4172 409 4191 
Q 341 4222 66 4241 
L 66 4441 
Q 631 4416 900 4416 
Q 1153 4416 1759 4441 
L 1759 4219 
Q 1378 4213 1317 4203 
Q 1256 4194 1232 4167 
Q 1209 4141 1209 4106 
Q 1209 4072 1253 3944 
Q 1388 3528 1488 3275 
L 2466 806 
L 3281 2853 
Q 3459 3294 3622 3813 
Q 3691 4034 3691 4088 
Q 3691 4163 3609 4188 
Q 3547 4209 3128 4241 
L 3128 4441 
Q 3600 4422 3838 4422 
Q 4081 4422 4509 4441 
L 4509 4241 
Q 4272 4231 4225 4209 
Q 4178 4188 4138 4122 
Q 4109 4075 3906 3616 
L 2931 1216 
L 2691 600 
Q 2616 416 2569 281 
Q 2522 147 2466 -31 
L 2150 -31 
z
" transform="scale(0.015625)"/>
       <path id="Palatino-Roman-6f" d="M 213 1438 
Q 213 2138 658 2580 
Q 1103 3022 1800 3022 
Q 2456 3022 2868 2609 
Q 3281 2197 3281 1544 
Q 3281 1088 3068 709 
Q 2856 331 2468 117 
Q 2081 -97 1616 -97 
Q 1253 -97 1001 25 
Q 750 147 594 331 
Q 438 516 356 709 
Q 213 1050 213 1438 
z
M 803 1669 
Q 803 1284 931 887 
Q 1059 491 1301 308 
Q 1544 125 1828 125 
Q 2191 125 2434 412 
Q 2678 700 2678 1297 
Q 2678 1794 2533 2155 
Q 2388 2516 2163 2664 
Q 1938 2813 1666 2813 
Q 1281 2813 1042 2534 
Q 803 2256 803 1669 
z
" transform="scale(0.015625)"/>
       <path id="Palatino-Roman-6c" d="M 159 0 
L 159 178 
L 453 181 
Q 522 184 558 204 
Q 594 225 613 256 
Q 647 319 653 478 
Q 656 519 675 1375 
L 675 2672 
Q 675 3194 656 3750 
Q 644 4125 622 4169 
Q 606 4200 572 4213 
Q 525 4234 141 4234 
L 141 4419 
Q 847 4506 1122 4638 
Q 1163 4656 1184 4656 
Q 1206 4656 1218 4642 
Q 1231 4628 1231 4603 
Q 1231 4581 1225 4541 
L 1222 4438 
Q 1206 3878 1203 3484 
L 1197 2997 
L 1197 1375 
Q 1213 563 1216 497 
Q 1219 341 1253 269 
Q 1266 241 1291 220 
Q 1316 200 1366 188 
Q 1388 184 1713 178 
L 1713 0 
Q 1288 25 966 25 
Q 659 25 159 0 
z
" transform="scale(0.015625)"/>
       <path id="Palatino-Roman-74" d="M 144 2450 
L 144 2581 
Q 456 2700 641 2794 
Q 641 3538 622 3744 
Q 947 3856 1150 3984 
L 1225 3922 
Q 1191 3663 1150 2778 
Q 1400 2775 1450 2775 
Q 1478 2775 1772 2781 
Q 1934 2784 2016 2794 
L 2038 2772 
L 1972 2481 
Q 1775 2484 1609 2484 
Q 1444 2484 1150 2481 
L 1131 1209 
Q 1122 744 1137 653 
Q 1153 563 1197 495 
Q 1241 428 1311 387 
Q 1381 347 1550 325 
Q 1678 325 1758 336 
Q 1838 347 1959 391 
L 1997 269 
Q 1850 153 1713 28 
Q 1594 -16 1491 -30 
Q 1388 -44 1253 -44 
Q 1088 -44 989 -6 
Q 891 31 809 98 
Q 728 166 675 269 
Q 622 372 606 594 
Q 609 806 619 1059 
Q 622 1109 622 1169 
L 622 2466 
L 494 2466 
Q 338 2466 144 2450 
z
" transform="scale(0.015625)"/>
       <path id="Palatino-Roman-61" d="M 678 2141 
L 513 2184 
Q 516 2256 516 2381 
Q 516 2513 513 2591 
Q 909 2850 1163 2941 
Q 1356 3006 1597 3006 
Q 1953 3006 2197 2872 
Q 2441 2738 2559 2488 
Q 2641 2313 2641 2009 
L 2628 1438 
L 2628 506 
Q 2628 356 2653 291 
Q 2672 244 2713 222 
Q 2744 203 2844 197 
L 3047 178 
L 3047 0 
Q 2791 22 2597 22 
Q 2409 22 2097 0 
L 2113 550 
Q 1475 69 1356 8 
Q 1238 -53 1056 -53 
Q 678 -53 467 148 
Q 256 350 256 684 
Q 256 900 329 1078 
Q 403 1256 506 1361 
Q 609 1466 716 1516 
Q 897 1600 1305 1697 
Q 1713 1794 2113 1841 
Q 2116 2138 2041 2303 
Q 1966 2469 1787 2575 
Q 1609 2681 1353 2681 
Q 1169 2681 1030 2631 
Q 891 2581 859 2547 
L 803 2434 
Q 719 2247 678 2141 
z
M 2113 1650 
Q 1706 1581 1418 1497 
Q 1131 1413 1013 1322 
Q 941 1269 888 1163 
Q 806 1006 806 816 
Q 806 584 934 454 
Q 1063 325 1291 325 
Q 1500 325 1704 445 
Q 1909 566 2113 806 
L 2113 1650 
z
" transform="scale(0.015625)"/>
       <path id="Palatino-Roman-67" d="M 3463 2766 
L 3488 2706 
Q 3366 2522 3328 2453 
L 2747 2453 
Q 2819 2269 2819 2106 
Q 2819 1869 2695 1642 
Q 2572 1416 2334 1255 
Q 2097 1094 1828 1038 
Q 1653 1000 1356 1006 
Q 1153 844 1100 763 
Q 1066 706 1066 641 
Q 1066 566 1111 508 
Q 1156 450 1250 428 
Q 1391 391 1750 391 
L 2425 403 
Q 2778 403 2961 311 
Q 3144 219 3231 30 
Q 3319 -159 3319 -397 
Q 3319 -719 3108 -1051 
Q 2897 -1384 2481 -1576 
Q 2066 -1769 1550 -1769 
Q 1119 -1769 816 -1634 
Q 513 -1500 367 -1275 
Q 222 -1050 222 -803 
Q 222 -666 264 -545 
Q 306 -425 406 -288 
Q 788 -113 953 19 
Q 694 103 620 178 
Q 547 253 547 328 
Q 547 391 641 666 
Q 794 794 1122 1028 
Q 841 1106 689 1211 
Q 538 1316 453 1495 
Q 369 1675 369 1891 
Q 369 2209 531 2461 
Q 694 2713 1078 2870 
Q 1463 3028 1791 3028 
Q 2003 3028 2195 2959 
Q 2388 2891 2559 2753 
Q 3147 2756 3463 2766 
z
M 906 2063 
Q 906 1841 989 1631 
Q 1072 1422 1233 1315 
Q 1394 1209 1600 1209 
Q 1869 1209 2075 1382 
Q 2281 1556 2281 1941 
Q 2281 2334 2075 2567 
Q 1869 2800 1578 2800 
Q 1275 2800 1090 2608 
Q 906 2416 906 2063 
z
M 1822 -34 
Q 1356 -34 1238 -47 
Q 1178 -56 1103 -109 
Q 856 -284 841 -303 
Q 809 -334 772 -431 
Q 706 -606 706 -784 
Q 706 -1113 961 -1339 
Q 1216 -1566 1663 -1566 
Q 1994 -1566 2267 -1433 
Q 2541 -1300 2680 -1070 
Q 2819 -841 2819 -609 
Q 2809 -409 2757 -306 
Q 2706 -203 2632 -143 
Q 2559 -84 2431 -47 
Q 2356 -38 1822 -34 
z
" transform="scale(0.015625)"/>
       <path id="Palatino-Roman-65" d="M 2763 484 
L 2663 259 
Q 2447 125 2347 81 
Q 2200 16 2011 -29 
Q 1822 -75 1613 -75 
Q 1200 -75 865 97 
Q 531 269 345 611 
Q 159 953 159 1413 
Q 159 1772 257 2061 
Q 356 2350 481 2488 
Q 572 2588 762 2717 
Q 953 2847 1141 2922 
Q 1388 3025 1675 3025 
Q 2025 3025 2308 2865 
Q 2591 2706 2722 2431 
Q 2853 2156 2853 1809 
Q 2853 1722 2841 1597 
Q 2616 1553 2438 1541 
Q 2100 1516 1763 1516 
L 759 1516 
Q 766 1069 914 792 
Q 1063 516 1323 384 
Q 1584 253 1866 253 
Q 2056 253 2245 314 
Q 2434 375 2713 538 
L 2763 484 
z
M 759 1763 
Q 847 1753 1091 1744 
Q 1556 1728 1731 1728 
Q 2147 1728 2278 1744 
Q 2281 1819 2281 1859 
Q 2281 2353 2081 2584 
Q 1881 2816 1547 2816 
Q 1194 2816 978 2562 
Q 763 2309 759 1763 
z
" transform="scale(0.015625)"/>
       <path id="Palatino-Roman-20" transform="scale(0.015625)"/>
       <path id="Palatino-Roman-5b" d="M 1831 -931 
L 1831 -1094 
L 1803 -1094 
Q 1366 -1109 1169 -1109 
Q 953 -1109 559 -1125 
L 522 -1094 
Q 547 -672 553 -262 
Q 559 147 559 1875 
Q 559 3584 550 4219 
Q 547 4447 522 4800 
L 559 4847 
Q 956 4831 1166 4831 
Q 1356 4831 1803 4847 
L 1831 4825 
L 1831 4647 
L 1816 4625 
L 1313 4588 
Q 1225 4578 1188 4553 
Q 1163 4534 1144 4503 
Q 1113 4441 1095 4175 
Q 1078 3909 1075 2841 
Q 1069 1688 1069 1191 
Q 1069 819 1078 278 
Q 1084 -403 1095 -525 
Q 1106 -647 1119 -750 
Q 1150 -816 1175 -834 
Q 1216 -866 1300 -881 
Q 1338 -888 1803 -900 
L 1831 -931 
z
" transform="scale(0.015625)"/>
       <path id="Palatino-Roman-3bc" d="M 4022 306 
L 3997 163 
Q 3609 -56 3306 -56 
Q 3134 -56 3036 20 
Q 2938 97 2902 220 
Q 2866 344 2859 594 
L 2813 622 
Q 2556 266 2282 91 
Q 2009 -84 1659 -84 
Q 1203 -84 984 203 
L 922 191 
Q 941 -1044 1081 -1666 
L 1034 -1734 
Q 859 -1763 650 -1772 
L 594 -1728 
Q 625 -419 653 888 
Q 653 2288 584 2922 
L 1128 2978 
L 1194 2916 
Q 1147 2484 1147 1884 
Q 1147 834 1339 553 
Q 1531 272 1900 272 
Q 2194 272 2419 431 
Q 2644 591 2750 862 
Q 2856 1134 2856 1647 
Q 2856 2419 2831 2922 
L 3363 2978 
L 3428 2916 
Q 3406 2709 3379 2162 
Q 3353 1616 3353 1353 
Q 3353 888 3376 666 
Q 3400 444 3490 339 
Q 3581 234 3741 234 
Q 3866 234 4022 306 
z
" transform="scale(0.015625)"/>
       <path id="Palatino-Roman-5d" d="M 266 -1094 
L 266 -931 
L 294 -900 
Q 756 -888 788 -881 
Q 881 -869 928 -831 
Q 956 -806 972 -753 
Q 1009 -628 1018 -193 
Q 1028 241 1028 1016 
Q 1028 1813 1022 3269 
Q 1019 3928 1000 4187 
Q 981 4447 950 4506 
Q 934 4534 906 4553 
Q 869 4578 778 4591 
L 281 4625 
L 266 4647 
L 266 4825 
L 294 4847 
Q 741 4831 934 4831 
Q 1141 4831 1538 4847 
L 1575 4800 
Q 1550 4450 1547 4225 
Q 1538 3731 1538 2047 
Q 1534 397 1541 -34 
Q 1547 -625 1575 -1094 
L 1538 -1125 
Q 1144 -1109 925 -1109 
Q 731 -1109 294 -1125 
L 266 -1094 
z
" transform="scale(0.015625)"/>
      </defs>
      <use xlink:href="#Palatino-Roman-56"/>
      <use xlink:href="#Palatino-Roman-6f" x="61.091797"/>
      <use xlink:href="#Palatino-Roman-6c" x="115.681641"/>
      <use xlink:href="#Palatino-Roman-74" x="144.783203"/>
      <use xlink:href="#Palatino-Roman-61" x="177.400391"/>
      <use xlink:href="#Palatino-Roman-67" x="227.400391"/>
      <use xlink:href="#Palatino-Roman-65" x="283.015625"/>
      <use xlink:href="#Palatino-Roman-20" x="330.916016"/>
      <use xlink:href="#Palatino-Roman-5b" x="355.916016"/>
      <use xlink:href="#Palatino-Roman-3bc" x="389.216797"/>
      <use xlink:href="#Palatino-Roman-56" x="453.914062"/>
      <use xlink:href="#Palatino-Roman-5d" x="526.130859"/>
     </g>
    </g>
   </g>
   <g id="line2d_13">
    <path d="M 115.363636 121.273508 
L 117.060201 120.216453 
L 118.756765 118.852281 
L 120.453329 120.586758 
L 122.149894 116.444591 
L 123.846458 109.381473 
L 125.543022 108.78127 
L 127.239587 112.136977 
L 128.936151 121.666168 
L 130.632715 136.173345 
L 132.329279 126.001522 
L 134.025844 111.308119 
L 135.722408 94.659139 
L 137.418972 85.500566 
L 139.115537 85.974403 
L 140.812101 89.679904 
L 142.508665 98.550704 
L 144.20523 93.094682 
L 145.901794 88.246264 
L 147.598358 88.947885 
L 149.294922 90.084513 
L 150.991487 91.600196 
L 152.688051 88.910324 
L 154.384615 83.375491 
L 156.08118 87.526587 
L 157.777744 98.997972 
L 159.474308 93.329627 
L 161.170873 88.409309 
L 164.564001 122.621373 
L 169.653694 160.581011 
L 171.350258 167.310481 
L 173.046823 133.160596 
L 174.743387 126.876238 
L 176.439951 104.413228 
L 178.136516 105.319635 
L 179.83308 91.552541 
L 181.529644 80.769852 
L 183.226209 78.21234 
L 186.619337 110.276567 
L 188.315901 130.576277 
L 190.012466 134.979568 
L 191.70903 134.382114 
L 193.405594 128.376537 
L 195.102159 119.088725 
L 196.798723 123.041017 
L 198.495287 118.492216 
L 201.888416 112.143438 
L 203.58498 114.749379 
L 205.281545 116.482185 
L 206.978109 123.688062 
L 208.674673 134.561987 
L 210.371237 142.217478 
L 212.067802 138.108106 
L 213.764366 126.55973 
L 215.46093 111.090899 
L 217.157495 106.971656 
L 218.854059 110.456615 
L 220.550623 106.291109 
L 222.247188 107.235085 
L 223.943752 102.534734 
L 225.640316 95.526864 
L 227.336881 83.136485 
L 229.033445 79.137182 
L 230.730009 82.47195 
L 232.426573 82.926343 
L 234.123138 83.032614 
L 235.819702 84.158596 
L 237.516266 88.017788 
L 239.212831 86.245605 
L 240.909395 85.923732 
L 242.605959 87.243379 
L 244.302524 86.411837 
L 245.999088 84.280696 
L 247.695652 76.493353 
L 249.392216 65.567166 
L 251.088781 70.992008 
L 252.785345 83.986613 
L 254.481909 100.266604 
L 256.178474 111.418199 
L 257.875038 101.877244 
L 259.571602 98.39469 
L 261.268167 104.561143 
L 262.964731 107.947654 
L 264.661295 104.440863 
L 266.35786 91.207343 
L 268.054424 87.788848 
L 269.750988 90.757709 
L 271.447552 94.338562 
L 273.144117 84.652602 
L 274.840681 86.549405 
L 276.537245 95.077496 
L 278.23381 95.634728 
L 279.930374 91.36639 
L 281.626938 84.343648 
L 283.323503 79.092414 
L 285.020067 78.989265 
L 286.716631 82.083642 
L 288.413196 86.090861 
L 290.10976 94.08192 
L 291.806324 104.101684 
L 295.199453 132.117882 
L 296.896017 131.143305 
L 298.592581 122.628865 
L 300.289146 116.755407 
L 301.98571 107.16584 
L 303.682274 109.793975 
L 305.378839 103.819753 
L 307.075403 96.141766 
L 308.771967 94.905768 
L 312.165096 84.53051 
L 313.86166 102.117031 
L 315.558224 100.57398 
L 317.254789 105.761383 
L 318.951353 94.438778 
L 320.647917 97.28015 
L 322.344482 105.431741 
L 324.041046 111.211723 
L 325.73761 116.168677 
L 327.434175 111.361814 
L 329.130739 108.890487 
L 330.827303 111.092669 
L 332.523867 114.37723 
L 334.220432 110.641031 
L 335.916996 111.084571 
L 337.61356 112.600795 
L 339.310125 119.973467 
L 341.006689 128.366861 
L 342.703253 132.704039 
L 344.399818 133.683997 
L 346.096382 135.047665 
L 347.792946 126.966652 
L 351.186075 100.128251 
L 352.882639 97.330834 
L 354.579203 96.821223 
L 356.275768 88.905508 
L 357.972332 80.459356 
L 359.668896 92.861751 
L 361.365461 80.387494 
L 363.062025 78.199561 
L 364.758589 72.586508 
L 366.455154 81.061571 
L 368.151718 94.332222 
L 369.848282 97.495493 
L 371.544846 94.387819 
L 373.241411 96.71609 
L 374.937975 103.116136 
L 376.634539 101.462233 
L 378.331104 104.425783 
L 380.027668 108.425646 
L 381.724232 112.752481 
L 383.420797 112.76561 
L 385.117361 106.336672 
L 386.813925 92.050822 
L 388.51049 101.861537 
L 391.903618 132.534377 
L 393.600182 142.313229 
L 395.296747 135.92869 
L 396.993311 128.722123 
L 398.689875 124.210081 
L 400.38644 124.193217 
L 402.083004 128.02475 
L 403.779568 134.77958 
L 405.476133 132.153009 
L 407.172697 124.003077 
L 408.869261 105.075959 
L 410.565825 92.275177 
L 412.26239 84.311538 
L 413.958954 89.136554 
L 415.655518 95.164686 
L 417.352083 106.296301 
L 419.048647 102.583126 
L 420.745211 98.186738 
L 422.441776 101.562919 
L 424.13834 103.347 
L 425.834904 107.796894 
L 427.531469 105.935769 
L 429.228033 103.851675 
L 430.924597 104.431354 
L 432.621161 110.84654 
L 434.317726 114.005401 
L 436.01429 120.396298 
L 437.710854 128.18654 
L 439.407419 129.389809 
L 441.103983 116.674628 
L 442.800547 107.589896 
L 446.193676 109.389667 
L 447.89024 97.482172 
L 449.586804 91.287189 
L 451.283369 101.944939 
L 452.979933 101.599675 
L 454.676497 109.061765 
L 456.373062 110.206141 
L 458.069626 110.974384 
L 459.76619 101.795881 
L 461.462755 94.561197 
L 463.159319 87.932311 
L 464.855883 89.984396 
L 466.552448 98.984552 
L 468.249012 94.408017 
L 469.945576 91.013211 
L 471.64214 79.919079 
L 473.338705 76.152942 
L 475.035269 78.206802 
L 476.731833 75.585565 
L 478.428398 68.757475 
L 480.124962 76.066278 
L 481.821526 87.787282 
L 483.518091 101.418142 
L 485.214655 113.107536 
L 486.911219 116.78297 
L 488.607784 118.964939 
L 492.000912 124.533052 
L 493.697476 117.777993 
L 495.394041 115.449357 
L 497.090605 110.488989 
L 498.787169 99.08507 
L 500.483734 85.022872 
L 502.180298 80.076137 
L 503.876862 81.447768 
L 505.573427 91.082326 
L 507.269991 99.700549 
L 508.966555 110.148348 
L 510.663119 114.308847 
L 512.359684 117.456421 
L 514.056248 111.957027 
L 515.752812 106.97672 
L 517.449377 112.962119 
L 519.145941 114.589289 
L 520.842505 116.779827 
L 524.235634 113.884983 
L 525.932198 106.194268 
L 527.628763 99.523012 
L 529.325327 108.380621 
L 531.021891 116.004966 
L 532.718455 119.128436 
L 534.41502 115.309641 
L 536.111584 106.286334 
L 537.808148 105.119472 
L 539.504713 94.015452 
L 541.201277 81.122739 
L 542.897841 85.945655 
L 544.594406 80.507498 
L 546.29097 84.81218 
L 547.987534 84.344377 
L 549.684099 90.24389 
L 551.380663 92.064455 
L 553.077227 100.801141 
L 554.773791 113.402543 
L 556.470356 117.462727 
L 558.16692 121.887871 
L 559.863484 113.577406 
L 561.560049 106.814784 
L 563.256613 105.786664 
L 564.953177 103.748152 
L 566.649742 100.571734 
L 568.346306 87.952772 
L 570.04287 67.443706 
L 571.739434 65.647518 
L 573.435999 71.131088 
L 575.132563 93.660203 
L 576.829127 113.137833 
L 578.525692 112.273376 
L 580.222256 116.04013 
L 581.91882 125.824129 
L 583.615385 130.907998 
L 585.311949 123.692085 
L 587.008513 124.656561 
L 588.705078 119.753841 
L 590.401642 113.869993 
L 592.098206 106.286273 
L 593.79477 113.592601 
L 595.491335 114.988437 
L 597.187899 111.389161 
L 600.581028 98.912038 
L 602.277592 101.926893 
L 603.974156 109.506565 
L 605.670721 106.006292 
L 607.367285 103.816558 
L 609.063849 104.476948 
L 610.760413 108.671531 
L 612.456978 120.172179 
L 614.153542 124.456905 
L 615.850106 126.869767 
L 617.546671 130.471998 
L 619.243235 132.857568 
L 620.939799 126.257513 
L 622.636364 115.754192 
L 622.636364 115.754192 
" clip-path="url(#p4bbf1d5982)" style="fill: none; stroke: #000000; stroke-width: 1.5; stroke-linecap: square"/>
   </g>
   <g id="patch_3">
    <path d="M 90 172.397647 
L 90 60.48 
" style="fill: none; stroke: #000000; stroke-width: 0.8; stroke-linejoin: miter; stroke-linecap: square"/>
   </g>
   <g id="patch_4">
    <path d="M 648 172.397647 
L 648 60.48 
" style="fill: none; stroke: #000000; stroke-width: 0.8; stroke-linejoin: miter; stroke-linecap: square"/>
   </g>
   <g id="patch_5">
    <path d="M 90 172.397647 
L 648 172.397647 
" style="fill: none; stroke: #000000; stroke-width: 0.8; stroke-linejoin: miter; stroke-linecap: square"/>
   </g>
   <g id="patch_6">
    <path d="M 90 60.48 
L 648 60.48 
" style="fill: none; stroke: #000000; stroke-width: 0.8; stroke-linejoin: miter; stroke-linecap: square"/>
   </g>
   <g id="text_6">
    <!-- Raw EMG Data -->
    <g transform="translate(327.46875 54.48)scale(0.12 -0.12)">
     <defs>
      <path id="Palatino-Roman-52" d="M 141 4241 
L 141 4441 
Q 263 4438 513 4431 
L 1113 4416 
Q 1291 4416 1666 4428 
Q 2153 4447 2231 4447 
Q 2828 4447 3101 4340 
Q 3375 4234 3525 3995 
Q 3675 3756 3675 3475 
Q 3675 3213 3534 2953 
Q 3394 2694 3126 2522 
Q 2859 2350 2431 2256 
Q 2509 2147 2800 1769 
L 3588 731 
Q 3925 297 3981 247 
Q 4009 225 4038 216 
Q 4084 200 4244 200 
L 4244 0 
Q 4006 19 3828 19 
Q 3644 19 3375 0 
Q 3172 234 2694 916 
Q 2428 1294 2225 1547 
Q 1897 1966 1600 2306 
L 1631 2400 
Q 1794 2391 1878 2391 
Q 2447 2391 2740 2659 
Q 3034 2928 3034 3369 
Q 3034 3753 2781 3979 
Q 2528 4206 2016 4206 
Q 1694 4206 1384 4109 
Q 1372 3941 1366 3794 
Q 1363 3750 1344 2884 
L 1344 1497 
Q 1344 1072 1356 669 
Q 1363 372 1398 315 
Q 1434 259 1515 232 
Q 1597 206 1966 200 
L 1966 0 
Q 1522 25 1150 25 
Q 850 25 141 0 
L 141 200 
Q 509 206 590 232 
Q 672 259 703 306 
Q 741 369 750 609 
Q 753 675 763 1497 
L 763 2944 
Q 763 3369 753 3775 
Q 744 4072 708 4126 
Q 672 4181 592 4207 
Q 513 4234 141 4241 
z
" transform="scale(0.015625)"/>
      <path id="Palatino-Roman-77" d="M 1341 -34 
L 1209 400 
L 919 1366 
Q 794 1784 664 2175 
Q 534 2566 492 2625 
Q 450 2684 389 2709 
Q 328 2734 91 2756 
L 91 2938 
Q 434 2916 828 2916 
Q 1247 2916 1609 2938 
L 1609 2756 
Q 1319 2753 1231 2734 
Q 1172 2722 1145 2689 
Q 1119 2656 1119 2613 
Q 1119 2541 1209 2228 
L 1500 1222 
Q 1572 969 1675 675 
L 1913 1219 
L 2372 2247 
Q 2534 2613 2678 2984 
L 2831 2984 
Q 3038 2413 3113 2228 
L 3472 1322 
Q 3656 866 3750 634 
L 3984 1250 
Q 4213 1844 4341 2263 
Q 4413 2491 4413 2584 
Q 4413 2672 4352 2711 
Q 4291 2750 3947 2756 
L 3947 2938 
Q 4422 2916 4603 2916 
Q 4822 2916 5197 2938 
L 5197 2756 
Q 5016 2753 4953 2723 
Q 4891 2694 4844 2625 
Q 4763 2519 4591 2125 
L 4263 1344 
L 4122 994 
Q 4081 891 3881 359 
Q 3794 134 3750 -34 
L 3456 -34 
L 3306 356 
L 2594 2147 
L 2294 1500 
L 1941 716 
Q 1819 444 1744 253 
L 1641 -34 
L 1341 -34 
z
" transform="scale(0.015625)"/>
      <path id="Palatino-Roman-45" d="M 222 0 
L 222 197 
Q 550 200 653 247 
Q 697 266 716 306 
Q 747 369 759 634 
Q 778 1047 778 1347 
L 778 2944 
Q 778 3369 769 3775 
Q 759 4072 723 4126 
Q 688 4181 608 4207 
Q 528 4234 156 4241 
L 156 4441 
L 1047 4422 
L 1991 4438 
Q 2669 4447 2975 4447 
Q 3284 4447 3559 4413 
Q 3509 4234 3491 4103 
Q 3484 4075 3434 3453 
L 3238 3453 
Q 3241 3772 3197 4034 
Q 3025 4106 2819 4131 
Q 2469 4175 2119 4175 
Q 2044 4175 1784 4162 
Q 1525 4150 1413 4141 
Q 1400 3794 1394 3491 
L 1381 2434 
Q 1747 2416 2053 2416 
Q 2425 2416 2688 2450 
Q 2788 2463 2816 2500 
Q 2844 2538 2866 2756 
L 2884 2975 
L 3072 2975 
L 3072 2916 
L 3056 2266 
L 3072 1538 
L 2853 1538 
L 2844 1750 
Q 2838 1981 2802 2037 
Q 2766 2094 2666 2116 
Q 2488 2153 1975 2153 
Q 1766 2153 1381 2138 
Q 1366 1825 1366 1209 
Q 1366 631 1381 331 
Q 1831 297 2391 297 
Q 2788 297 2956 322 
Q 3125 347 3269 406 
Q 3306 503 3344 669 
Q 3413 947 3434 1088 
L 3641 1088 
Q 3559 456 3559 41 
Q 3291 0 2906 0 
L 1041 25 
Q 1000 25 222 0 
z
" transform="scale(0.015625)"/>
      <path id="Palatino-Roman-4d" d="M 119 4241 
L 119 4441 
Q 447 4428 747 4428 
Q 1050 4428 1328 4441 
Q 1603 3816 1831 3344 
L 3016 906 
L 4084 3141 
Q 4522 4053 4669 4441 
Q 5000 4428 5228 4428 
Q 5438 4428 5906 4441 
L 5906 4241 
Q 5534 4234 5454 4207 
Q 5375 4181 5344 4134 
Q 5303 4072 5297 3831 
Q 5294 3769 5281 2944 
L 5281 1497 
Q 5281 1072 5294 669 
Q 5303 372 5339 315 
Q 5375 259 5454 232 
Q 5534 206 5906 200 
L 5906 0 
Q 5275 28 5016 28 
Q 4806 28 4091 0 
L 4091 200 
Q 4463 206 4544 232 
Q 4625 259 4653 306 
Q 4694 369 4700 609 
Q 4703 675 4716 1497 
L 4716 3791 
L 3638 1534 
Q 3384 1006 3241 684 
Q 3138 450 2928 -59 
L 2806 -59 
Q 2766 59 2731 131 
L 2519 584 
L 1025 3688 
L 1025 1497 
Q 1025 1072 1038 669 
Q 1047 372 1083 315 
Q 1119 259 1198 232 
Q 1278 206 1650 200 
L 1650 0 
L 897 25 
L 119 0 
L 119 200 
Q 488 206 569 232 
Q 650 259 681 306 
Q 719 369 728 609 
Q 731 675 741 1497 
L 741 2944 
Q 741 3369 731 3775 
Q 722 4072 686 4126 
Q 650 4181 570 4207 
Q 491 4234 119 4241 
z
" transform="scale(0.015625)"/>
      <path id="Palatino-Roman-47" d="M 4450 244 
Q 3975 72 3672 13 
Q 3138 -91 2659 -91 
Q 1938 -91 1375 192 
Q 813 475 506 984 
Q 200 1494 200 2188 
Q 200 2797 420 3223 
Q 641 3650 970 3925 
Q 1300 4200 1628 4331 
Q 2131 4531 2872 4531 
Q 3219 4528 3601 4451 
Q 3984 4375 4466 4241 
Q 4419 4081 4394 3928 
Q 4369 3775 4328 3300 
L 4138 3300 
L 4122 3656 
Q 4119 3738 4116 3788 
Q 4113 3838 4075 3916 
Q 3991 4028 3806 4119 
Q 3488 4241 3280 4281 
Q 3072 4322 2784 4322 
Q 2191 4322 1756 4069 
Q 1322 3816 1098 3344 
Q 875 2872 875 2313 
Q 875 1697 1136 1205 
Q 1397 713 1836 452 
Q 2275 191 2859 191 
Q 3134 191 3392 244 
Q 3650 297 3828 391 
Q 3856 516 3856 791 
L 3856 1138 
Q 3856 1413 3828 1459 
Q 3800 1506 3676 1529 
Q 3553 1553 3109 1566 
L 3109 1756 
L 4084 1734 
Q 4369 1734 4666 1756 
L 4684 1606 
L 4450 1469 
Q 4413 1134 4413 853 
Q 4413 572 4450 244 
z
" transform="scale(0.015625)"/>
      <path id="Palatino-Roman-44" d="M 281 0 
L 281 150 
Q 463 253 584 338 
Q 603 550 616 928 
Q 638 1572 638 1822 
L 638 3097 
Q 638 3403 619 3816 
Q 606 4075 575 4138 
Q 553 4178 509 4197 
Q 406 4241 81 4244 
L 81 4441 
Q 538 4422 888 4422 
Q 1156 4422 1620 4434 
Q 2084 4447 2341 4447 
Q 3106 4447 3572 4251 
Q 4038 4056 4363 3597 
Q 4688 3138 4688 2475 
Q 4688 2000 4534 1584 
Q 4381 1169 4118 858 
Q 3856 547 3556 365 
Q 3256 184 2926 92 
Q 2597 0 2022 0 
Q 1831 0 1506 13 
Q 1081 25 950 25 
Q 759 25 281 0 
z
M 1250 341 
Q 1594 281 1975 281 
Q 2369 281 2670 350 
Q 2972 419 3186 544 
Q 3400 669 3600 912 
Q 3800 1156 3908 1536 
Q 4016 1916 4016 2322 
Q 4016 2903 3808 3320 
Q 3600 3738 3181 3959 
Q 2763 4181 2031 4181 
Q 1647 4181 1250 4122 
Q 1241 3969 1234 3578 
L 1222 3125 
L 1222 1878 
L 1231 909 
Q 1234 688 1250 341 
z
" transform="scale(0.015625)"/>
     </defs>
     <use xlink:href="#Palatino-Roman-52"/>
     <use xlink:href="#Palatino-Roman-61" x="66.796875"/>
     <use xlink:href="#Palatino-Roman-77" x="116.796875"/>
     <use xlink:href="#Palatino-Roman-20" x="200.195312"/>
     <use xlink:href="#Palatino-Roman-45" x="225.195312"/>
     <use xlink:href="#Palatino-Roman-4d" x="286.279297"/>
     <use xlink:href="#Palatino-Roman-47" x="380.859375"/>
     <use xlink:href="#Palatino-Roman-20" x="457.177734"/>
     <use xlink:href="#Palatino-Roman-44" x="482.177734"/>
     <use xlink:href="#Palatino-Roman-61" x="559.570312"/>
     <use xlink:href="#Palatino-Roman-74" x="609.570312"/>
     <use xlink:href="#Palatino-Roman-61" x="642.1875"/>
    </g>
   </g>
  </g>
  <g id="axes_2">
   <g id="patch_7">
    <path d="M 90 306.698824 
L 648 306.698824 
L 648 194.781176 
L 90 194.781176 
z
" style="fill: #ffffff"/>
   </g>
   <g id="matplotlib.axis_3">
    <g id="xtick_9">
     <g id="line2d_14">
      <g>
       <use xlink:href="#meefd38740e" x="115.363636" y="306.698824" style="stroke: #000000; stroke-width: 0.8"/>
      </g>
     </g>
    </g>
    <g id="xtick_10">
     <g id="line2d_15">
      <g>
       <use xlink:href="#meefd38740e" x="183" y="306.698824" style="stroke: #000000; stroke-width: 0.8"/>
      </g>
     </g>
    </g>
    <g id="xtick_11">
     <g id="line2d_16">
      <g>
       <use xlink:href="#meefd38740e" x="250.636364" y="306.698824" style="stroke: #000000; stroke-width: 0.8"/>
      </g>
     </g>
    </g>
    <g id="xtick_12">
     <g id="line2d_17">
      <g>
       <use xlink:href="#meefd38740e" x="318.272727" y="306.698824" style="stroke: #000000; stroke-width: 0.8"/>
      </g>
     </g>
    </g>
    <g id="xtick_13">
     <g id="line2d_18">
      <g>
       <use xlink:href="#meefd38740e" x="385.909091" y="306.698824" style="stroke: #000000; stroke-width: 0.8"/>
      </g>
     </g>
    </g>
    <g id="xtick_14">
     <g id="line2d_19">
      <g>
       <use xlink:href="#meefd38740e" x="453.545455" y="306.698824" style="stroke: #000000; stroke-width: 0.8"/>
      </g>
     </g>
    </g>
    <g id="xtick_15">
     <g id="line2d_20">
      <g>
       <use xlink:href="#meefd38740e" x="521.181818" y="306.698824" style="stroke: #000000; stroke-width: 0.8"/>
      </g>
     </g>
    </g>
    <g id="xtick_16">
     <g id="line2d_21">
      <g>
       <use xlink:href="#meefd38740e" x="588.818182" y="306.698824" style="stroke: #000000; stroke-width: 0.8"/>
      </g>
     </g>
    </g>
   </g>
   <g id="matplotlib.axis_4">
    <g id="text_7">
     <!-- Neuron activation -->
     <g transform="translate(82.694375 298.980937)rotate(-90)scale(0.12 -0.12)">
      <defs>
       <path id="Palatino-Roman-4e" d="M 178 0 
L 178 197 
Q 506 200 609 247 
Q 653 266 672 306 
Q 703 369 716 634 
Q 734 1047 734 1347 
L 734 3894 
Q 734 3997 722 4028 
Q 697 4084 609 4163 
Q 553 4213 479 4227 
Q 406 4241 153 4244 
L 153 4441 
Q 675 4428 809 4428 
Q 1038 4428 1263 4441 
Q 1528 4094 1653 3928 
L 2300 3131 
L 3244 1994 
Q 3697 1450 3972 1138 
Q 4147 931 4266 813 
L 4266 3097 
Q 4266 3403 4244 3816 
Q 4231 4075 4203 4138 
Q 4181 4178 4138 4197 
Q 4034 4241 3709 4244 
L 3709 4441 
Q 4078 4428 4456 4428 
Q 4813 4428 5103 4441 
L 5103 4244 
Q 4778 4241 4675 4197 
Q 4631 4178 4613 4134 
Q 4581 4075 4569 3806 
Q 4550 3394 4550 3097 
L 4550 1594 
Q 4550 1138 4566 -109 
L 4244 -16 
L 4169 0 
Q 4150 6 4134 19 
Q 4113 34 4016 144 
Q 3756 438 3634 588 
L 3231 1097 
L 1016 3744 
L 1016 1347 
Q 1016 1041 1038 625 
Q 1050 366 1078 306 
Q 1100 263 1144 244 
Q 1247 200 1572 197 
L 1572 0 
Q 1297 22 966 22 
Q 603 22 178 0 
z
" transform="scale(0.015625)"/>
       <path id="Palatino-Roman-75" d="M 3697 178 
L 3697 0 
Q 3288 22 3078 22 
Q 2847 22 2609 0 
Q 2628 253 2638 569 
Q 2450 419 2191 159 
Q 2131 100 2075 72 
Q 1941 -3 1806 -36 
Q 1672 -69 1484 -69 
Q 1231 -69 1061 0 
Q 891 69 769 209 
Q 678 313 629 477 
Q 581 641 581 872 
Q 581 981 589 1078 
Q 597 1175 597 1269 
L 597 1803 
Q 597 1884 588 2213 
Q 581 2419 559 2481 
Q 547 2513 519 2531 
Q 472 2563 353 2563 
Q 181 2563 81 2566 
L 81 2744 
Q 753 2819 1056 2984 
Q 1106 3013 1134 3013 
Q 1156 3013 1170 2997 
Q 1184 2981 1184 2950 
Q 1184 2925 1181 2888 
Q 1169 2788 1159 2503 
Q 1141 1981 1141 1803 
L 1141 1194 
Q 1141 813 1192 658 
Q 1244 503 1392 411 
Q 1541 319 1759 319 
Q 1909 319 2057 370 
Q 2206 422 2325 519 
Q 2413 591 2503 713 
Q 2572 803 2594 851 
Q 2616 900 2622 994 
Q 2638 1269 2638 1541 
L 2638 1803 
Q 2638 1884 2628 2213 
Q 2622 2419 2600 2481 
Q 2588 2513 2559 2531 
Q 2513 2563 2394 2563 
Q 2222 2563 2122 2566 
L 2122 2744 
Q 2794 2819 3097 2984 
Q 3147 3013 3175 3013 
Q 3197 3013 3211 2997 
Q 3225 2981 3225 2950 
Q 3225 2925 3222 2888 
Q 3213 2788 3200 2491 
Q 3181 1981 3181 1803 
L 3181 1375 
L 3188 941 
Q 3197 563 3200 497 
Q 3203 341 3234 269 
Q 3250 241 3275 220 
Q 3300 200 3350 188 
Q 3369 184 3697 178 
z
" transform="scale(0.015625)"/>
       <path id="Palatino-Roman-72" d="M 147 0 
L 147 178 
Q 500 184 528 191 
Q 581 200 607 220 
Q 634 241 650 278 
Q 681 350 688 503 
Q 706 1338 706 1375 
L 706 1747 
Q 706 1997 697 2284 
Q 691 2469 670 2503 
Q 650 2538 598 2555 
Q 547 2572 191 2569 
L 191 2747 
Q 822 2834 1113 2975 
Q 1175 3006 1197 3006 
Q 1219 3006 1231 2990 
Q 1244 2975 1244 2944 
Q 1244 2922 1241 2894 
Q 1225 2703 1222 2303 
Q 1363 2466 1481 2625 
Q 1600 2784 1653 2831 
Q 1747 2913 1869 2961 
Q 1991 3009 2122 3009 
Q 2253 3009 2381 2953 
L 2400 2909 
Q 2353 2494 2347 2178 
L 2206 2178 
Q 2134 2328 2039 2397 
Q 1944 2466 1800 2466 
Q 1559 2466 1390 2267 
Q 1222 2069 1222 1672 
L 1222 1350 
Q 1222 1144 1238 597 
Q 1241 403 1253 350 
Q 1266 297 1286 273 
Q 1306 250 1353 234 
Q 1447 206 1859 178 
L 1859 0 
Q 1309 22 922 22 
Q 522 22 147 0 
z
" transform="scale(0.015625)"/>
       <path id="Palatino-Roman-6e" d="M 88 0 
L 88 178 
L 384 181 
Q 450 184 486 204 
Q 522 225 541 256 
Q 575 319 584 478 
Q 584 519 603 1375 
L 603 1747 
Q 603 1997 594 2284 
Q 584 2469 564 2503 
Q 544 2538 494 2555 
Q 444 2572 88 2569 
L 88 2747 
Q 719 2834 1009 2975 
Q 1072 3006 1094 3006 
Q 1116 3006 1128 2990 
Q 1141 2975 1141 2944 
Q 1141 2922 1138 2894 
Q 1128 2781 1119 2419 
L 1700 2916 
Q 1956 3009 2184 3009 
Q 2438 3009 2664 2906 
Q 2891 2803 3005 2647 
Q 3119 2491 3156 2253 
Q 3178 2113 3178 1469 
L 3178 916 
Q 3178 509 3200 363 
Q 3216 269 3248 233 
Q 3281 197 3350 188 
L 3684 178 
L 3684 0 
Q 3378 22 3175 22 
Q 3000 22 2594 0 
Q 2638 772 2638 975 
L 2638 1500 
Q 2638 1991 2600 2144 
Q 2547 2353 2359 2481 
Q 2172 2609 1906 2609 
Q 1672 2609 1478 2498 
Q 1284 2388 1201 2242 
Q 1119 2097 1119 1753 
L 1119 1375 
Q 1138 563 1138 497 
Q 1144 341 1175 269 
Q 1188 241 1213 220 
Q 1238 200 1291 188 
Q 1309 184 1634 178 
L 1634 0 
Q 1253 22 944 22 
Q 681 22 88 0 
z
" transform="scale(0.015625)"/>
       <path id="Palatino-Roman-63" d="M 2713 359 
L 2588 150 
Q 2372 34 2161 -19 
Q 1950 -72 1684 -72 
Q 1028 -72 639 323 
Q 250 719 250 1409 
Q 250 1775 354 2045 
Q 459 2316 613 2463 
Q 716 2566 1005 2730 
Q 1294 2894 1409 2941 
Q 1622 3031 1919 3031 
Q 2200 3031 2425 2972 
Q 2569 2934 2713 2847 
Q 2675 2606 2659 2482 
Q 2644 2359 2619 2034 
L 2441 2034 
Q 2422 2338 2403 2413 
Q 2391 2459 2347 2497 
Q 2234 2584 2057 2648 
Q 1881 2713 1672 2713 
Q 1409 2713 1217 2605 
Q 1025 2497 919 2262 
Q 813 2028 813 1681 
Q 813 1256 963 912 
Q 1113 569 1370 411 
Q 1628 253 1947 253 
Q 2106 253 2257 292 
Q 2409 331 2647 441 
L 2713 359 
z
" transform="scale(0.015625)"/>
       <path id="Palatino-Roman-69" d="M 903 4400 
Q 1050 4400 1151 4297 
Q 1253 4194 1253 4047 
Q 1253 3903 1150 3800 
Q 1047 3697 903 3697 
Q 756 3697 653 3800 
Q 550 3903 550 4047 
Q 550 4194 653 4297 
Q 756 4400 903 4400 
z
M 141 2572 
L 141 2750 
Q 747 2819 1159 3013 
L 1228 2963 
Q 1203 2297 1203 1944 
L 1203 1375 
Q 1219 563 1222 497 
Q 1225 341 1256 269 
Q 1272 241 1297 220 
Q 1322 200 1372 188 
Q 1391 184 1719 178 
L 1719 0 
Q 1244 22 959 22 
Q 709 22 141 0 
L 141 178 
L 438 181 
Q 503 184 539 204 
Q 575 225 594 256 
Q 628 319 638 478 
Q 638 519 656 1375 
L 656 1925 
Q 656 2391 625 2478 
Q 606 2525 557 2548 
Q 509 2572 141 2572 
z
" transform="scale(0.015625)"/>
       <path id="Palatino-Roman-76" d="M 1594 -31 
Q 1472 288 1425 397 
L 1169 994 
L 528 2484 
Q 466 2625 422 2672 
Q 378 2719 325 2731 
Q 281 2744 94 2750 
L 94 2938 
Q 613 2916 850 2916 
Q 1113 2916 1569 2938 
L 1569 2750 
Q 1231 2741 1172 2706 
Q 1113 2672 1113 2613 
Q 1113 2519 1238 2209 
L 1619 1259 
L 1709 1047 
Q 1863 675 1919 550 
L 2231 1259 
Q 2259 1322 2516 1963 
Q 2666 2334 2716 2531 
Q 2728 2584 2728 2625 
Q 2728 2678 2688 2700 
Q 2613 2741 2288 2750 
L 2288 2938 
Q 2753 2916 2884 2916 
Q 2994 2916 3481 2938 
L 3481 2750 
Q 3288 2741 3223 2705 
Q 3159 2669 3097 2556 
Q 3053 2481 2759 1881 
L 2459 1241 
Q 2381 1069 1919 -31 
L 1594 -31 
z
" transform="scale(0.015625)"/>
      </defs>
      <use xlink:href="#Palatino-Roman-4e"/>
      <use xlink:href="#Palatino-Roman-65" x="83.105469"/>
      <use xlink:href="#Palatino-Roman-75" x="131.005859"/>
      <use xlink:href="#Palatino-Roman-72" x="191.308594"/>
      <use xlink:href="#Palatino-Roman-6f" x="229.060547"/>
      <use xlink:href="#Palatino-Roman-6e" x="283.650391"/>
      <use xlink:href="#Palatino-Roman-20" x="341.853516"/>
      <use xlink:href="#Palatino-Roman-61" x="366.853516"/>
      <use xlink:href="#Palatino-Roman-63" x="416.853516"/>
      <use xlink:href="#Palatino-Roman-74" x="461.238281"/>
      <use xlink:href="#Palatino-Roman-69" x="493.855469"/>
      <use xlink:href="#Palatino-Roman-76" x="522.957031"/>
      <use xlink:href="#Palatino-Roman-61" x="579.451172"/>
      <use xlink:href="#Palatino-Roman-74" x="629.451172"/>
      <use xlink:href="#Palatino-Roman-69" x="662.068359"/>
      <use xlink:href="#Palatino-Roman-6f" x="691.169922"/>
      <use xlink:href="#Palatino-Roman-6e" x="745.759766"/>
     </g>
    </g>
   </g>
   <g id="EventCollection_1">
    <path d="M 135.654545 225.304171 
L 135.654545 276.175829 
" clip-path="url(#pc660e7d15c)" style="fill: none; stroke: #000000; stroke-width: 1.5"/>
    <path d="M 137.345455 225.304171 
L 137.345455 276.175829 
" clip-path="url(#pc660e7d15c)" style="fill: none; stroke: #000000; stroke-width: 1.5"/>
    <path d="M 172.854545 225.304171 
L 172.854545 276.175829 
" clip-path="url(#pc660e7d15c)" style="fill: none; stroke: #000000; stroke-width: 1.5"/>
    <path d="M 176.236364 225.304171 
L 176.236364 276.175829 
" clip-path="url(#pc660e7d15c)" style="fill: none; stroke: #000000; stroke-width: 1.5"/>
    <path d="M 179.618182 225.304171 
L 179.618182 276.175829 
" clip-path="url(#pc660e7d15c)" style="fill: none; stroke: #000000; stroke-width: 1.5"/>
    <path d="M 181.309091 225.304171 
L 181.309091 276.175829 
" clip-path="url(#pc660e7d15c)" style="fill: none; stroke: #000000; stroke-width: 1.5"/>
    <path d="M 215.127273 225.304171 
L 215.127273 276.175829 
" clip-path="url(#pc660e7d15c)" style="fill: none; stroke: #000000; stroke-width: 1.5"/>
    <path d="M 223.581818 225.304171 
L 223.581818 276.175829 
" clip-path="url(#pc660e7d15c)" style="fill: none; stroke: #000000; stroke-width: 1.5"/>
    <path d="M 226.963636 225.304171 
L 226.963636 276.175829 
" clip-path="url(#pc660e7d15c)" style="fill: none; stroke: #000000; stroke-width: 1.5"/>
    <path d="M 248.945455 225.304171 
L 248.945455 276.175829 
" clip-path="url(#pc660e7d15c)" style="fill: none; stroke: #000000; stroke-width: 1.5"/>
    <path d="M 267.545455 225.304171 
L 267.545455 276.175829 
" clip-path="url(#pc660e7d15c)" style="fill: none; stroke: #000000; stroke-width: 1.5"/>
    <path d="M 304.745455 225.304171 
L 304.745455 276.175829 
" clip-path="url(#pc660e7d15c)" style="fill: none; stroke: #000000; stroke-width: 1.5"/>
    <path d="M 311.509091 225.304171 
L 311.509091 276.175829 
" clip-path="url(#pc660e7d15c)" style="fill: none; stroke: #000000; stroke-width: 1.5"/>
    <path d="M 350.4 225.304171 
L 350.4 276.175829 
" clip-path="url(#pc660e7d15c)" style="fill: none; stroke: #000000; stroke-width: 1.5"/>
    <path d="M 355.472727 225.304171 
L 355.472727 276.175829 
" clip-path="url(#pc660e7d15c)" style="fill: none; stroke: #000000; stroke-width: 1.5"/>
    <path d="M 363.927273 225.304171 
L 363.927273 276.175829 
" clip-path="url(#pc660e7d15c)" style="fill: none; stroke: #000000; stroke-width: 1.5"/>
    <path d="M 407.890909 225.304171 
L 407.890909 276.175829 
" clip-path="url(#pc660e7d15c)" style="fill: none; stroke: #000000; stroke-width: 1.5"/>
    <path d="M 409.581818 225.304171 
L 409.581818 276.175829 
" clip-path="url(#pc660e7d15c)" style="fill: none; stroke: #000000; stroke-width: 1.5"/>
    <path d="M 411.272727 225.304171 
L 411.272727 276.175829 
" clip-path="url(#pc660e7d15c)" style="fill: none; stroke: #000000; stroke-width: 1.5"/>
    <path d="M 446.781818 225.304171 
L 446.781818 276.175829 
" clip-path="url(#pc660e7d15c)" style="fill: none; stroke: #000000; stroke-width: 1.5"/>
    <path d="M 462 225.304171 
L 462 276.175829 
" clip-path="url(#pc660e7d15c)" style="fill: none; stroke: #000000; stroke-width: 1.5"/>
    <path d="M 477.218182 225.304171 
L 477.218182 276.175829 
" clip-path="url(#pc660e7d15c)" style="fill: none; stroke: #000000; stroke-width: 1.5"/>
    <path d="M 497.509091 225.304171 
L 497.509091 276.175829 
" clip-path="url(#pc660e7d15c)" style="fill: none; stroke: #000000; stroke-width: 1.5"/>
    <path d="M 499.2 225.304171 
L 499.2 276.175829 
" clip-path="url(#pc660e7d15c)" style="fill: none; stroke: #000000; stroke-width: 1.5"/>
    <path d="M 539.781818 225.304171 
L 539.781818 276.175829 
" clip-path="url(#pc660e7d15c)" style="fill: none; stroke: #000000; stroke-width: 1.5"/>
    <path d="M 563.454545 225.304171 
L 563.454545 276.175829 
" clip-path="url(#pc660e7d15c)" style="fill: none; stroke: #000000; stroke-width: 1.5"/>
    <path d="M 566.836364 225.304171 
L 566.836364 276.175829 
" clip-path="url(#pc660e7d15c)" style="fill: none; stroke: #000000; stroke-width: 1.5"/>
    <path d="M 568.527273 225.304171 
L 568.527273 276.175829 
" clip-path="url(#pc660e7d15c)" style="fill: none; stroke: #000000; stroke-width: 1.5"/>
    <path d="M 598.963636 225.304171 
L 598.963636 276.175829 
" clip-path="url(#pc660e7d15c)" style="fill: none; stroke: #000000; stroke-width: 1.5"/>
   </g>
   <g id="EventCollection_2">
    <path d="M 162.709091 225.304171 
L 162.709091 276.175829 
" clip-path="url(#pc660e7d15c)" style="fill: none; stroke: #000000; stroke-width: 1.5"/>
    <path d="M 164.4 225.304171 
L 164.4 276.175829 
" clip-path="url(#pc660e7d15c)" style="fill: none; stroke: #000000; stroke-width: 1.5"/>
    <path d="M 167.781818 225.304171 
L 167.781818 276.175829 
" clip-path="url(#pc660e7d15c)" style="fill: none; stroke: #000000; stroke-width: 1.5"/>
    <path d="M 169.472727 225.304171 
L 169.472727 276.175829 
" clip-path="url(#pc660e7d15c)" style="fill: none; stroke: #000000; stroke-width: 1.5"/>
    <path d="M 186.381818 225.304171 
L 186.381818 276.175829 
" clip-path="url(#pc660e7d15c)" style="fill: none; stroke: #000000; stroke-width: 1.5"/>
    <path d="M 188.072727 225.304171 
L 188.072727 276.175829 
" clip-path="url(#pc660e7d15c)" style="fill: none; stroke: #000000; stroke-width: 1.5"/>
    <path d="M 210.054545 225.304171 
L 210.054545 276.175829 
" clip-path="url(#pc660e7d15c)" style="fill: none; stroke: #000000; stroke-width: 1.5"/>
    <path d="M 254.018182 225.304171 
L 254.018182 276.175829 
" clip-path="url(#pc660e7d15c)" style="fill: none; stroke: #000000; stroke-width: 1.5"/>
    <path d="M 255.709091 225.304171 
L 255.709091 276.175829 
" clip-path="url(#pc660e7d15c)" style="fill: none; stroke: #000000; stroke-width: 1.5"/>
    <path d="M 292.909091 225.304171 
L 292.909091 276.175829 
" clip-path="url(#pc660e7d15c)" style="fill: none; stroke: #000000; stroke-width: 1.5"/>
    <path d="M 294.6 225.304171 
L 294.6 276.175829 
" clip-path="url(#pc660e7d15c)" style="fill: none; stroke: #000000; stroke-width: 1.5"/>
    <path d="M 316.581818 225.304171 
L 316.581818 276.175829 
" clip-path="url(#pc660e7d15c)" style="fill: none; stroke: #000000; stroke-width: 1.5"/>
    <path d="M 340.254545 225.304171 
L 340.254545 276.175829 
" clip-path="url(#pc660e7d15c)" style="fill: none; stroke: #000000; stroke-width: 1.5"/>
    <path d="M 367.309091 225.304171 
L 367.309091 276.175829 
" clip-path="url(#pc660e7d15c)" style="fill: none; stroke: #000000; stroke-width: 1.5"/>
    <path d="M 379.145455 225.304171 
L 379.145455 276.175829 
" clip-path="url(#pc660e7d15c)" style="fill: none; stroke: #000000; stroke-width: 1.5"/>
    <path d="M 390.981818 225.304171 
L 390.981818 276.175829 
" clip-path="url(#pc660e7d15c)" style="fill: none; stroke: #000000; stroke-width: 1.5"/>
    <path d="M 392.672727 225.304171 
L 392.672727 276.175829 
" clip-path="url(#pc660e7d15c)" style="fill: none; stroke: #000000; stroke-width: 1.5"/>
    <path d="M 416.345455 225.304171 
L 416.345455 276.175829 
" clip-path="url(#pc660e7d15c)" style="fill: none; stroke: #000000; stroke-width: 1.5"/>
    <path d="M 436.636364 225.304171 
L 436.636364 276.175829 
" clip-path="url(#pc660e7d15c)" style="fill: none; stroke: #000000; stroke-width: 1.5"/>
    <path d="M 482.290909 225.304171 
L 482.290909 276.175829 
" clip-path="url(#pc660e7d15c)" style="fill: none; stroke: #000000; stroke-width: 1.5"/>
    <path d="M 483.981818 225.304171 
L 483.981818 276.175829 
" clip-path="url(#pc660e7d15c)" style="fill: none; stroke: #000000; stroke-width: 1.5"/>
    <path d="M 489.054545 225.304171 
L 489.054545 276.175829 
" clip-path="url(#pc660e7d15c)" style="fill: none; stroke: #000000; stroke-width: 1.5"/>
    <path d="M 507.654545 225.304171 
L 507.654545 276.175829 
" clip-path="url(#pc660e7d15c)" style="fill: none; stroke: #000000; stroke-width: 1.5"/>
    <path d="M 553.309091 225.304171 
L 553.309091 276.175829 
" clip-path="url(#pc660e7d15c)" style="fill: none; stroke: #000000; stroke-width: 1.5"/>
    <path d="M 556.690909 225.304171 
L 556.690909 276.175829 
" clip-path="url(#pc660e7d15c)" style="fill: none; stroke: #000000; stroke-width: 1.5"/>
    <path d="M 573.6 225.304171 
L 573.6 276.175829 
" clip-path="url(#pc660e7d15c)" style="fill: none; stroke: #000000; stroke-width: 1.5"/>
    <path d="M 575.290909 225.304171 
L 575.290909 276.175829 
" clip-path="url(#pc660e7d15c)" style="fill: none; stroke: #000000; stroke-width: 1.5"/>
    <path d="M 580.363636 225.304171 
L 580.363636 276.175829 
" clip-path="url(#pc660e7d15c)" style="fill: none; stroke: #000000; stroke-width: 1.5"/>
    <path d="M 612.490909 225.304171 
L 612.490909 276.175829 
" clip-path="url(#pc660e7d15c)" style="fill: none; stroke: #000000; stroke-width: 1.5"/>
   </g>
   <g id="patch_8">
    <path d="M 90 306.698824 
L 90 194.781176 
" style="fill: none; stroke: #000000; stroke-width: 0.8; stroke-linejoin: miter; stroke-linecap: square"/>
   </g>
   <g id="patch_9">
    <path d="M 648 306.698824 
L 648 194.781176 
" style="fill: none; stroke: #000000; stroke-width: 0.8; stroke-linejoin: miter; stroke-linecap: square"/>
   </g>
   <g id="patch_10">
    <path d="M 90 306.698824 
L 648 306.698824 
" style="fill: none; stroke: #000000; stroke-width: 0.8; stroke-linejoin: miter; stroke-linecap: square"/>
   </g>
   <g id="patch_11">
    <path d="M 90 194.781176 
L 648 194.781176 
" style="fill: none; stroke: #000000; stroke-width: 0.8; stroke-linejoin: miter; stroke-linecap: square"/>
   </g>
   <g id="text_8">
    <!-- Spike Encoding Raster Plot -->
    <g transform="translate(297.09375 188.781176)scale(0.12 -0.12)">
     <defs>
      <path id="Palatino-Roman-53" d="M 203 153 
Q 253 453 263 1125 
L 475 1125 
Q 491 669 527 586 
Q 563 503 700 409 
Q 838 316 1069 242 
Q 1300 169 1516 169 
Q 1831 169 2097 314 
Q 2363 459 2484 695 
Q 2606 931 2606 1200 
Q 2606 1406 2545 1556 
Q 2484 1706 2359 1798 
Q 2234 1891 2050 1928 
Q 1934 1947 1587 1990 
Q 1241 2034 997 2088 
Q 672 2188 519 2322 
Q 366 2456 270 2675 
Q 175 2894 175 3147 
Q 175 3516 367 3842 
Q 559 4169 936 4350 
Q 1313 4531 1753 4531 
Q 2019 4531 2333 4461 
Q 2647 4391 2919 4256 
Q 2875 4059 2856 3889 
Q 2838 3719 2828 3388 
L 2616 3388 
Q 2606 3869 2588 3913 
Q 2509 4025 2375 4116 
Q 2053 4297 1703 4297 
Q 1250 4297 979 4020 
Q 709 3744 709 3303 
Q 709 3038 806 2892 
Q 903 2747 1153 2659 
Q 1325 2600 1715 2548 
Q 2106 2497 2419 2438 
Q 2713 2350 2853 2229 
Q 2994 2109 3084 1914 
Q 3175 1719 3175 1456 
Q 3175 834 2659 371 
Q 2144 -91 1325 -91 
Q 706 -91 203 153 
z
" transform="scale(0.015625)"/>
      <path id="Palatino-Roman-70" d="M 113 2572 
L 113 2753 
Q 169 2753 350 2779 
Q 531 2806 753 2870 
Q 975 2934 1088 2994 
Q 1122 3013 1144 3013 
Q 1166 3013 1180 2997 
Q 1194 2981 1194 2944 
Q 1194 2928 1191 2869 
Q 1184 2778 1184 2703 
L 1184 2372 
Q 1713 2863 1844 2925 
Q 2016 3009 2356 3009 
Q 2753 3009 3040 2829 
Q 3328 2650 3458 2364 
Q 3588 2078 3588 1753 
Q 3588 1556 3542 1381 
Q 3497 1206 3426 1051 
Q 3356 897 3270 767 
Q 3184 638 3109 572 
Q 3066 531 2883 384 
Q 2700 238 2492 130 
Q 2284 22 2203 -3 
Q 2025 -59 1825 -59 
Q 1669 -59 1520 -21 
Q 1372 16 1184 106 
L 1184 -391 
Q 1200 -1181 1203 -1263 
Q 1206 -1416 1241 -1488 
Q 1253 -1522 1279 -1542 
Q 1306 -1563 1356 -1572 
Q 1384 -1578 1728 -1584 
L 1728 -1763 
Q 1338 -1747 694 -1747 
Q 338 -1747 147 -1763 
L 147 -1584 
L 444 -1581 
Q 509 -1578 545 -1558 
Q 581 -1538 600 -1506 
Q 634 -1444 644 -1284 
Q 647 -1244 663 -391 
L 663 719 
Q 663 1259 650 1828 
Q 638 2397 623 2448 
Q 609 2500 578 2526 
Q 547 2553 497 2563 
L 113 2572 
z
M 1184 644 
Q 1350 475 1562 378 
Q 1775 281 2009 281 
Q 2294 281 2526 423 
Q 2759 566 2895 866 
Q 3031 1166 3031 1519 
Q 3031 1859 2901 2111 
Q 2772 2363 2534 2489 
Q 2297 2616 2056 2616 
Q 1878 2616 1704 2545 
Q 1531 2475 1390 2340 
Q 1250 2206 1203 2084 
Q 1184 2025 1184 1856 
L 1184 644 
z
" transform="scale(0.015625)"/>
      <path id="Palatino-Roman-6b" d="M 122 0 
L 122 178 
L 416 181 
Q 484 184 520 204 
Q 556 225 575 256 
Q 609 319 616 478 
Q 619 519 638 1375 
L 638 2672 
Q 638 3194 619 3750 
Q 606 4125 584 4169 
Q 569 4200 534 4213 
Q 488 4234 103 4234 
L 103 4419 
Q 809 4506 1084 4638 
Q 1125 4656 1147 4656 
Q 1169 4656 1181 4642 
Q 1194 4628 1194 4603 
Q 1194 4581 1188 4541 
L 1184 4438 
Q 1169 3878 1166 3484 
L 1159 2997 
L 1159 1741 
L 1194 1722 
Q 1359 1825 1672 2088 
Q 1881 2266 2613 2950 
Q 2853 2941 2919 2941 
Q 2981 2941 3234 2950 
L 3234 2775 
Q 3053 2766 3003 2750 
Q 2934 2728 2744 2606 
Q 2444 2416 2022 2066 
L 1703 1813 
Q 1956 1553 2578 944 
Q 3047 466 3142 386 
Q 3238 306 3328 290 
Q 3419 275 3609 275 
L 3609 134 
Q 3378 91 3218 55 
Q 3059 19 2853 -31 
Q 2747 56 2647 148 
Q 2547 241 2238 559 
Q 1603 1209 1194 1575 
L 1159 1559 
L 1159 1375 
Q 1175 563 1178 497 
Q 1181 341 1216 269 
Q 1228 241 1253 220 
Q 1278 200 1328 188 
Q 1350 184 1675 178 
L 1675 0 
Q 1263 25 928 25 
Q 603 25 122 0 
z
" transform="scale(0.015625)"/>
      <path id="Palatino-Roman-64" d="M 2122 4244 
L 2122 4422 
Q 2469 4459 2708 4511 
Q 2947 4563 3175 4638 
L 3216 4609 
Q 3203 4344 3188 3584 
L 3175 3084 
L 3175 1128 
Q 3175 809 3186 576 
Q 3197 344 3225 298 
Q 3253 253 3318 225 
Q 3384 197 3709 169 
L 3709 0 
Q 3328 22 3172 22 
Q 3038 22 2622 0 
Q 2631 216 2638 581 
Q 2513 491 2302 309 
Q 2091 128 1972 13 
Q 1722 -50 1531 -50 
Q 1178 -50 881 125 
Q 584 300 423 633 
Q 263 966 263 1381 
Q 263 1694 361 1973 
Q 459 2253 609 2406 
Q 694 2494 994 2672 
Q 1294 2850 1480 2929 
Q 1666 3009 1884 3009 
Q 2081 3009 2270 2961 
Q 2459 2913 2638 2813 
L 2638 3634 
Q 2638 4069 2600 4163 
Q 2588 4197 2553 4213 
Q 2491 4241 2122 4244 
z
M 2638 2278 
Q 2425 2513 2192 2620 
Q 1959 2728 1734 2728 
Q 1478 2728 1262 2597 
Q 1047 2466 933 2200 
Q 819 1934 819 1563 
Q 819 991 1103 669 
Q 1388 347 1788 347 
Q 1997 347 2162 434 
Q 2328 522 2453 690 
Q 2578 859 2613 1066 
Q 2638 1203 2638 1744 
L 2638 2278 
z
" transform="scale(0.015625)"/>
      <path id="Palatino-Roman-73" d="M 291 944 
L 478 944 
Q 481 763 497 656 
Q 513 550 550 448 
Q 588 347 666 276 
Q 744 206 836 167 
Q 928 128 1023 115 
Q 1119 103 1313 103 
Q 1631 103 1836 272 
Q 2041 441 2041 734 
Q 2041 866 1977 966 
Q 1913 1066 1792 1122 
Q 1672 1178 1275 1268 
Q 878 1359 763 1400 
Q 588 1466 484 1559 
Q 381 1653 320 1797 
Q 259 1941 259 2109 
Q 259 2356 389 2564 
Q 519 2772 797 2901 
Q 1075 3031 1403 3031 
Q 1600 3031 1859 2976 
Q 2119 2922 2281 2841 
Q 2259 2494 2250 2134 
L 2072 2134 
Q 2056 2363 2036 2434 
Q 2016 2506 1981 2562 
Q 1947 2619 1862 2683 
Q 1778 2747 1645 2797 
Q 1513 2847 1319 2847 
Q 1044 2847 876 2684 
Q 709 2522 709 2303 
Q 709 2181 757 2093 
Q 806 2006 887 1951 
Q 969 1897 1116 1853 
L 1634 1725 
Q 2028 1625 2176 1553 
Q 2325 1481 2415 1329 
Q 2506 1178 2506 966 
Q 2506 544 2157 230 
Q 1809 -84 1225 -84 
Q 956 -84 509 -3 
Q 263 44 244 63 
Q 231 72 231 94 
Q 231 116 238 147 
Q 266 281 275 409 
Q 284 538 291 944 
z
" transform="scale(0.015625)"/>
      <path id="Palatino-Roman-50" d="M 169 4241 
L 169 4441 
Q 797 4422 1163 4422 
Q 1406 4422 1681 4428 
L 2172 4444 
Q 2253 4447 2322 4447 
Q 2819 4447 3103 4337 
Q 3388 4228 3547 3989 
Q 3706 3750 3706 3444 
Q 3706 3169 3573 2897 
Q 3441 2625 3187 2436 
Q 2934 2247 2659 2166 
Q 2472 2109 2234 2109 
Q 2034 2109 1803 2153 
L 1738 2384 
Q 2016 2322 2175 2322 
Q 2409 2322 2620 2436 
Q 2831 2550 2948 2779 
Q 3066 3009 3066 3288 
Q 3066 3556 2952 3773 
Q 2838 3991 2605 4103 
Q 2372 4216 2041 4216 
Q 1744 4216 1403 4109 
Q 1375 3778 1375 3072 
L 1375 1497 
Q 1375 1072 1384 669 
Q 1394 372 1430 315 
Q 1466 259 1545 232 
Q 1625 206 1997 200 
L 1997 0 
Q 1419 25 1147 25 
Q 1041 25 169 0 
L 169 200 
Q 538 206 619 232 
Q 700 259 731 306 
Q 769 369 778 609 
Q 781 675 791 1497 
L 791 2944 
Q 791 3369 781 3775 
Q 772 4072 736 4126 
Q 700 4181 620 4207 
Q 541 4234 169 4241 
z
" transform="scale(0.015625)"/>
     </defs>
     <use xlink:href="#Palatino-Roman-53"/>
     <use xlink:href="#Palatino-Roman-70" x="52.490234"/>
     <use xlink:href="#Palatino-Roman-69" x="112.597656"/>
     <use xlink:href="#Palatino-Roman-6b" x="141.699219"/>
     <use xlink:href="#Palatino-Roman-65" x="197.314453"/>
     <use xlink:href="#Palatino-Roman-20" x="245.214844"/>
     <use xlink:href="#Palatino-Roman-45" x="270.214844"/>
     <use xlink:href="#Palatino-Roman-6e" x="331.298828"/>
     <use xlink:href="#Palatino-Roman-63" x="389.501953"/>
     <use xlink:href="#Palatino-Roman-6f" x="433.886719"/>
     <use xlink:href="#Palatino-Roman-64" x="488.476562"/>
     <use xlink:href="#Palatino-Roman-69" x="549.560547"/>
     <use xlink:href="#Palatino-Roman-6e" x="578.662109"/>
     <use xlink:href="#Palatino-Roman-67" x="636.865234"/>
     <use xlink:href="#Palatino-Roman-20" x="692.480469"/>
     <use xlink:href="#Palatino-Roman-52" x="717.480469"/>
     <use xlink:href="#Palatino-Roman-61" x="784.277344"/>
     <use xlink:href="#Palatino-Roman-73" x="834.277344"/>
     <use xlink:href="#Palatino-Roman-74" x="876.660156"/>
     <use xlink:href="#Palatino-Roman-65" x="909.277344"/>
     <use xlink:href="#Palatino-Roman-72" x="957.177734"/>
     <use xlink:href="#Palatino-Roman-20" x="996.679688"/>
     <use xlink:href="#Palatino-Roman-50" x="1021.679688"/>
     <use xlink:href="#Palatino-Roman-6c" x="1082.080078"/>
     <use xlink:href="#Palatino-Roman-6f" x="1111.181641"/>
     <use xlink:href="#Palatino-Roman-74" x="1165.771484"/>
    </g>
   </g>
  </g>
  <g id="axes_3">
   <g id="patch_12">
    <path d="M 90 441 
L 648 441 
L 648 329.082353 
L 90 329.082353 
z
" style="fill: #ffffff"/>
   </g>
   <g id="matplotlib.axis_5">
    <g id="xtick_17">
     <g id="line2d_22">
      <g>
       <use xlink:href="#meefd38740e" x="115.363636" y="441" style="stroke: #000000; stroke-width: 0.8"/>
      </g>
     </g>
     <g id="text_9">
      <!-- 0.00 -->
      <g transform="translate(106.613636 455.275)scale(0.1 -0.1)">
       <defs>
        <path id="Palatino-Roman-2e" d="M 800 716 
Q 956 716 1064 606 
Q 1172 497 1172 341 
Q 1172 188 1062 78 
Q 953 -31 800 -31 
Q 644 -31 534 78 
Q 425 188 425 341 
Q 425 497 534 606 
Q 644 716 800 716 
z
" transform="scale(0.015625)"/>
       </defs>
       <use xlink:href="#Palatino-Roman-30"/>
       <use xlink:href="#Palatino-Roman-2e" x="50"/>
       <use xlink:href="#Palatino-Roman-30" x="75"/>
       <use xlink:href="#Palatino-Roman-30" x="125"/>
      </g>
     </g>
    </g>
    <g id="xtick_18">
     <g id="line2d_23">
      <g>
       <use xlink:href="#meefd38740e" x="183" y="441" style="stroke: #000000; stroke-width: 0.8"/>
      </g>
     </g>
     <g id="text_10">
      <!-- 0.02 -->
      <g transform="translate(174.25 455.275)scale(0.1 -0.1)">
       <defs>
        <path id="Palatino-Roman-32" d="M 106 0 
L 106 175 
Q 203 297 456 556 
L 1153 1281 
Q 1234 1366 1550 1722 
Q 1788 1994 1922 2217 
Q 2056 2441 2118 2652 
Q 2181 2863 2181 3053 
Q 2181 3378 2000 3616 
Q 1766 3931 1319 3931 
Q 1069 3931 881 3850 
Q 694 3769 630 3670 
Q 566 3572 441 3106 
L 253 3106 
Q 328 3525 359 3969 
Q 556 4156 689 4237 
Q 822 4319 1015 4367 
Q 1209 4416 1438 4416 
Q 1847 4416 2128 4277 
Q 2409 4138 2578 3863 
Q 2747 3588 2747 3241 
Q 2747 2866 2555 2502 
Q 2363 2138 1756 1534 
L 1222 1003 
Q 931 713 781 541 
L 2153 541 
Q 2566 541 2963 581 
L 2984 556 
Q 2966 438 2966 278 
Q 2966 134 2984 34 
L 2963 0 
Q 2741 13 2456 19 
Q 1819 31 1603 31 
Q 1331 31 688 19 
Q 334 13 106 0 
z
" transform="scale(0.015625)"/>
       </defs>
       <use xlink:href="#Palatino-Roman-30"/>
       <use xlink:href="#Palatino-Roman-2e" x="50"/>
       <use xlink:href="#Palatino-Roman-30" x="75"/>
       <use xlink:href="#Palatino-Roman-32" x="125"/>
      </g>
     </g>
    </g>
    <g id="xtick_19">
     <g id="line2d_24">
      <g>
       <use xlink:href="#meefd38740e" x="250.636364" y="441" style="stroke: #000000; stroke-width: 0.8"/>
      </g>
     </g>
     <g id="text_11">
      <!-- 0.04 -->
      <g transform="translate(241.886364 455.275)scale(0.1 -0.1)">
       <defs>
        <path id="Palatino-Roman-34" d="M 1003 0 
L 1003 184 
Q 1491 194 1575 211 
Q 1659 228 1694 266 
Q 1738 319 1756 456 
Q 1784 688 1784 934 
L 1784 1166 
L 1100 1166 
Q 534 1166 91 1147 
L 38 1316 
Q 278 1769 681 2425 
Q 1269 3381 1853 4266 
Q 1888 4281 2022 4338 
Q 2259 4431 2294 4444 
L 2372 4406 
Q 2350 4031 2344 3481 
Q 2328 2322 2328 2209 
L 2328 1563 
Q 2753 1566 3025 1584 
Q 3016 1428 3016 1378 
L 3025 1147 
Q 2706 1166 2488 1166 
L 2328 1166 
L 2328 956 
Q 2328 431 2375 316 
Q 2394 269 2450 241 
Q 2569 188 3025 184 
L 3025 0 
Q 2350 25 1988 25 
Q 1597 25 1003 0 
z
M 450 1563 
L 1784 1563 
L 1813 3784 
Q 1472 3294 1042 2584 
Q 613 1875 450 1563 
z
" transform="scale(0.015625)"/>
       </defs>
       <use xlink:href="#Palatino-Roman-30"/>
       <use xlink:href="#Palatino-Roman-2e" x="50"/>
       <use xlink:href="#Palatino-Roman-30" x="75"/>
       <use xlink:href="#Palatino-Roman-34" x="125"/>
      </g>
     </g>
    </g>
    <g id="xtick_20">
     <g id="line2d_25">
      <g>
       <use xlink:href="#meefd38740e" x="318.272727" y="441" style="stroke: #000000; stroke-width: 0.8"/>
      </g>
     </g>
     <g id="text_12">
      <!-- 0.06 -->
      <g transform="translate(309.522727 455.275)scale(0.1 -0.1)">
       <defs>
        <path id="Palatino-Roman-36" d="M 2700 4347 
L 2700 4309 
Q 2353 4231 1975 4000 
Q 1597 3769 1356 3473 
Q 1116 3178 998 2867 
Q 881 2556 847 2153 
Q 1028 2281 1116 2347 
Q 1341 2522 1405 2556 
Q 1469 2591 1580 2617 
Q 1691 2644 1847 2644 
Q 2391 2644 2687 2334 
Q 2984 2025 2984 1438 
Q 2984 1038 2838 741 
Q 2688 438 2511 281 
Q 2334 125 2104 17 
Q 1875 -91 1541 -91 
Q 969 -91 594 342 
Q 219 775 219 1603 
Q 219 2172 395 2653 
Q 572 3134 878 3481 
Q 1184 3828 1607 4089 
Q 2031 4350 2472 4456 
L 2700 4347 
z
M 788 1366 
Q 788 1119 844 875 
Q 878 731 939 593 
Q 1000 456 1098 347 
Q 1197 238 1333 178 
Q 1469 119 1628 119 
Q 1844 119 2030 236 
Q 2216 353 2330 617 
Q 2444 881 2444 1222 
Q 2444 1550 2333 1795 
Q 2222 2041 2026 2156 
Q 1831 2272 1613 2272 
Q 1338 2272 1075 2088 
Q 888 1956 838 1811 
Q 788 1666 788 1366 
z
" transform="scale(0.015625)"/>
       </defs>
       <use xlink:href="#Palatino-Roman-30"/>
       <use xlink:href="#Palatino-Roman-2e" x="50"/>
       <use xlink:href="#Palatino-Roman-30" x="75"/>
       <use xlink:href="#Palatino-Roman-36" x="125"/>
      </g>
     </g>
    </g>
    <g id="xtick_21">
     <g id="line2d_26">
      <g>
       <use xlink:href="#meefd38740e" x="385.909091" y="441" style="stroke: #000000; stroke-width: 0.8"/>
      </g>
     </g>
     <g id="text_13">
      <!-- 0.08 -->
      <g transform="translate(377.159091 455.275)scale(0.1 -0.1)">
       <defs>
        <path id="Palatino-Roman-38" d="M 1050 2241 
Q 666 2444 505 2689 
Q 344 2934 344 3250 
Q 344 3734 703 4070 
Q 1063 4406 1650 4406 
Q 1988 4406 2252 4290 
Q 2516 4175 2650 3962 
Q 2784 3750 2784 3500 
Q 2784 3309 2701 3125 
Q 2619 2941 2434 2766 
Q 2294 2634 2019 2463 
L 2019 2434 
Q 2413 2247 2556 2141 
Q 2750 2000 2856 1797 
Q 2963 1594 2963 1328 
Q 2963 978 2764 636 
Q 2566 294 2208 105 
Q 1850 -84 1444 -84 
Q 1091 -84 798 61 
Q 506 206 353 464 
Q 200 722 200 1038 
Q 200 1416 425 1722 
Q 650 2028 1050 2213 
L 1050 2241 
z
M 1778 2541 
Q 2097 2744 2223 2944 
Q 2350 3144 2350 3416 
Q 2350 3641 2258 3823 
Q 2166 4006 1989 4100 
Q 1813 4194 1588 4194 
Q 1238 4194 1030 3998 
Q 822 3803 822 3488 
Q 822 3178 1006 3003 
Q 1191 2828 1778 2541 
z
M 1303 2128 
Q 947 1909 797 1668 
Q 647 1428 647 1088 
Q 647 800 756 581 
Q 866 363 1080 247 
Q 1294 131 1541 131 
Q 1797 131 2015 250 
Q 2234 369 2348 586 
Q 2463 803 2463 1072 
Q 2463 1303 2366 1462 
Q 2269 1622 2033 1765 
Q 1797 1909 1303 2128 
z
" transform="scale(0.015625)"/>
       </defs>
       <use xlink:href="#Palatino-Roman-30"/>
       <use xlink:href="#Palatino-Roman-2e" x="50"/>
       <use xlink:href="#Palatino-Roman-30" x="75"/>
       <use xlink:href="#Palatino-Roman-38" x="125"/>
      </g>
     </g>
    </g>
    <g id="xtick_22">
     <g id="line2d_27">
      <g>
       <use xlink:href="#meefd38740e" x="453.545455" y="441" style="stroke: #000000; stroke-width: 0.8"/>
      </g>
     </g>
     <g id="text_14">
      <!-- 0.10 -->
      <g transform="translate(444.795455 455.275)scale(0.1 -0.1)">
       <use xlink:href="#Palatino-Roman-30"/>
       <use xlink:href="#Palatino-Roman-2e" x="50"/>
       <use xlink:href="#Palatino-Roman-31" x="75"/>
       <use xlink:href="#Palatino-Roman-30" x="125"/>
      </g>
     </g>
    </g>
    <g id="xtick_23">
     <g id="line2d_28">
      <g>
       <use xlink:href="#meefd38740e" x="521.181818" y="441" style="stroke: #000000; stroke-width: 0.8"/>
      </g>
     </g>
     <g id="text_15">
      <!-- 0.12 -->
      <g transform="translate(512.431818 455.275)scale(0.1 -0.1)">
       <use xlink:href="#Palatino-Roman-30"/>
       <use xlink:href="#Palatino-Roman-2e" x="50"/>
       <use xlink:href="#Palatino-Roman-31" x="75"/>
       <use xlink:href="#Palatino-Roman-32" x="125"/>
      </g>
     </g>
    </g>
    <g id="xtick_24">
     <g id="line2d_29">
      <g>
       <use xlink:href="#meefd38740e" x="588.818182" y="441" style="stroke: #000000; stroke-width: 0.8"/>
      </g>
     </g>
     <g id="text_16">
      <!-- 0.14 -->
      <g transform="translate(580.068182 455.275)scale(0.1 -0.1)">
       <use xlink:href="#Palatino-Roman-30"/>
       <use xlink:href="#Palatino-Roman-2e" x="50"/>
       <use xlink:href="#Palatino-Roman-31" x="75"/>
       <use xlink:href="#Palatino-Roman-34" x="125"/>
      </g>
     </g>
    </g>
    <g id="text_17">
     <!-- Time [s] -->
     <g transform="translate(347.69625 470.759687)scale(0.12 -0.12)">
      <defs>
       <path id="Palatino-Roman-54" d="M 359 3406 
L 166 3406 
Q 163 4153 134 4441 
Q 475 4428 1203 4409 
Q 1794 4397 1991 4397 
Q 2203 4397 2975 4416 
Q 3534 4428 3791 4441 
Q 3753 4091 3741 3406 
L 3541 3406 
L 3516 3706 
Q 3491 3978 3481 4015 
Q 3472 4053 3455 4068 
Q 3438 4084 3403 4094 
Q 3359 4103 3090 4118 
Q 2822 4134 2666 4134 
L 2284 4134 
Q 2253 3834 2253 3325 
L 2253 1497 
Q 2253 1072 2263 669 
Q 2272 372 2308 315 
Q 2344 259 2423 232 
Q 2503 206 2875 200 
L 2875 0 
Q 2316 25 2034 25 
Q 1913 25 1059 0 
L 1059 200 
Q 1431 206 1512 232 
Q 1594 259 1622 306 
Q 1663 369 1672 609 
Q 1672 675 1684 1497 
L 1684 3319 
Q 1684 3450 1678 3606 
L 1659 4134 
L 1194 4134 
Q 791 4134 553 4103 
Q 478 4094 456 4063 
Q 422 4009 394 3722 
L 359 3406 
z
" transform="scale(0.015625)"/>
       <path id="Palatino-Roman-6d" d="M 131 0 
L 131 178 
L 428 181 
Q 494 184 530 204 
Q 566 225 584 256 
Q 619 319 628 478 
Q 628 519 647 1375 
L 647 1747 
Q 647 1997 638 2284 
Q 628 2469 608 2503 
Q 588 2538 538 2555 
Q 488 2572 131 2569 
L 131 2747 
Q 763 2834 1053 2975 
Q 1116 3006 1138 3006 
Q 1159 3006 1171 2990 
Q 1184 2975 1184 2944 
Q 1184 2922 1181 2894 
Q 1169 2744 1163 2447 
L 1572 2822 
Q 1650 2891 1669 2900 
Q 1741 2941 1875 2975 
Q 2009 3009 2156 3009 
Q 2456 3009 2690 2862 
Q 2925 2716 3050 2428 
L 3394 2747 
Q 3509 2853 3553 2878 
Q 3634 2925 3784 2965 
Q 3934 3006 4081 3006 
Q 4438 3006 4678 2817 
Q 4919 2628 4988 2388 
Q 5031 2228 5031 1700 
L 5031 1375 
L 5041 941 
Q 5050 563 5050 497 
Q 5056 341 5088 269 
Q 5100 241 5126 220 
Q 5153 200 5203 188 
Q 5222 184 5547 178 
L 5547 0 
Q 5153 19 5009 19 
Q 4872 19 4456 0 
L 4484 863 
L 4494 1200 
L 4494 1469 
Q 4494 1994 4441 2186 
Q 4388 2378 4217 2497 
Q 4047 2616 3822 2616 
Q 3563 2616 3353 2466 
Q 3197 2350 3147 2194 
Q 3097 2038 3097 1584 
L 3097 1375 
L 3106 941 
Q 3113 563 3116 497 
Q 3122 341 3153 269 
Q 3166 241 3191 220 
Q 3216 200 3266 188 
Q 3288 184 3613 178 
L 3613 0 
Q 3153 25 2875 25 
Q 2650 25 2056 0 
L 2056 178 
L 2353 181 
Q 2422 184 2458 204 
Q 2494 225 2513 256 
Q 2547 319 2553 478 
Q 2556 519 2572 1375 
L 2572 1619 
Q 2572 2022 2509 2208 
Q 2447 2394 2290 2505 
Q 2134 2616 1916 2616 
Q 1728 2616 1561 2536 
Q 1394 2456 1303 2337 
Q 1213 2219 1194 2084 
Q 1163 1869 1163 1566 
L 1163 1375 
Q 1181 563 1181 497 
Q 1188 341 1219 269 
Q 1231 241 1256 220 
Q 1281 200 1334 188 
Q 1353 184 1678 178 
L 1678 0 
Q 1247 25 944 25 
Q 675 25 131 0 
z
" transform="scale(0.015625)"/>
      </defs>
      <use xlink:href="#Palatino-Roman-54"/>
      <use xlink:href="#Palatino-Roman-69" x="55.779297"/>
      <use xlink:href="#Palatino-Roman-6d" x="84.880859"/>
      <use xlink:href="#Palatino-Roman-65" x="173.162109"/>
      <use xlink:href="#Palatino-Roman-20" x="221.0625"/>
      <use xlink:href="#Palatino-Roman-5b" x="246.0625"/>
      <use xlink:href="#Palatino-Roman-73" x="279.363281"/>
      <use xlink:href="#Palatino-Roman-5d" x="321.746094"/>
     </g>
    </g>
   </g>
   <g id="matplotlib.axis_6">
    <g id="ytick_5">
     <g id="line2d_30">
      <g>
       <use xlink:href="#m1f53e9c9ac" x="90" y="433.372966" style="stroke: #000000; stroke-width: 0.8"/>
      </g>
     </g>
     <g id="text_18">
      <!-- −10 -->
      <g transform="translate(66.940625 437.010466)scale(0.1 -0.1)">
       <use xlink:href="#Palatino-Roman-2212"/>
       <use xlink:href="#Palatino-Roman-31" x="60.595703"/>
       <use xlink:href="#Palatino-Roman-30" x="110.595703"/>
      </g>
     </g>
    </g>
    <g id="ytick_6">
     <g id="line2d_31">
      <g>
       <use xlink:href="#m1f53e9c9ac" x="90" y="402.210516" style="stroke: #000000; stroke-width: 0.8"/>
      </g>
     </g>
     <g id="text_19">
      <!-- −5 -->
      <g transform="translate(71.940625 405.848016)scale(0.1 -0.1)">
       <use xlink:href="#Palatino-Roman-2212"/>
       <use xlink:href="#Palatino-Roman-35" x="60.595703"/>
      </g>
     </g>
    </g>
    <g id="ytick_7">
     <g id="line2d_32">
      <g>
       <use xlink:href="#m1f53e9c9ac" x="90" y="371.048067" style="stroke: #000000; stroke-width: 0.8"/>
      </g>
     </g>
     <g id="text_20">
      <!-- 0 -->
      <g transform="translate(78 374.685567)scale(0.1 -0.1)">
       <use xlink:href="#Palatino-Roman-30"/>
      </g>
     </g>
    </g>
    <g id="ytick_8">
     <g id="line2d_33">
      <g>
       <use xlink:href="#m1f53e9c9ac" x="90" y="339.885617" style="stroke: #000000; stroke-width: 0.8"/>
      </g>
     </g>
     <g id="text_21">
      <!-- 5 -->
      <g transform="translate(78 343.523117)scale(0.1 -0.1)">
       <use xlink:href="#Palatino-Roman-35"/>
      </g>
     </g>
    </g>
    <g id="text_22">
     <!-- Voltage [μV] -->
     <g transform="translate(59.618125 418.608364)rotate(-90)scale(0.12 -0.12)">
      <use xlink:href="#Palatino-Roman-56"/>
      <use xlink:href="#Palatino-Roman-6f" x="61.091797"/>
      <use xlink:href="#Palatino-Roman-6c" x="115.681641"/>
      <use xlink:href="#Palatino-Roman-74" x="144.783203"/>
      <use xlink:href="#Palatino-Roman-61" x="177.400391"/>
      <use xlink:href="#Palatino-Roman-67" x="227.400391"/>
      <use xlink:href="#Palatino-Roman-65" x="283.015625"/>
      <use xlink:href="#Palatino-Roman-20" x="330.916016"/>
      <use xlink:href="#Palatino-Roman-5b" x="355.916016"/>
      <use xlink:href="#Palatino-Roman-3bc" x="389.216797"/>
      <use xlink:href="#Palatino-Roman-56" x="453.914062"/>
      <use xlink:href="#Palatino-Roman-5d" x="526.130859"/>
     </g>
    </g>
   </g>
   <g id="line2d_34">
    <path d="M 115.363636 389.875861 
L 134.025844 389.875861 
L 137.418972 357.791859 
L 161.170873 357.791859 
L 164.564001 389.875861 
L 166.260566 389.875861 
L 169.653694 421.959864 
L 171.350258 421.959864 
L 173.046823 405.917862 
L 174.743387 405.917862 
L 176.439951 389.875861 
L 178.136516 389.875861 
L 181.529644 357.791859 
L 184.922773 357.791859 
L 188.315901 389.875861 
L 208.674673 389.875861 
L 210.371237 405.917862 
L 213.764366 405.917862 
L 215.46093 389.875861 
L 222.247188 389.875861 
L 223.943752 373.83386 
L 225.640316 373.83386 
L 227.336881 357.791859 
L 247.695652 357.791859 
L 249.392216 341.749857 
L 252.785345 341.749857 
L 256.178474 373.83386 
L 266.35786 373.83386 
L 268.054424 357.791859 
L 291.806324 357.791859 
L 295.199453 389.875861 
L 303.682274 389.875861 
L 305.378839 373.83386 
L 310.468531 373.83386 
L 312.165096 357.791859 
L 315.558224 357.791859 
L 317.254789 373.83386 
L 339.310125 373.83386 
L 341.006689 389.875861 
L 349.48951 389.875861 
L 351.186075 373.83386 
L 354.579203 373.83386 
L 356.275768 357.791859 
L 363.062025 357.791859 
L 364.758589 341.749857 
L 366.455154 341.749857 
L 368.151718 357.791859 
L 378.331104 357.791859 
L 380.027668 373.83386 
L 390.207054 373.83386 
L 393.600182 405.917862 
L 407.172697 405.917862 
L 412.26239 357.791859 
L 415.655518 357.791859 
L 417.352083 373.83386 
L 436.01429 373.83386 
L 437.710854 389.875861 
L 446.193676 389.875861 
L 447.89024 373.83386 
L 461.462755 373.83386 
L 463.159319 357.791859 
L 476.731833 357.791859 
L 478.428398 341.749857 
L 481.821526 341.749857 
L 485.214655 373.83386 
L 488.607784 373.83386 
L 490.304348 389.875861 
L 497.090605 389.875861 
L 500.483734 357.791859 
L 507.269991 357.791859 
L 508.966555 373.83386 
L 539.504713 373.83386 
L 541.201277 357.791859 
L 553.077227 357.791859 
L 554.773791 373.83386 
L 556.470356 373.83386 
L 558.16692 389.875861 
L 563.256613 389.875861 
L 564.953177 373.83386 
L 566.649742 373.83386 
L 570.04287 341.749857 
L 573.435999 341.749857 
L 576.829127 373.83386 
L 580.222256 373.83386 
L 581.91882 389.875861 
L 598.884463 389.875861 
L 600.581028 373.83386 
L 612.456978 373.83386 
L 614.153542 389.875861 
L 622.636364 389.875861 
L 622.636364 389.875861 
" clip-path="url(#p3c27a418bb)" style="fill: none; stroke: #000000; stroke-width: 1.5; stroke-linecap: square"/>
   </g>
   <g id="patch_13">
    <path d="M 90 441 
L 90 329.082353 
" style="fill: none; stroke: #000000; stroke-width: 0.8; stroke-linejoin: miter; stroke-linecap: square"/>
   </g>
   <g id="patch_14">
    <path d="M 648 441 
L 648 329.082353 
" style="fill: none; stroke: #000000; stroke-width: 0.8; stroke-linejoin: miter; stroke-linecap: square"/>
   </g>
   <g id="patch_15">
    <path d="M 90 441 
L 648 441 
" style="fill: none; stroke: #000000; stroke-width: 0.8; stroke-linejoin: miter; stroke-linecap: square"/>
   </g>
   <g id="patch_16">
    <path d="M 90 329.082353 
L 648 329.082353 
" style="fill: none; stroke: #000000; stroke-width: 0.8; stroke-linejoin: miter; stroke-linecap: square"/>
   </g>
   <g id="text_23">
    <!-- Reconstructed Signal -->
    <g transform="translate(313.111875 323.082353)scale(0.12 -0.12)">
     <use xlink:href="#Palatino-Roman-52"/>
     <use xlink:href="#Palatino-Roman-65" x="66.796875"/>
     <use xlink:href="#Palatino-Roman-63" x="114.697266"/>
     <use xlink:href="#Palatino-Roman-6f" x="159.082031"/>
     <use xlink:href="#Palatino-Roman-6e" x="213.671875"/>
     <use xlink:href="#Palatino-Roman-73" x="271.875"/>
     <use xlink:href="#Palatino-Roman-74" x="314.257812"/>
     <use xlink:href="#Palatino-Roman-72" x="346.875"/>
     <use xlink:href="#Palatino-Roman-75" x="385.626953"/>
     <use xlink:href="#Palatino-Roman-63" x="445.929688"/>
     <use xlink:href="#Palatino-Roman-74" x="490.314453"/>
     <use xlink:href="#Palatino-Roman-65" x="522.931641"/>
     <use xlink:href="#Palatino-Roman-64" x="570.832031"/>
     <use xlink:href="#Palatino-Roman-20" x="631.916016"/>
     <use xlink:href="#Palatino-Roman-53" x="656.916016"/>
     <use xlink:href="#Palatino-Roman-69" x="709.40625"/>
     <use xlink:href="#Palatino-Roman-67" x="738.507812"/>
     <use xlink:href="#Palatino-Roman-6e" x="794.123047"/>
     <use xlink:href="#Palatino-Roman-61" x="852.326172"/>
     <use xlink:href="#Palatino-Roman-6c" x="902.326172"/>
    </g>
   </g>
  </g>
 </g>
 <defs>
  <clipPath id="p4bbf1d5982">
   <rect x="90" y="60.48" width="558" height="111.917647"/>
  </clipPath>
  <clipPath id="pc660e7d15c">
   <rect x="90" y="194.781176" width="558" height="111.917647"/>
  </clipPath>
  <clipPath id="p3c27a418bb">
   <rect x="90" y="329.082353" width="558" height="111.917647"/>
  </clipPath>
 </defs>
</svg>
